<svg width="1200" height="976" viewBox="0 0 1200 976" fill="none" xmlns="http://www.w3.org/2000/svg">
<g opacity="0.6">
<path d="M917.602 236.905L917.602 236.904C915.971 224.764 914.339 215.193 913.122 208.681C912.974 207.894 912.833 207.152 912.699 206.455C816.147 225.214 737.527 201.462 682.637 172.542C654.47 157.702 632.527 141.492 617.544 128.939C610.049 122.659 604.286 117.285 600.35 113.445C600.23 113.328 600.111 113.212 599.994 113.097C599.877 113.212 599.758 113.329 599.637 113.447C595.7 117.286 589.937 122.659 582.441 128.939C567.459 141.492 545.517 157.702 517.353 172.542C462.469 201.462 383.857 225.214 287.305 206.455C287.171 207.152 287.029 207.895 286.882 208.682C285.663 215.194 284.029 224.765 282.393 236.904L917.602 236.905ZM917.602 236.905C925.517 295.739 933.388 414.191 895.178 537.46C857.296 659.675 774.114 786.756 599.998 865.501M917.602 236.905L599.998 865.501M599.998 865.501C425.886 786.756 342.707 659.675 304.824 537.46C266.615 414.192 274.483 295.743 282.393 236.907L599.998 865.501ZM594.457 107.495C594.45 107.488 594.45 107.487 594.456 107.493C594.456 107.494 594.457 107.494 594.457 107.495Z" stroke="#FFEEE1" stroke-width="16"/>
<path d="M854.74 285.21L854.739 285.209C853.427 275.432 852.114 267.728 851.136 262.492C851.118 262.399 851.101 262.307 851.084 262.215C773.437 276.906 710.166 257.712 665.921 234.384C643.074 222.337 625.274 209.179 613.117 198.986C607.519 194.291 603.109 190.219 599.947 187.164C596.784 190.219 592.374 194.291 586.775 198.986C574.618 209.179 556.82 222.337 533.975 234.384C489.735 257.712 426.47 276.906 348.823 262.215C348.806 262.307 348.788 262.4 348.771 262.494C347.791 267.73 346.477 275.434 345.161 285.21C345.161 285.211 345.161 285.211 345.161 285.212M854.74 285.21L345.161 285.212M854.74 285.21C861.113 332.618 867.441 428.033 836.698 527.291C806.281 625.492 739.573 727.581 599.95 790.991M854.74 285.21L599.95 790.991M345.161 285.212C338.791 332.621 332.465 428.035 363.208 527.291C393.625 625.492 460.331 727.582 599.95 790.991M345.161 285.212L599.95 790.991" stroke="#FFEEE1" stroke-width="16"/>
<g filter="url(#filter0_b_329_8215)">
<path d="M792.869 333.745L792.868 333.744C791.999 327.275 791.13 322.003 790.43 318.126C731.41 328.794 683.263 314.122 649.507 296.337C631.899 287.06 618.18 276.927 608.806 269.073C605.21 266.06 602.248 263.377 599.945 261.201C597.643 263.377 594.68 266.059 591.084 269.073C581.709 276.927 567.992 287.059 550.386 296.337C516.633 314.122 468.491 328.794 409.47 318.126C408.769 322.003 407.899 327.275 407.027 333.744L792.869 333.745ZM792.869 333.745C797.723 369.827 802.533 442.409 779.143 517.865C756.081 592.265 705.6 669.589 599.948 717.8M792.869 333.745L599.948 717.8M599.948 717.8C494.299 669.589 443.819 592.265 420.757 517.865C397.368 442.41 402.176 369.83 407.027 333.747L599.948 717.8Z" stroke="#FFEEE1" stroke-width="16"/>
</g>
</g>
<defs>
<filter id="filter0_b_329_8215" x="334.197" y="189.111" width="531.505" height="598.29" filterUnits="userSpaceOnUse" color-interpolation-filters="sRGB">
<feFlood flood-opacity="0" result="BackgroundImageFix"/>
<feGaussianBlur in="BackgroundImageFix" stdDeviation="30.4125"/>
<feComposite in2="SourceAlpha" operator="in" result="effect1_backgroundBlur_329_8215"/>
<feBlend mode="normal" in="SourceGraphic" in2="effect1_backgroundBlur_329_8215" result="shape"/>
</filter>
</defs>
</svg>
