<svg width="315" height="341" viewBox="0 0 315 341" fill="none" xmlns="http://www.w3.org/2000/svg">
<g filter="url(#filter0_b_244_15288)">
<path d="M297.976 246.292C270.116 292.134 218.735 321.144 162.23 316.962C134.997 314.976 110.064 305.515 89.2086 290.722C111.842 307.867 139.545 318.948 170.019 321.196C224.746 325.221 274.768 299.817 304.771 258.419C302.628 254.342 300.485 250.213 297.976 246.292Z" fill="#E8EFFA"/>
<path d="M297.976 246.292C270.116 292.134 218.735 321.144 162.23 316.962C134.997 314.976 110.064 305.515 89.2086 290.722C111.842 307.867 139.545 318.948 170.019 321.196C224.746 325.221 274.768 299.817 304.771 258.419C302.628 254.342 300.485 250.213 297.976 246.292Z" fill="url(#paint0_linear_244_15288)"/>
</g>
<g filter="url(#filter1_b_244_15288)">
<path d="M314.965 95.91C290.92 52.0552 246.02 20.8498 192.443 16.8773C159.094 14.4206 127.471 22.8884 101.074 39.249C125.485 25.1883 154.076 18.0795 184.132 20.2748C237.813 24.2474 282.452 57.1254 304.667 102.81C308.065 100.51 311.462 98.2099 314.965 95.91Z" fill="#E8EFFA"/>
<path d="M314.965 95.91C290.92 52.0552 246.02 20.8498 192.443 16.8773C159.094 14.4206 127.471 22.8884 101.074 39.249C125.485 25.1883 154.076 18.0795 184.132 20.2748C237.813 24.2474 282.452 57.1254 304.667 102.81C308.065 100.51 311.462 98.2099 314.965 95.91Z" fill="url(#paint1_linear_244_15288)"/>
</g>
<g filter="url(#filter2_b_244_15288)">
<path d="M179.427 336.04C86.961 336.04 12.0053 261.712 12.0053 170.029C12.0053 78.3473 86.961 4.01891 179.427 4.01891C202.531 4.01891 224.484 8.67098 244.504 17.0342C222.08 6.21427 196.99 0.0986328 170.437 0.0986328C76.3501 0.0986328 0.0354004 76.3611 0.0354004 170.5C0.0354004 264.639 76.2978 340.901 170.437 340.901C202.897 340.901 233.213 331.806 259.035 316.073C235.304 328.827 208.228 336.04 179.427 336.04Z" fill="#E8EFFA"/>
<path d="M179.427 336.04C86.961 336.04 12.0053 261.712 12.0053 170.029C12.0053 78.3473 86.961 4.01891 179.427 4.01891C202.531 4.01891 224.484 8.67098 244.504 17.0342C222.08 6.21427 196.99 0.0986328 170.437 0.0986328C76.3501 0.0986328 0.0354004 76.3611 0.0354004 170.5C0.0354004 264.639 76.2978 340.901 170.437 340.901C202.897 340.901 233.213 331.806 259.035 316.073C235.304 328.827 208.228 336.04 179.427 336.04Z" fill="url(#paint2_linear_244_15288)"/>
</g>
<g filter="url(#filter3_b_244_15288)">
<path d="M110.22 158.269C110.377 158.269 110.586 158.321 110.743 158.373C112.468 159.523 113.984 158.896 115.657 158.112C117.956 157.014 120.361 156.178 122.713 155.185C125.483 154.035 128.411 153.826 131.338 153.617C133.115 153.46 134.526 154.087 135.572 155.394C136.303 156.335 136.826 157.38 137.244 158.478C137.871 160.203 139.492 161.039 141.478 160.778C143.099 160.516 144.719 160.307 146.339 160.046C147.071 159.941 147.646 160.046 148.273 160.412C151.462 162.45 152.298 164.123 151.2 167.468C150.469 169.82 150.155 172.173 149.998 174.577C149.946 175.413 149.789 176.093 148.691 176.354C148.012 176.511 147.907 177.086 148.169 177.557C149.319 179.961 150.05 182.627 152.35 184.508C153.344 185.293 154.128 186.181 154.912 187.122C180.21 201.34 215.023 217.334 254.748 226.011C255.271 225.122 255.166 224.077 254.957 223.136C254.225 220.105 254.382 217.021 254.591 213.989C254.748 212.055 254.539 210.33 253.18 208.553C251.089 205.782 250.096 202.646 251.455 199.249C251.716 198.569 251.35 198.046 250.88 197.576C249.416 196.217 249.103 194.806 250.044 192.924C251.35 190.206 253.284 187.697 253.964 184.718C254.068 184.195 254.591 183.933 255.009 183.62C255.637 183.202 256.159 182.679 256.734 182.156C255.271 164.175 257.414 146.194 261.229 129.729C260.236 128.684 259.243 127.586 258.041 126.697C256.682 125.652 255.532 124.345 254.068 123.404C253.912 123.3 253.703 123.195 253.703 123.039C253.65 121.523 252.657 120.948 251.089 120.739C250.41 120.634 249.939 120.007 249.782 119.327C249.573 118.439 249.26 117.602 249.051 116.714C248.58 115.093 247.691 113.682 246.28 112.584C245.967 112.375 245.757 112.114 245.496 111.853C241.576 157.642 248.005 191.931 248.005 191.931C238.231 163.496 238.962 132.447 242.674 107.148C242.517 106.312 242.412 105.371 242.464 104.43C242.569 102.287 241.262 100.458 239.955 98.7851C239.433 98.1056 238.649 97.5306 237.969 96.9556C237.237 96.2761 236.819 95.4921 236.924 94.5512C237.028 93.7671 236.872 92.9831 236.244 92.3559C233.997 90.1082 233.056 87.1811 231.279 84.6721C231.07 84.4108 230.86 84.0449 230.913 83.7835C231.017 81.7972 229.606 80.5427 228.351 79.1314C226.156 76.727 225.163 73.8521 224.693 70.8205C224.222 67.4752 223.333 66.8479 219.57 67.4229C218.106 67.632 216.747 67.9979 215.493 68.7819C214.918 69.1478 214.343 69.2001 213.716 69.2001C215.493 132.29 235.199 181.163 235.199 181.163C213.559 143.947 210.58 98.6283 211.573 68.8342C208.646 68.0501 205.718 67.3706 202.687 67.1093C202.269 67.057 201.85 66.9525 201.589 66.6388C200.648 65.5934 199.394 65.4366 198.035 65.4366C196.728 65.4366 195.839 64.9662 194.898 64.0776C193.539 62.8231 191.658 62.1436 189.567 62.5618C188.312 62.8231 187.162 63.2935 186.065 63.9208C184.497 64.8616 183.451 66.0639 183.974 67.8933C184.078 68.2592 184.026 68.7297 184.026 69.0955C183.974 70.925 182.144 71.9181 180.524 70.8727C179.113 69.9319 177.649 69.3046 176.081 68.8342C190.246 132.97 219.727 181.163 219.727 181.163C190.09 144.626 177.911 100.092 172.945 68.1547C172.684 68.1024 172.474 68.0501 172.213 68.0501C171.063 67.9456 170.54 67.1615 170.227 66.2207C169.861 65.0707 169.025 64.548 167.875 64.0253C165.836 63.0322 163.693 62.5095 161.393 62.5095C159.825 62.5095 158.361 61.8822 157.368 60.68C156.689 59.896 155.957 59.4778 154.807 59.6346C154.389 59.6869 153.814 59.6869 153.657 59.2165C153.448 58.6938 153.866 58.3801 154.232 58.0665C154.807 57.6483 155.539 57.4915 156.218 57.3347C156.637 57.2302 157.212 57.0211 156.95 56.6552C156.166 55.453 157.055 53.7281 155.278 52.8395C154.65 52.5258 154.807 51.8986 155.225 51.4282C155.539 51.0623 155.905 50.7486 156.166 50.3828C156.584 49.9123 156.584 49.3896 156.218 48.9192C155.852 48.3965 155.382 48.3442 154.807 48.501C153.971 48.8147 153.291 48.5533 152.821 47.8738C151.932 47.8738 150.991 47.8738 150.103 47.8738C148.587 48.5533 147.019 48.9192 145.346 48.3965C144.876 48.2397 144.353 48.292 143.883 48.501C143.621 48.6056 143.255 48.7624 143.099 48.6578C141.739 47.8215 140.59 48.6056 139.492 49.076C138.499 49.4942 137.662 49.4942 136.565 49.2328C134.892 48.7624 133.115 49.1805 131.442 49.4419C129.195 49.8078 126.947 50.1214 124.752 50.6441C123.968 50.8532 123.236 51.1146 122.504 51.3759C151.462 132.813 212.723 191.983 212.723 191.983C148.169 144.313 125.536 63.3981 122.504 51.5327C120.57 52.2122 118.688 52.9963 117.016 54.1985C115.97 54.9826 114.82 55.3485 113.618 54.9303C112.259 54.4599 110.9 54.5121 109.436 54.6167C107.659 54.7212 105.83 54.8257 105.046 52.8395C104.837 52.3168 104.157 52.369 103.582 52.5781C102.955 52.7872 102.537 53.2576 102.223 53.7803C101.7 54.6167 101.178 55.5053 100.655 56.3416C99.5051 58.3279 97.8847 59.8437 95.5848 60.7846C90.8804 62.7186 89.051 66.2729 89.051 70.6637C89.051 72.2318 88.6328 73.434 87.4829 74.5317C85.0784 76.8838 82.5172 78.9746 78.9105 79.7064C77.8651 79.9155 77.1856 80.595 76.872 81.5359C76.4016 82.7381 75.6175 83.7312 74.5198 84.6198C73.0563 85.7698 72.2199 87.3379 71.6972 89.0106C71.2791 90.265 70.5996 91.3104 69.5541 92.2513C68.3519 93.2967 67.5156 94.5512 67.0975 96.0148C66.7838 97.0602 66.2611 98.001 65.4248 98.7851C63.9089 100.092 63.7521 101.817 63.6476 103.542C63.5953 104.535 64.4317 105.058 65.268 105.528C66.052 105.998 66.7838 106.364 65.7384 107.357C65.0066 108.037 65.1634 109.135 65.6861 109.919C66.9929 112.114 66.6793 114.257 65.7907 116.452C65.268 117.707 64.7975 119.014 64.5362 120.32C64.1703 121.889 63.4908 123.3 61.8181 124.084C61.0864 124.45 61.2432 124.92 61.7136 125.234C63.8044 126.488 63.7521 128.37 63.6476 130.252C63.5431 131.715 63.6476 133.127 64.8498 134.277C65.268 134.695 65.1634 135.165 65.0589 135.688C64.7975 137.308 65.5816 137.936 67.2543 137.57C68.1429 137.361 68.8224 137.517 69.3451 138.249C70.4427 139.713 72.0108 140.81 73.2653 142.17C74.2585 143.267 74.8334 144.417 74.7812 145.828C74.6766 147.971 75.722 149.487 77.9697 150.324C80.8445 151.421 82.9354 153.46 85.2352 155.237C87.0647 156.648 88.7896 158.164 90.7759 159.419C92.5008 160.516 94.3826 160.83 96.1598 159.785C100.603 157.119 105.412 157.903 110.22 158.269ZM226.731 209.703C132.069 170.761 84.9216 79.0269 84.9216 79.0269C139.178 160.098 226.731 209.703 226.731 209.703ZM63.8567 122.777L105.882 157.223H98.3028C98.3028 157.223 64.9021 127.952 63.8567 122.777Z" fill="#E8EFFA"/>
<path d="M110.22 158.269C110.377 158.269 110.586 158.321 110.743 158.373C112.468 159.523 113.984 158.896 115.657 158.112C117.956 157.014 120.361 156.178 122.713 155.185C125.483 154.035 128.411 153.826 131.338 153.617C133.115 153.46 134.526 154.087 135.572 155.394C136.303 156.335 136.826 157.38 137.244 158.478C137.871 160.203 139.492 161.039 141.478 160.778C143.099 160.516 144.719 160.307 146.339 160.046C147.071 159.941 147.646 160.046 148.273 160.412C151.462 162.45 152.298 164.123 151.2 167.468C150.469 169.82 150.155 172.173 149.998 174.577C149.946 175.413 149.789 176.093 148.691 176.354C148.012 176.511 147.907 177.086 148.169 177.557C149.319 179.961 150.05 182.627 152.35 184.508C153.344 185.293 154.128 186.181 154.912 187.122C180.21 201.34 215.023 217.334 254.748 226.011C255.271 225.122 255.166 224.077 254.957 223.136C254.225 220.105 254.382 217.021 254.591 213.989C254.748 212.055 254.539 210.33 253.18 208.553C251.089 205.782 250.096 202.646 251.455 199.249C251.716 198.569 251.35 198.046 250.88 197.576C249.416 196.217 249.103 194.806 250.044 192.924C251.35 190.206 253.284 187.697 253.964 184.718C254.068 184.195 254.591 183.933 255.009 183.62C255.637 183.202 256.159 182.679 256.734 182.156C255.271 164.175 257.414 146.194 261.229 129.729C260.236 128.684 259.243 127.586 258.041 126.697C256.682 125.652 255.532 124.345 254.068 123.404C253.912 123.3 253.703 123.195 253.703 123.039C253.65 121.523 252.657 120.948 251.089 120.739C250.41 120.634 249.939 120.007 249.782 119.327C249.573 118.439 249.26 117.602 249.051 116.714C248.58 115.093 247.691 113.682 246.28 112.584C245.967 112.375 245.757 112.114 245.496 111.853C241.576 157.642 248.005 191.931 248.005 191.931C238.231 163.496 238.962 132.447 242.674 107.148C242.517 106.312 242.412 105.371 242.464 104.43C242.569 102.287 241.262 100.458 239.955 98.7851C239.433 98.1056 238.649 97.5306 237.969 96.9556C237.237 96.2761 236.819 95.4921 236.924 94.5512C237.028 93.7671 236.872 92.9831 236.244 92.3559C233.997 90.1082 233.056 87.1811 231.279 84.6721C231.07 84.4108 230.86 84.0449 230.913 83.7835C231.017 81.7972 229.606 80.5427 228.351 79.1314C226.156 76.727 225.163 73.8521 224.693 70.8205C224.222 67.4752 223.333 66.8479 219.57 67.4229C218.106 67.632 216.747 67.9979 215.493 68.7819C214.918 69.1478 214.343 69.2001 213.716 69.2001C215.493 132.29 235.199 181.163 235.199 181.163C213.559 143.947 210.58 98.6283 211.573 68.8342C208.646 68.0501 205.718 67.3706 202.687 67.1093C202.269 67.057 201.85 66.9525 201.589 66.6388C200.648 65.5934 199.394 65.4366 198.035 65.4366C196.728 65.4366 195.839 64.9662 194.898 64.0776C193.539 62.8231 191.658 62.1436 189.567 62.5618C188.312 62.8231 187.162 63.2935 186.065 63.9208C184.497 64.8616 183.451 66.0639 183.974 67.8933C184.078 68.2592 184.026 68.7297 184.026 69.0955C183.974 70.925 182.144 71.9181 180.524 70.8727C179.113 69.9319 177.649 69.3046 176.081 68.8342C190.246 132.97 219.727 181.163 219.727 181.163C190.09 144.626 177.911 100.092 172.945 68.1547C172.684 68.1024 172.474 68.0501 172.213 68.0501C171.063 67.9456 170.54 67.1615 170.227 66.2207C169.861 65.0707 169.025 64.548 167.875 64.0253C165.836 63.0322 163.693 62.5095 161.393 62.5095C159.825 62.5095 158.361 61.8822 157.368 60.68C156.689 59.896 155.957 59.4778 154.807 59.6346C154.389 59.6869 153.814 59.6869 153.657 59.2165C153.448 58.6938 153.866 58.3801 154.232 58.0665C154.807 57.6483 155.539 57.4915 156.218 57.3347C156.637 57.2302 157.212 57.0211 156.95 56.6552C156.166 55.453 157.055 53.7281 155.278 52.8395C154.65 52.5258 154.807 51.8986 155.225 51.4282C155.539 51.0623 155.905 50.7486 156.166 50.3828C156.584 49.9123 156.584 49.3896 156.218 48.9192C155.852 48.3965 155.382 48.3442 154.807 48.501C153.971 48.8147 153.291 48.5533 152.821 47.8738C151.932 47.8738 150.991 47.8738 150.103 47.8738C148.587 48.5533 147.019 48.9192 145.346 48.3965C144.876 48.2397 144.353 48.292 143.883 48.501C143.621 48.6056 143.255 48.7624 143.099 48.6578C141.739 47.8215 140.59 48.6056 139.492 49.076C138.499 49.4942 137.662 49.4942 136.565 49.2328C134.892 48.7624 133.115 49.1805 131.442 49.4419C129.195 49.8078 126.947 50.1214 124.752 50.6441C123.968 50.8532 123.236 51.1146 122.504 51.3759C151.462 132.813 212.723 191.983 212.723 191.983C148.169 144.313 125.536 63.3981 122.504 51.5327C120.57 52.2122 118.688 52.9963 117.016 54.1985C115.97 54.9826 114.82 55.3485 113.618 54.9303C112.259 54.4599 110.9 54.5121 109.436 54.6167C107.659 54.7212 105.83 54.8257 105.046 52.8395C104.837 52.3168 104.157 52.369 103.582 52.5781C102.955 52.7872 102.537 53.2576 102.223 53.7803C101.7 54.6167 101.178 55.5053 100.655 56.3416C99.5051 58.3279 97.8847 59.8437 95.5848 60.7846C90.8804 62.7186 89.051 66.2729 89.051 70.6637C89.051 72.2318 88.6328 73.434 87.4829 74.5317C85.0784 76.8838 82.5172 78.9746 78.9105 79.7064C77.8651 79.9155 77.1856 80.595 76.872 81.5359C76.4016 82.7381 75.6175 83.7312 74.5198 84.6198C73.0563 85.7698 72.2199 87.3379 71.6972 89.0106C71.2791 90.265 70.5996 91.3104 69.5541 92.2513C68.3519 93.2967 67.5156 94.5512 67.0975 96.0148C66.7838 97.0602 66.2611 98.001 65.4248 98.7851C63.9089 100.092 63.7521 101.817 63.6476 103.542C63.5953 104.535 64.4317 105.058 65.268 105.528C66.052 105.998 66.7838 106.364 65.7384 107.357C65.0066 108.037 65.1634 109.135 65.6861 109.919C66.9929 112.114 66.6793 114.257 65.7907 116.452C65.268 117.707 64.7975 119.014 64.5362 120.32C64.1703 121.889 63.4908 123.3 61.8181 124.084C61.0864 124.45 61.2432 124.92 61.7136 125.234C63.8044 126.488 63.7521 128.37 63.6476 130.252C63.5431 131.715 63.6476 133.127 64.8498 134.277C65.268 134.695 65.1634 135.165 65.0589 135.688C64.7975 137.308 65.5816 137.936 67.2543 137.57C68.1429 137.361 68.8224 137.517 69.3451 138.249C70.4427 139.713 72.0108 140.81 73.2653 142.17C74.2585 143.267 74.8334 144.417 74.7812 145.828C74.6766 147.971 75.722 149.487 77.9697 150.324C80.8445 151.421 82.9354 153.46 85.2352 155.237C87.0647 156.648 88.7896 158.164 90.7759 159.419C92.5008 160.516 94.3826 160.83 96.1598 159.785C100.603 157.119 105.412 157.903 110.22 158.269ZM226.731 209.703C132.069 170.761 84.9216 79.0269 84.9216 79.0269C139.178 160.098 226.731 209.703 226.731 209.703ZM63.8567 122.777L105.882 157.223H98.3028C98.3028 157.223 64.9021 127.952 63.8567 122.777Z" fill="url(#paint3_linear_244_15288)"/>
<path d="M236.347 254.133C236.766 252.826 236.818 251.624 236.713 250.37C213.505 259.674 189.879 264.169 169.075 266.103C169.232 266.573 169.337 266.992 169.494 267.462C169.807 268.351 170.173 269.239 170.905 269.971C173.153 272.271 174.459 274.989 175.661 277.759C176.027 278.596 176.55 279.432 177.021 280.216C200.176 273.264 220.353 264.901 235.616 257.687C236.034 257.113 236.295 256.433 236.243 255.492C236.086 255.126 236.191 254.604 236.347 254.133Z" fill="#E8EFFA"/>
<path d="M236.347 254.133C236.766 252.826 236.818 251.624 236.713 250.37C213.505 259.674 189.879 264.169 169.075 266.103C169.232 266.573 169.337 266.992 169.494 267.462C169.807 268.351 170.173 269.239 170.905 269.971C173.153 272.271 174.459 274.989 175.661 277.759C176.027 278.596 176.55 279.432 177.021 280.216C200.176 273.264 220.353 264.901 235.616 257.687C236.034 257.113 236.295 256.433 236.243 255.492C236.086 255.126 236.191 254.604 236.347 254.133Z" fill="url(#paint4_linear_244_15288)"/>
<path d="M286.267 134.486C284.176 135.897 281.563 135.897 279.106 136.263C275.499 136.838 271.893 137.361 268.547 138.563C267.554 138.929 266.718 138.772 266.038 138.145C265.307 137.465 264.679 136.681 264 135.897C260.184 155.237 258.668 171.18 258.041 180.954C258.825 180.17 259.557 179.334 260.184 178.445C262.902 174.734 266.038 171.284 270.272 168.723C273.042 167.05 275.081 164.594 277.276 162.398C280.047 159.628 281.981 156.439 283.444 152.937C284.437 150.585 285.849 148.337 286.999 146.038C287.783 144.522 288.515 142.954 288.724 141.281C288.776 140.706 289.089 140.183 289.508 139.765C289.508 137.883 289.508 136.002 289.508 134.12C288.41 133.493 287.417 133.702 286.267 134.486Z" fill="#E8EFFA"/>
<path d="M286.267 134.486C284.176 135.897 281.563 135.897 279.106 136.263C275.499 136.838 271.893 137.361 268.547 138.563C267.554 138.929 266.718 138.772 266.038 138.145C265.307 137.465 264.679 136.681 264 135.897C260.184 155.237 258.668 171.18 258.041 180.954C258.825 180.17 259.557 179.334 260.184 178.445C262.902 174.734 266.038 171.284 270.272 168.723C273.042 167.05 275.081 164.594 277.276 162.398C280.047 159.628 281.981 156.439 283.444 152.937C284.437 150.585 285.849 148.337 286.999 146.038C287.783 144.522 288.515 142.954 288.724 141.281C288.776 140.706 289.089 140.183 289.508 139.765C289.508 137.883 289.508 136.002 289.508 134.12C288.41 133.493 287.417 133.702 286.267 134.486Z" fill="url(#paint5_linear_244_15288)"/>
<path d="M162.857 201.914C163.275 202.855 163.588 203.743 162.595 204.58C162.02 205.05 162.334 205.73 162.543 206.305C163.222 207.977 163.954 209.702 164.268 211.479C164.738 213.884 164.634 216.079 162.438 217.909L162.386 217.961C205.352 228.729 241.523 230.14 251.873 230.297C253.023 228.99 253.911 227.526 254.748 226.011C254.748 226.011 206.502 220.522 159.825 195.223C160.557 197.523 161.811 199.666 162.857 201.914Z" fill="#E8EFFA"/>
<path d="M162.857 201.914C163.275 202.855 163.588 203.743 162.595 204.58C162.02 205.05 162.334 205.73 162.543 206.305C163.222 207.977 163.954 209.702 164.268 211.479C164.738 213.884 164.634 216.079 162.438 217.909L162.386 217.961C205.352 228.729 241.523 230.14 251.873 230.297C253.023 228.99 253.911 227.526 254.748 226.011C254.748 226.011 206.502 220.522 159.825 195.223C160.557 197.523 161.811 199.666 162.857 201.914Z" fill="url(#paint6_linear_244_15288)"/>
<path d="M178.484 284.24C178.38 284.71 178.171 285.128 177.596 285.599C176.707 286.278 177.178 288.108 178.171 288.683C178.798 288.996 178.641 289.362 178.484 289.833C178.119 291.139 178.328 291.453 179.791 291.662C181.046 291.819 181.987 292.394 182.718 293.282C183.241 293.282 183.816 293.282 184.339 293.282C185.332 292.446 186.43 292.028 187.789 292.08C188.625 292.132 189.461 292.028 190.193 291.662C192.232 290.721 194.427 290.617 196.622 290.878C199.968 291.244 203.052 290.408 205.979 289.101C210.474 287.115 213.976 284.031 217.164 280.633C218.576 279.117 219.987 277.654 221.032 275.876C221.607 274.936 222.392 274.099 223.332 273.472C225.946 271.643 226.939 269.134 227.148 266.52C210.631 274.622 193.904 280.267 178.484 284.24Z" fill="#E8EFFA"/>
<path d="M178.484 284.24C178.38 284.71 178.171 285.128 177.596 285.599C176.707 286.278 177.178 288.108 178.171 288.683C178.798 288.996 178.641 289.362 178.484 289.833C178.119 291.139 178.328 291.453 179.791 291.662C181.046 291.819 181.987 292.394 182.718 293.282C183.241 293.282 183.816 293.282 184.339 293.282C185.332 292.446 186.43 292.028 187.789 292.08C188.625 292.132 189.461 292.028 190.193 291.662C192.232 290.721 194.427 290.617 196.622 290.878C199.968 291.244 203.052 290.408 205.979 289.101C210.474 287.115 213.976 284.031 217.164 280.633C218.576 279.117 219.987 277.654 221.032 275.876C221.607 274.936 222.392 274.099 223.332 273.472C225.946 271.643 226.939 269.134 227.148 266.52C210.631 274.622 193.904 280.267 178.484 284.24Z" fill="url(#paint7_linear_244_15288)"/>
<path d="M234.677 242.843C235.147 242.32 235.618 241.85 236.14 241.379C210.685 247.233 185.543 247.704 163.694 245.927C164.112 246.711 164.478 247.443 164.896 248.174C165.941 250.108 166.36 252.199 166.621 254.29C166.935 256.903 167.353 259.465 167.928 262.026C195.265 258.367 218.996 252.251 235.931 247.024C235.566 246.136 235.147 245.247 234.625 244.359C234.259 243.784 234.206 243.313 234.677 242.843Z" fill="#E8EFFA"/>
<path d="M234.677 242.843C235.147 242.32 235.618 241.85 236.14 241.379C210.685 247.233 185.543 247.704 163.694 245.927C164.112 246.711 164.478 247.443 164.896 248.174C165.941 250.108 166.36 252.199 166.621 254.29C166.935 256.903 167.353 259.465 167.928 262.026C195.265 258.367 218.996 252.251 235.931 247.024C235.566 246.136 235.147 245.247 234.625 244.359C234.259 243.784 234.206 243.313 234.677 242.843Z" fill="url(#paint8_linear_244_15288)"/>
<path d="M247.324 233.224C249.049 232.649 250.251 231.76 251.349 230.715C218.209 234.844 186.324 229.565 160.137 221.829C160.085 222.143 160.032 222.456 159.98 222.77C159.876 224.443 159.144 226.011 158.255 227.527C157.837 228.311 157.628 229.147 157.628 229.983C157.576 231.708 157.785 233.433 158.046 235.106C158.255 236.465 158.83 237.667 159.771 238.765C160.451 239.549 160.921 240.49 161.391 241.43C194.531 243.051 223.175 240.228 240.685 237.719C242.149 235.367 244.658 234.113 247.324 233.224Z" fill="#E8EFFA"/>
<path d="M247.324 233.224C249.049 232.649 250.251 231.76 251.349 230.715C218.209 234.844 186.324 229.565 160.137 221.829C160.085 222.143 160.032 222.456 159.98 222.77C159.876 224.443 159.144 226.011 158.255 227.527C157.837 228.311 157.628 229.147 157.628 229.983C157.576 231.708 157.785 233.433 158.046 235.106C158.255 236.465 158.83 237.667 159.771 238.765C160.451 239.549 160.921 240.49 161.391 241.43C194.531 243.051 223.175 240.228 240.685 237.719C242.149 235.367 244.658 234.113 247.324 233.224Z" fill="url(#paint9_linear_244_15288)"/>
</g>
<g filter="url(#filter4_b_244_15288)">
<path d="M219.465 176.04C219.099 175.988 218.785 176.093 218.524 176.302C217.897 176.615 217.845 176.615 218.42 177.034C218.89 177.399 219.151 177.87 219.204 178.445C219.256 179.02 219.308 179.595 219.465 180.117C219.674 180.849 219.256 181.477 218.576 181.738C217.949 181.999 217.583 182.522 217.792 183.149C217.845 183.358 218.367 183.463 218.681 183.567C218.733 183.62 218.838 183.567 218.942 183.62C219.256 183.672 219.36 183.829 219.256 184.038C219.151 184.247 219.204 184.508 219.204 184.717C219.256 184.979 219.099 185.188 218.89 185.345C218.263 185.867 217.479 186.285 217.479 187.174C217.479 187.226 217.426 187.331 217.374 187.383C216.747 187.854 216.433 188.481 215.963 189.003C215.44 189.578 214.917 190.206 214.029 190.258C213.402 190.258 213.245 190.519 213.245 190.99C213.245 191.251 213.245 191.512 213.297 191.722C213.506 192.558 213.768 193.394 214.029 194.283C214.186 194.753 214.238 195.171 214.029 195.694C213.454 196.792 213.924 198.36 215.022 198.987C216.381 199.771 217.008 200.921 217.479 202.228C217.949 203.482 218.576 204.685 219.099 205.887C219.36 206.462 219.831 206.775 220.615 206.775C221.138 206.775 221.608 206.932 221.765 207.403C221.922 207.873 222.235 208.03 222.758 208.03C223.019 208.03 223.333 207.978 223.438 208.291C223.647 208.709 224.169 209.023 224.587 208.971C225.476 208.918 225.999 209.546 226.731 209.703C227.619 209.912 228.508 210.382 229.344 210.852C229.815 211.114 230.442 211.062 230.964 210.852C231.644 210.539 231.853 210.539 232.376 211.009C232.585 211.218 232.794 211.427 233.055 211.637C233.683 212.107 233.996 212.734 233.996 213.466C233.996 214.146 234.048 214.773 234.31 215.452C234.414 215.818 234.414 216.236 234.205 216.602C234.048 216.864 233.996 217.125 234.153 217.386C234.414 217.961 235.146 218.275 235.46 218.85C235.46 218.902 235.617 218.902 235.669 218.902C236.244 218.954 236.766 219.007 237.341 219.007C237.551 219.007 237.76 218.954 237.969 218.85C238.857 218.275 239.537 218.275 240.216 219.007C240.739 219.582 241.471 219.268 241.993 219.529C242.046 219.529 242.203 219.477 242.255 219.373C242.83 218.798 243.405 218.798 244.137 219.216C245.234 219.791 246.175 219.477 246.698 218.432C247.011 217.857 247.482 217.595 248.161 217.648C248.58 217.648 248.893 217.804 249.259 217.961C249.573 218.118 249.782 218.17 250.043 217.909C250.566 217.439 251.193 217.282 251.925 217.334C252.343 217.334 252.761 217.282 253.075 217.073C253.807 216.55 254.643 216.236 255.479 215.87C256.054 215.609 256.577 215.295 257.047 214.877C257.413 214.564 257.361 214.355 256.891 214.25C256.263 214.093 255.584 213.989 255.375 213.309C255.322 213.1 255.113 213.152 254.904 213.205C254.486 213.309 254.382 213.048 254.538 212.786C254.747 212.368 254.643 212.002 254.591 211.637C254.538 211.218 253.963 210.8 254.068 210.591C254.382 209.912 253.911 209.493 253.702 209.023C253.493 208.605 253.388 208.082 253.232 207.612C253.023 206.775 252.657 205.991 253.284 205.155C253.441 204.998 253.493 204.737 253.493 204.528C253.493 204.319 253.702 203.953 253.127 204.11C252.813 204.162 252.709 203.901 252.761 203.691C252.97 202.803 252.97 201.914 253.754 201.235C253.963 201.078 254.225 200.869 254.016 200.607C253.859 200.346 253.702 200.137 253.336 200.189C253.127 200.189 252.866 200.137 252.918 199.928C253.023 199.353 252.5 199.092 252.134 198.778C251.089 197.942 250.932 196.844 251.089 195.746C251.298 194.44 252.239 193.342 252.395 192.035C252.395 191.931 252.5 191.826 252.552 191.722C252.761 191.408 252.709 191.147 252.395 190.937C251.036 189.997 249.73 189.056 248.37 188.063C247.796 187.644 247.011 187.383 246.802 186.599C246.75 186.495 246.593 186.442 246.489 186.39C246.018 186.181 246.018 185.867 246.227 185.501C246.698 184.77 246.646 184.561 245.862 184.142C241.366 181.633 236.819 179.124 232.323 176.563C231.749 176.249 231.226 176.04 230.546 176.145C229.815 176.25 229.083 176.25 228.351 176.25C225.424 176.093 222.444 176.197 219.465 176.04Z" fill="#E8EFFA"/>
<path d="M219.465 176.04C219.099 175.988 218.785 176.093 218.524 176.302C217.897 176.615 217.845 176.615 218.42 177.034C218.89 177.399 219.151 177.87 219.204 178.445C219.256 179.02 219.308 179.595 219.465 180.117C219.674 180.849 219.256 181.477 218.576 181.738C217.949 181.999 217.583 182.522 217.792 183.149C217.845 183.358 218.367 183.463 218.681 183.567C218.733 183.62 218.838 183.567 218.942 183.62C219.256 183.672 219.36 183.829 219.256 184.038C219.151 184.247 219.204 184.508 219.204 184.717C219.256 184.979 219.099 185.188 218.89 185.345C218.263 185.867 217.479 186.285 217.479 187.174C217.479 187.226 217.426 187.331 217.374 187.383C216.747 187.854 216.433 188.481 215.963 189.003C215.44 189.578 214.917 190.206 214.029 190.258C213.402 190.258 213.245 190.519 213.245 190.99C213.245 191.251 213.245 191.512 213.297 191.722C213.506 192.558 213.768 193.394 214.029 194.283C214.186 194.753 214.238 195.171 214.029 195.694C213.454 196.792 213.924 198.36 215.022 198.987C216.381 199.771 217.008 200.921 217.479 202.228C217.949 203.482 218.576 204.685 219.099 205.887C219.36 206.462 219.831 206.775 220.615 206.775C221.138 206.775 221.608 206.932 221.765 207.403C221.922 207.873 222.235 208.03 222.758 208.03C223.019 208.03 223.333 207.978 223.438 208.291C223.647 208.709 224.169 209.023 224.587 208.971C225.476 208.918 225.999 209.546 226.731 209.703C227.619 209.912 228.508 210.382 229.344 210.852C229.815 211.114 230.442 211.062 230.964 210.852C231.644 210.539 231.853 210.539 232.376 211.009C232.585 211.218 232.794 211.427 233.055 211.637C233.683 212.107 233.996 212.734 233.996 213.466C233.996 214.146 234.048 214.773 234.31 215.452C234.414 215.818 234.414 216.236 234.205 216.602C234.048 216.864 233.996 217.125 234.153 217.386C234.414 217.961 235.146 218.275 235.46 218.85C235.46 218.902 235.617 218.902 235.669 218.902C236.244 218.954 236.766 219.007 237.341 219.007C237.551 219.007 237.76 218.954 237.969 218.85C238.857 218.275 239.537 218.275 240.216 219.007C240.739 219.582 241.471 219.268 241.993 219.529C242.046 219.529 242.203 219.477 242.255 219.373C242.83 218.798 243.405 218.798 244.137 219.216C245.234 219.791 246.175 219.477 246.698 218.432C247.011 217.857 247.482 217.595 248.161 217.648C248.58 217.648 248.893 217.804 249.259 217.961C249.573 218.118 249.782 218.17 250.043 217.909C250.566 217.439 251.193 217.282 251.925 217.334C252.343 217.334 252.761 217.282 253.075 217.073C253.807 216.55 254.643 216.236 255.479 215.87C256.054 215.609 256.577 215.295 257.047 214.877C257.413 214.564 257.361 214.355 256.891 214.25C256.263 214.093 255.584 213.989 255.375 213.309C255.322 213.1 255.113 213.152 254.904 213.205C254.486 213.309 254.382 213.048 254.538 212.786C254.747 212.368 254.643 212.002 254.591 211.637C254.538 211.218 253.963 210.8 254.068 210.591C254.382 209.912 253.911 209.493 253.702 209.023C253.493 208.605 253.388 208.082 253.232 207.612C253.023 206.775 252.657 205.991 253.284 205.155C253.441 204.998 253.493 204.737 253.493 204.528C253.493 204.319 253.702 203.953 253.127 204.11C252.813 204.162 252.709 203.901 252.761 203.691C252.97 202.803 252.97 201.914 253.754 201.235C253.963 201.078 254.225 200.869 254.016 200.607C253.859 200.346 253.702 200.137 253.336 200.189C253.127 200.189 252.866 200.137 252.918 199.928C253.023 199.353 252.5 199.092 252.134 198.778C251.089 197.942 250.932 196.844 251.089 195.746C251.298 194.44 252.239 193.342 252.395 192.035C252.395 191.931 252.5 191.826 252.552 191.722C252.761 191.408 252.709 191.147 252.395 190.937C251.036 189.997 249.73 189.056 248.37 188.063C247.796 187.644 247.011 187.383 246.802 186.599C246.75 186.495 246.593 186.442 246.489 186.39C246.018 186.181 246.018 185.867 246.227 185.501C246.698 184.77 246.646 184.561 245.862 184.142C241.366 181.633 236.819 179.124 232.323 176.563C231.749 176.249 231.226 176.04 230.546 176.145C229.815 176.25 229.083 176.25 228.351 176.25C225.424 176.093 222.444 176.197 219.465 176.04Z" fill="url(#paint10_linear_244_15288)"/>
</g>
<defs>
<filter id="filter0_b_244_15288" x="69.7342" y="226.818" width="254.512" height="114.269" filterUnits="userSpaceOnUse" color-interpolation-filters="sRGB">
<feFlood flood-opacity="0" result="BackgroundImageFix"/>
<feGaussianBlur in="BackgroundImageFix" stdDeviation="9.73722"/>
<feComposite in2="SourceAlpha" operator="in" result="effect1_backgroundBlur_244_15288"/>
<feBlend mode="normal" in="SourceGraphic" in2="effect1_backgroundBlur_244_15288" result="shape"/>
</filter>
<filter id="filter1_b_244_15288" x="81.5998" y="-3.01594" width="252.839" height="125.3" filterUnits="userSpaceOnUse" color-interpolation-filters="sRGB">
<feFlood flood-opacity="0" result="BackgroundImageFix"/>
<feGaussianBlur in="BackgroundImageFix" stdDeviation="9.73722"/>
<feComposite in2="SourceAlpha" operator="in" result="effect1_backgroundBlur_244_15288"/>
<feBlend mode="normal" in="SourceGraphic" in2="effect1_backgroundBlur_244_15288" result="shape"/>
</filter>
<filter id="filter2_b_244_15288" x="-19.439" y="-19.3758" width="297.948" height="379.752" filterUnits="userSpaceOnUse" color-interpolation-filters="sRGB">
<feFlood flood-opacity="0" result="BackgroundImageFix"/>
<feGaussianBlur in="BackgroundImageFix" stdDeviation="9.73722"/>
<feComposite in2="SourceAlpha" operator="in" result="effect1_backgroundBlur_244_15288"/>
<feBlend mode="normal" in="SourceGraphic" in2="effect1_backgroundBlur_244_15288" result="shape"/>
</filter>
<filter id="filter3_b_244_15288" x="41.8404" y="28.3993" width="267.142" height="284.358" filterUnits="userSpaceOnUse" color-interpolation-filters="sRGB">
<feFlood flood-opacity="0" result="BackgroundImageFix"/>
<feGaussianBlur in="BackgroundImageFix" stdDeviation="9.73722"/>
<feComposite in2="SourceAlpha" operator="in" result="effect1_backgroundBlur_244_15288"/>
<feBlend mode="normal" in="SourceGraphic" in2="effect1_backgroundBlur_244_15288" result="shape"/>
</filter>
<filter id="filter4_b_244_15288" x="193.77" y="156.553" width="82.9915" height="82.4511" filterUnits="userSpaceOnUse" color-interpolation-filters="sRGB">
<feFlood flood-opacity="0" result="BackgroundImageFix"/>
<feGaussianBlur in="BackgroundImageFix" stdDeviation="9.73722"/>
<feComposite in2="SourceAlpha" operator="in" result="effect1_backgroundBlur_244_15288"/>
<feBlend mode="normal" in="SourceGraphic" in2="effect1_backgroundBlur_244_15288" result="shape"/>
</filter>
<linearGradient id="paint0_linear_244_15288" x1="177.865" y1="244.667" x2="185.06" y2="330.983" gradientUnits="userSpaceOnUse">
<stop stop-color="#F8AE40"/>
<stop offset="0.0261" stop-color="#F7A840"/>
<stop offset="0.1109" stop-color="#F59B40"/>
<stop offset="0.1982" stop-color="#F3933F"/>
<stop offset="0.2912" stop-color="#F3903F"/>
<stop offset="0.4186" stop-color="#ED683C"/>
<stop offset="0.616" stop-color="#EB593B"/>
<stop offset="1" stop-color="#E93E3A"/>
</linearGradient>
<linearGradient id="paint1_linear_244_15288" x1="189.043" y1="14.5949" x2="198.551" y2="113.324" gradientUnits="userSpaceOnUse">
<stop stop-color="#F8AE40"/>
<stop offset="0.0261" stop-color="#F7A840"/>
<stop offset="0.1109" stop-color="#F59B40"/>
<stop offset="0.1982" stop-color="#F3933F"/>
<stop offset="0.2912" stop-color="#F3903F"/>
<stop offset="0.4186" stop-color="#ED683C"/>
<stop offset="0.616" stop-color="#EB593B"/>
<stop offset="1" stop-color="#E93E3A"/>
</linearGradient>
<linearGradient id="paint2_linear_244_15288" x1="106.556" y1="-7.25642" x2="218.926" y2="350.74" gradientUnits="userSpaceOnUse">
<stop stop-color="#F8AE40"/>
<stop offset="0.0261" stop-color="#F7A840"/>
<stop offset="0.1109" stop-color="#F59B40"/>
<stop offset="0.1982" stop-color="#F3933F"/>
<stop offset="0.2912" stop-color="#F3903F"/>
<stop offset="0.4186" stop-color="#ED683C"/>
<stop offset="0.616" stop-color="#EB593B"/>
<stop offset="1" stop-color="#E93E3A"/>
</linearGradient>
<linearGradient id="paint3_linear_244_15288" x1="143.535" y1="44.0293" x2="185.34" y2="240.704" gradientUnits="userSpaceOnUse">
<stop stop-color="#F8AE40"/>
<stop offset="0.0261" stop-color="#F7A840"/>
<stop offset="0.1109" stop-color="#F59B40"/>
<stop offset="0.1982" stop-color="#F3933F"/>
<stop offset="0.2912" stop-color="#F3903F"/>
<stop offset="0.4186" stop-color="#ED683C"/>
<stop offset="0.616" stop-color="#EB593B"/>
<stop offset="1" stop-color="#E93E3A"/>
</linearGradient>
<linearGradient id="paint4_linear_244_15288" x1="196.913" y1="249.725" x2="200.496" y2="283.79" gradientUnits="userSpaceOnUse">
<stop stop-color="#F8AE40"/>
<stop offset="0.0261" stop-color="#F7A840"/>
<stop offset="0.1109" stop-color="#F59B40"/>
<stop offset="0.1982" stop-color="#F3933F"/>
<stop offset="0.2912" stop-color="#F3903F"/>
<stop offset="0.4186" stop-color="#ED683C"/>
<stop offset="0.616" stop-color="#EB593B"/>
<stop offset="1" stop-color="#E93E3A"/>
</linearGradient>
<linearGradient id="paint5_linear_244_15288" x1="270.983" y1="132.733" x2="288.261" y2="181.019" gradientUnits="userSpaceOnUse">
<stop stop-color="#F8AE40"/>
<stop offset="0.0261" stop-color="#F7A840"/>
<stop offset="0.1109" stop-color="#F59B40"/>
<stop offset="0.1982" stop-color="#F3933F"/>
<stop offset="0.2912" stop-color="#F3903F"/>
<stop offset="0.4186" stop-color="#ED683C"/>
<stop offset="0.616" stop-color="#EB593B"/>
<stop offset="1" stop-color="#E93E3A"/>
</linearGradient>
<linearGradient id="paint6_linear_244_15288" x1="198.865" y1="194.466" x2="202.404" y2="234.627" gradientUnits="userSpaceOnUse">
<stop stop-color="#F8AE40"/>
<stop offset="0.0261" stop-color="#F7A840"/>
<stop offset="0.1109" stop-color="#F59B40"/>
<stop offset="0.1982" stop-color="#F3933F"/>
<stop offset="0.2912" stop-color="#F3903F"/>
<stop offset="0.4186" stop-color="#ED683C"/>
<stop offset="0.616" stop-color="#EB593B"/>
<stop offset="1" stop-color="#E93E3A"/>
</linearGradient>
<linearGradient id="paint7_linear_244_15288" x1="197.699" y1="265.942" x2="201.577" y2="296.33" gradientUnits="userSpaceOnUse">
<stop stop-color="#F8AE40"/>
<stop offset="0.0261" stop-color="#F7A840"/>
<stop offset="0.1109" stop-color="#F59B40"/>
<stop offset="0.1982" stop-color="#F3933F"/>
<stop offset="0.2912" stop-color="#F3903F"/>
<stop offset="0.4186" stop-color="#ED683C"/>
<stop offset="0.616" stop-color="#EB593B"/>
<stop offset="1" stop-color="#E93E3A"/>
</linearGradient>
<linearGradient id="paint8_linear_244_15288" x1="193.49" y1="240.934" x2="195.102" y2="264.649" gradientUnits="userSpaceOnUse">
<stop stop-color="#F8AE40"/>
<stop offset="0.0261" stop-color="#F7A840"/>
<stop offset="0.1109" stop-color="#F59B40"/>
<stop offset="0.1982" stop-color="#F3933F"/>
<stop offset="0.2912" stop-color="#F3903F"/>
<stop offset="0.4186" stop-color="#ED683C"/>
<stop offset="0.616" stop-color="#EB593B"/>
<stop offset="1" stop-color="#E93E3A"/>
</linearGradient>
<linearGradient id="paint9_linear_244_15288" x1="196.169" y1="221.396" x2="197.349" y2="244.505" gradientUnits="userSpaceOnUse">
<stop stop-color="#F8AE40"/>
<stop offset="0.0261" stop-color="#F7A840"/>
<stop offset="0.1109" stop-color="#F59B40"/>
<stop offset="0.1982" stop-color="#F3933F"/>
<stop offset="0.2912" stop-color="#F3903F"/>
<stop offset="0.4186" stop-color="#ED683C"/>
<stop offset="0.616" stop-color="#EB593B"/>
<stop offset="1" stop-color="#E93E3A"/>
</linearGradient>
<linearGradient id="paint10_linear_244_15288" x1="231.359" y1="175.088" x2="242.564" y2="222.647" gradientUnits="userSpaceOnUse">
<stop stop-color="#F8AE40"/>
<stop offset="0.0261" stop-color="#F7A840"/>
<stop offset="0.1109" stop-color="#F59B40"/>
<stop offset="0.1982" stop-color="#F3933F"/>
<stop offset="0.2912" stop-color="#F3903F"/>
<stop offset="0.4186" stop-color="#ED683C"/>
<stop offset="0.616" stop-color="#EB593B"/>
<stop offset="1" stop-color="#E93E3A"/>
</linearGradient>
</defs>
</svg>
