<svg width="523" height="413" viewBox="0 0 523 413" fill="none" xmlns="http://www.w3.org/2000/svg">
<g opacity="0.6">
<path d="M512.761 123.509L512.761 123.509C511.257 112.322 509.753 103.495 508.628 97.4764C508.246 95.435 507.908 93.7171 507.628 92.3401C418.566 110.478 346.137 88.7254 295.713 62.1588C270.125 48.6771 250.19 33.9511 236.588 22.5535C229.784 16.8529 224.559 11.9808 220.999 8.50769C220.043 7.57502 219.208 6.74383 218.495 6.02543C217.782 6.74385 216.946 7.57527 215.989 8.50831C212.428 11.9811 207.203 16.853 200.399 22.5536C186.796 33.951 166.863 48.677 141.277 62.1587C90.8592 88.7254 18.4375 110.478 -70.6242 92.3401C-70.9041 93.7172 -71.2425 95.4354 -71.6247 97.4771C-72.7512 103.495 -74.2574 112.323 -75.765 123.509L512.761 123.509ZM512.761 123.509C520.047 177.668 527.31 286.77 492.091 400.39C457.045 513.454 379.93 631.061 218.498 703.627M512.761 123.509L218.498 703.627M218.498 703.627C57.07 631.061 -20.0429 513.454 -55.089 400.39C-90.3071 286.771 -83.047 177.67 -75.7652 123.51L218.498 703.627Z" stroke="#FFF2E8" stroke-opacity="0.09" stroke-width="8.42907"/>
<path d="M455.13 167.794L455.13 167.793C453.919 158.774 452.707 151.658 451.801 146.81C451.563 145.538 451.347 144.422 451.157 143.469C379.421 157.871 321.058 140.297 280.39 118.854C259.678 107.934 243.542 96.0054 232.53 86.7714C227.021 82.1525 222.79 78.2036 219.904 75.3862C219.374 74.8689 218.89 74.39 218.452 73.9525C218.013 74.3901 217.529 74.8692 216.998 75.3869C214.112 78.2039 209.88 82.1526 204.371 86.7714C193.359 96.0053 177.224 107.934 156.515 118.854C115.851 140.297 57.494 157.872 -14.2416 143.469C-14.4318 144.422 -14.6486 145.538 -14.8866 146.811C-15.7934 151.659 -17.0067 158.774 -18.2214 167.794L455.13 167.794ZM455.13 167.794C461.003 211.477 466.852 299.46 438.478 391.066C410.276 482.115 348.264 576.811 218.454 635.321M455.13 167.794L218.454 635.321M218.454 635.321C88.6478 576.811 26.6374 482.115 -1.56409 391.066C-29.9375 299.461 -24.0906 211.479 -18.2216 167.795L218.454 635.321Z" stroke="#FFF2E8" stroke-opacity="0.09" stroke-width="8.42907"/>
<g filter="url(#filter0_b_132_6568)">
<path d="M398.409 212.289L398.408 212.289C397.485 205.417 396.561 199.998 395.872 196.309C395.766 195.747 395.667 195.224 395.573 194.743C340.905 205.447 296.399 192.014 265.341 175.651C249.432 167.269 237.038 158.114 228.577 151.024C224.344 147.478 221.09 144.444 218.868 142.276C218.725 142.136 218.585 142 218.45 141.867C218.315 142 218.175 142.137 218.031 142.277C215.809 144.444 212.555 147.478 208.322 151.024C199.861 158.114 187.468 167.269 171.561 175.65C140.506 192.014 96.0043 205.447 41.3363 194.743C41.2427 195.224 41.1428 195.747 41.0374 196.31C40.347 199.998 39.4222 205.417 38.496 212.289L398.409 212.289ZM398.409 212.289C402.889 245.59 407.345 312.64 385.714 382.425C364.254 451.655 317.119 523.645 218.452 568.223M398.409 212.289L218.452 568.223M218.452 568.223C119.788 523.645 72.654 451.655 51.1949 382.425C29.5637 312.641 34.0185 245.591 38.4959 212.29L218.452 568.223Z" stroke="#FFF2E8" stroke-opacity="0.09" stroke-width="8.42907"/>
</g>
</g>
<defs>
<filter id="filter0_b_132_6568" x="-25.1813" y="80.1092" width="487.27" height="548.496" filterUnits="userSpaceOnUse" color-interpolation-filters="sRGB">
<feFlood flood-opacity="0" result="BackgroundImageFix"/>
<feGaussianBlur in="BackgroundImageFix" stdDeviation="27.8813"/>
<feComposite in2="SourceAlpha" operator="in" result="effect1_backgroundBlur_132_6568"/>
<feBlend mode="normal" in="SourceGraphic" in2="effect1_backgroundBlur_132_6568" result="shape"/>
</filter>
</defs>
</svg>
