<svg width="360" height="1092" viewBox="0 0 360 1092" fill="none" xmlns="http://www.w3.org/2000/svg">
<g clip-path="url(#clip0_244_9787)">
<rect width="360" height="1092" transform="translate(0 0.0234375)" fill="#0E346E"/>
<path d="M89.3936 579.789C88.4882 573.053 87.5803 569.145 87.5803 569.145C33.89 580.76 0.404663 543.174 0.148842 543.023C-0.114502 543.174 -33.5897 580.76 -87.2801 569.145C-87.2801 569.145 -88.188 573.053 -89.0959 579.789C-93.475 612.359 -97.8566 711.114 0.148842 754.815C98.1568 711.114 93.7752 612.359 89.3936 579.789Z" fill="white" fill-opacity="0.07"/>
<g filter="url(#filter0_d_244_9787)">
<path d="M72.1598 593.032C71.4291 587.591 70.6964 584.436 70.6964 584.436C27.3662 593.816 0.34227 563.46 0.135811 563.339C-0.0767212 563.46 -27.0926 593.816 -70.4228 584.436C-70.4228 584.436 -71.1555 587.591 -71.8882 593.032C-75.4223 619.337 -78.9584 699.095 0.135811 734.389C79.2321 699.095 75.696 619.337 72.1598 593.032Z" fill="white" fill-opacity="0.07" shape-rendering="crispEdges"/>
</g>
<g filter="url(#filter1_d_244_9787)">
<path d="M55.1979 606.338C54.6393 602.181 54.0791 599.771 54.0791 599.771C20.9529 606.937 0.292995 583.747 0.135155 583.654C-0.0273247 583.747 -20.6811 606.937 -53.8072 599.771C-53.8072 599.771 -54.3674 602.181 -54.9276 606.338C-57.6294 626.433 -60.3328 687.362 0.135155 714.325C60.6047 687.362 57.9013 626.433 55.1979 606.338Z" fill="white" fill-opacity="0.07" shape-rendering="crispEdges"/>
</g>
<path d="M411.671 59.2177C410.507 50.5659 409.341 45.5474 409.341 45.5474C340.354 60.4642 297.328 12.1933 296.999 12C296.661 12.1933 253.648 60.4642 184.661 45.5474C184.661 45.5474 183.494 50.5659 182.328 59.2177C176.701 101.046 171.071 227.876 296.999 284C422.931 227.876 417.301 101.046 411.671 59.2177Z" fill="white" fill-opacity="0.07"/>
<g filter="url(#filter2_d_244_9787)">
<path d="M389.527 76.2253C388.588 69.2378 387.646 65.1848 387.646 65.1848C331.971 77.2321 297.248 38.2468 296.982 38.0907C296.709 38.2468 261.996 77.2321 206.321 65.1848C206.321 65.1848 205.379 69.2378 204.438 76.2253C199.897 110.008 195.353 212.44 296.982 257.768C398.614 212.44 394.07 110.008 389.527 76.2253Z" fill="white" fill-opacity="0.07" shape-rendering="crispEdges"/>
</g>
<g filter="url(#filter3_d_244_9787)">
<path d="M367.732 93.3135C367.015 87.9756 366.295 84.8793 366.295 84.8793C323.731 94.0826 297.184 64.3006 296.982 64.1813C296.773 64.3006 270.235 94.0826 227.671 84.8793C227.671 84.8793 226.951 87.9756 226.231 93.3135C222.759 119.121 219.286 197.372 296.982 231.999C374.68 197.372 371.206 119.121 367.732 93.3135Z" fill="white" fill-opacity="0.07" shape-rendering="crispEdges"/>
</g>
<g opacity="0.2">
<g filter="url(#filter4_b_244_9787)">
<mask id="path-7-inside-1_244_9787" fill="white">
<path d="M250.725 578.272C250.907 578.272 251.149 578.407 251.331 578.543C253.332 581.52 255.09 579.896 257.03 577.866C259.698 575.024 262.487 572.858 265.215 570.287C268.428 567.309 271.823 566.768 275.218 566.227C277.28 565.821 278.917 567.445 280.129 570.828C280.978 573.264 281.584 575.971 282.069 578.813C282.797 583.28 284.676 585.445 286.98 584.769C288.859 584.092 290.739 583.55 292.618 582.874C293.467 582.603 294.134 582.874 294.862 583.821C298.56 589.1 299.53 593.43 298.257 602.092C297.408 608.183 297.044 614.273 296.862 620.499C296.802 622.664 296.62 624.424 295.347 625.101C294.558 625.507 294.437 626.995 294.74 628.214C296.074 634.439 296.923 641.342 299.59 646.214C300.742 648.244 301.652 650.545 302.561 652.981C331.905 689.794 372.283 731.209 418.36 753.676C418.966 751.375 418.845 748.668 418.602 746.232C417.753 738.382 417.935 730.397 418.178 722.547C418.36 717.54 418.117 713.073 416.541 708.472C414.116 701.299 412.964 693.178 414.54 684.381C414.843 682.621 414.419 681.268 413.873 680.05C412.176 676.531 411.812 672.877 412.903 668.004C414.419 660.966 416.662 654.47 417.45 646.755C417.571 645.402 418.178 644.725 418.663 643.913C419.39 642.83 419.997 641.477 420.663 640.124C418.966 593.566 421.452 547.008 425.877 504.375C424.725 501.668 423.574 498.826 422.179 496.525C420.603 493.818 419.269 490.435 417.571 487.999C417.39 487.728 417.147 487.457 417.147 487.051C417.086 483.126 415.935 481.637 414.116 481.096C413.328 480.825 412.782 479.201 412.6 477.442C412.357 475.141 411.994 472.976 411.751 470.675C411.206 466.479 410.175 462.825 408.538 459.983C408.174 459.441 407.932 458.765 407.629 458.088C403.082 576.648 410.539 665.433 410.539 665.433C399.201 591.806 400.05 511.413 404.355 445.907C404.173 443.742 404.052 441.305 404.112 438.869C404.233 433.32 402.718 428.583 401.202 424.252C400.596 422.493 399.686 421.004 398.898 419.515C398.049 417.756 397.564 415.726 397.686 413.289C397.807 411.259 397.625 409.229 396.897 407.605C394.291 401.785 393.199 394.206 391.138 387.71C390.895 387.033 390.653 386.086 390.714 385.409C390.835 380.266 389.198 377.018 387.743 373.363C385.196 367.138 384.044 359.694 383.499 351.844C382.953 343.182 381.923 341.558 377.557 343.047C375.86 343.588 374.283 344.535 372.828 346.566C372.162 347.513 371.495 347.648 370.767 347.648C372.828 511.007 395.685 637.552 395.685 637.552C370.585 541.188 367.129 423.846 368.281 346.701C364.886 344.671 361.491 342.911 357.975 342.235C357.49 342.099 357.005 341.829 356.702 341.016C355.61 338.31 354.155 337.904 352.579 337.904C351.063 337.904 350.032 336.686 348.941 334.385C347.365 331.137 345.182 329.377 342.757 330.46C341.302 331.137 339.968 332.355 338.695 333.979C336.876 336.415 335.664 339.528 336.27 344.265C336.391 345.212 336.331 346.43 336.331 347.378C336.27 352.115 334.148 354.686 332.269 351.979C330.632 349.543 328.934 347.919 327.115 346.701C343.545 512.766 377.739 637.552 377.739 637.552C343.363 542.948 329.237 427.636 323.478 344.941C323.175 344.806 322.932 344.671 322.629 344.671C321.295 344.4 320.689 342.37 320.325 339.934C319.901 336.956 318.931 335.603 317.597 334.249C315.232 331.678 312.747 330.324 310.079 330.324C308.26 330.324 306.563 328.7 305.411 325.587C304.623 323.557 303.774 322.475 302.44 322.881C301.955 323.016 301.288 323.016 301.106 321.798C300.864 320.444 301.349 319.632 301.773 318.82C302.44 317.738 303.289 317.332 304.077 316.926C304.562 316.655 305.229 316.113 304.926 315.166C304.016 312.053 305.047 307.587 302.986 305.286C302.258 304.474 302.44 302.85 302.925 301.632C303.289 300.684 303.713 299.872 304.016 298.925C304.501 297.707 304.501 296.353 304.077 295.135C303.653 293.782 303.107 293.647 302.44 294.053C301.47 294.865 300.682 294.188 300.136 292.428C299.105 292.428 298.014 292.428 296.983 292.428C295.225 294.188 293.406 295.135 291.466 293.782C290.921 293.376 290.314 293.511 289.769 294.053C289.466 294.323 289.041 294.729 288.859 294.459C287.283 292.293 285.949 294.323 284.676 295.541C283.524 296.624 282.554 296.624 281.281 295.947C279.341 294.729 277.28 295.812 275.34 296.489C272.733 297.436 270.126 298.248 267.579 299.602C266.67 300.143 265.821 300.82 264.972 301.496C298.56 512.36 369.615 665.568 369.615 665.568C294.74 542.136 268.489 332.625 264.972 301.902C262.729 303.662 260.546 305.692 258.606 308.805C257.394 310.835 256.06 311.783 254.666 310.7C253.089 309.482 251.513 309.617 249.815 309.888C247.754 310.158 245.632 310.429 244.723 305.286C244.48 303.933 243.692 304.068 243.025 304.609C242.298 305.151 241.813 306.369 241.449 307.722C240.843 309.888 240.236 312.189 239.63 314.354C238.296 319.497 236.417 323.422 233.749 325.858C228.293 330.866 226.171 340.069 226.171 351.438C226.171 355.498 225.686 358.611 224.352 361.453C221.563 367.544 218.592 372.957 214.409 374.852C213.196 375.394 212.408 377.153 212.044 379.589C211.499 382.702 210.589 385.274 209.316 387.574C207.619 390.552 206.649 394.612 206.042 398.943C205.557 402.191 204.769 404.898 203.557 407.334C202.162 410.041 201.192 413.289 200.707 417.079C200.343 419.786 199.737 422.222 198.767 424.252C197.009 427.636 196.827 432.102 196.706 436.568C196.645 439.14 197.615 440.493 198.585 441.711C199.495 442.93 200.343 443.877 199.131 446.448C198.282 448.208 198.464 451.05 199.07 453.08C200.586 458.765 200.222 464.314 199.191 469.998C198.585 473.246 198.04 476.63 197.736 480.013C197.312 484.074 196.524 487.728 194.584 489.758C193.735 490.705 193.917 491.923 194.463 492.736C196.888 495.984 196.827 500.856 196.706 505.728C196.585 509.518 196.706 513.172 198.1 516.15C198.585 517.233 198.464 518.451 198.343 519.804C198.04 524 198.949 525.624 200.889 524.676C201.92 524.135 202.708 524.541 203.314 526.436C204.587 530.226 206.406 533.068 207.861 536.587C209.013 539.429 209.68 542.406 209.619 546.061C209.498 551.61 210.711 555.535 213.318 557.7C216.652 560.542 219.077 565.821 221.745 570.422C223.867 574.077 225.868 578.001 228.171 581.25C230.172 584.092 232.355 584.904 234.416 582.197C239.569 575.295 245.147 577.325 250.725 578.272ZM385.863 711.449C276.067 610.619 221.381 373.093 221.381 373.093C284.312 583.009 385.863 711.449 385.863 711.449ZM196.948 486.374L245.693 575.565H236.902C236.902 575.565 198.161 499.773 196.948 486.374Z"/>
</mask>
<path d="M250.725 578.272C250.907 578.272 251.149 578.407 251.331 578.543C253.332 581.52 255.09 579.896 257.03 577.866C259.698 575.024 262.487 572.858 265.215 570.287C268.428 567.309 271.823 566.768 275.218 566.227C277.28 565.821 278.917 567.445 280.129 570.828C280.978 573.264 281.584 575.971 282.069 578.813C282.797 583.28 284.676 585.445 286.98 584.769C288.859 584.092 290.739 583.55 292.618 582.874C293.467 582.603 294.134 582.874 294.862 583.821C298.56 589.1 299.53 593.43 298.257 602.092C297.408 608.183 297.044 614.273 296.862 620.499C296.802 622.664 296.62 624.424 295.347 625.101C294.558 625.507 294.437 626.995 294.74 628.214C296.074 634.439 296.923 641.342 299.59 646.214C300.742 648.244 301.652 650.545 302.561 652.981C331.905 689.794 372.283 731.209 418.36 753.676C418.966 751.375 418.845 748.668 418.602 746.232C417.753 738.382 417.935 730.397 418.178 722.547C418.36 717.54 418.117 713.073 416.541 708.472C414.116 701.299 412.964 693.178 414.54 684.381C414.843 682.621 414.419 681.268 413.873 680.05C412.176 676.531 411.812 672.877 412.903 668.004C414.419 660.966 416.662 654.47 417.45 646.755C417.571 645.402 418.178 644.725 418.663 643.913C419.39 642.83 419.997 641.477 420.663 640.124C418.966 593.566 421.452 547.008 425.877 504.375C424.725 501.668 423.574 498.826 422.179 496.525C420.603 493.818 419.269 490.435 417.571 487.999C417.39 487.728 417.147 487.457 417.147 487.051C417.086 483.126 415.935 481.637 414.116 481.096C413.328 480.825 412.782 479.201 412.6 477.442C412.357 475.141 411.994 472.976 411.751 470.675C411.206 466.479 410.175 462.825 408.538 459.983C408.174 459.441 407.932 458.765 407.629 458.088C403.082 576.648 410.539 665.433 410.539 665.433C399.201 591.806 400.05 511.413 404.355 445.907C404.173 443.742 404.052 441.305 404.112 438.869C404.233 433.32 402.718 428.583 401.202 424.252C400.596 422.493 399.686 421.004 398.898 419.515C398.049 417.756 397.564 415.726 397.686 413.289C397.807 411.259 397.625 409.229 396.897 407.605C394.291 401.785 393.199 394.206 391.138 387.71C390.895 387.033 390.653 386.086 390.714 385.409C390.835 380.266 389.198 377.018 387.743 373.363C385.196 367.138 384.044 359.694 383.499 351.844C382.953 343.182 381.923 341.558 377.557 343.047C375.86 343.588 374.283 344.535 372.828 346.566C372.162 347.513 371.495 347.648 370.767 347.648C372.828 511.007 395.685 637.552 395.685 637.552C370.585 541.188 367.129 423.846 368.281 346.701C364.886 344.671 361.491 342.911 357.975 342.235C357.49 342.099 357.005 341.829 356.702 341.016C355.61 338.31 354.155 337.904 352.579 337.904C351.063 337.904 350.032 336.686 348.941 334.385C347.365 331.137 345.182 329.377 342.757 330.46C341.302 331.137 339.968 332.355 338.695 333.979C336.876 336.415 335.664 339.528 336.27 344.265C336.391 345.212 336.331 346.43 336.331 347.378C336.27 352.115 334.148 354.686 332.269 351.979C330.632 349.543 328.934 347.919 327.115 346.701C343.545 512.766 377.739 637.552 377.739 637.552C343.363 542.948 329.237 427.636 323.478 344.941C323.175 344.806 322.932 344.671 322.629 344.671C321.295 344.4 320.689 342.37 320.325 339.934C319.901 336.956 318.931 335.603 317.597 334.249C315.232 331.678 312.747 330.324 310.079 330.324C308.26 330.324 306.563 328.7 305.411 325.587C304.623 323.557 303.774 322.475 302.44 322.881C301.955 323.016 301.288 323.016 301.106 321.798C300.864 320.444 301.349 319.632 301.773 318.82C302.44 317.738 303.289 317.332 304.077 316.926C304.562 316.655 305.229 316.113 304.926 315.166C304.016 312.053 305.047 307.587 302.986 305.286C302.258 304.474 302.44 302.85 302.925 301.632C303.289 300.684 303.713 299.872 304.016 298.925C304.501 297.707 304.501 296.353 304.077 295.135C303.653 293.782 303.107 293.647 302.44 294.053C301.47 294.865 300.682 294.188 300.136 292.428C299.105 292.428 298.014 292.428 296.983 292.428C295.225 294.188 293.406 295.135 291.466 293.782C290.921 293.376 290.314 293.511 289.769 294.053C289.466 294.323 289.041 294.729 288.859 294.459C287.283 292.293 285.949 294.323 284.676 295.541C283.524 296.624 282.554 296.624 281.281 295.947C279.341 294.729 277.28 295.812 275.34 296.489C272.733 297.436 270.126 298.248 267.579 299.602C266.67 300.143 265.821 300.82 264.972 301.496C298.56 512.36 369.615 665.568 369.615 665.568C294.74 542.136 268.489 332.625 264.972 301.902C262.729 303.662 260.546 305.692 258.606 308.805C257.394 310.835 256.06 311.783 254.666 310.7C253.089 309.482 251.513 309.617 249.815 309.888C247.754 310.158 245.632 310.429 244.723 305.286C244.48 303.933 243.692 304.068 243.025 304.609C242.298 305.151 241.813 306.369 241.449 307.722C240.843 309.888 240.236 312.189 239.63 314.354C238.296 319.497 236.417 323.422 233.749 325.858C228.293 330.866 226.171 340.069 226.171 351.438C226.171 355.498 225.686 358.611 224.352 361.453C221.563 367.544 218.592 372.957 214.409 374.852C213.196 375.394 212.408 377.153 212.044 379.589C211.499 382.702 210.589 385.274 209.316 387.574C207.619 390.552 206.649 394.612 206.042 398.943C205.557 402.191 204.769 404.898 203.557 407.334C202.162 410.041 201.192 413.289 200.707 417.079C200.343 419.786 199.737 422.222 198.767 424.252C197.009 427.636 196.827 432.102 196.706 436.568C196.645 439.14 197.615 440.493 198.585 441.711C199.495 442.93 200.343 443.877 199.131 446.448C198.282 448.208 198.464 451.05 199.07 453.08C200.586 458.765 200.222 464.314 199.191 469.998C198.585 473.246 198.04 476.63 197.736 480.013C197.312 484.074 196.524 487.728 194.584 489.758C193.735 490.705 193.917 491.923 194.463 492.736C196.888 495.984 196.827 500.856 196.706 505.728C196.585 509.518 196.706 513.172 198.1 516.15C198.585 517.233 198.464 518.451 198.343 519.804C198.04 524 198.949 525.624 200.889 524.676C201.92 524.135 202.708 524.541 203.314 526.436C204.587 530.226 206.406 533.068 207.861 536.587C209.013 539.429 209.68 542.406 209.619 546.061C209.498 551.61 210.711 555.535 213.318 557.7C216.652 560.542 219.077 565.821 221.745 570.422C223.867 574.077 225.868 578.001 228.171 581.25C230.172 584.092 232.355 584.904 234.416 582.197C239.569 575.295 245.147 577.325 250.725 578.272ZM385.863 711.449C276.067 610.619 221.381 373.093 221.381 373.093C284.312 583.009 385.863 711.449 385.863 711.449ZM196.948 486.374L245.693 575.565H236.902C236.902 575.565 198.161 499.773 196.948 486.374Z" stroke="#E8EFFA" stroke-width="0.651667" mask="url(#path-7-inside-1_244_9787)"/>
<path d="M321.26 867.434L321.261 867.435C323.876 873.409 325.394 880.463 326.789 887.635M321.26 867.434L326.629 887.666M321.26 867.434C320.422 865.561 320 863.281 319.636 860.979C319.545 860.372 319.47 859.798 319.394 859.223L319.394 859.223C319.324 858.696 319.255 858.168 319.173 857.613C343.215 852.599 370.489 841.004 397.291 817.1C397.395 820.217 397.322 823.217 396.856 826.468C396.675 827.68 396.549 829.051 396.733 830.028M321.26 867.434L396.896 830.01M326.789 887.635C326.789 887.635 326.789 887.635 326.789 887.635L326.629 887.666M326.789 887.635C326.789 887.635 326.789 887.635 326.789 887.635L326.629 887.666M326.789 887.635C327.162 889.542 327.677 891.448 328.169 893.268C328.214 893.434 328.259 893.6 328.303 893.765M326.629 887.666C327.004 889.579 327.52 891.491 328.012 893.31C328.062 893.495 328.111 893.679 328.16 893.861C328.208 893.829 328.256 893.797 328.303 893.765M328.303 893.765C328.318 893.821 328.333 893.876 328.348 893.932C328.3 893.964 328.253 893.996 328.205 894.027L396.168 835.695M328.303 893.765C355.056 875.807 378.372 854.231 396.025 835.609M396.025 835.609C396.021 835.621 396.017 835.633 396.014 835.644L396.168 835.695M396.025 835.609C396.033 835.601 396.042 835.592 396.05 835.583L396.168 835.695M396.025 835.609C396.496 834.15 396.792 832.421 396.733 830.028M396.168 835.695C396.654 834.206 396.957 832.447 396.896 830.01M396.733 830.028C396.734 830.032 396.735 830.037 396.736 830.041L396.896 830.01M396.733 830.028C396.733 830.023 396.733 830.019 396.733 830.014L396.896 830.01" stroke="#E8EFFA" stroke-width="0.325833"/>
<path d="M311.936 691.25L311.936 691.248C311.567 689.48 311.177 687.738 310.788 686.004C309.937 682.206 309.094 678.444 308.505 674.509C335.47 707.013 362.854 726.827 383.532 738.523C393.918 744.397 402.612 748.224 408.711 750.583C411.76 751.762 414.161 752.574 415.8 753.091C416.619 753.35 417.248 753.535 417.673 753.656C417.76 753.68 417.838 753.702 417.907 753.722C418.008 753.75 418.091 753.772 418.155 753.789C418.157 753.79 418.16 753.791 418.162 753.791C417.214 757.618 416.207 761.305 414.915 764.606C402.789 764.181 361.032 760.472 311.441 732.763C314.005 727.983 314.121 722.261 313.575 716.036C313.235 711.729 312.471 707.541 311.729 703.48C311.677 703.194 311.625 702.908 311.573 702.623C311.555 702.511 311.536 702.397 311.517 702.283C311.409 701.634 311.296 700.959 311.264 700.308C311.227 699.541 311.304 698.833 311.616 698.262L311.617 698.261C312.799 696.038 312.42 693.681 311.936 691.25Z" stroke="#E8EFFA" stroke-width="0.325833"/>
<path d="M329.013 908.048L329.013 908.048L329.015 908.044C329.68 906.829 329.931 905.745 330.057 904.546C347.842 894.308 367.121 879.791 386.167 859.004C385.891 865.599 384.726 871.88 381.785 876.476C380.682 878.12 379.766 880.302 379.097 882.749L379.096 882.75C377.97 887.023 376.478 890.594 374.955 894.237C374.842 894.506 374.73 894.775 374.617 895.045C370.919 903.841 366.867 911.799 361.679 916.917L361.678 916.918C358.29 920.294 354.771 922.402 350.981 921.477C349.69 921.134 348.39 921.029 347.108 921.324C345.823 921.619 344.568 922.314 343.367 923.552L343.367 923.552L343.362 923.556C342.551 924.462 341.635 924.715 340.717 924.586L340.717 924.586L340.709 924.586C339.051 924.443 337.743 925.575 336.596 927.698H336.593H336.59H336.586H336.583H336.579H336.575H336.572H336.568H336.565H336.561H336.557H336.554H336.55H336.547H336.543H336.539H336.536H336.532H336.529H336.525H336.521H336.518H336.514H336.511H336.507H336.503H336.5H336.496H336.492H336.489H336.485H336.482H336.478H336.474H336.471H336.467H336.463H336.46H336.456H336.453H336.449H336.445H336.442H336.438H336.434H336.431H336.427H336.423H336.42H336.416H336.412H336.409H336.405H336.402H336.398H336.394H336.391H336.387H336.383H336.38H336.376H336.372H336.369H336.365H336.361H336.358H336.354H336.35H336.347H336.343H336.339H336.336H336.332H336.328H336.325H336.321H336.317H336.314H336.31H336.306H336.303H336.299H336.295H336.292H336.288H336.284H336.281H336.277H336.273H336.27H336.266H336.262H336.259H336.255H336.251H336.248H336.244H336.24H336.237H336.233H336.229H336.226H336.222H336.218H336.214H336.211H336.207H336.203H336.2H336.196H336.192H336.189H336.185H336.181H336.178H336.174H336.17H336.166H336.163H336.159H336.155H336.152H336.148H336.144H336.141H336.137H336.133H336.129H336.126H336.122H336.118H336.115H336.111H336.107H336.104H336.1H336.096H336.092H336.089H336.085H336.081H336.078H336.074H336.07H336.066H336.063H336.059H336.055H336.052H336.048H336.044H336.04H336.037H336.033H336.029H336.026H336.022H336.018H336.014H336.011H336.007H336.003H336H335.996H335.992H335.988H335.985H335.981H335.977H335.974H335.97H335.966H335.962H335.959H335.955H335.951H335.947H335.944H335.94H335.936H335.933H335.929H335.925H335.921H335.918H335.914H335.91H335.907H335.903H335.899H335.895H335.892H335.888H335.884H335.88H335.877H335.873H335.869H335.866H335.862H335.858H335.854H335.851H335.847H335.843H335.839H335.836H335.832H335.828H335.825H335.821H335.817H335.813H335.81H335.806H335.802H335.798H335.795H335.791H335.787H335.783H335.78H335.776H335.772H335.769H335.765H335.761H335.757H335.754H335.75H335.746H335.742H335.739H335.735H335.731H335.728H335.724H335.72H335.716H335.713H335.709H335.705H335.701H335.698H335.694H335.69H335.687H335.683H335.679H335.675H335.672H335.668H335.664H335.66H335.657H335.653H335.649H335.646H335.642H335.638H335.634H335.631H335.627H335.623H335.619H335.616H335.612H335.608H335.605H335.601H335.597H335.593H335.59H335.586H335.582H335.578H335.575H335.571H335.567H335.564H335.56H335.556H335.552H335.549H335.545H335.541H335.537H335.534H335.53H335.526H335.523H335.519H335.515H335.511H335.508H335.504H335.5H335.497H335.493H335.489H335.485H335.482H335.478H335.474H335.471H335.467H335.463H335.459H335.456H335.452H335.448H335.445H335.441H335.437H335.433H335.43H335.426H335.422H335.419H335.415H335.411H335.407H335.404H335.4H335.396H335.393H335.389H335.385H335.382H335.378H335.374H335.37H335.367H335.363H335.359H335.356H335.352H335.348H335.345H335.341H335.337H335.333H335.33H335.326H335.322H335.319H335.315H335.311H335.308H335.304H335.3H335.297H335.293H335.289H335.285H335.282H335.278H335.274H335.271H335.267H335.263H335.26H335.256H335.252H335.249H335.245H335.241H335.238H335.234H335.23H335.227H335.223H335.219H335.216H335.212H335.208H335.205H335.201H335.197H335.194H335.19H335.186H335.183H335.179H335.175H335.172H335.168H335.164H335.161H335.157H335.153H335.15H335.146H335.142H335.139H335.135H335.131H335.128H335.124H335.12H335.117H335.113H335.109H335.106H335.102H335.098H335.095H335.091H335.088H335.084H335.08H335.077H335.073H335.069H335.066H335.062H335.058H335.055H335.051H335.048H335.044H335.04H335.037H335.033H335.029H335.026H335.022H335.019H335.015H335.011H335.008H335.004H335H334.997H334.993H334.99H334.986H334.982H334.979H334.975H334.972H334.968H334.964H334.961H334.957H334.953H334.95H334.946H334.943H334.939H334.935H334.932H334.928H334.927C334.081 925.45 332.977 923.932 331.466 923.509C331.051 923.377 330.74 923.232 330.508 923.046C330.28 922.862 330.121 922.631 330.021 922.313C329.813 921.66 329.852 920.648 330.065 918.95C330.074 918.89 330.083 918.83 330.092 918.77C330.261 917.655 330.408 916.681 329.665 915.846C329.397 915.498 329.155 914.947 328.961 914.277C328.767 913.607 328.625 912.831 328.55 912.044C328.475 911.257 328.467 910.465 328.542 909.763C328.617 909.058 328.772 908.459 329.013 908.048Z" stroke="#E8EFFA" stroke-width="0.325833"/>
<path d="M314.301 811.025L314.3 811.023C313.972 809.741 313.672 808.461 313.362 807.137C313.232 806.583 313.101 806.021 312.964 805.448C338.152 809.98 367.096 808.755 396.415 793.837C395.892 794.913 395.411 796.002 394.93 797.194C394.364 798.46 394.433 799.72 394.862 801.226C395.458 803.487 395.937 805.748 396.356 808.011C376.766 821.5 349.361 837.256 317.801 846.716C317.145 840.153 316.666 833.588 316.306 826.889L316.306 826.889C316.003 821.473 315.517 816.047 314.301 811.025Z" stroke="#E8EFFA" stroke-width="0.325833"/>
<path d="M305.875 763.963H305.875V763.961C305.875 761.808 306.116 759.656 306.598 757.639C307.629 753.711 308.481 749.639 308.603 745.292L308.764 743.136C339.022 763.036 375.835 776.614 414.117 766.108C412.888 768.668 411.54 770.816 409.651 772.221C406.548 774.531 403.627 777.789 401.916 783.863C381.632 790.342 348.517 797.611 310.211 793.452C309.674 791.056 309.131 788.652 308.35 786.64C307.265 783.815 306.601 780.718 306.36 777.213L306.36 777.213C306.056 772.883 305.814 768.423 305.875 763.963Z" stroke="#E8EFFA" stroke-width="0.325833"/>
</g>
</g>
</g>
<defs>
<filter id="filter0_d_244_9787" x="-93.4148" y="544.176" width="187.102" height="211.18" filterUnits="userSpaceOnUse" color-interpolation-filters="sRGB">
<feFlood flood-opacity="0" result="BackgroundImageFix"/>
<feColorMatrix in="SourceAlpha" type="matrix" values="0 0 0 0 0 0 0 0 0 0 0 0 0 0 0 0 0 0 127 0" result="hardAlpha"/>
<feOffset dy="0.901482"/>
<feGaussianBlur stdDeviation="10.0323"/>
<feComposite in2="hardAlpha" operator="out"/>
<feColorMatrix type="matrix" values="0 0 0 0 0 0 0 0 0 0 0 0 0 0 0 0 0 0 0.15 0"/>
<feBlend mode="normal" in2="BackgroundImageFix" result="effect1_dropShadow_244_9787"/>
<feBlend mode="normal" in="SourceGraphic" in2="effect1_dropShadow_244_9787" result="shape"/>
</filter>
<filter id="filter1_d_244_9787" x="-76.1099" y="564.491" width="152.491" height="170.8" filterUnits="userSpaceOnUse" color-interpolation-filters="sRGB">
<feFlood flood-opacity="0" result="BackgroundImageFix"/>
<feColorMatrix in="SourceAlpha" type="matrix" values="0 0 0 0 0 0 0 0 0 0 0 0 0 0 0 0 0 0 127 0" result="hardAlpha"/>
<feOffset dy="0.901482"/>
<feGaussianBlur stdDeviation="10.0323"/>
<feComposite in2="hardAlpha" operator="out"/>
<feColorMatrix type="matrix" values="0 0 0 0 0 0 0 0 0 0 0 0 0 0 0 0 0 0 0.15 0"/>
<feBlend mode="normal" in2="BackgroundImageFix" result="effect1_dropShadow_244_9787"/>
<feBlend mode="normal" in="SourceGraphic" in2="effect1_dropShadow_244_9787" result="shape"/>
</filter>
<filter id="filter2_d_244_9787" x="182.495" y="18.9276" width="228.976" height="259.806" filterUnits="userSpaceOnUse" color-interpolation-filters="sRGB">
<feFlood flood-opacity="0" result="BackgroundImageFix"/>
<feColorMatrix in="SourceAlpha" type="matrix" values="0 0 0 0 0 0 0 0 0 0 0 0 0 0 0 0 0 0 127 0" result="hardAlpha"/>
<feOffset dy="0.901482"/>
<feGaussianBlur stdDeviation="10.0323"/>
<feComposite in2="hardAlpha" operator="out"/>
<feColorMatrix type="matrix" values="0 0 0 0 0 0 0 0 0 0 0 0 0 0 0 0 0 0 0.15 0"/>
<feBlend mode="normal" in2="BackgroundImageFix" result="effect1_dropShadow_244_9787"/>
<feBlend mode="normal" in="SourceGraphic" in2="effect1_dropShadow_244_9787" result="shape"/>
</filter>
<filter id="filter3_d_244_9787" x="204.73" y="45.0182" width="184.504" height="207.947" filterUnits="userSpaceOnUse" color-interpolation-filters="sRGB">
<feFlood flood-opacity="0" result="BackgroundImageFix"/>
<feColorMatrix in="SourceAlpha" type="matrix" values="0 0 0 0 0 0 0 0 0 0 0 0 0 0 0 0 0 0 127 0" result="hardAlpha"/>
<feOffset dy="0.901482"/>
<feGaussianBlur stdDeviation="10.0323"/>
<feComposite in2="hardAlpha" operator="out"/>
<feColorMatrix type="matrix" values="0 0 0 0 0 0 0 0 0 0 0 0 0 0 0 0 0 0 0.15 0"/>
<feBlend mode="normal" in2="BackgroundImageFix" result="effect1_dropShadow_244_9787"/>
<feBlend mode="normal" in="SourceGraphic" in2="effect1_dropShadow_244_9787" result="shape"/>
</filter>
<filter id="filter4_b_244_9787" x="171.412" y="269.84" width="309.853" height="680.608" filterUnits="userSpaceOnUse" color-interpolation-filters="sRGB">
<feFlood flood-opacity="0" result="BackgroundImageFix"/>
<feGaussianBlur in="BackgroundImageFix" stdDeviation="11.294"/>
<feComposite in2="SourceAlpha" operator="in" result="effect1_backgroundBlur_244_9787"/>
<feBlend mode="normal" in="SourceGraphic" in2="effect1_backgroundBlur_244_9787" result="shape"/>
</filter>
<clipPath id="clip0_244_9787">
<rect width="360" height="1092" fill="white" transform="translate(0 0.0234375)"/>
</clipPath>
</defs>
</svg>
