<svg width="1200" height="703" viewBox="0 0 1200 703" fill="none" xmlns="http://www.w3.org/2000/svg">
<g clip-path="url(#clip0_308_12893)">
<rect width="1200" height="703" rx="8" fill="#0E346E"/>
<path d="M274.354 139.836C271.575 119.161 268.788 107.169 268.788 107.169C104.01 142.815 1.24185 27.4618 0.456726 27C-0.351501 27.4618 -103.089 142.815 -267.867 107.169C-267.867 107.169 -270.654 119.161 -273.44 139.836C-286.88 239.795 -300.327 542.88 0.456726 677C301.248 542.88 287.801 239.795 274.354 139.836Z" fill="white" fill-opacity="0.07"/>
<g filter="url(#filter0_d_308_12893)">
<path d="M221.462 180.48C219.22 163.782 216.971 154.096 216.971 154.096C83.9884 182.886 1.05046 89.722 0.416824 89.349C-0.235443 89.722 -83.1485 182.886 -216.131 154.096C-216.131 154.096 -218.38 163.782 -220.629 180.48C-231.475 261.21 -242.328 505.992 0.416824 614.312C243.168 505.992 232.315 261.21 221.462 180.48Z" fill="white" fill-opacity="0.07" shape-rendering="crispEdges"/>
</g>
<g filter="url(#filter1_d_308_12893)">
<path d="M169.405 221.315C167.691 208.559 165.972 201.16 165.972 201.16C64.3058 223.153 0.899353 151.983 0.414932 151.698C-0.083725 151.983 -63.4712 223.153 -165.137 201.16C-165.137 201.16 -166.856 208.559 -168.576 221.315C-176.868 282.988 -185.164 469.984 0.414932 552.733C185.999 469.984 177.702 282.988 169.405 221.315Z" fill="white" fill-opacity="0.07" shape-rendering="crispEdges"/>
</g>
<g opacity="0.2">
<g filter="url(#filter2_b_308_12893)">
<mask id="path-5-inside-1_308_12893" fill="white">
<path d="M913.41 269.977C913.968 269.977 914.712 270.163 915.27 270.35C921.411 274.443 926.807 272.21 932.761 269.419C940.948 265.512 949.507 262.535 957.88 258.999C967.742 254.906 978.162 254.161 988.582 253.417C994.908 252.859 999.932 255.092 1003.65 259.744C1006.26 263.093 1008.12 266.814 1009.61 270.722C1011.84 276.862 1017.61 279.839 1024.68 278.909C1030.45 277.978 1036.22 277.234 1041.98 276.304C1044.59 275.932 1046.64 276.304 1048.87 277.606C1060.22 284.863 1063.2 290.817 1059.29 302.725C1056.68 311.099 1055.57 319.472 1055.01 328.031C1054.82 331.008 1054.26 333.427 1050.36 334.357C1047.94 334.915 1047.57 336.962 1048.5 338.637C1052.59 347.196 1055.19 356.685 1063.38 363.384C1066.92 366.175 1069.71 369.338 1072.5 372.687C1162.56 423.298 1286.48 480.235 1427.89 511.122C1429.75 507.959 1429.38 504.238 1428.63 500.889C1426.03 490.097 1426.59 479.119 1427.33 468.327C1427.89 461.442 1427.15 455.302 1422.31 448.976C1414.87 439.114 1411.33 427.95 1416.17 415.855C1417.1 413.436 1415.8 411.576 1414.12 409.901C1408.91 405.063 1407.79 400.039 1411.14 393.341C1415.8 383.665 1422.68 374.734 1425.1 364.128C1425.47 362.268 1427.33 361.337 1428.82 360.221C1431.05 358.732 1432.91 356.871 1434.96 355.011C1429.75 291.003 1437.38 226.995 1450.96 168.384C1447.43 164.662 1443.89 160.755 1439.61 157.592C1434.77 153.87 1430.68 149.219 1425.47 145.869C1424.91 145.497 1424.17 145.125 1424.17 144.567C1423.98 139.171 1420.45 137.124 1414.87 136.38C1412.45 136.008 1410.77 133.775 1410.21 131.356C1409.47 128.193 1408.35 125.216 1407.61 122.053C1405.93 116.285 1402.77 111.261 1397.75 107.353C1396.63 106.609 1395.89 105.679 1394.96 104.748C1381 267.745 1403.89 389.806 1403.89 389.806C1369.09 288.584 1371.7 178.059 1384.91 88.002C1384.35 85.0249 1383.98 81.6757 1384.16 78.3264C1384.54 70.6976 1379.88 64.1852 1375.23 58.231C1373.37 55.8121 1370.58 53.7654 1368.16 51.7186C1365.56 49.2997 1364.07 46.5087 1364.44 43.1594C1364.81 40.3684 1364.25 37.5774 1362.02 35.3446C1354.02 27.3436 1350.67 16.9238 1344.35 7.99245C1343.6 7.0621 1342.86 5.75966 1343.04 4.82932C1343.41 -2.24129 1338.39 -6.70701 1333.93 -11.7309C1326.11 -20.29 1322.58 -30.5238 1320.9 -41.3158C1319.23 -53.2242 1316.06 -55.457 1302.67 -53.4102C1297.46 -52.666 1292.62 -51.3635 1288.15 -48.5725C1286.11 -47.27 1284.06 -47.0839 1281.83 -47.0839C1288.15 177.501 1358.3 351.476 1358.3 351.476C1281.27 218.995 1270.66 57.6728 1274.2 -48.3864C1263.78 -51.1774 1253.36 -53.5963 1242.57 -54.5267C1241.08 -54.7127 1239.59 -55.0849 1238.66 -56.2013C1235.31 -59.9227 1230.84 -60.4809 1226.01 -60.4809C1221.35 -60.4809 1218.19 -62.1555 1214.84 -65.3186C1210 -69.7843 1203.3 -72.2032 1195.86 -70.7146C1191.4 -69.7843 1187.3 -68.1097 1183.4 -65.8769C1177.81 -62.5276 1174.09 -58.248 1175.95 -51.7356C1176.32 -50.4331 1176.14 -48.7585 1176.14 -47.456C1175.95 -40.9436 1169.44 -37.4083 1163.67 -41.1297C1158.65 -44.4789 1153.44 -46.7118 1147.86 -48.3864C1198.28 179.92 1303.22 351.476 1303.22 351.476C1197.72 221.413 1154.37 62.8828 1136.69 -50.8053C1135.76 -50.9914 1135.02 -51.1774 1134.09 -51.1774C1129.99 -51.5496 1128.13 -54.3406 1127.02 -57.6898C1125.71 -61.7833 1122.74 -63.6441 1118.64 -65.5047C1111.39 -69.04 1103.76 -70.9007 1095.57 -70.9007C1089.99 -70.9007 1084.78 -73.1335 1081.24 -77.4131C1078.82 -80.2042 1076.22 -81.6927 1072.13 -81.1345C1070.64 -80.9485 1068.59 -80.9484 1068.03 -82.623C1067.29 -84.4837 1068.78 -85.6002 1070.08 -86.7166C1072.13 -88.2051 1074.73 -88.7633 1077.15 -89.3215C1078.64 -89.6937 1080.69 -90.438 1079.76 -91.7404C1076.96 -96.02 1080.13 -102.16 1073.8 -105.323C1071.57 -106.44 1072.13 -108.673 1073.61 -110.347C1074.73 -111.65 1076.03 -112.766 1076.96 -114.069C1078.45 -115.743 1078.45 -117.604 1077.15 -119.279C1075.85 -121.139 1074.17 -121.325 1072.13 -120.767C1069.15 -119.651 1066.73 -120.581 1065.06 -123C1061.89 -123 1058.54 -123 1055.38 -123C1049.98 -120.581 1044.4 -119.279 1038.45 -121.139C1036.77 -121.697 1034.91 -121.511 1033.24 -120.767C1032.31 -120.395 1031.01 -119.837 1030.45 -120.209C1025.61 -123.186 1021.52 -120.395 1017.61 -118.72C1014.07 -117.232 1011.1 -117.232 1007.19 -118.162C1001.23 -119.837 994.908 -118.348 988.954 -117.418C980.953 -116.115 972.952 -114.999 965.137 -113.138C962.346 -112.394 959.741 -111.464 957.136 -110.533C1060.22 179.362 1278.29 389.992 1278.29 389.992C1048.5 220.297 967.928 -67.7376 957.136 -109.975C950.251 -107.556 943.553 -104.765 937.599 -100.486C933.877 -97.6946 929.784 -96.3921 925.504 -97.8807C920.666 -99.5553 915.829 -99.3692 910.619 -98.9971C904.292 -98.625 897.78 -98.2528 894.989 -105.323C894.245 -107.184 891.826 -106.998 889.779 -106.254C887.546 -105.51 886.058 -103.835 884.941 -101.974C883.081 -98.9971 881.22 -95.8339 879.359 -92.8568C875.266 -85.7862 869.498 -80.3902 861.31 -77.041C844.564 -70.1564 838.052 -57.5038 838.052 -41.874C838.052 -36.2919 836.563 -32.0123 832.47 -28.1049C823.911 -19.7318 814.793 -12.2891 801.955 -9.6841C798.233 -8.93982 795.814 -6.52088 794.698 -3.17165C793.023 1.10793 790.232 4.64325 786.325 7.80641C781.115 11.8999 778.138 17.482 776.277 23.4362C774.788 27.9019 772.37 31.6232 768.648 34.9724C764.369 38.6938 761.392 43.1595 759.903 48.3694C758.787 52.0908 756.926 55.44 753.949 58.231C748.553 62.8828 747.995 69.023 747.622 75.1633C747.436 78.6986 750.413 80.5593 753.391 82.2339C756.182 83.9086 758.787 85.211 755.065 88.7463C752.46 91.1652 753.018 95.0726 754.879 97.8636C759.531 105.679 758.414 113.307 755.251 121.122C753.391 125.588 751.716 130.24 750.786 134.891C749.483 140.474 747.064 145.497 741.11 148.288C738.505 149.591 739.063 151.265 740.738 152.382C748.181 156.847 747.995 163.546 747.622 170.244C747.25 175.454 747.622 180.478 751.902 184.572C753.391 186.06 753.018 187.735 752.646 189.596C751.716 195.364 754.507 197.597 760.461 196.294C763.624 195.55 766.043 196.108 767.904 198.713C771.811 203.923 777.393 207.83 781.859 212.668C785.394 216.576 787.441 220.669 787.255 225.693C786.883 233.322 790.604 238.718 798.605 241.695C808.839 245.602 816.282 252.859 824.469 259.185C830.981 264.209 837.122 269.605 844.192 274.071C850.332 277.978 857.031 279.095 863.357 275.373C879.173 265.884 896.291 268.675 913.41 269.977ZM1328.16 453.069C991.186 314.448 823.352 -12.1029 823.352 -12.1029C1016.49 276.49 1328.16 453.069 1328.16 453.069ZM748.367 143.637L897.966 266.256H870.986C870.986 266.256 752.088 162.057 748.367 143.637Z"/>
</mask>
<path d="M913.41 269.977C913.968 269.977 914.712 270.163 915.27 270.35C921.411 274.443 926.807 272.21 932.761 269.419C940.948 265.512 949.507 262.535 957.88 258.999C967.742 254.906 978.162 254.161 988.582 253.417C994.908 252.859 999.932 255.092 1003.65 259.744C1006.26 263.093 1008.12 266.814 1009.61 270.722C1011.84 276.862 1017.61 279.839 1024.68 278.909C1030.45 277.978 1036.22 277.234 1041.98 276.304C1044.59 275.932 1046.64 276.304 1048.87 277.606C1060.22 284.863 1063.2 290.817 1059.29 302.725C1056.68 311.099 1055.57 319.472 1055.01 328.031C1054.82 331.008 1054.26 333.427 1050.36 334.357C1047.94 334.915 1047.57 336.962 1048.5 338.637C1052.59 347.196 1055.19 356.685 1063.38 363.384C1066.92 366.175 1069.71 369.338 1072.5 372.687C1162.56 423.298 1286.48 480.235 1427.89 511.122C1429.75 507.959 1429.38 504.238 1428.63 500.889C1426.03 490.097 1426.59 479.119 1427.33 468.327C1427.89 461.442 1427.15 455.302 1422.31 448.976C1414.87 439.114 1411.33 427.95 1416.17 415.855C1417.1 413.436 1415.8 411.576 1414.12 409.901C1408.91 405.063 1407.79 400.039 1411.14 393.341C1415.8 383.665 1422.68 374.734 1425.1 364.128C1425.47 362.268 1427.33 361.337 1428.82 360.221C1431.05 358.732 1432.91 356.871 1434.96 355.011C1429.75 291.003 1437.38 226.995 1450.96 168.384C1447.43 164.662 1443.89 160.755 1439.61 157.592C1434.77 153.87 1430.68 149.219 1425.47 145.869C1424.91 145.497 1424.17 145.125 1424.17 144.567C1423.98 139.171 1420.45 137.124 1414.87 136.38C1412.45 136.008 1410.77 133.775 1410.21 131.356C1409.47 128.193 1408.35 125.216 1407.61 122.053C1405.93 116.285 1402.77 111.261 1397.75 107.353C1396.63 106.609 1395.89 105.679 1394.96 104.748C1381 267.745 1403.89 389.806 1403.89 389.806C1369.09 288.584 1371.7 178.059 1384.91 88.002C1384.35 85.0249 1383.98 81.6757 1384.16 78.3264C1384.54 70.6976 1379.88 64.1852 1375.23 58.231C1373.37 55.8121 1370.58 53.7654 1368.16 51.7186C1365.56 49.2997 1364.07 46.5087 1364.44 43.1594C1364.81 40.3684 1364.25 37.5774 1362.02 35.3446C1354.02 27.3436 1350.67 16.9238 1344.35 7.99245C1343.6 7.0621 1342.86 5.75966 1343.04 4.82932C1343.41 -2.24129 1338.39 -6.70701 1333.93 -11.7309C1326.11 -20.29 1322.58 -30.5238 1320.9 -41.3158C1319.23 -53.2242 1316.06 -55.457 1302.67 -53.4102C1297.46 -52.666 1292.62 -51.3635 1288.15 -48.5725C1286.11 -47.27 1284.06 -47.0839 1281.83 -47.0839C1288.15 177.501 1358.3 351.476 1358.3 351.476C1281.27 218.995 1270.66 57.6728 1274.2 -48.3864C1263.78 -51.1774 1253.36 -53.5963 1242.57 -54.5267C1241.08 -54.7127 1239.59 -55.0849 1238.66 -56.2013C1235.31 -59.9227 1230.84 -60.4809 1226.01 -60.4809C1221.35 -60.4809 1218.19 -62.1555 1214.84 -65.3186C1210 -69.7843 1203.3 -72.2032 1195.86 -70.7146C1191.4 -69.7843 1187.3 -68.1097 1183.4 -65.8769C1177.81 -62.5276 1174.09 -58.248 1175.95 -51.7356C1176.32 -50.4331 1176.14 -48.7585 1176.14 -47.456C1175.95 -40.9436 1169.44 -37.4083 1163.67 -41.1297C1158.65 -44.4789 1153.44 -46.7118 1147.86 -48.3864C1198.28 179.92 1303.22 351.476 1303.22 351.476C1197.72 221.413 1154.37 62.8828 1136.69 -50.8053C1135.76 -50.9914 1135.02 -51.1774 1134.09 -51.1774C1129.99 -51.5496 1128.13 -54.3406 1127.02 -57.6898C1125.71 -61.7833 1122.74 -63.6441 1118.64 -65.5047C1111.39 -69.04 1103.76 -70.9007 1095.57 -70.9007C1089.99 -70.9007 1084.78 -73.1335 1081.24 -77.4131C1078.82 -80.2042 1076.22 -81.6927 1072.13 -81.1345C1070.64 -80.9485 1068.59 -80.9484 1068.03 -82.623C1067.29 -84.4837 1068.78 -85.6002 1070.08 -86.7166C1072.13 -88.2051 1074.73 -88.7633 1077.15 -89.3215C1078.64 -89.6937 1080.69 -90.438 1079.76 -91.7404C1076.96 -96.02 1080.13 -102.16 1073.8 -105.323C1071.57 -106.44 1072.13 -108.673 1073.61 -110.347C1074.73 -111.65 1076.03 -112.766 1076.96 -114.069C1078.45 -115.743 1078.45 -117.604 1077.15 -119.279C1075.85 -121.139 1074.17 -121.325 1072.13 -120.767C1069.15 -119.651 1066.73 -120.581 1065.06 -123C1061.89 -123 1058.54 -123 1055.38 -123C1049.98 -120.581 1044.4 -119.279 1038.45 -121.139C1036.77 -121.697 1034.91 -121.511 1033.24 -120.767C1032.31 -120.395 1031.01 -119.837 1030.45 -120.209C1025.61 -123.186 1021.52 -120.395 1017.61 -118.72C1014.07 -117.232 1011.1 -117.232 1007.19 -118.162C1001.23 -119.837 994.908 -118.348 988.954 -117.418C980.953 -116.115 972.952 -114.999 965.137 -113.138C962.346 -112.394 959.741 -111.464 957.136 -110.533C1060.22 179.362 1278.29 389.992 1278.29 389.992C1048.5 220.297 967.928 -67.7376 957.136 -109.975C950.251 -107.556 943.553 -104.765 937.599 -100.486C933.877 -97.6946 929.784 -96.3921 925.504 -97.8807C920.666 -99.5553 915.829 -99.3692 910.619 -98.9971C904.292 -98.625 897.78 -98.2528 894.989 -105.323C894.245 -107.184 891.826 -106.998 889.779 -106.254C887.546 -105.51 886.058 -103.835 884.941 -101.974C883.081 -98.9971 881.22 -95.8339 879.359 -92.8568C875.266 -85.7862 869.498 -80.3902 861.31 -77.041C844.564 -70.1564 838.052 -57.5038 838.052 -41.874C838.052 -36.2919 836.563 -32.0123 832.47 -28.1049C823.911 -19.7318 814.793 -12.2891 801.955 -9.6841C798.233 -8.93982 795.814 -6.52088 794.698 -3.17165C793.023 1.10793 790.232 4.64325 786.325 7.80641C781.115 11.8999 778.138 17.482 776.277 23.4362C774.788 27.9019 772.37 31.6232 768.648 34.9724C764.369 38.6938 761.392 43.1595 759.903 48.3694C758.787 52.0908 756.926 55.44 753.949 58.231C748.553 62.8828 747.995 69.023 747.622 75.1633C747.436 78.6986 750.413 80.5593 753.391 82.2339C756.182 83.9086 758.787 85.211 755.065 88.7463C752.46 91.1652 753.018 95.0726 754.879 97.8636C759.531 105.679 758.414 113.307 755.251 121.122C753.391 125.588 751.716 130.24 750.786 134.891C749.483 140.474 747.064 145.497 741.11 148.288C738.505 149.591 739.063 151.265 740.738 152.382C748.181 156.847 747.995 163.546 747.622 170.244C747.25 175.454 747.622 180.478 751.902 184.572C753.391 186.06 753.018 187.735 752.646 189.596C751.716 195.364 754.507 197.597 760.461 196.294C763.624 195.55 766.043 196.108 767.904 198.713C771.811 203.923 777.393 207.83 781.859 212.668C785.394 216.576 787.441 220.669 787.255 225.693C786.883 233.322 790.604 238.718 798.605 241.695C808.839 245.602 816.282 252.859 824.469 259.185C830.981 264.209 837.122 269.605 844.192 274.071C850.332 277.978 857.031 279.095 863.357 275.373C879.173 265.884 896.291 268.675 913.41 269.977ZM1328.16 453.069C991.186 314.448 823.352 -12.1029 823.352 -12.1029C1016.49 276.49 1328.16 453.069 1328.16 453.069ZM748.367 143.637L897.966 266.256H870.986C870.986 266.256 752.088 162.057 748.367 143.637Z" stroke="#E8EFFA" stroke-width="2" mask="url(#path-5-inside-1_308_12893)"/>
<path d="M1129.79 667.258L1129.78 667.254C1127.26 664.735 1125.99 661.666 1124.88 658.514C1124.6 657.688 1124.37 656.907 1124.14 656.116L1124.14 656.113C1123.96 655.512 1123.79 654.907 1123.59 654.278C1197.34 647.377 1281.01 631.428 1363.24 598.549C1363.54 602.725 1363.3 606.736 1361.91 611.073C1361.63 611.927 1361.39 612.847 1361.29 613.732C1361.19 614.58 1361.23 615.435 1361.52 616.178C1361.68 619.303 1360.82 621.563 1359.45 623.485C1305.24 649.102 1233.61 678.788 1151.43 703.486C1151.3 703.269 1151.17 703.051 1151.03 702.832C1149.52 700.328 1147.96 697.729 1146.82 695.132C1142.54 685.265 1137.86 675.515 1129.79 667.258Z" stroke="#E8EFFA"/>
<path d="M1101.24 425.14L1101.24 425.14L1101.23 425.132C1100.09 422.678 1098.89 420.272 1097.69 417.881C1095.15 412.803 1092.65 407.798 1090.86 402.565C1173.63 447.263 1257.68 474.503 1321.12 490.579C1352.99 498.654 1379.66 503.913 1398.37 507.153C1407.73 508.774 1415.09 509.889 1420.11 510.6C1422.63 510.956 1424.56 511.21 1425.86 511.375C1426.36 511.44 1426.78 511.491 1427.09 511.529C1424.26 516.614 1421.25 521.494 1417.43 525.875C1380.38 525.3 1252.32 520.239 1100.14 482.21C1103.79 479.007 1105.75 475.485 1106.59 471.714C1107.48 467.779 1107.14 463.609 1106.29 459.302C1105.24 453.339 1102.88 447.546 1100.61 441.974C1100.45 441.579 1100.29 441.185 1100.13 440.793C1100.07 440.635 1100.01 440.477 1099.96 440.32C1099.62 439.426 1099.3 438.551 1099.21 437.709C1099.1 436.764 1099.3 435.925 1100.17 435.219L1100.17 435.219L1100.17 435.215C1102.04 433.639 1102.72 431.966 1102.7 430.22C1102.67 428.522 1101.98 426.807 1101.24 425.14Z" stroke="#E8EFFA"/>
<path d="M1153.55 723.636L1153.56 723.631L1153.57 723.626C1155.58 721.98 1156.41 720.474 1156.83 718.81C1211.42 704.73 1270.59 684.762 1329.07 656.164C1328.18 665.034 1324.63 673.456 1315.78 679.658C1312.37 681.933 1309.53 684.963 1307.45 688.37L1307.44 688.377C1304.01 694.218 1299.45 699.102 1294.77 704.116C1294.43 704.484 1294.08 704.852 1293.74 705.222C1282.41 717.295 1270 728.217 1254.08 735.248L1254.08 735.249C1243.71 739.88 1232.82 742.824 1221.03 741.535C1213.17 740.599 1205.25 740.967 1197.88 744.369L1197.88 744.372L1197.87 744.376C1195.37 745.627 1192.48 745.995 1189.56 745.813L1189.56 745.812L1189.55 745.812C1184.65 745.623 1180.66 747.118 1177.07 750.091H1177.07H1177.06H1177.04H1177.03H1177.02H1177.01H1177H1176.99H1176.98H1176.97H1176.96H1176.95H1176.93H1176.92H1176.91H1176.9H1176.89H1176.88H1176.87H1176.86H1176.85H1176.83H1176.82H1176.81H1176.8H1176.79H1176.78H1176.77H1176.76H1176.75H1176.74H1176.72H1176.71H1176.7H1176.69H1176.68H1176.67H1176.66H1176.65H1176.64H1176.62H1176.61H1176.6H1176.59H1176.58H1176.57H1176.56H1176.55H1176.54H1176.52H1176.51H1176.5H1176.49H1176.48H1176.47H1176.46H1176.45H1176.43H1176.42H1176.41H1176.4H1176.39H1176.38H1176.37H1176.36H1176.35H1176.33H1176.32H1176.31H1176.3H1176.29H1176.28H1176.27H1176.26H1176.24H1176.23H1176.22H1176.21H1176.2H1176.19H1176.18H1176.17H1176.15H1176.14H1176.13H1176.12H1176.11H1176.1H1176.09H1176.08H1176.06H1176.05H1176.04H1176.03H1176.02H1176.01H1176H1175.99H1175.97H1175.96H1175.95H1175.94H1175.93H1175.92H1175.91H1175.9H1175.88H1175.87H1175.86H1175.85H1175.84H1175.83H1175.82H1175.8H1175.79H1175.78H1175.77H1175.76H1175.75H1175.74H1175.73H1175.71H1175.7H1175.69H1175.68H1175.67H1175.66H1175.65H1175.63H1175.62H1175.61H1175.6H1175.59H1175.58H1175.57H1175.56H1175.54H1175.53H1175.52H1175.51H1175.5H1175.49H1175.48H1175.46H1175.45H1175.44H1175.43H1175.42H1175.41H1175.4H1175.38H1175.37H1175.36H1175.35H1175.34H1175.33H1175.32H1175.31H1175.29H1175.28H1175.27H1175.26H1175.25H1175.24H1175.23H1175.21H1175.2H1175.19H1175.18H1175.17H1175.16H1175.15H1175.13H1175.12H1175.11H1175.1H1175.09H1175.08H1175.07H1175.05H1175.04H1175.03H1175.02H1175.01H1175H1174.99H1174.97H1174.96H1174.95H1174.94H1174.93H1174.92H1174.91H1174.89H1174.88H1174.87H1174.86H1174.85H1174.84H1174.83H1174.81H1174.8H1174.79H1174.78H1174.77H1174.76H1174.75H1174.73H1174.72H1174.71H1174.7H1174.69H1174.68H1174.67H1174.65H1174.64H1174.63H1174.62H1174.61H1174.6H1174.59H1174.57H1174.56H1174.55H1174.54H1174.53H1174.52H1174.51H1174.49H1174.48H1174.47H1174.46H1174.45H1174.44H1174.43H1174.41H1174.4H1174.39H1174.38H1174.37H1174.36H1174.35H1174.33H1174.32H1174.31H1174.3H1174.29H1174.28H1174.27H1174.25H1174.24H1174.23H1174.22H1174.21H1174.2H1174.18H1174.17H1174.16H1174.15H1174.14H1174.13H1174.12H1174.1H1174.09H1174.08H1174.07H1174.06H1174.05H1174.04H1174.02H1174.01H1174H1173.99H1173.98H1173.97H1173.96H1173.94H1173.93H1173.92H1173.91H1173.9H1173.89H1173.88H1173.86H1173.85H1173.84H1173.83H1173.82H1173.81H1173.8H1173.78H1173.77H1173.76H1173.75H1173.74H1173.73H1173.72H1173.7H1173.69H1173.68H1173.67H1173.66H1173.65H1173.64H1173.62H1173.61H1173.6H1173.59H1173.58H1173.57H1173.56H1173.54H1173.53H1173.52H1173.51H1173.5H1173.49H1173.48H1173.47H1173.45H1173.44H1173.43H1173.42H1173.41H1173.4H1173.39H1173.37H1173.36H1173.35H1173.34H1173.33H1173.32H1173.31H1173.29H1173.28H1173.27H1173.26H1173.25H1173.24H1173.23H1173.21H1173.2H1173.19H1173.18H1173.17H1173.16H1173.15H1173.14H1173.12H1173.11H1173.1H1173.09H1173.08H1173.07H1173.06H1173.04H1173.03H1173.02H1173.01H1173H1172.99H1172.98H1172.97H1172.95H1172.94H1172.93H1172.92H1172.91H1172.9H1172.89H1172.87H1172.86H1172.85H1172.84H1172.83H1172.82H1172.81H1172.8H1172.78H1172.77H1172.76H1172.75H1172.74H1172.73H1172.72H1172.71H1172.69H1172.68H1172.67H1172.66H1172.65H1172.64H1172.63H1172.62H1172.6H1172.59H1172.58H1172.57H1172.56H1172.55H1172.54H1172.53H1172.51H1172.5H1172.49H1172.48H1172.47H1172.46H1172.45H1172.44H1172.42H1172.41H1172.4H1172.39H1172.38H1172.37H1172.36H1172.35H1172.33H1172.32H1172.31H1172.3H1172.29H1172.28H1172.27H1172.26H1172.25H1172.23H1172.22H1172.21H1172.2H1172.19H1172.18H1172.17H1172.16H1172.15H1172.13H1172.12H1172.11H1172.1H1172.09H1172.08H1172.07H1172.06H1172.05H1172.03H1172.02H1172.01H1172H1171.99H1171.98H1171.97H1171.96H1171.95H1171.93H1171.92H1171.91H1171.9H1171.89H1171.88H1171.87H1171.86H1171.85H1171.83H1171.82H1171.81H1171.8H1171.79H1171.78H1171.77H1171.76H1171.75H1171.74H1171.72H1171.72C1169.06 746.941 1165.64 744.893 1161.13 744.328C1159.84 744.143 1158.86 743.939 1158.13 743.675C1157.39 743.412 1156.96 743.105 1156.7 742.744C1156.45 742.387 1156.33 741.91 1156.36 741.207C1156.39 740.499 1156.57 739.606 1156.89 738.457C1156.91 738.391 1156.94 738.325 1156.96 738.258C1157.07 737.919 1157.19 737.575 1157.27 737.246C1157.37 736.844 1157.44 736.424 1157.4 736.003C1157.3 735.102 1156.73 734.379 1155.53 733.777C1153.93 732.84 1152.69 730.847 1152.25 728.764C1151.8 726.663 1152.19 724.676 1153.55 723.636Z" stroke="#E8EFFA"/>
<path d="M1108.48 589.78L1108.48 589.78L1108.48 589.77C1107.47 588.014 1106.56 586.264 1105.61 584.448C1105.29 583.837 1104.96 583.218 1104.63 582.589C1181.71 588.789 1270.24 587.112 1359.94 566.735C1358.6 568.002 1357.34 569.297 1356.08 570.695C1355.18 571.6 1354.73 572.555 1354.73 573.597C1354.73 574.617 1355.16 575.642 1355.83 576.696C1357.58 579.663 1358.99 582.633 1360.24 585.609C1300.1 604.145 1216.03 625.78 1119.22 638.77C1117.23 629.82 1115.77 620.866 1114.68 611.729L1114.68 611.726C1113.74 604.264 1112.25 596.747 1108.48 589.78Z" stroke="#E8EFFA"/>
<path d="M1082.67 525.277L1082.67 525.269V525.262C1082.67 522.373 1083.39 519.479 1084.84 516.761C1088 511.358 1090.65 505.704 1091.04 499.641L1091.5 496.875C1184.26 524.219 1297.04 542.882 1414.32 528.552C1410.74 531.782 1406.77 534.501 1401.3 536.324C1391.86 539.472 1382.85 543.939 1377.53 552.338C1315.25 561.251 1213.54 571.254 1095.88 565.526C1094.25 562.272 1092.58 558.967 1090.18 556.195C1086.88 552.353 1084.88 548.158 1084.15 543.421L1084.15 543.42C1083.22 537.474 1082.48 531.37 1082.67 525.277Z" stroke="#E8EFFA"/>
</g>
</g>
</g>
<defs>
<filter id="filter0_d_308_12893" x="-286.695" y="30.5364" width="574.227" height="648.122" filterUnits="userSpaceOnUse" color-interpolation-filters="sRGB">
<feFlood flood-opacity="0" result="BackgroundImageFix"/>
<feColorMatrix in="SourceAlpha" type="matrix" values="0 0 0 0 0 0 0 0 0 0 0 0 0 0 0 0 0 0 127 0" result="hardAlpha"/>
<feOffset dy="2.7667"/>
<feGaussianBlur stdDeviation="30.7896"/>
<feComposite in2="hardAlpha" operator="out"/>
<feColorMatrix type="matrix" values="0 0 0 0 0 0 0 0 0 0 0 0 0 0 0 0 0 0 0.15 0"/>
<feBlend mode="normal" in2="BackgroundImageFix" result="effect1_dropShadow_308_12893"/>
<feBlend mode="normal" in="SourceGraphic" in2="effect1_dropShadow_308_12893" result="shape"/>
</filter>
<filter id="filter1_d_308_12893" x="-233.585" y="92.8854" width="468.002" height="524.194" filterUnits="userSpaceOnUse" color-interpolation-filters="sRGB">
<feFlood flood-opacity="0" result="BackgroundImageFix"/>
<feColorMatrix in="SourceAlpha" type="matrix" values="0 0 0 0 0 0 0 0 0 0 0 0 0 0 0 0 0 0 127 0" result="hardAlpha"/>
<feOffset dy="2.7667"/>
<feGaussianBlur stdDeviation="30.7896"/>
<feComposite in2="hardAlpha" operator="out"/>
<feColorMatrix type="matrix" values="0 0 0 0 0 0 0 0 0 0 0 0 0 0 0 0 0 0 0.15 0"/>
<feBlend mode="normal" in2="BackgroundImageFix" result="effect1_dropShadow_308_12893"/>
<feBlend mode="normal" in="SourceGraphic" in2="effect1_dropShadow_308_12893" result="shape"/>
</filter>
<filter id="filter2_b_308_12893" x="669.994" y="-192.324" width="950.954" height="1012.24" filterUnits="userSpaceOnUse" color-interpolation-filters="sRGB">
<feFlood flood-opacity="0" result="BackgroundImageFix"/>
<feGaussianBlur in="BackgroundImageFix" stdDeviation="34.662"/>
<feComposite in2="SourceAlpha" operator="in" result="effect1_backgroundBlur_308_12893"/>
<feBlend mode="normal" in="SourceGraphic" in2="effect1_backgroundBlur_308_12893" result="shape"/>
</filter>
<clipPath id="clip0_308_12893">
<rect width="1200" height="703" rx="8" fill="white"/>
</clipPath>
</defs>
</svg>
