<svg width="64" height="65" viewBox="0 0 64 65" fill="none" xmlns="http://www.w3.org/2000/svg">
<path d="M18.4287 42.1078L20.971 41.6447C21.0726 41.3687 21.1843 41.0966 21.3057 40.8314L19.8363 38.709C19.6586 38.4523 19.5766 38.1413 19.6047 37.8303C19.6328 37.5193 19.7691 37.2281 19.9899 37.0073L23.2699 33.7286C23.4903 33.5074 23.7815 33.3708 24.0925 33.3427C24.4036 33.3146 24.7145 33.3969 24.971 33.575L27.0937 35.0427C27.3593 34.9217 27.6308 34.8101 27.9082 34.7081L28.3698 32.1665C28.4256 31.8593 28.5874 31.5814 28.8271 31.3813C29.0667 31.1812 29.369 31.0715 29.6813 31.0714H34.3194C34.6317 31.0714 34.934 31.1811 35.1737 31.3812C35.4135 31.5813 35.5753 31.8592 35.6311 32.1665L36.0927 34.7081C36.3701 34.8097 36.6416 34.9212 36.9073 35.0427L39.0303 33.5741C39.2869 33.3962 39.5978 33.3141 39.9087 33.3422C40.2197 33.3703 40.5108 33.5067 40.7314 33.7277L44.0107 37.0063C44.2315 37.2271 44.3679 37.5184 44.3959 37.8294C44.424 38.1404 44.342 38.4513 44.1643 38.7081L42.695 40.8305C42.8161 41.0962 42.9281 41.3683 43.0297 41.6438L45.5719 42.1073C45.8793 42.1629 46.1573 42.3247 46.3575 42.5644C46.5576 42.8042 46.6672 43.1067 46.667 43.419V48.0571C46.6671 48.3694 46.5575 48.6717 46.3573 48.9114C46.1572 49.151 45.8792 49.3128 45.5719 49.3683L43.0297 49.8318C42.9281 50.1078 42.8163 50.3799 42.695 50.6451L44.1643 52.7662C44.3421 53.023 44.4241 53.334 44.396 53.645C44.3679 53.956 44.2316 54.2473 44.0107 54.4681L40.7314 57.7481C40.5105 57.9685 40.2194 58.1045 39.9086 58.1326C39.5979 58.1607 39.2871 58.079 39.0303 57.9017L36.907 56.4334C36.6414 56.5545 36.3699 56.666 36.0925 56.7681L35.6309 59.3097C35.5751 59.6169 35.4132 59.8948 35.1736 60.0949C34.9339 60.295 34.6316 60.4046 34.3194 60.4047H29.6813C29.369 60.4047 29.0666 60.2951 28.8269 60.095C28.5872 59.8948 28.4253 59.6169 28.3695 59.3097L27.9079 56.7681C27.6306 56.6665 27.3591 56.5549 27.0934 56.4334L24.9703 57.9021C24.7135 58.0793 24.4028 58.161 24.092 58.133C23.7812 58.1049 23.4901 57.9689 23.2693 57.7485L19.9893 54.4685C19.7684 54.2477 19.6321 53.9564 19.604 53.6454C19.5759 53.3344 19.6579 53.0234 19.8357 52.7666L21.305 50.6455C21.1839 50.3798 21.0719 50.1077 20.9703 49.8322L18.4281 49.3687C18.1209 49.313 17.843 49.1512 17.643 48.9115C17.4429 48.6717 17.3335 48.3694 17.3337 48.0571V43.419C17.3336 43.1068 17.4432 42.8044 17.6433 42.5648C17.8435 42.3251 18.1215 42.1634 18.4287 42.1078ZM20.0003 46.9438L22.227 47.3501C22.4709 47.3941 22.6977 47.5052 22.8818 47.6711C23.066 47.837 23.2002 48.0509 23.2694 48.2889C23.4522 48.9225 23.7039 49.5343 24.0199 50.1131C24.1393 50.3303 24.1956 50.5765 24.1828 50.824C24.1699 51.0715 24.0882 51.3104 23.947 51.5141L22.6619 53.3695L24.3677 55.0762L26.225 53.7914C26.4286 53.6505 26.6674 53.569 26.9147 53.5562C27.1619 53.5433 27.4079 53.5996 27.625 53.7186C28.2041 54.0352 28.8163 54.2871 29.4505 54.4698C29.6884 54.539 29.9023 54.6731 30.0683 54.8571C30.2342 55.0412 30.3456 55.2678 30.3899 55.5115L30.7939 57.7381H33.2073L33.6115 55.5114C33.6559 55.2676 33.7672 55.041 33.9332 54.857C34.0991 54.673 34.3131 54.5389 34.551 54.4697C35.1852 54.2869 35.7973 54.035 36.3765 53.7185C36.5936 53.5994 36.8395 53.5432 37.0868 53.556C37.3341 53.5689 37.5729 53.6504 37.7765 53.7913L39.6333 55.0765L41.339 53.3698L40.0537 51.5141C39.9125 51.3104 39.831 51.0714 39.8182 50.8239C39.8055 50.5764 39.862 50.3303 39.9814 50.1131C40.2974 49.5343 40.5491 48.9225 40.7319 48.2889C40.8011 48.0509 40.9353 47.837 41.1195 47.6711C41.3036 47.5052 41.5304 47.3941 41.7743 47.3501L44.0003 46.9438V44.5323L41.7737 44.1261C41.5298 44.0821 41.303 43.9709 41.1188 43.8051C40.9347 43.6392 40.8004 43.4253 40.7313 43.1873C40.5484 42.5536 40.2968 41.942 39.9807 41.3631C39.8614 41.1459 39.805 40.8997 39.8179 40.6522C39.8308 40.4047 39.9124 40.1657 40.0537 39.9621L41.3387 38.1053L39.633 36.3995L37.7762 37.6847C37.5724 37.8251 37.3336 37.9062 37.0865 37.919C36.8393 37.9319 36.5935 37.876 36.3762 37.7575C35.797 37.4411 35.1849 37.1892 34.5507 37.0063C34.3128 36.9371 34.0989 36.803 33.9329 36.619C33.767 36.435 33.6556 36.2084 33.6113 35.9646L33.2067 33.7381H30.7934L30.3891 35.9647C30.3448 36.2085 30.2334 36.4351 30.0675 36.6191C29.9015 36.8032 29.6876 36.9373 29.4497 37.0065C28.8155 37.1893 28.2033 37.4412 27.6242 37.7577C27.4069 37.8761 27.161 37.9319 26.9139 37.9191C26.6668 37.9062 26.428 37.8252 26.2242 37.6849L24.3674 36.3997L22.6617 38.1054L23.947 39.9621C24.0881 40.1658 24.1697 40.4048 24.1824 40.6523C24.1952 40.8998 24.1387 41.146 24.0193 41.3631C23.7032 41.942 23.4515 42.5536 23.2687 43.1873C23.1995 43.4253 23.0653 43.6392 22.8812 43.8051C22.697 43.9709 22.4702 44.0821 22.2263 44.1261L19.9997 44.5323L20.0003 46.9438Z" fill="#EE812B"/>
<path d="M32.0003 39.0714C33.3189 39.0714 34.6078 39.4624 35.7041 40.1949C36.8005 40.9275 37.6549 41.9687 38.1595 43.1869C38.6641 44.405 38.7961 45.7455 38.5389 47.0387C38.2817 48.3319 37.6467 49.5198 36.7144 50.4521C35.782 51.3845 34.5941 52.0194 33.3009 52.2766C32.0077 52.5339 30.6673 52.4019 29.4491 51.8973C28.2309 51.3927 27.1897 50.5382 26.4572 49.4419C25.7246 48.3456 25.3337 47.0566 25.3337 45.7381C25.3357 43.9706 26.0388 42.2761 27.2886 41.0263C28.5384 39.7765 30.2329 39.0735 32.0003 39.0714ZM32.0003 49.7381C32.7914 49.7381 33.5648 49.5035 34.2226 49.064C34.8804 48.6244 35.3931 47.9997 35.6958 47.2688C35.9986 46.5379 36.0778 45.7336 35.9235 44.9577C35.7691 44.1818 35.3882 43.4691 34.8287 42.9097C34.2693 42.3502 33.5566 41.9693 32.7807 41.8149C32.0048 41.6606 31.2005 41.7398 30.4696 42.0426C29.7387 42.3453 29.114 42.858 28.6744 43.5158C28.2349 44.1736 28.0003 44.947 28.0003 45.7381C28.0015 46.7986 28.4233 47.8153 29.1732 48.5652C29.9231 49.3151 30.9398 49.7369 32.0003 49.7381Z" fill="#EE812B"/>
<path d="M9.35762 21.0167C9.54379 18.32 10.7455 15.7941 12.7206 13.9485C14.6956 12.1028 17.297 11.0747 20.0002 11.0714C20.8256 11.0718 21.6481 11.1693 22.4507 11.3618C23.5497 8.98503 25.3966 7.03344 27.7093 5.80526C30.0219 4.57708 32.6731 4.13987 35.2577 4.56044C37.8422 4.98101 40.218 6.23623 42.0219 8.13428C43.8259 10.0323 44.9588 12.4688 45.2475 15.0714H45.3335C48.4187 15.0751 51.3842 16.2655 53.6157 18.396C55.8472 20.5264 57.1736 23.4337 57.3202 26.5154C59.6172 27.4406 61.5206 29.1364 62.7039 31.3118C63.8871 33.4872 64.2764 36.0066 63.8049 38.4377C63.3334 40.8687 62.0306 43.0599 60.1199 44.6353C58.2092 46.2107 55.8099 47.072 53.3335 47.0714H50.6668C50.3132 47.0714 49.9741 46.9309 49.724 46.6809C49.474 46.4308 49.3335 46.0917 49.3335 45.7381C49.3335 45.3845 49.474 45.0453 49.724 44.7953C49.9741 44.5452 50.3132 44.4047 50.6668 44.4047H53.3335C55.2564 44.4051 57.115 43.7128 58.569 42.4545C60.023 41.1962 60.975 39.4562 61.2506 37.5532C61.5262 35.6502 61.1071 33.7115 60.0699 32.0924C59.0327 30.4733 57.4469 29.282 55.603 28.7367C55.3193 28.653 55.0715 28.4774 54.8986 28.2374C54.7257 27.9975 54.6375 27.7068 54.6479 27.4113L54.6668 27.0714C54.6752 25.7444 54.3988 24.4311 53.8562 23.2201C53.3135 22.0091 52.5174 20.9287 51.5214 20.0518C50.5255 19.1748 49.353 18.5218 48.0831 18.1368C46.8131 17.7518 45.4754 17.6438 44.1602 17.8201C43.9698 17.835 43.7784 17.8098 43.5984 17.7461C43.4184 17.6824 43.2538 17.5817 43.1152 17.4503C42.973 17.316 42.8598 17.1539 42.7826 16.974C42.7055 16.7942 42.6661 16.6004 42.6668 16.4047C42.6678 14.192 41.8822 12.051 40.4504 10.3639C39.0186 8.6769 37.0337 7.5537 34.8503 7.1949C32.6668 6.83609 30.4269 7.26505 28.5305 8.40517C26.6341 9.54528 25.2047 11.3223 24.4975 13.419C24.4404 13.5879 24.3501 13.7436 24.2318 13.8769C24.1134 14.0102 23.9696 14.1184 23.8087 14.1951C23.648 14.2728 23.4732 14.3169 23.295 14.325C23.1167 14.333 22.9386 14.3048 22.7716 14.2419C21.5561 13.7881 20.2482 13.6376 18.9613 13.8036C17.6745 13.9695 16.4475 14.4468 15.3869 15.1942C14.3262 15.9415 13.4639 16.9363 12.8746 18.0923C12.2854 19.2483 11.987 20.5306 12.0054 21.8279C12.0054 21.8413 12.0144 21.9763 12.0144 21.9907C12.0263 22.3018 11.929 22.6072 11.7393 22.854C11.5497 23.1009 11.2796 23.2736 10.976 23.3422C8.41754 23.9213 6.1623 25.4232 4.64162 27.5606C3.12093 29.6981 2.44151 32.3211 2.73329 34.928C3.02507 37.5349 4.26759 39.9428 6.22321 41.6911C8.17882 43.4395 10.7103 44.4056 13.3335 44.4047C13.6871 44.4047 14.0263 44.5452 14.2763 44.7953C14.5263 45.0453 14.6668 45.3845 14.6668 45.7381C14.6668 46.0917 14.5263 46.4308 14.2763 46.6809C14.0263 46.9309 13.6871 47.0714 13.3335 47.0714C10.1461 47.0721 7.06394 45.9306 4.64586 43.854C2.22778 41.7773 0.633835 38.903 0.153015 35.752C-0.327812 32.6011 0.336323 29.3822 2.02499 26.6788C3.71366 23.9755 6.31509 21.9668 9.35762 21.0167Z" fill="#EE812B"/>
</svg>
