<svg width="99" height="56" viewBox="0 0 99 56" fill="none" xmlns="http://www.w3.org/2000/svg">
<g clip-path="url(#clip0_219_2644)">
<path d="M18.1054 25.9902C18.1312 25.9902 18.1655 25.9988 18.1913 26.0074C18.4747 26.1964 18.7238 26.0933 18.9987 25.9645C19.3766 25.7841 19.7717 25.6467 20.1582 25.4835C20.6134 25.2945 21.0944 25.2602 21.5754 25.2258C21.8674 25.2 22.0993 25.3031 22.2711 25.5178C22.3913 25.6724 22.4772 25.8442 22.5459 26.0246C22.649 26.308 22.9152 26.4454 23.2416 26.4025C23.5079 26.3595 23.7741 26.3252 24.0404 26.2822C24.1606 26.2651 24.2551 26.2822 24.3582 26.3424C24.8821 26.6773 25.0195 26.9522 24.8392 27.5019C24.7189 27.8884 24.6674 28.2749 24.6416 28.67C24.633 28.8074 24.6073 28.9191 24.4269 28.962C24.3152 28.9878 24.2981 29.0822 24.341 29.1595C24.53 29.5546 24.6502 29.9927 25.0281 30.3019C25.1913 30.4307 25.3201 30.5767 25.449 30.7313C29.606 33.0675 35.3263 35.6957 41.8539 37.1215C41.9398 36.9755 41.9226 36.8037 41.8882 36.6491C41.768 36.151 41.7938 35.6442 41.8281 35.146C41.8539 34.8283 41.8195 34.5448 41.5962 34.2528C41.2527 33.7976 41.0895 33.2822 41.3128 32.724C41.3557 32.6123 41.2956 32.5264 41.2183 32.4491C40.9778 32.2258 40.9263 31.9939 41.0809 31.6847C41.2956 31.2381 41.6134 30.8258 41.725 30.3362C41.7422 30.2503 41.8281 30.2074 41.8968 30.1559C41.9999 30.0872 42.0858 30.0013 42.1803 29.9154C41.9398 26.9608 42.2919 24.0062 42.9189 21.3006C42.7557 21.1289 42.5925 20.9485 42.395 20.8025C42.1717 20.6307 41.9827 20.416 41.7422 20.2614C41.7165 20.2442 41.6821 20.227 41.6821 20.2013C41.6735 19.9522 41.5103 19.8577 41.2527 19.8233C41.141 19.8062 41.0637 19.7031 41.0379 19.5914C41.0036 19.4454 40.952 19.308 40.9177 19.162C40.8404 18.8957 40.6944 18.6638 40.4625 18.4835C40.4109 18.4491 40.3766 18.4062 40.3336 18.3632C39.6895 25.8872 40.7459 31.5215 40.7459 31.5215C39.1398 26.8491 39.26 21.7473 39.8698 17.5902C39.8441 17.4528 39.8269 17.2982 39.8355 17.1436C39.8527 16.7914 39.6379 16.4908 39.4232 16.216C39.3373 16.1043 39.2085 16.0099 39.0968 15.9154C38.9766 15.8037 38.9079 15.6749 38.9251 15.5203C38.9422 15.3914 38.9165 15.2626 38.8134 15.1595C38.4441 14.7902 38.2895 14.3092 37.9974 13.897C37.9631 13.854 37.9287 13.7939 37.9373 13.751C37.9545 13.4246 37.7226 13.2184 37.5165 12.9865C37.1557 12.5914 36.9925 12.1191 36.9152 11.6209C36.8379 11.0712 36.6919 10.9681 36.0735 11.0626C35.833 11.097 35.6097 11.1571 35.4036 11.2859C35.3091 11.346 35.2146 11.3546 35.1116 11.3546C35.4036 21.7215 38.6416 29.7522 38.6416 29.7522C35.0858 23.6368 34.5962 16.1902 34.7594 11.2945C34.2784 11.1657 33.7974 11.054 33.2993 11.0111C33.2306 11.0025 33.1619 10.9853 33.1189 10.9338C32.9643 10.762 32.7582 10.7362 32.5349 10.7362C32.3201 10.7362 32.1741 10.6589 32.0195 10.5129C31.7962 10.3068 31.487 10.1951 31.1435 10.2638C30.9373 10.3068 30.7484 10.3841 30.568 10.4872C30.3103 10.6418 30.1385 10.8393 30.2244 11.1399C30.2416 11.2 30.233 11.2773 30.233 11.3375C30.2244 11.6381 29.9238 11.8013 29.6576 11.6295C29.4257 11.4749 29.1852 11.3718 28.9275 11.2945C31.2551 21.8332 36.0993 29.7522 36.0993 29.7522C31.2293 23.7485 29.2281 16.4307 28.4122 11.1829C28.3692 11.1743 28.3349 11.1657 28.2919 11.1657C28.103 11.1485 28.0171 11.0197 27.9655 10.8651C27.9054 10.6761 27.768 10.5902 27.579 10.5043C27.2441 10.3411 26.8919 10.2552 26.514 10.2552C26.2563 10.2552 26.0158 10.1522 25.8527 9.95464C25.741 9.8258 25.6208 9.75709 25.4318 9.78286C25.3631 9.79145 25.2686 9.79145 25.2428 9.71415C25.2085 9.62826 25.2772 9.57672 25.3373 9.52519C25.4318 9.45648 25.552 9.43071 25.6637 9.40494C25.7324 9.38777 25.8269 9.35341 25.7839 9.29329C25.6551 9.09574 25.8011 8.81231 25.5091 8.66629C25.406 8.61476 25.4318 8.51169 25.5005 8.43439C25.552 8.37427 25.6122 8.32273 25.6551 8.26261C25.7238 8.18531 25.7238 8.09942 25.6637 8.02212C25.6036 7.93623 25.5263 7.92764 25.4318 7.95341C25.2944 8.00495 25.1827 7.962 25.1054 7.85034C24.9594 7.85034 24.8048 7.85034 24.6588 7.85034C24.4097 7.962 24.152 8.02212 23.8772 7.93623C23.7999 7.91047 23.714 7.91906 23.6367 7.95341C23.5938 7.97059 23.5336 7.99636 23.5079 7.97918C23.2846 7.84175 23.0956 7.97059 22.9152 8.04789C22.752 8.1166 22.6146 8.1166 22.4342 8.07366C22.1594 7.99636 21.8674 8.06507 21.5925 8.10801C21.2232 8.16813 20.8539 8.21967 20.4931 8.30556C20.3643 8.33991 20.2441 8.38286 20.1238 8.4258C24.8821 21.8074 34.9484 31.5301 34.9484 31.5301C24.341 23.697 20.622 10.4013 20.1238 8.45157C19.806 8.56323 19.4968 8.69206 19.222 8.88961C19.0502 9.01844 18.8612 9.07856 18.6637 9.00985C18.4404 8.93255 18.2171 8.94114 17.9766 8.95832C17.6846 8.9755 17.3839 8.99267 17.2551 8.66629C17.2208 8.5804 17.1091 8.58899 17.0146 8.62335C16.9116 8.65771 16.8428 8.73501 16.7913 8.82089C16.7054 8.95832 16.6195 9.10433 16.5336 9.24176C16.3447 9.56814 16.0784 9.81721 15.7005 9.97182C14.9275 10.2896 14.6269 10.8737 14.6269 11.5951C14.6269 11.8528 14.5582 12.0503 14.3692 12.2307C13.9741 12.6172 13.5533 12.9608 12.9606 13.081C12.7889 13.1154 12.6772 13.227 12.6257 13.3816C12.5484 13.5792 12.4195 13.7424 12.2392 13.8884C11.9987 14.0773 11.8612 14.335 11.7754 14.6099C11.7066 14.816 11.595 14.9878 11.4232 15.1424C11.2257 15.3141 11.0882 15.5203 11.0195 15.7608C10.968 15.9326 10.8821 16.0872 10.7447 16.216C10.4956 16.4307 10.4698 16.7141 10.4527 16.9976C10.4441 17.1608 10.5815 17.2467 10.7189 17.324C10.8477 17.4013 10.968 17.4614 10.7962 17.6246C10.676 17.7362 10.7017 17.9166 10.7876 18.0454C11.0023 18.4062 10.9508 18.7583 10.8048 19.1191C10.7189 19.3252 10.6416 19.5399 10.5987 19.7546C10.5385 20.0123 10.4269 20.2442 10.152 20.373C10.0318 20.4332 10.0576 20.5105 10.1349 20.562C10.4784 20.7681 10.4698 21.0773 10.4527 21.3865C10.4355 21.627 10.4527 21.8589 10.6502 22.0479C10.7189 22.1166 10.7017 22.1939 10.6846 22.2798C10.6416 22.546 10.7704 22.6491 11.0453 22.589C11.1913 22.5546 11.303 22.5804 11.3888 22.7007C11.5692 22.9411 11.8269 23.1215 12.033 23.3448C12.1962 23.5252 12.2907 23.7141 12.2821 23.946C12.2649 24.2982 12.4367 24.5473 12.806 24.6847C13.2784 24.8651 13.622 25.2 13.9999 25.4921C14.3005 25.724 14.5839 25.973 14.9103 26.1792C15.1938 26.3595 15.503 26.4111 15.795 26.2393C16.525 25.8013 17.3152 25.9301 18.1054 25.9902ZM37.2502 34.4418C21.6956 28.043 13.9484 12.9694 13.9484 12.9694C22.8637 26.2908 37.2502 34.4418 37.2502 34.4418ZM10.487 20.1583L17.3925 25.8184H16.1471C16.1471 25.8184 10.6588 21.0086 10.487 20.1583Z" fill="url(#paint0_linear_219_2644)"/>
<path d="M38.8306 41.7424C38.8993 41.5277 38.9079 41.3302 38.8907 41.124C35.0772 42.6529 31.195 43.3915 27.7766 43.7093C27.8024 43.7866 27.8196 43.8553 27.8453 43.9326C27.8969 44.0786 27.957 44.2246 28.0772 44.3449C28.4465 44.7228 28.6613 45.1694 28.8588 45.6246C28.9189 45.7621 29.0048 45.8995 29.0821 46.0283C32.887 44.886 36.2024 43.5118 38.7104 42.3265C38.7791 42.232 38.822 42.1203 38.8134 41.9657C38.7877 41.9056 38.8048 41.8197 38.8306 41.7424Z" fill="url(#paint1_linear_219_2644)"/>
<path d="M47.0331 22.0823C46.6895 22.3142 46.2601 22.3142 45.8564 22.3743C45.2637 22.4688 44.6711 22.5547 44.1214 22.7522C43.9582 22.8123 43.8208 22.7866 43.7091 22.6835C43.5889 22.5718 43.4858 22.443 43.3742 22.3142C42.7472 25.4921 42.4981 28.1117 42.395 29.7178C42.5239 29.589 42.6441 29.4516 42.7472 29.3056C43.1938 28.6958 43.7091 28.1289 44.4048 27.708C44.8601 27.4332 45.195 27.0295 45.5558 26.6688C46.011 26.2135 46.3288 25.6896 46.5693 25.1142C46.7324 24.7277 46.9643 24.3583 47.1533 23.9804C47.2821 23.7313 47.4024 23.4737 47.4367 23.1988C47.4453 23.1043 47.4969 23.0185 47.5656 22.9497C47.5656 22.6405 47.5656 22.3313 47.5656 22.0221C47.3852 21.9191 47.222 21.9534 47.0331 22.0823Z" fill="url(#paint2_linear_219_2644)"/>
<path d="M26.7545 33.1619C26.8232 33.3165 26.8748 33.4625 26.7116 33.5999C26.6171 33.6772 26.6686 33.7889 26.703 33.8834C26.8146 34.1582 26.9349 34.4416 26.9864 34.7337C27.0637 35.1288 27.0465 35.4895 26.6858 35.7901L26.6772 35.7987C33.7373 37.568 39.6809 37.7999 41.3815 37.8257C41.5705 37.611 41.7165 37.3705 41.8539 37.1214C41.8539 37.1214 33.9263 36.2196 26.2563 32.0625C26.3766 32.4404 26.5827 32.7926 26.7545 33.1619Z" fill="url(#paint3_linear_219_2644)"/>
<path d="M29.3227 46.6895C29.3055 46.7668 29.2712 46.8355 29.1767 46.9128C29.0307 47.0245 29.108 47.3251 29.2712 47.4196C29.3742 47.4711 29.3485 47.5312 29.3227 47.6085C29.2626 47.8232 29.2969 47.8748 29.5374 47.9091C29.7436 47.9349 29.8982 48.0294 30.0184 48.1754C30.1043 48.1754 30.1988 48.1754 30.2847 48.1754C30.4478 48.038 30.6282 47.9692 30.8515 47.9778C30.989 47.9864 31.1264 47.9692 31.2466 47.9091C31.5816 47.7545 31.9423 47.7373 32.3031 47.7803C32.8528 47.8404 33.3595 47.703 33.8405 47.4883C34.5791 47.1619 35.1546 46.6551 35.6785 46.0969C35.9104 45.8478 36.1423 45.6073 36.3141 45.3153C36.4086 45.1607 36.5374 45.0232 36.692 44.9202C37.1215 44.6196 37.2847 44.2073 37.319 43.7778C34.6049 45.1091 31.8564 46.0367 29.3227 46.6895Z" fill="url(#paint4_linear_219_2644)"/>
<path d="M38.5557 39.8872C38.633 39.8013 38.7103 39.724 38.7961 39.6467C34.6133 40.6087 30.482 40.686 26.8918 40.394C26.9606 40.5228 27.0207 40.6431 27.0894 40.7633C27.2612 41.0811 27.3299 41.4246 27.3728 41.7682C27.4244 42.1976 27.4931 42.6185 27.5875 43.0394C32.0796 42.4381 35.979 41.4332 38.7618 40.5743C38.7017 40.4283 38.6329 40.2823 38.5471 40.1363C38.4869 40.0418 38.4784 39.9645 38.5557 39.8872Z" fill="url(#paint5_linear_219_2644)"/>
<path d="M40.6343 38.3067C40.9177 38.2122 41.1152 38.0662 41.2956 37.8944C35.8502 38.573 30.6109 37.7055 26.3079 36.4343C26.2993 36.4859 26.2907 36.5374 26.2821 36.5889C26.2649 36.8638 26.1447 37.1214 25.9987 37.3705C25.93 37.4994 25.8956 37.6368 25.8956 37.7742C25.887 38.0576 25.9214 38.3411 25.9643 38.6159C25.9987 38.8392 26.0932 39.0368 26.2478 39.2171C26.3594 39.346 26.4367 39.5006 26.514 39.6552C31.9594 39.9214 36.6662 39.4576 39.5435 39.0454C39.784 38.6589 40.1962 38.4527 40.6343 38.3067Z" fill="url(#paint6_linear_219_2644)"/>
<path d="M36.0563 28.9104C35.9961 28.9018 35.9446 28.919 35.9017 28.9533C35.7986 29.0049 35.79 29.0049 35.8845 29.0736C35.9618 29.1337 36.0047 29.211 36.0133 29.3055C36.0219 29.4 36.0305 29.4944 36.0563 29.5803C36.0906 29.7006 36.0219 29.8036 35.9103 29.8466C35.8072 29.8895 35.7471 29.9754 35.7814 30.0785C35.79 30.1128 35.8759 30.13 35.9274 30.1472C35.936 30.1558 35.9532 30.1472 35.9704 30.1558C36.0219 30.1644 36.0391 30.1901 36.0219 30.2245C36.0047 30.2589 36.0133 30.3018 36.0133 30.3362C36.0219 30.3791 35.9961 30.4135 35.9618 30.4392C35.8587 30.5251 35.7299 30.5938 35.7299 30.7398C35.7299 30.7484 35.7213 30.7656 35.7127 30.7742C35.6096 30.8515 35.5581 30.9546 35.4808 31.0405C35.3949 31.1349 35.309 31.238 35.163 31.2466C35.0599 31.2466 35.0342 31.2895 35.0342 31.3668C35.0342 31.4098 35.0342 31.4527 35.0428 31.4871C35.0771 31.6245 35.1201 31.7619 35.163 31.9079C35.1888 31.9852 35.1974 32.054 35.163 32.1398C35.0685 32.3202 35.1458 32.5779 35.3262 32.6809C35.5495 32.8098 35.6526 32.9987 35.7299 33.2135C35.8072 33.4196 35.9103 33.6171 35.9961 33.8147C36.0391 33.9092 36.1164 33.9607 36.2452 33.9607C36.3311 33.9607 36.4084 33.9865 36.4342 34.0638C36.4599 34.1411 36.5115 34.1668 36.5974 34.1668C36.6403 34.1668 36.6918 34.1582 36.709 34.2098C36.7434 34.2785 36.8293 34.33 36.898 34.3214C37.044 34.3128 37.1299 34.4159 37.2501 34.4417C37.3961 34.476 37.5422 34.5533 37.6796 34.6306C37.7569 34.6736 37.8599 34.665 37.9458 34.6306C38.0575 34.5791 38.0918 34.5791 38.1777 34.6564C38.2121 34.6908 38.2464 34.7251 38.2894 34.7595C38.3925 34.8368 38.444 34.9398 38.444 35.0601C38.444 35.1717 38.4526 35.2748 38.4955 35.3865C38.5127 35.4466 38.5127 35.5153 38.4784 35.5754C38.4526 35.6184 38.444 35.6613 38.4698 35.7043C38.5127 35.7987 38.6329 35.8503 38.6845 35.9447C38.6845 35.9533 38.7103 35.9533 38.7188 35.9533C38.8133 35.9619 38.8992 35.9705 38.9937 35.9705C39.028 35.9705 39.0624 35.9619 39.0968 35.9447C39.2428 35.8503 39.3544 35.8503 39.4661 35.9705C39.552 36.065 39.6722 36.0135 39.7581 36.0564C39.7667 36.0564 39.7925 36.0478 39.8011 36.0306C39.8955 35.9362 39.99 35.9362 40.1103 36.0049C40.2906 36.0994 40.4452 36.0478 40.5311 35.876C40.5826 35.7816 40.6599 35.7386 40.7716 35.7472C40.8403 35.7472 40.8918 35.773 40.952 35.7987C41.0035 35.8245 41.0379 35.8331 41.0808 35.7901C41.1667 35.7128 41.2698 35.6871 41.39 35.6957C41.4587 35.6957 41.5274 35.6871 41.579 35.6527C41.6992 35.5668 41.8366 35.5153 41.9741 35.4552C42.0685 35.4122 42.1544 35.3607 42.2317 35.292C42.2919 35.2405 42.2833 35.2061 42.206 35.1889C42.1029 35.1632 41.9912 35.146 41.9569 35.0343C41.9483 35 41.9139 35.0086 41.8796 35.0171C41.8109 35.0343 41.7937 34.9914 41.8195 34.9484C41.8538 34.8797 41.8366 34.8196 41.828 34.7595C41.8195 34.6908 41.725 34.622 41.7422 34.5877C41.7937 34.476 41.7164 34.4073 41.682 34.33C41.6477 34.2613 41.6305 34.1754 41.6047 34.0981C41.5704 33.9607 41.5103 33.8319 41.6133 33.6944C41.6391 33.6687 41.6477 33.6257 41.6477 33.5914C41.6477 33.557 41.682 33.4969 41.5876 33.5227C41.536 33.5313 41.5188 33.4883 41.5274 33.454C41.5618 33.3079 41.5618 33.1619 41.6906 33.0503C41.725 33.0245 41.7679 32.9901 41.7336 32.9472C41.7078 32.9043 41.682 32.8699 41.6219 32.8785C41.5876 32.8785 41.5446 32.8699 41.5532 32.8355C41.5704 32.7411 41.4845 32.6981 41.4244 32.6466C41.2526 32.5092 41.2268 32.3288 41.2526 32.1484C41.2869 31.9337 41.4415 31.7533 41.4673 31.5386C41.4673 31.5214 41.4845 31.5043 41.4931 31.4871C41.5274 31.4355 41.5188 31.3926 41.4673 31.3582C41.244 31.2036 41.0293 31.049 40.806 30.8859C40.7115 30.8171 40.5826 30.7742 40.5483 30.6454C40.5397 30.6282 40.5139 30.6196 40.4968 30.611C40.4195 30.5767 40.4195 30.5251 40.4538 30.465C40.5311 30.3447 40.5225 30.3104 40.3937 30.2417C39.655 29.8294 38.9078 29.4171 38.1691 28.9963C38.0747 28.9447 37.9888 28.9104 37.8771 28.9276C37.7569 28.9448 37.6366 28.9447 37.5164 28.9447C37.0354 28.919 36.5458 28.9362 36.0563 28.9104Z" fill="#58595B" stroke="white" stroke-width="0.25" stroke-miterlimit="10"/>
<path d="M24.6846 7.8418C24.8306 7.8418 24.9852 7.8418 25.1312 7.8418C25.2085 7.95345 25.3202 7.98781 25.4576 7.94486C25.5521 7.91051 25.6294 7.92769 25.6895 8.01358C25.7496 8.09947 25.7496 8.17677 25.6809 8.25407C25.6294 8.31419 25.5692 8.36572 25.5263 8.42585C25.4576 8.50315 25.4318 8.60621 25.5349 8.65775C25.8269 8.80376 25.6809 9.0872 25.8097 9.28474C25.8527 9.34486 25.7582 9.37922 25.6895 9.3964C25.5692 9.42216 25.4576 9.44793 25.3631 9.51664C25.303 9.56818 25.2343 9.61971 25.2686 9.7056C25.303 9.7829 25.3889 9.7829 25.4576 9.77431C25.6465 9.74855 25.7668 9.80867 25.8784 9.94609C26.0416 10.1436 26.2735 10.2467 26.5398 10.2467C26.9263 10.2467 27.2698 10.3326 27.6048 10.4958C27.7852 10.5817 27.9312 10.6676 27.9913 10.8565C28.0343 11.0025 28.1202 11.14 28.3177 11.1571C28.8159 11.2001 29.2711 11.3375 29.6833 11.6209C29.9496 11.8013 30.2416 11.6295 30.2588 11.3289C30.2588 11.2602 30.2674 11.1915 30.2502 11.1314C30.1557 10.8222 30.3275 10.6332 30.5938 10.47C30.7656 10.3669 30.9631 10.2896 31.1692 10.2467C31.5128 10.178 31.822 10.2896 32.0453 10.4958C32.1999 10.6418 32.3459 10.7191 32.5606 10.7191C32.784 10.7191 32.9987 10.7449 33.1447 10.9166C33.1876 10.9682 33.2478 10.9854 33.3251 10.9939C33.8919 11.0541 34.4416 11.1829 34.9827 11.3289C35.1459 11.3719 35.2833 11.3633 35.4294 11.2774C35.6269 11.1571 35.8588 11.0884 36.0993 11.0541C36.7177 10.9596 36.8637 11.0627 36.941 11.6123C37.0097 12.1105 37.1729 12.5829 37.5422 12.978C37.7484 13.2099 37.9803 13.416 37.9631 13.7424C37.9631 13.7939 37.9975 13.8455 38.0232 13.8884C38.3152 14.3007 38.4698 14.7817 38.8392 15.1596C38.9422 15.2627 38.968 15.3829 38.9508 15.5203C38.9337 15.6835 38.9938 15.8123 39.1226 15.924C39.2343 16.0271 39.3631 16.113 39.449 16.2332C39.6637 16.5081 39.8784 16.8087 39.8613 17.1608C39.8355 17.7019 40.0159 18.1485 40.4883 18.5007C40.7287 18.6811 40.8748 18.9044 40.9435 19.1792C40.9864 19.3252 41.0294 19.4627 41.0637 19.6087C41.0895 19.7203 41.1668 19.832 41.2784 19.8406C41.5447 19.8663 41.6993 19.9694 41.7079 20.2185C41.7079 20.2357 41.7422 20.2614 41.768 20.2786C42.0171 20.4332 42.206 20.6479 42.4208 20.8197C42.7214 21.0516 42.9533 21.3436 43.211 21.6099C43.357 21.7559 43.4514 21.9363 43.3398 22.151C43.314 22.1939 43.3312 22.2455 43.357 22.2884C43.4772 22.4344 43.5975 22.5804 43.7349 22.7093C43.8465 22.8123 43.9754 22.8381 44.1471 22.778C44.7054 22.5719 45.2981 22.486 45.8821 22.3915C46.2858 22.3314 46.7152 22.3314 47.0588 22.0995C47.2392 21.9706 47.411 21.9363 47.6085 22.0393C47.6085 22.3485 47.6085 22.6577 47.6085 22.967C47.5398 23.0443 47.4883 23.1216 47.4797 23.216C47.4453 23.4909 47.3251 23.7485 47.1962 23.9976C47.0073 24.3755 46.7668 24.7449 46.6122 25.1314C46.3717 25.7068 46.0539 26.2308 45.5987 26.686C45.2379 27.0553 44.903 27.4504 44.4478 27.7252C43.7607 28.1461 43.2367 28.713 42.7901 29.3228C42.5496 29.6577 42.2662 29.9412 41.9226 30.1817C41.8539 30.2332 41.768 30.2762 41.7508 30.362C41.6478 30.8516 41.3214 31.2639 41.1067 31.7105C40.9521 32.0197 41.0036 32.2516 41.2441 32.4749C41.3214 32.5522 41.3815 32.6295 41.3386 32.7498C41.1152 33.3081 41.2784 33.832 41.622 34.2872C41.8453 34.5792 41.8797 34.8541 41.8539 35.1804C41.8195 35.6872 41.7938 36.1854 41.914 36.6835C41.957 36.8467 41.9656 37.0099 41.8797 37.1559C41.5962 37.6541 41.3042 38.1436 40.66 38.3584C40.2134 38.5044 39.784 38.7191 39.5521 39.1314C39.5005 39.2173 39.4146 39.2688 39.3202 39.3203C39.0195 39.4749 38.8048 39.7068 38.5901 39.9387C38.5128 40.016 38.5214 40.1019 38.5815 40.1964C38.8821 40.7031 39.0453 41.2271 38.8649 41.8025C38.8392 41.8798 38.8306 41.9657 38.8306 42.043C38.8564 42.3608 38.6502 42.5412 38.3582 42.6614C38.2465 42.713 38.1177 42.7387 37.9975 42.7817C37.5766 42.9277 37.3447 43.1338 37.3705 43.6062C37.3962 44.1216 37.233 44.6369 36.7349 44.989C36.5803 45.0921 36.4514 45.2295 36.357 45.3841C36.1852 45.6676 35.9533 45.9166 35.7214 46.1657C35.1975 46.724 34.622 47.2393 33.8833 47.5657C33.4024 47.7804 32.9042 47.9179 32.3459 47.8577C31.9852 47.8234 31.633 47.832 31.2895 47.9866C31.1692 48.0381 31.0318 48.0639 30.8944 48.0553C30.6711 48.0467 30.4821 48.1154 30.3275 48.2528C30.2416 48.2528 30.1471 48.2528 30.0613 48.2528C29.941 48.1068 29.7864 48.0123 29.5803 47.9866C29.3398 47.9522 29.3054 47.9007 29.3656 47.686C29.3827 47.6087 29.4085 47.5571 29.314 47.497C29.1422 47.4025 29.0735 47.1019 29.2195 46.9903C29.503 46.767 29.3656 46.5522 29.2367 46.3461C29.1079 46.14 28.9876 45.9338 28.8932 45.7105C28.6956 45.2553 28.4809 44.8001 28.1116 44.4222C27.9999 44.3019 27.9398 44.1559 27.8797 44.0099C27.622 43.3056 27.4932 42.5755 27.4073 41.8369C27.3643 41.4847 27.3042 41.1498 27.1238 40.8234C26.9521 40.5142 26.7975 40.205 26.6343 39.8958C26.5226 39.6896 26.4367 39.4749 26.2735 39.2946C26.1189 39.1142 26.0244 38.9166 25.9901 38.6847C25.9471 38.4013 25.9214 38.1265 25.9214 37.843C25.9214 37.697 25.9557 37.5682 26.0244 37.4393C26.1619 37.1903 26.2821 36.9326 26.3079 36.6578C26.3337 36.34 26.4539 36.0651 26.7116 35.8504C27.0723 35.5498 27.0895 35.189 27.0122 34.7939C26.9521 34.5019 26.8404 34.2271 26.7287 33.9436C26.6858 33.8492 26.6429 33.7375 26.7373 33.6602C26.9091 33.5228 26.8576 33.3768 26.7803 33.2222C26.5741 32.7584 26.2821 32.3203 26.2134 31.805C26.2048 31.762 26.1791 31.7105 26.1533 31.6762C25.8097 31.2209 25.5177 30.7314 25.0539 30.3535C24.676 30.0443 24.5557 29.6148 24.3668 29.2111C24.3238 29.1252 24.341 29.0393 24.4527 29.0136C24.633 28.9706 24.6588 28.859 24.6674 28.7215C24.6932 28.3265 24.7447 27.94 24.8649 27.5535C25.0367 27.0038 24.8993 26.7289 24.384 26.3939C24.2895 26.3338 24.1864 26.3166 24.0662 26.3338C23.7999 26.3768 23.5337 26.4111 23.2674 26.4541C22.9324 26.5056 22.6662 26.3682 22.5717 26.0761C22.5116 25.8958 22.4257 25.724 22.2968 25.5694C22.1251 25.3547 21.9017 25.2516 21.6011 25.2688C21.1202 25.3117 20.6306 25.3375 20.184 25.5265C19.7975 25.6896 19.4024 25.8271 19.0244 26.0074C18.7496 26.1363 18.5005 26.2393 18.2171 26.0504C18.1913 26.0332 18.157 26.0332 18.1312 26.0332C17.341 25.9731 16.5508 25.8443 15.8208 26.2737C15.5287 26.4455 15.2195 26.3939 14.9361 26.2136C14.6097 26.0074 14.3263 25.7584 14.0257 25.5265C13.6478 25.2344 13.2956 24.8995 12.8318 24.7191C12.4625 24.5731 12.2907 24.324 12.3079 23.9719C12.3165 23.7314 12.222 23.5424 12.0588 23.362C11.8527 23.1387 11.595 22.9584 11.4146 22.7179C11.3287 22.5976 11.2171 22.5719 11.0711 22.6062C10.7962 22.6663 10.6674 22.5633 10.7103 22.297C10.7275 22.2111 10.7447 22.1338 10.676 22.0651C10.4698 21.8762 10.4613 21.6443 10.4784 21.4038C10.4956 21.086 10.5042 20.7854 10.1606 20.5792C10.0833 20.5277 10.049 20.4504 10.1778 20.3903C10.4527 20.2528 10.5643 20.0209 10.6244 19.7633C10.676 19.5485 10.7447 19.3338 10.8306 19.1277C10.9766 18.7669 11.0281 18.4148 10.8134 18.0541C10.7361 17.9166 10.7103 17.7449 10.822 17.6332C10.9938 17.47 10.8735 17.4099 10.7447 17.3326C10.6073 17.2553 10.4698 17.178 10.4784 17.0062C10.4956 16.7228 10.5214 16.4393 10.7705 16.2246C10.9165 16.0958 11.0024 15.9412 11.0453 15.7694C11.114 15.5289 11.26 15.3228 11.449 15.151C11.6122 14.9964 11.7324 14.8246 11.8011 14.6185C11.887 14.3436 12.0244 14.086 12.2649 13.897C12.4539 13.751 12.5741 13.5964 12.6514 13.3903C12.7116 13.2443 12.8146 13.124 12.9864 13.0897C13.579 12.9694 14.0085 12.6344 14.395 12.2393C14.584 12.0504 14.6527 11.8528 14.6527 11.6038C14.6527 10.8823 14.9619 10.2982 15.7263 9.98045C16.1042 9.82584 16.379 9.58535 16.5594 9.25039C16.6367 9.10437 16.7312 8.96695 16.8171 8.82094C16.8686 8.73505 16.9373 8.66634 17.0404 8.62339C17.1263 8.58904 17.2465 8.58045 17.2809 8.66634C17.4097 9.00131 17.7103 8.97554 18.0024 8.95836C18.2343 8.94118 18.4576 8.93259 18.6895 9.0099C18.8956 9.07861 19.076 9.01849 19.2478 8.88965C19.6257 8.60622 20.0723 8.43443 20.5447 8.31419C20.9054 8.2283 21.2748 8.17677 21.6441 8.11664C21.9275 8.0737 22.2195 8.00499 22.4858 8.08229C22.6662 8.13382 22.8036 8.12523 22.9668 8.05652C23.1557 7.97922 23.3361 7.85038 23.5594 7.98781C23.5852 8.00499 23.6453 7.97922 23.6883 7.96204C23.7656 7.92769 23.8514 7.9191 23.9287 7.94486C24.1778 8.01358 24.4355 7.95345 24.6846 7.8418Z" stroke="#58595B" stroke-width="0.25" stroke-miterlimit="10"/>
<path d="M29.4773 55.2012C14.2834 55.2012 1.96687 42.9877 1.96687 27.9227C1.96687 12.8577 14.2834 0.644172 29.4773 0.644172C33.2736 0.644172 36.881 1.40859 40.1706 2.78282C36.4859 1.00491 32.3632 0 28 0C12.5399 0 0 12.5313 0 28C0 43.4687 12.5313 56 28 56C33.3337 56 38.3153 54.5055 42.5583 51.9202C38.6589 54.016 34.2098 55.2012 29.4773 55.2012Z" fill="#58595B"/>
<path d="M50.0134 36.0391H50.5545L51.8343 39.6464H51.3275L50.6662 37.6366C50.5287 37.2329 50.4085 36.8378 50.2882 36.4256H50.2625C50.1422 36.8464 50.022 37.2415 49.8931 37.6366L49.2232 39.6464H48.7336L50.0134 36.0391ZM49.4036 38.1777H51.1385V38.547H49.4036V38.1777Z" fill="#414042"/>
<path d="M52.3582 36.0391H54.5397V36.4256H52.8391V37.6452H54.2821V38.0317H52.8391V39.6464H52.3582V36.0391Z" fill="#414042"/>
<path d="M55.2012 36.0391H56.3864C57.1595 36.0391 57.7091 36.3053 57.7091 37.0526C57.7091 37.774 57.1595 38.1176 56.3864 38.1176H55.6822V39.6378H55.2012V36.0391ZM56.3177 37.7483C56.9018 37.7483 57.2282 37.525 57.2282 37.0526C57.2282 36.5802 56.9018 36.4084 56.3177 36.4084H55.6822V37.7483H56.3177ZM56.292 37.9973L56.6699 37.7569L57.8208 39.6464H57.2797L56.292 37.9973Z" fill="#414042"/>
<path d="M58.4736 36.0391H58.9546V39.6464H58.4736V36.0391Z" fill="#414042"/>
<path d="M60.8613 38.092H62.184V38.4356H60.8613V38.092Z" fill="#414042"/>
<path d="M64.0735 36.0391H65.1557C66.006 36.0391 66.5729 36.3139 66.5729 37.1041C66.5729 37.8599 66.006 38.2207 65.1815 38.2207H64.5631V39.6464H64.0821V36.0391H64.0735ZM65.1213 37.8427C65.7827 37.8427 66.1005 37.6108 66.1005 37.1041C66.1005 36.5802 65.7655 36.417 65.1042 36.417H64.5631V37.8513H65.1213V37.8427Z" fill="#414042"/>
<path d="M67.3289 36.0391H68.5141C69.2871 36.0391 69.8368 36.3053 69.8368 37.0526C69.8368 37.774 69.2871 38.1176 68.5141 38.1176H67.8098V39.6378H67.3289V36.0391ZM68.4454 37.7483C69.0295 37.7483 69.3559 37.525 69.3559 37.0526C69.3559 36.5802 69.0295 36.4084 68.4454 36.4084H67.8098V37.7483H68.4454ZM68.4197 37.9973L68.7976 37.7569L69.9485 39.6464H69.4074L68.4197 37.9973Z" fill="#414042"/>
<path d="M70.3865 37.8257C70.3865 36.6747 71.0478 35.9705 72.0012 35.9705C72.9546 35.9705 73.6159 36.6747 73.6159 37.8257C73.6159 38.9766 72.9546 39.7067 72.0012 39.7067C71.0478 39.7067 70.3865 38.9852 70.3865 37.8257ZM73.1178 37.8257C73.1178 36.9324 72.6711 36.3741 72.0012 36.3741C71.3313 36.3741 70.8846 36.9238 70.8846 37.8257C70.8846 38.7275 71.3313 39.303 72.0012 39.303C72.6711 39.303 73.1178 38.7275 73.1178 37.8257Z" fill="#414042"/>
<path d="M75.2993 39.1741L75.5828 38.8563C75.8576 39.1226 76.2355 39.303 76.622 39.303C77.1202 39.303 77.4122 39.0711 77.4122 38.7189C77.4122 38.3496 77.1374 38.2294 76.7852 38.0833L76.2441 37.8514C75.892 37.7054 75.4797 37.4563 75.4797 36.9238C75.4797 36.3741 75.9778 35.9705 76.665 35.9705C77.1116 35.9705 77.5153 36.1508 77.7729 36.4171L77.5153 36.7091C77.2834 36.503 77.0085 36.3741 76.6564 36.3741C76.2355 36.3741 75.9521 36.5803 75.9521 36.8981C75.9521 37.2416 76.2785 37.379 76.5791 37.4907L77.1202 37.714C77.5582 37.8944 77.9018 38.1435 77.9018 38.676C77.9018 39.2429 77.4122 39.6981 76.6134 39.6981C76.0895 39.7067 75.6343 39.5005 75.2993 39.1741Z" fill="#414042"/>
<path d="M78.6489 36.0391H80.8219V36.4256H79.1299V37.5593H80.5643V37.9458H79.1299V39.2599H80.8821V39.6464H78.6489V36.0391Z" fill="#414042"/>
<path d="M81.6809 36.0391H82.8662C83.6392 36.0391 84.1889 36.3053 84.1889 37.0526C84.1889 37.774 83.6392 38.1176 82.8662 38.1176H82.1619V39.6378H81.6809V36.0391ZM82.7889 37.7483C83.3729 37.7483 83.6993 37.525 83.6993 37.0526C83.6993 36.5802 83.3729 36.4084 82.7889 36.4084H82.1533V37.7483H82.7889ZM82.7631 37.9973L83.141 37.7569L84.292 39.6464H83.7508L82.7631 37.9973Z" fill="#414042"/>
<path d="M84.438 36.0391H84.9447L85.5545 37.9888C85.6834 38.4096 85.7779 38.7532 85.9153 39.1826H85.9411C86.0785 38.7618 86.173 38.4182 86.3018 37.9888L86.9116 36.0391H87.4012L86.1987 39.6464H85.6404L84.438 36.0391Z" fill="#414042"/>
<path d="M87.908 36.0391H88.3889V39.6464H87.908V36.0391Z" fill="#414042"/>
<path d="M89.2048 37.8429C89.2048 36.6833 89.9177 35.9705 90.8797 35.9705C91.3349 35.9705 91.6956 36.1852 91.9189 36.4171L91.6527 36.7177C91.4551 36.5116 91.2061 36.3741 90.8883 36.3741C90.1754 36.3741 89.703 36.9324 89.703 37.8257C89.703 38.7275 90.1582 39.303 90.8711 39.303C91.2318 39.303 91.5067 39.157 91.7472 38.8993L92.0134 39.1827C91.7128 39.5091 91.3435 39.7067 90.8539 39.7067C89.9091 39.7067 89.2048 39.0109 89.2048 37.8429Z" fill="#414042"/>
<path d="M92.7092 36.0391H94.8822V36.4256H93.1902V37.5593H94.6246V37.9458H93.1902V39.2599H94.9423V39.6464H92.7092V36.0391Z" fill="#414042"/>
<path d="M95.4661 39.1741L95.7495 38.8563C96.0243 39.1226 96.4023 39.303 96.7888 39.303C97.2869 39.303 97.5789 39.0711 97.5789 38.7189C97.5789 38.3496 97.3041 38.2294 96.9519 38.0833L96.4109 37.8514C96.0587 37.7054 95.6464 37.4563 95.6464 36.9238C95.6464 36.3741 96.1446 35.9705 96.8317 35.9705C97.2783 35.9705 97.682 36.1508 97.9397 36.4171L97.682 36.7091C97.4501 36.503 97.1753 36.3741 96.8231 36.3741C96.4023 36.3741 96.1188 36.5803 96.1188 36.8981C96.1188 37.2416 96.4452 37.379 96.7458 37.4907L97.2869 37.714C97.725 37.8944 98.0685 38.1435 98.0685 38.676C98.0685 39.2429 97.5789 39.6981 96.7802 39.6981C96.2562 39.7067 95.7924 39.5005 95.4661 39.1741Z" fill="#414042"/>
<path d="M48.9571 40.4541C44.3792 47.9866 35.9363 52.7535 26.6516 52.0664C22.1768 51.74 18.0798 50.1854 14.6528 47.7547C18.3719 50.5719 22.924 52.3928 27.9314 52.7621C36.924 53.4234 45.1436 49.2492 50.0737 42.4467C49.7215 41.7768 49.3694 41.0983 48.9571 40.4541Z" fill="url(#paint7_linear_219_2644)"/>
<path d="M51.7486 15.7435C47.7976 8.53741 40.4197 3.4098 31.616 2.75704C26.1363 2.35336 20.94 3.74477 16.6025 6.43312C20.6136 4.12269 25.3117 2.95459 30.2504 3.31533C39.0712 3.96809 46.4062 9.37054 50.0565 16.8773C50.6148 16.4994 51.1731 16.1215 51.7486 15.7435Z" fill="url(#paint8_linear_219_2644)"/>
<path d="M60.973 11.3889H56.4638L48.708 33.1447L53.1141 33.2822L54.7546 28.3951H62.2098L63.8503 33.2822H66.2123V26.222L60.973 11.3889ZM55.9056 24.9165L58.5595 17.4012L61.0589 24.9165H55.9056Z" fill="url(#paint9_linear_219_2644)"/>
<path d="M81.87 13.8024C80.6332 11.6551 77.1461 11.4919 77.1461 11.4919H66.6074V33.2735H71.4087V25.3975C81.2001 26.6858 82.6516 21.9103 82.6516 21.9103C79.1387 18.5778 81.87 13.8024 81.87 13.8024ZM75.7289 21.7472H71.4087V15.3913H75.7031C75.7031 15.3913 79.0013 15.1508 78.8123 18.5692C78.632 21.9876 75.7289 21.7472 75.7289 21.7472Z" fill="url(#paint10_linear_219_2644)"/>
<path d="M89.0502 11.0883C91.9189 10.9938 94.4183 11.8871 96.4625 13.9313C96.8232 14.292 97.1238 14.7214 97.4502 15.1165C97.665 15.3742 97.622 15.5889 97.3557 15.7865C96.4367 16.4736 95.5263 17.1779 94.6159 17.8736C94.3754 18.0626 94.238 17.9595 94.092 17.7533C93.1729 16.4306 91.9275 15.5374 90.3558 15.1767C89.2306 14.919 88.0797 14.876 86.9975 15.4343C85.6146 16.1472 85.5545 17.9681 86.8515 18.827C87.7877 19.4454 88.8355 19.7546 89.8919 20.0552C91.6183 20.5533 93.3447 21.0172 94.9852 21.8073C97.2097 22.881 98.4809 25.2257 98.1975 27.6564C97.8539 30.6282 95.5693 32.4834 93.1386 33.119C91.3693 33.5828 89.5827 33.703 87.7877 33.4711C84.6269 33.0675 82.1705 31.5129 80.5214 28.7472C80.1864 28.1889 80.2036 28.1718 80.7705 27.8282C81.638 27.3043 82.5226 26.8061 83.3901 26.265C83.7508 26.0417 83.957 26.0589 84.1803 26.454C84.9619 27.811 86.0784 28.8331 87.5815 29.3141C89.222 29.838 90.9054 29.9497 92.46 29.0135C93.8085 28.2061 93.8257 26.4625 92.5459 25.5607C91.4208 24.7619 90.0981 24.4613 88.8012 24.092C87.2551 23.6454 85.6919 23.2417 84.249 22.4773C81.9042 21.2491 80.9165 19.1963 81.2515 16.5509C81.5778 13.9141 83.5877 12.0417 85.9926 11.4147C86.5079 11.2773 87.0232 11.1399 87.5558 11.0797C88.0453 11.0454 88.5521 11.0883 89.0502 11.0883Z" fill="url(#paint11_linear_219_2644)" stroke="white" stroke-width="0.5" stroke-miterlimit="10"/>
<path d="M48.7166 34.9314H98.2405" stroke="#58595B" stroke-width="0.5" stroke-miterlimit="10"/>
</g>
<defs>
<linearGradient id="paint0_linear_219_2644" x1="23.5797" y1="7.21862" x2="30.4489" y2="39.5359" gradientUnits="userSpaceOnUse">
<stop stop-color="#F8AE40"/>
<stop offset="0.0261" stop-color="#F7A840"/>
<stop offset="0.1109" stop-color="#F59B40"/>
<stop offset="0.1982" stop-color="#F3933F"/>
<stop offset="0.2912" stop-color="#F3903F"/>
<stop offset="0.4186" stop-color="#ED683C"/>
<stop offset="0.616" stop-color="#EB593B"/>
<stop offset="1" stop-color="#E93E3A"/>
</linearGradient>
<linearGradient id="paint1_linear_219_2644" x1="33.3033" y1="42.3143" x2="33.8775" y2="45.016" gradientUnits="userSpaceOnUse">
<stop stop-color="#F8AE40"/>
<stop offset="0.0261" stop-color="#F7A840"/>
<stop offset="0.1109" stop-color="#F59B40"/>
<stop offset="0.1982" stop-color="#F3933F"/>
<stop offset="0.2912" stop-color="#F3903F"/>
<stop offset="0.4186" stop-color="#ED683C"/>
<stop offset="0.616" stop-color="#EB593B"/>
<stop offset="1" stop-color="#E93E3A"/>
</linearGradient>
<linearGradient id="paint2_linear_219_2644" x1="44.2023" y1="22.1416" x2="45.665" y2="29.0231" gradientUnits="userSpaceOnUse">
<stop stop-color="#F8AE40"/>
<stop offset="0.0261" stop-color="#F7A840"/>
<stop offset="0.1109" stop-color="#F59B40"/>
<stop offset="0.1982" stop-color="#F3933F"/>
<stop offset="0.2912" stop-color="#F3903F"/>
<stop offset="0.4186" stop-color="#ED683C"/>
<stop offset="0.616" stop-color="#EB593B"/>
<stop offset="1" stop-color="#E93E3A"/>
</linearGradient>
<linearGradient id="paint3_linear_219_2644" x1="33.02" y1="30.614" x2="34.8464" y2="39.2068" gradientUnits="userSpaceOnUse">
<stop stop-color="#F8AE40"/>
<stop offset="0.0261" stop-color="#F7A840"/>
<stop offset="0.1109" stop-color="#F59B40"/>
<stop offset="0.1982" stop-color="#F3933F"/>
<stop offset="0.2912" stop-color="#F3903F"/>
<stop offset="0.4186" stop-color="#ED683C"/>
<stop offset="0.616" stop-color="#EB593B"/>
<stop offset="1" stop-color="#E93E3A"/>
</linearGradient>
<linearGradient id="paint4_linear_219_2644" x1="33.0478" y1="44.6844" x2="33.6705" y2="47.6142" gradientUnits="userSpaceOnUse">
<stop stop-color="#F8AE40"/>
<stop offset="0.0261" stop-color="#F7A840"/>
<stop offset="0.1109" stop-color="#F59B40"/>
<stop offset="0.1982" stop-color="#F3933F"/>
<stop offset="0.2912" stop-color="#F3903F"/>
<stop offset="0.4186" stop-color="#ED683C"/>
<stop offset="0.616" stop-color="#EB593B"/>
<stop offset="1" stop-color="#E93E3A"/>
</linearGradient>
<linearGradient id="paint5_linear_219_2644" x1="32.6611" y1="39.1615" x2="33.2709" y2="42.0306" gradientUnits="userSpaceOnUse">
<stop stop-color="#F8AE40"/>
<stop offset="0.0261" stop-color="#F7A840"/>
<stop offset="0.1109" stop-color="#F59B40"/>
<stop offset="0.1982" stop-color="#F3933F"/>
<stop offset="0.2912" stop-color="#F3903F"/>
<stop offset="0.4186" stop-color="#ED683C"/>
<stop offset="0.616" stop-color="#EB593B"/>
<stop offset="1" stop-color="#E93E3A"/>
</linearGradient>
<linearGradient id="paint6_linear_219_2644" x1="32.9354" y1="35.0232" x2="34.0404" y2="40.222" gradientUnits="userSpaceOnUse">
<stop stop-color="#F8AE40"/>
<stop offset="0.0261" stop-color="#F7A840"/>
<stop offset="0.1109" stop-color="#F59B40"/>
<stop offset="0.1982" stop-color="#F3933F"/>
<stop offset="0.2912" stop-color="#F3903F"/>
<stop offset="0.4186" stop-color="#ED683C"/>
<stop offset="0.616" stop-color="#EB593B"/>
<stop offset="1" stop-color="#E93E3A"/>
</linearGradient>
<linearGradient id="paint7_linear_219_2644" x1="14.8609" y1="44.8757" x2="50.1244" y2="47.4781" gradientUnits="userSpaceOnUse">
<stop stop-color="#F8AE40"/>
<stop offset="0.0261" stop-color="#F7A840"/>
<stop offset="0.1109" stop-color="#F59B40"/>
<stop offset="0.1982" stop-color="#F3933F"/>
<stop offset="0.2912" stop-color="#F3903F"/>
<stop offset="0.4186" stop-color="#ED683C"/>
<stop offset="0.616" stop-color="#EB593B"/>
<stop offset="1" stop-color="#E93E3A"/>
</linearGradient>
<linearGradient id="paint8_linear_219_2644" x1="16.4816" y1="8.02164" x2="52.8236" y2="10.7037" gradientUnits="userSpaceOnUse">
<stop stop-color="#F8AE40"/>
<stop offset="0.0261" stop-color="#F7A840"/>
<stop offset="0.1109" stop-color="#F59B40"/>
<stop offset="0.1982" stop-color="#F3933F"/>
<stop offset="0.2912" stop-color="#F3903F"/>
<stop offset="0.4186" stop-color="#ED683C"/>
<stop offset="0.616" stop-color="#EB593B"/>
<stop offset="1" stop-color="#E93E3A"/>
</linearGradient>
<linearGradient id="paint9_linear_219_2644" x1="50.5386" y1="14.8131" x2="62.4532" y2="35.4497" gradientUnits="userSpaceOnUse">
<stop stop-color="#F8AE40"/>
<stop offset="0.0261" stop-color="#F7A840"/>
<stop offset="0.1109" stop-color="#F59B40"/>
<stop offset="0.1982" stop-color="#F3933F"/>
<stop offset="0.2912" stop-color="#F3903F"/>
<stop offset="0.4186" stop-color="#ED683C"/>
<stop offset="0.616" stop-color="#EB593B"/>
<stop offset="1" stop-color="#E93E3A"/>
</linearGradient>
<linearGradient id="paint10_linear_219_2644" x1="67.1168" y1="11.2041" x2="77.7507" y2="29.6226" gradientUnits="userSpaceOnUse">
<stop stop-color="#F8AE40"/>
<stop offset="0.0261" stop-color="#F7A840"/>
<stop offset="0.1109" stop-color="#F59B40"/>
<stop offset="0.1982" stop-color="#F3933F"/>
<stop offset="0.2912" stop-color="#F3903F"/>
<stop offset="0.4186" stop-color="#ED683C"/>
<stop offset="0.616" stop-color="#EB593B"/>
<stop offset="1" stop-color="#E93E3A"/>
</linearGradient>
<linearGradient id="paint11_linear_219_2644" x1="83.5718" y1="12.5446" x2="95.0168" y2="32.368" gradientUnits="userSpaceOnUse">
<stop stop-color="#F8AE40"/>
<stop offset="0.0261" stop-color="#F7A840"/>
<stop offset="0.1109" stop-color="#F59B40"/>
<stop offset="0.1982" stop-color="#F3933F"/>
<stop offset="0.2912" stop-color="#F3903F"/>
<stop offset="0.4186" stop-color="#ED683C"/>
<stop offset="0.616" stop-color="#EB593B"/>
<stop offset="1" stop-color="#E93E3A"/>
</linearGradient>
<clipPath id="clip0_219_2644">
<rect width="98.2405" height="56" fill="white"/>
</clipPath>
</defs>
</svg>
