<svg width="932" height="498" viewBox="0 0 932 498" fill="none" xmlns="http://www.w3.org/2000/svg">
<g filter="url(#filter0_d_266_6361)">
<path d="M837.908 305.277C852.088 294.549 859.382 287.788 859.382 287.788C700.581 228.717 710.553 128.939 710.297 128.368C709.29 128.21 536.493 133.981 434.18 42.2973C434.18 42.2973 422.47 46.5086 403.881 54.6917C314.033 94.2694 63.2384 226.763 195.29 425.708C539.878 501.951 769.364 357.154 837.908 305.277Z" fill="white" fill-opacity="0.07" shape-rendering="crispEdges"/>
</g>
<g filter="url(#filter1_d_266_6361)">
<path d="M763.799 299.675C775.252 291.01 781.144 285.551 781.144 285.551C652.969 237.888 661.071 157.332 660.865 156.871C660.052 156.743 520.544 161.432 437.99 87.4304C437.99 87.4304 428.534 90.8324 413.522 97.4421C340.964 129.41 138.419 236.42 244.927 397.013C523.086 458.508 708.433 341.569 763.799 299.675Z" fill="white" fill-opacity="0.07" shape-rendering="crispEdges"/>
</g>
<g filter="url(#filter2_d_266_6361)">
<path d="M690.198 294.542C698.946 287.922 703.447 283.751 703.447 283.751C605.469 247.305 611.621 185.743 611.463 185.391C610.842 185.294 504.229 188.854 441.103 132.287C441.103 132.287 433.878 134.885 422.409 139.934C366.975 164.352 212.24 246.098 293.715 368.843C506.32 415.885 647.907 326.549 690.198 294.542Z" fill="white" fill-opacity="0.07" shape-rendering="crispEdges"/>
</g>
<defs>
<filter id="filter0_d_266_6361" x="125.628" y="27.6591" width="765.775" height="469.186" filterUnits="userSpaceOnUse" color-interpolation-filters="sRGB">
<feFlood flood-opacity="0" result="BackgroundImageFix"/>
<feColorMatrix in="SourceAlpha" type="matrix" values="0 0 0 0 0 0 0 0 0 0 0 0 0 0 0 0 0 0 127 0" result="hardAlpha"/>
<feOffset dy="17.3829"/>
<feGaussianBlur stdDeviation="16.0106"/>
<feComposite in2="hardAlpha" operator="out"/>
<feColorMatrix type="matrix" values="0 0 0 0 0 0 0 0 0 0 0 0 0 0 0 0 0 0 0.25 0"/>
<feBlend mode="normal" in2="BackgroundImageFix" result="effect1_dropShadow_266_6361"/>
<feBlend mode="normal" in="SourceGraphic" in2="effect1_dropShadow_266_6361" result="shape"/>
</filter>
<filter id="filter1_d_266_6361" x="158.257" y="33.6234" width="679.226" height="439.772" filterUnits="userSpaceOnUse" color-interpolation-filters="sRGB">
<feFlood flood-opacity="0" result="BackgroundImageFix"/>
<feColorMatrix in="SourceAlpha" type="matrix" values="0 0 0 0 0 0 0 0 0 0 0 0 0 0 0 0 0 0 127 0" result="hardAlpha"/>
<feOffset dy="2.53122"/>
<feGaussianBlur stdDeviation="28.1692"/>
<feComposite in2="hardAlpha" operator="out"/>
<feColorMatrix type="matrix" values="0 0 0 0 0 0 0 0 0 0 0 0 0 0 0 0 0 0 0.15 0"/>
<feBlend mode="normal" in2="BackgroundImageFix" result="effect1_dropShadow_266_6361"/>
<feBlend mode="normal" in="SourceGraphic" in2="effect1_dropShadow_266_6361" result="shape"/>
</filter>
<filter id="filter2_d_266_6361" x="214.152" y="78.4796" width="545.633" height="362.643" filterUnits="userSpaceOnUse" color-interpolation-filters="sRGB">
<feFlood flood-opacity="0" result="BackgroundImageFix"/>
<feColorMatrix in="SourceAlpha" type="matrix" values="0 0 0 0 0 0 0 0 0 0 0 0 0 0 0 0 0 0 127 0" result="hardAlpha"/>
<feOffset dy="2.53122"/>
<feGaussianBlur stdDeviation="28.1692"/>
<feComposite in2="hardAlpha" operator="out"/>
<feColorMatrix type="matrix" values="0 0 0 0 0 0 0 0 0 0 0 0 0 0 0 0 0 0 0.15 0"/>
<feBlend mode="normal" in2="BackgroundImageFix" result="effect1_dropShadow_266_6361"/>
<feBlend mode="normal" in="SourceGraphic" in2="effect1_dropShadow_266_6361" result="shape"/>
</filter>
</defs>
</svg>
