<svg width="461" height="704" viewBox="0 0 461 704" fill="none" xmlns="http://www.w3.org/2000/svg">
<g filter="url(#filter0_b_288_563)">
<mask id="path-1-inside-1_288_563" fill="white">
<path d="M174.728 270.787C175.286 270.787 176.031 270.973 176.589 271.159C182.729 275.252 188.125 273.019 194.079 270.228C202.266 266.321 210.826 263.344 219.199 259.809C229.06 255.715 239.48 254.971 249.9 254.227C256.226 253.668 261.25 255.901 264.971 260.553C267.576 263.902 269.437 267.623 270.926 271.531C273.159 277.671 278.927 280.648 285.997 279.718C291.765 278.788 297.534 278.043 303.302 277.113C305.907 276.741 307.953 277.113 310.186 278.415C321.536 285.672 324.514 291.626 320.606 303.535C318.001 311.908 316.885 320.281 316.326 328.84C316.14 331.817 315.582 334.236 311.675 335.166C309.256 335.725 308.884 337.771 309.814 339.446C313.908 348.005 316.513 357.495 324.7 364.193C328.235 366.984 331.026 370.147 333.817 373.497C423.874 424.107 547.796 481.044 689.208 511.932C691.069 508.769 690.697 505.047 689.953 501.698C687.348 490.906 687.906 479.928 688.65 469.136C689.208 462.251 688.464 456.111 683.626 449.785C676.184 439.923 672.648 428.759 677.486 416.665C678.416 414.246 677.114 412.385 675.439 410.71C670.229 405.873 669.113 400.849 672.462 394.15C677.114 384.475 683.998 375.543 686.417 364.938C686.789 363.077 688.65 362.146 690.139 361.03C692.372 359.541 694.232 357.681 696.279 355.82C691.069 291.812 698.698 227.805 712.281 169.193C708.746 165.472 705.21 161.564 700.931 158.401C696.093 154.68 692 150.028 686.79 146.679C686.231 146.307 685.487 145.934 685.487 145.376C685.301 139.98 681.766 137.933 676.184 137.189C673.765 136.817 672.09 134.584 671.532 132.165C670.788 129.002 669.671 126.025 668.927 122.862C667.252 117.094 664.089 112.07 659.065 108.163C657.949 107.418 657.205 106.488 656.274 105.558C642.319 268.554 665.206 390.615 665.206 390.615C630.411 289.394 633.016 178.869 646.227 88.8114C645.668 85.8342 645.296 82.485 645.482 79.1358C645.854 71.5069 641.203 64.9946 636.551 59.0404C634.69 56.6215 631.899 54.5747 629.48 52.5279C626.875 50.109 625.387 47.318 625.759 43.9688C626.131 41.1777 625.573 38.3867 623.34 36.1539C615.339 28.153 611.99 17.7331 605.664 8.80177C604.919 7.87143 604.175 6.56898 604.361 5.63864C604.733 -1.43197 599.709 -5.89768 595.244 -10.9215C587.429 -19.4807 583.893 -29.7145 582.219 -40.5065C580.544 -52.4149 577.381 -54.6477 563.984 -52.6009C558.774 -51.8566 553.936 -50.5542 549.471 -47.7632C547.424 -46.4607 545.377 -46.2746 543.144 -46.2746C549.471 178.31 619.619 352.285 619.619 352.285C542.586 219.804 531.98 58.4822 535.516 -47.577C525.096 -50.3681 514.676 -52.787 503.884 -53.7173C502.395 -53.9034 500.907 -54.2756 499.976 -55.392C496.627 -59.1133 492.162 -59.6715 487.324 -59.6715C482.672 -59.6715 479.509 -61.3461 476.16 -64.5093C471.322 -68.975 464.623 -71.3939 457.181 -69.9053C452.715 -68.975 448.621 -67.3004 444.714 -65.0676C439.132 -61.7183 435.411 -57.4387 437.271 -50.9263C437.643 -49.6238 437.457 -47.9492 437.457 -46.6467C437.271 -40.1343 430.759 -36.599 424.991 -40.3204C419.967 -43.6696 414.757 -45.9024 409.175 -47.577C459.599 180.729 564.542 352.285 564.542 352.285C459.041 222.223 415.687 63.6921 398.011 -49.996C397.08 -50.182 396.336 -50.3681 395.406 -50.3681C391.312 -50.7402 389.452 -53.5312 388.335 -56.8805C387.033 -60.974 384.056 -62.8347 379.962 -64.6954C372.705 -68.2307 365.077 -70.0914 356.889 -70.0914C351.307 -70.0914 346.097 -72.3242 342.562 -76.6038C340.143 -79.3948 337.538 -80.8834 333.445 -80.3252C331.956 -80.1391 329.91 -80.1391 329.351 -81.8137C328.607 -83.6744 330.096 -84.7908 331.398 -85.9072C333.445 -87.3958 336.05 -87.954 338.469 -88.5122C339.957 -88.8843 342.004 -89.6286 341.074 -90.9311C338.283 -95.2107 341.446 -101.351 335.119 -104.514C332.887 -105.631 333.445 -107.863 334.933 -109.538C336.05 -110.84 337.352 -111.957 338.283 -113.259C339.771 -114.934 339.771 -116.795 338.469 -118.469C337.166 -120.33 335.492 -120.516 333.445 -119.958C330.468 -118.841 328.049 -119.772 326.374 -122.191C323.211 -122.191 319.862 -122.191 316.699 -122.191C311.303 -119.772 305.721 -118.469 299.766 -120.33C298.092 -120.888 296.231 -120.702 294.556 -119.958C293.626 -119.586 292.324 -119.027 291.765 -119.4C286.928 -122.377 282.834 -119.586 278.927 -117.911C275.391 -116.423 272.414 -116.423 268.507 -117.353C262.553 -119.027 256.226 -117.539 250.272 -116.609C242.271 -115.306 234.27 -114.19 226.455 -112.329C223.664 -111.585 221.059 -110.654 218.454 -109.724C321.536 180.171 539.609 390.801 539.609 390.801C309.814 221.106 229.246 -66.9282 218.454 -109.166C211.57 -106.747 204.871 -103.956 198.917 -99.6763C195.196 -96.8853 191.102 -95.5828 186.823 -97.0713C181.985 -98.746 177.147 -98.5599 171.937 -98.1878C165.611 -97.8156 159.098 -97.4435 156.307 -104.514C155.563 -106.375 153.144 -106.189 151.097 -105.444C148.865 -104.7 147.376 -103.026 146.26 -101.165C144.399 -98.1878 142.538 -95.0246 140.678 -92.0475C136.584 -84.9769 130.816 -79.5809 122.629 -76.2317C105.883 -69.3471 99.3702 -56.6944 99.3702 -41.0647C99.3702 -35.4826 97.8817 -31.203 93.7882 -27.2955C85.229 -18.9224 76.1117 -11.4797 63.2729 -8.87477C59.5515 -8.13049 57.1326 -5.71156 56.0162 -2.36232C54.3416 1.91726 51.5506 5.45258 47.6431 8.61574C42.4332 12.7093 39.4561 18.2913 37.5954 24.2455C36.1068 28.7112 33.6879 32.4325 29.9666 35.7818C25.687 39.5031 22.7099 43.9688 21.2214 49.1787C20.105 52.9001 18.2442 56.2493 15.2671 59.0404C9.87112 63.6921 9.31298 69.8324 8.94084 75.9726C8.75477 79.5079 11.7318 81.3686 14.7089 83.0433C17.5 84.7179 20.1049 86.0203 16.3836 89.5556C13.7786 91.9745 14.3368 95.8819 16.1975 98.673C20.8492 106.488 19.7328 114.117 16.5697 121.932C14.709 126.397 13.0343 131.049 12.104 135.701C10.8015 141.283 8.38259 146.307 2.42839 149.098C-0.176572 150.4 0.381625 152.075 2.05624 153.191C9.499 157.657 9.31298 164.355 8.94084 171.054C8.56871 176.264 8.94083 181.288 13.2204 185.381C14.709 186.87 14.3368 188.544 13.9646 190.405C13.0343 196.173 15.8254 198.406 21.7796 197.103C24.9427 196.359 27.3616 196.917 29.2223 199.522C33.1297 204.732 38.7118 208.64 43.1774 213.478C46.7127 217.385 48.7595 221.478 48.5734 226.502C48.2013 234.131 51.9227 239.527 59.9237 242.504C70.1574 246.412 77.6002 253.668 85.7872 259.995C92.2996 265.019 98.4399 270.414 105.511 274.88C111.651 278.788 118.349 279.904 124.676 276.183C140.491 266.693 157.61 269.484 174.728 270.787ZM589.476 453.878C252.505 315.257 84.6709 -11.2936 84.6709 -11.2936C277.81 277.299 589.476 453.878 589.476 453.878ZM9.68506 144.446L159.284 267.065H132.304C132.304 267.065 13.4064 162.867 9.68506 144.446Z"/>
</mask>
<path d="M174.728 270.787C175.286 270.787 176.031 270.973 176.589 271.159C182.729 275.252 188.125 273.019 194.079 270.228C202.266 266.321 210.826 263.344 219.199 259.809C229.06 255.715 239.48 254.971 249.9 254.227C256.226 253.668 261.25 255.901 264.971 260.553C267.576 263.902 269.437 267.623 270.926 271.531C273.159 277.671 278.927 280.648 285.997 279.718C291.765 278.788 297.534 278.043 303.302 277.113C305.907 276.741 307.953 277.113 310.186 278.415C321.536 285.672 324.514 291.626 320.606 303.535C318.001 311.908 316.885 320.281 316.326 328.84C316.14 331.817 315.582 334.236 311.675 335.166C309.256 335.725 308.884 337.771 309.814 339.446C313.908 348.005 316.513 357.495 324.7 364.193C328.235 366.984 331.026 370.147 333.817 373.497C423.874 424.107 547.796 481.044 689.208 511.932C691.069 508.769 690.697 505.047 689.953 501.698C687.348 490.906 687.906 479.928 688.65 469.136C689.208 462.251 688.464 456.111 683.626 449.785C676.184 439.923 672.648 428.759 677.486 416.665C678.416 414.246 677.114 412.385 675.439 410.71C670.229 405.873 669.113 400.849 672.462 394.15C677.114 384.475 683.998 375.543 686.417 364.938C686.789 363.077 688.65 362.146 690.139 361.03C692.372 359.541 694.232 357.681 696.279 355.82C691.069 291.812 698.698 227.805 712.281 169.193C708.746 165.472 705.21 161.564 700.931 158.401C696.093 154.68 692 150.028 686.79 146.679C686.231 146.307 685.487 145.934 685.487 145.376C685.301 139.98 681.766 137.933 676.184 137.189C673.765 136.817 672.09 134.584 671.532 132.165C670.788 129.002 669.671 126.025 668.927 122.862C667.252 117.094 664.089 112.07 659.065 108.163C657.949 107.418 657.205 106.488 656.274 105.558C642.319 268.554 665.206 390.615 665.206 390.615C630.411 289.394 633.016 178.869 646.227 88.8114C645.668 85.8342 645.296 82.485 645.482 79.1358C645.854 71.5069 641.203 64.9946 636.551 59.0404C634.69 56.6215 631.899 54.5747 629.48 52.5279C626.875 50.109 625.387 47.318 625.759 43.9688C626.131 41.1777 625.573 38.3867 623.34 36.1539C615.339 28.153 611.99 17.7331 605.664 8.80177C604.919 7.87143 604.175 6.56898 604.361 5.63864C604.733 -1.43197 599.709 -5.89768 595.244 -10.9215C587.429 -19.4807 583.893 -29.7145 582.219 -40.5065C580.544 -52.4149 577.381 -54.6477 563.984 -52.6009C558.774 -51.8566 553.936 -50.5542 549.471 -47.7632C547.424 -46.4607 545.377 -46.2746 543.144 -46.2746C549.471 178.31 619.619 352.285 619.619 352.285C542.586 219.804 531.98 58.4822 535.516 -47.577C525.096 -50.3681 514.676 -52.787 503.884 -53.7173C502.395 -53.9034 500.907 -54.2756 499.976 -55.392C496.627 -59.1133 492.162 -59.6715 487.324 -59.6715C482.672 -59.6715 479.509 -61.3461 476.16 -64.5093C471.322 -68.975 464.623 -71.3939 457.181 -69.9053C452.715 -68.975 448.621 -67.3004 444.714 -65.0676C439.132 -61.7183 435.411 -57.4387 437.271 -50.9263C437.643 -49.6238 437.457 -47.9492 437.457 -46.6467C437.271 -40.1343 430.759 -36.599 424.991 -40.3204C419.967 -43.6696 414.757 -45.9024 409.175 -47.577C459.599 180.729 564.542 352.285 564.542 352.285C459.041 222.223 415.687 63.6921 398.011 -49.996C397.08 -50.182 396.336 -50.3681 395.406 -50.3681C391.312 -50.7402 389.452 -53.5312 388.335 -56.8805C387.033 -60.974 384.056 -62.8347 379.962 -64.6954C372.705 -68.2307 365.077 -70.0914 356.889 -70.0914C351.307 -70.0914 346.097 -72.3242 342.562 -76.6038C340.143 -79.3948 337.538 -80.8834 333.445 -80.3252C331.956 -80.1391 329.91 -80.1391 329.351 -81.8137C328.607 -83.6744 330.096 -84.7908 331.398 -85.9072C333.445 -87.3958 336.05 -87.954 338.469 -88.5122C339.957 -88.8843 342.004 -89.6286 341.074 -90.9311C338.283 -95.2107 341.446 -101.351 335.119 -104.514C332.887 -105.631 333.445 -107.863 334.933 -109.538C336.05 -110.84 337.352 -111.957 338.283 -113.259C339.771 -114.934 339.771 -116.795 338.469 -118.469C337.166 -120.33 335.492 -120.516 333.445 -119.958C330.468 -118.841 328.049 -119.772 326.374 -122.191C323.211 -122.191 319.862 -122.191 316.699 -122.191C311.303 -119.772 305.721 -118.469 299.766 -120.33C298.092 -120.888 296.231 -120.702 294.556 -119.958C293.626 -119.586 292.324 -119.027 291.765 -119.4C286.928 -122.377 282.834 -119.586 278.927 -117.911C275.391 -116.423 272.414 -116.423 268.507 -117.353C262.553 -119.027 256.226 -117.539 250.272 -116.609C242.271 -115.306 234.27 -114.19 226.455 -112.329C223.664 -111.585 221.059 -110.654 218.454 -109.724C321.536 180.171 539.609 390.801 539.609 390.801C309.814 221.106 229.246 -66.9282 218.454 -109.166C211.57 -106.747 204.871 -103.956 198.917 -99.6763C195.196 -96.8853 191.102 -95.5828 186.823 -97.0713C181.985 -98.746 177.147 -98.5599 171.937 -98.1878C165.611 -97.8156 159.098 -97.4435 156.307 -104.514C155.563 -106.375 153.144 -106.189 151.097 -105.444C148.865 -104.7 147.376 -103.026 146.26 -101.165C144.399 -98.1878 142.538 -95.0246 140.678 -92.0475C136.584 -84.9769 130.816 -79.5809 122.629 -76.2317C105.883 -69.3471 99.3702 -56.6944 99.3702 -41.0647C99.3702 -35.4826 97.8817 -31.203 93.7882 -27.2955C85.229 -18.9224 76.1117 -11.4797 63.2729 -8.87477C59.5515 -8.13049 57.1326 -5.71156 56.0162 -2.36232C54.3416 1.91726 51.5506 5.45258 47.6431 8.61574C42.4332 12.7093 39.4561 18.2913 37.5954 24.2455C36.1068 28.7112 33.6879 32.4325 29.9666 35.7818C25.687 39.5031 22.7099 43.9688 21.2214 49.1787C20.105 52.9001 18.2442 56.2493 15.2671 59.0404C9.87112 63.6921 9.31298 69.8324 8.94084 75.9726C8.75477 79.5079 11.7318 81.3686 14.7089 83.0433C17.5 84.7179 20.1049 86.0203 16.3836 89.5556C13.7786 91.9745 14.3368 95.8819 16.1975 98.673C20.8492 106.488 19.7328 114.117 16.5697 121.932C14.709 126.397 13.0343 131.049 12.104 135.701C10.8015 141.283 8.38259 146.307 2.42839 149.098C-0.176572 150.4 0.381625 152.075 2.05624 153.191C9.499 157.657 9.31298 164.355 8.94084 171.054C8.56871 176.264 8.94083 181.288 13.2204 185.381C14.709 186.87 14.3368 188.544 13.9646 190.405C13.0343 196.173 15.8254 198.406 21.7796 197.103C24.9427 196.359 27.3616 196.917 29.2223 199.522C33.1297 204.732 38.7118 208.64 43.1774 213.478C46.7127 217.385 48.7595 221.478 48.5734 226.502C48.2013 234.131 51.9227 239.527 59.9237 242.504C70.1574 246.412 77.6002 253.668 85.7872 259.995C92.2996 265.019 98.4399 270.414 105.511 274.88C111.651 278.788 118.349 279.904 124.676 276.183C140.491 266.693 157.61 269.484 174.728 270.787ZM589.476 453.878C252.505 315.257 84.6709 -11.2936 84.6709 -11.2936C277.81 277.299 589.476 453.878 589.476 453.878ZM9.68506 144.446L159.284 267.065H132.304C132.304 267.065 13.4064 162.867 9.68506 144.446Z" stroke="#E8EFFA" stroke-width="2" mask="url(#path-1-inside-1_288_563)"/>
<path d="M391.106 668.068L391.102 668.063C388.583 665.544 387.311 662.476 386.198 659.323C385.923 658.497 385.693 657.716 385.46 656.926L385.459 656.922C385.283 656.322 385.104 655.716 384.905 655.088C458.655 648.186 542.328 632.237 624.563 599.358C624.857 603.534 624.619 607.546 623.232 611.882C622.947 612.737 622.704 613.657 622.605 614.541C622.511 615.389 622.546 616.244 622.84 616.987C622.996 620.113 622.143 622.372 620.772 624.294C566.553 649.912 494.932 679.597 412.747 704.296C412.616 704.079 412.485 703.861 412.353 703.642C410.843 701.137 409.275 698.538 408.139 695.941C403.857 686.074 399.176 676.325 391.106 668.068Z" stroke="#E8EFFA"/>
<path d="M362.555 425.949L362.555 425.949L362.551 425.941C361.41 423.487 360.206 421.081 359.009 418.69C356.468 413.613 353.964 408.607 352.175 403.374C434.945 448.072 518.995 475.312 582.443 491.389C614.31 499.463 640.983 504.722 659.69 507.963C669.044 509.583 676.407 510.699 681.433 511.409C683.945 511.765 685.874 512.019 687.174 512.184C687.682 512.249 688.095 512.3 688.409 512.338C685.579 517.424 682.57 522.304 678.749 526.684C641.7 526.11 513.639 521.048 361.46 483.019C365.106 479.816 367.066 476.294 367.912 472.523C368.794 468.589 368.455 464.418 367.613 460.111C366.56 454.148 364.199 448.355 361.929 442.783C361.768 442.388 361.607 441.995 361.448 441.602C361.39 441.444 361.332 441.286 361.273 441.129C360.941 440.235 360.616 439.36 360.525 438.518C360.422 437.573 360.622 436.734 361.484 436.029L361.484 436.029L361.489 436.024C363.36 434.449 364.042 432.775 364.016 431.029C363.991 429.332 363.295 427.616 362.555 425.949Z" stroke="#E8EFFA"/>
<path d="M414.872 724.446L414.878 724.441L414.884 724.435C416.897 722.789 417.727 721.284 418.148 719.619C472.735 705.54 531.913 685.571 590.384 656.973C589.499 665.843 585.953 674.266 577.096 680.468C573.685 682.742 570.846 685.772 568.764 689.179L568.76 689.186C565.324 695.027 560.767 699.911 556.087 704.926C555.744 705.293 555.4 705.662 555.056 706.031C543.726 718.104 531.314 729.026 515.401 736.058L515.399 736.058C505.026 740.69 494.141 743.633 482.354 742.345C474.489 741.409 466.572 741.777 459.201 745.178L459.194 745.182L459.187 745.185C456.684 746.437 453.802 746.804 450.882 746.622L450.882 746.622L450.871 746.621C445.964 746.433 441.977 747.927 438.389 750.901H438.385H438.374H438.363H438.352H438.341H438.33H438.319H438.308H438.297H438.286H438.275H438.264H438.253H438.242H438.231H438.22H438.209H438.198H438.187H438.176H438.165H438.153H438.142H438.131H438.12H438.109H438.098H438.087H438.076H438.065H438.054H438.043H438.032H438.021H438.009H437.998H437.987H437.976H437.965H437.954H437.943H437.932H437.921H437.909H437.898H437.887H437.876H437.865H437.854H437.843H437.832H437.82H437.809H437.798H437.787H437.776H437.765H437.753H437.742H437.731H437.72H437.709H437.697H437.686H437.675H437.664H437.653H437.642H437.63H437.619H437.608H437.597H437.585H437.574H437.563H437.552H437.541H437.529H437.518H437.507H437.496H437.484H437.473H437.462H437.451H437.439H437.428H437.417H437.406H437.394H437.383H437.372H437.361H437.349H437.338H437.327H437.316H437.304H437.293H437.282H437.27H437.259H437.248H437.237H437.225H437.214H437.203H437.191H437.18H437.169H437.157H437.146H437.135H437.123H437.112H437.101H437.09H437.078H437.067H437.056H437.044H437.033H437.022H437.01H436.999H436.988H436.976H436.965H436.954H436.942H436.931H436.919H436.908H436.897H436.885H436.874H436.863H436.851H436.84H436.829H436.817H436.806H436.795H436.783H436.772H436.76H436.749H436.738H436.726H436.715H436.704H436.692H436.681H436.669H436.658H436.647H436.635H436.624H436.612H436.601H436.59H436.578H436.567H436.555H436.544H436.533H436.521H436.51H436.498H436.487H436.476H436.464H436.453H436.441H436.43H436.419H436.407H436.396H436.384H436.373H436.361H436.35H436.339H436.327H436.316H436.304H436.293H436.282H436.27H436.259H436.247H436.236H436.224H436.213H436.202H436.19H436.179H436.167H436.156H436.144H436.133H436.121H436.11H436.099H436.087H436.076H436.064H436.053H436.041H436.03H436.019H436.007H435.996H435.984H435.973H435.961H435.95H435.938H435.927H435.916H435.904H435.893H435.881H435.87H435.858H435.847H435.835H435.824H435.813H435.801H435.79H435.778H435.767H435.755H435.744H435.732H435.721H435.71H435.698H435.687H435.675H435.664H435.652H435.641H435.629H435.618H435.607H435.595H435.584H435.572H435.561H435.549H435.538H435.526H435.515H435.503H435.492H435.481H435.469H435.458H435.446H435.435H435.423H435.412H435.401H435.389H435.378H435.366H435.355H435.343H435.332H435.32H435.309H435.298H435.286H435.275H435.263H435.252H435.24H435.229H435.217H435.206H435.195H435.183H435.172H435.16H435.149H435.137H435.126H435.115H435.103H435.092H435.08H435.069H435.057H435.046H435.035H435.023H435.012H435H434.989H434.978H434.966H434.955H434.943H434.932H434.921H434.909H434.898H434.886H434.875H434.863H434.852H434.841H434.829H434.818H434.806H434.795H434.784H434.772H434.761H434.749H434.738H434.727H434.715H434.704H434.693H434.681H434.67H434.658H434.647H434.636H434.624H434.613H434.602H434.59H434.579H434.567H434.556H434.545H434.533H434.522H434.511H434.499H434.488H434.477H434.465H434.454H434.442H434.431H434.42H434.408H434.397H434.386H434.374H434.363H434.352H434.34H434.329H434.318H434.306H434.295H434.284H434.272H434.261H434.25H434.238H434.227H434.216H434.205H434.193H434.182H434.171H434.159H434.148H434.137H434.125H434.114H434.103H434.092H434.08H434.069H434.058H434.046H434.035H434.024H434.013H434.001H433.99H433.979H433.968H433.956H433.945H433.934H433.923H433.911H433.9H433.889H433.878H433.866H433.855H433.844H433.833H433.821H433.81H433.799H433.788H433.777H433.765H433.754H433.743H433.732H433.721H433.709H433.698H433.687H433.676H433.665H433.653H433.642H433.631H433.62H433.609H433.598H433.586H433.575H433.564H433.553H433.542H433.531H433.519H433.508H433.497H433.486H433.475H433.464H433.453H433.442H433.43H433.419H433.408H433.397H433.386H433.375H433.364H433.353H433.342H433.331H433.319H433.308H433.297H433.286H433.275H433.264H433.253H433.242H433.231H433.22H433.209H433.198H433.187H433.176H433.165H433.154H433.143H433.132H433.12H433.109H433.098H433.087H433.076H433.065H433.054H433.043H433.037C430.379 747.75 426.962 745.702 422.449 745.137C421.157 744.952 420.176 744.749 419.444 744.485C418.714 744.221 418.278 743.914 418.023 743.553C417.771 743.196 417.646 742.72 417.675 742.016C417.705 741.308 417.888 740.415 418.209 739.267C418.231 739.2 418.254 739.134 418.276 739.067C418.39 738.728 418.506 738.384 418.59 738.055C418.693 737.654 418.76 737.234 418.717 736.813C418.624 735.911 418.048 735.188 416.853 734.586C415.246 733.65 414.012 731.657 413.568 729.573C413.122 727.473 413.512 725.485 414.872 724.446Z" stroke="#E8EFFA"/>
<path d="M369.8 590.59L369.8 590.59L369.794 590.579C368.791 588.824 367.875 587.074 366.925 585.257C366.605 584.646 366.282 584.027 365.95 583.398C443.026 589.599 531.554 587.922 621.254 567.544C619.917 568.812 618.657 570.106 617.398 571.504C616.497 572.409 616.052 573.364 616.052 574.407C616.052 575.427 616.479 576.451 617.149 577.505C618.894 580.472 620.31 583.442 621.555 586.418C561.417 604.954 477.346 626.59 380.54 639.579C378.548 630.63 377.093 621.675 375.996 612.538L375.996 612.535C375.063 605.073 373.565 597.557 369.8 590.59Z" stroke="#E8EFFA"/>
<path d="M343.987 526.086L343.987 526.079V526.071C343.987 523.182 344.708 520.288 346.156 517.57C349.323 512.167 351.972 506.513 352.358 500.451L352.819 497.684C445.575 525.028 558.358 543.692 675.636 529.362C672.063 532.591 668.091 535.311 662.623 537.133C653.179 540.281 644.172 544.749 638.85 553.147C576.57 562.06 474.86 572.063 357.201 566.335C355.573 563.081 353.897 559.777 351.495 557.005C348.202 553.162 346.199 548.968 345.47 544.23L345.47 544.229C344.541 538.283 343.802 532.179 343.987 526.086Z" stroke="#E8EFFA"/>
</g>
<defs>
<filter id="filter0_b_288_563" x="-68.6872" y="-191.515" width="950.954" height="1012.24" filterUnits="userSpaceOnUse" color-interpolation-filters="sRGB">
<feFlood flood-opacity="0" result="BackgroundImageFix"/>
<feGaussianBlur in="BackgroundImageFix" stdDeviation="34.662"/>
<feComposite in2="SourceAlpha" operator="in" result="effect1_backgroundBlur_288_563"/>
<feBlend mode="normal" in="SourceGraphic" in2="effect1_backgroundBlur_288_563" result="shape"/>
</filter>
</defs>
</svg>
