<svg width="41" height="40" viewBox="0 0 41 40" fill="none" xmlns="http://www.w3.org/2000/svg">
<path d="M38.3822 40L28.369 40C27.1771 40 26.207 39.0299 26.207 37.8372V20.041C26.207 18.8486 27.177 17.8786 28.369 17.8786H38.3822C39.5742 17.8786 40.5443 18.8487 40.5443 20.041L40.5443 37.8372C40.5443 39.03 39.5742 40 38.3822 40ZM28.369 19.5673C28.1084 19.5673 27.8964 19.7797 27.8964 20.0404V37.8366C27.8964 38.0977 28.1084 38.3101 28.369 38.3101L38.3822 38.3101C38.6429 38.3101 38.8549 38.0977 38.8549 37.8366L38.8549 20.0404C38.8549 19.7797 38.6429 19.5673 38.3822 19.5673H28.369Z" fill="#EB770D"/>
<path d="M12.1751 22.1214H2.16279C0.970003 22.1214 0 21.1513 0 19.959L0 2.16279C0 0.970004 0.970056 0 2.16279 0L12.1751 0C13.3679 0 14.3379 0.970056 14.3379 2.16279L14.3379 19.959C14.3379 21.1514 13.3679 22.1214 12.1751 22.1214ZM2.16279 1.68872C1.9013 1.68872 1.68931 1.90112 1.68931 2.1622L1.68931 19.9584C1.68931 20.2191 1.9013 20.4315 2.16279 20.4315H12.1751C12.4366 20.4315 12.6486 20.2191 12.6486 19.9584L12.6486 2.1622C12.6486 1.90112 12.4366 1.68872 12.1751 1.68872L2.16279 1.68872Z" fill="#EB770D"/>
<path d="M19.3443 13.8985C19.0713 13.8985 18.8032 13.7661 18.6407 13.5219C18.3817 13.1334 18.4873 12.6092 18.8758 12.3506L19.0003 12.2677C19.5258 11.9188 19.8145 11.4902 19.8145 11.0613C19.8153 10.6315 19.5258 10.203 19.0012 9.85445L18.8774 9.77278C18.4881 9.51501 18.3817 8.9908 18.639 8.60185C18.8964 8.21251 19.4202 8.10651 19.8096 8.36388L19.9341 8.44636C20.9322 9.10915 21.5047 10.0623 21.5038 11.0613C21.5038 12.0602 20.9322 13.0129 19.935 13.6745L19.8112 13.757C19.6677 13.8527 19.5052 13.8985 19.3443 13.8985Z" fill="#EB770D"/>
<path d="M20.9809 16.5698C20.707 16.5698 20.4389 16.4374 20.2764 16.1924C20.0182 15.8035 20.1238 15.2793 20.5132 15.0215C22.1456 13.9371 23.0448 12.5312 23.0448 11.0616C23.0448 9.59168 22.1457 8.1853 20.5132 7.10095C20.1238 6.84276 20.0182 6.31855 20.2764 5.93002C20.5346 5.54068 21.0584 5.43468 21.4469 5.69369C23.5669 7.10134 24.7341 9.00767 24.7341 11.0616C24.7341 13.1155 23.5669 15.0214 21.4469 16.4287C21.3034 16.5243 21.1409 16.5698 20.9809 16.5698Z" fill="#EB770D"/>
<path d="M16.7902 12.3496C16.1411 12.3496 15.6123 11.8212 15.6123 11.1721C15.6123 10.5225 16.1411 9.99419 16.7902 9.99419C17.4394 9.99419 17.9681 10.5225 17.9681 11.1721C17.9681 11.8213 17.4394 12.3496 16.7902 12.3496ZM16.7902 10.6602C16.5081 10.6602 16.2788 10.8899 16.2788 11.1721C16.2788 11.4542 16.5081 11.6835 16.7902 11.6835C17.0723 11.6835 17.3017 11.4542 17.3017 11.1721C17.3017 10.8899 17.0723 10.6602 16.7902 10.6602Z" fill="#EB770D"/>
<path d="M21.002 31.7771C20.842 31.7771 20.6803 31.7317 20.5368 31.6369L20.4122 31.5544C19.4141 30.8916 18.8416 29.9384 18.8416 28.9395C18.8425 27.9405 19.4141 26.9879 20.4114 26.3263L20.5351 26.2438C20.922 25.9848 21.4474 26.0908 21.7056 26.4789C21.9646 26.8674 21.859 27.3916 21.4705 27.6502L21.346 27.7331C20.8205 28.082 20.5318 28.5106 20.531 28.9395C20.531 29.3693 20.8205 29.7978 21.3451 30.1464L21.4689 30.228C21.8582 30.4858 21.9646 31.01 21.7072 31.3989C21.5447 31.6443 21.2759 31.7771 21.002 31.7771Z" fill="#EB770D"/>
<path d="M19.3654 34.4484C19.2046 34.4484 19.0429 34.403 18.8994 34.3073C16.7795 32.9001 15.6122 30.9938 15.6122 28.9398C15.6122 26.8859 16.7795 24.9796 18.8994 23.5723C19.2879 23.3121 19.8117 23.4202 20.0699 23.8087C20.3281 24.1976 20.2225 24.7218 19.8331 24.9796C18.2007 26.064 17.3015 27.4703 17.3015 28.9399C17.3015 30.4094 18.2007 31.8158 19.8331 32.9001C20.2225 33.1579 20.3281 33.6821 20.0699 34.0711C19.9074 34.316 19.6393 34.4484 19.3654 34.4484Z" fill="#EB770D"/>
<path d="M23.5571 30.0064C22.908 30.0064 22.3792 29.4781 22.3792 28.829C22.3792 28.1794 22.908 27.6511 23.5571 27.6511C24.2063 27.6511 24.7342 28.1794 24.7342 28.829C24.7342 29.4781 24.2063 30.0064 23.5571 30.0064ZM23.5571 28.3171C23.275 28.3171 23.0449 28.5468 23.0449 28.8289C23.0449 29.111 23.275 29.3404 23.5571 29.3404C23.8392 29.3404 24.0686 29.111 24.0686 28.8289C24.0686 28.5468 23.8392 28.3171 23.5571 28.3171Z" fill="#EB770D"/>
</svg>
