<svg width="52" height="40" viewBox="0 0 52 40" fill="none" xmlns="http://www.w3.org/2000/svg">
<path fill-rule="evenodd" clip-rule="evenodd" d="M46.3257 29.3281L40.0864 29.3281C39.7764 29.3281 39.5241 29.0763 39.5241 28.7659C39.5241 28.4555 39.776 28.2036 40.086 28.2036L46.3253 28.2036C48.8653 28.2036 50.3034 25.0099 50.3641 22.7043C50.4121 20.8779 49.7457 19.1419 48.4881 17.8164C47.2305 16.4908 45.5323 15.7346 43.7056 15.6862C43.0241 15.6683 42.3471 15.7508 41.6949 15.9319C41.5184 15.9807 41.3284 15.9404 41.1868 15.8237C41.0452 15.7069 40.9691 15.5283 40.9842 15.3456C40.9939 15.2224 41.0005 15.0995 41.0029 14.9795C41.1026 11.2088 38.1163 8.06063 34.3457 7.96137C32.7565 7.91987 31.1955 8.43575 29.9473 9.41502C29.7931 9.53627 29.5856 9.568 29.4017 9.49883C29.2179 9.42926 29.0832 9.26857 29.047 9.07531C28.219 4.58988 24.3019 1.24721 19.736 1.12681C14.368 0.98401 9.89355 5.23396 9.75159 10.5978C9.72718 11.5612 9.84314 12.5173 10.0958 13.4396C10.1462 13.6194 10.1027 13.8123 9.98105 13.9543C9.8594 14.0959 9.67551 14.1683 9.4904 14.1471C9.26827 14.1215 9.04532 14.106 8.82887 14.1003C6.82393 14.0483 4.91867 14.7785 3.46418 16.1586C2.0097 17.5386 1.17929 19.4027 1.1269 21.4074C1.07442 23.3944 1.82464 25.433 3.0859 26.7281C4.02775 27.6939 5.20676 28.205 6.49856 28.205H11.4039C11.7144 28.205 11.9662 28.4568 11.9662 28.7672C11.9662 29.0776 11.7143 29.3295 11.4039 29.3295H6.49856C4.89638 29.3295 3.43825 28.7013 2.28164 27.513C0.815795 26.0085 -0.0568976 23.6576 0.00288593 21.3786C0.063913 19.0738 1.01837 16.9305 2.69054 15.3439C4.35698 13.7633 6.5373 12.9228 8.83272 12.9768C8.67609 12.1871 8.60651 11.3804 8.62889 10.5691C8.78594 4.58567 13.7804 -0.155451 19.7659 0.00390224C22.2672 0.0698109 24.6855 1.00596 26.5745 2.63948C28.2198 4.06178 29.4024 5.95403 29.9635 8.03551C31.2801 7.21898 32.817 6.79912 34.3769 6.83901C38.6574 6.9517 42.0695 10.4396 42.1301 14.6829C42.6582 14.5894 43.1969 14.5495 43.7368 14.5633C45.8638 14.6195 47.8402 15.5003 49.3049 17.0434C50.7688 18.5865 51.5438 20.6078 51.4876 22.7344C51.449 24.1938 50.9526 25.7902 50.1597 27.0055C49.182 28.5039 47.8199 29.329 46.3256 29.329L46.3257 29.3281Z" fill="#EB770D"/>
<path fill-rule="evenodd" clip-rule="evenodd" d="M46.3257 29.3281L40.0864 29.3281C39.7764 29.3281 39.5241 29.0763 39.5241 28.7659C39.5241 28.4555 39.776 28.2036 40.086 28.2036L46.3253 28.2036C48.8653 28.2036 50.3034 25.0099 50.3641 22.7043C50.4121 20.8779 49.7457 19.1419 48.4881 17.8164C47.2305 16.4908 45.5323 15.7346 43.7056 15.6862C43.0241 15.6683 42.3471 15.7508 41.6949 15.9319C41.5184 15.9807 41.3284 15.9404 41.1868 15.8237C41.0452 15.7069 40.9691 15.5283 40.9842 15.3456C40.9939 15.2224 41.0005 15.0995 41.0029 14.9795C41.1026 11.2088 38.1163 8.06063 34.3457 7.96137C32.7565 7.91987 31.1955 8.43575 29.9473 9.41502C29.7931 9.53627 29.5856 9.568 29.4017 9.49883C29.2179 9.42926 29.0832 9.26857 29.047 9.07531C28.219 4.58988 24.3019 1.24721 19.736 1.12681C14.368 0.98401 9.89355 5.23396 9.75159 10.5978C9.72718 11.5612 9.84314 12.5173 10.0958 13.4396C10.1462 13.6194 10.1027 13.8123 9.98105 13.9543C9.8594 14.0959 9.67551 14.1683 9.4904 14.1471C9.26827 14.1215 9.04532 14.106 8.82887 14.1003C6.82393 14.0483 4.91867 14.7785 3.46418 16.1586C2.0097 17.5386 1.17929 19.4027 1.1269 21.4074C1.07442 23.3944 1.82464 25.433 3.0859 26.7281C4.02775 27.6939 5.20676 28.205 6.49856 28.205H11.4039C11.7144 28.205 11.9662 28.4568 11.9662 28.7672C11.9662 29.0776 11.7143 29.3295 11.4039 29.3295H6.49856C4.89638 29.3295 3.43825 28.7013 2.28164 27.513C0.815795 26.0085 -0.0568976 23.6576 0.00288593 21.3786C0.063913 19.0738 1.01837 16.9305 2.69054 15.3439C4.35698 13.7633 6.5373 12.9228 8.83272 12.9768C8.67609 12.1871 8.60651 11.3804 8.62889 10.5691C8.78594 4.58567 13.7804 -0.155451 19.7659 0.00390224C22.2672 0.0698109 24.6855 1.00596 26.5745 2.63948C28.2198 4.06178 29.4024 5.95403 29.9635 8.03551C31.2801 7.21898 32.817 6.79912 34.3769 6.83901C38.6574 6.9517 42.0695 10.4396 42.1301 14.6829C42.6582 14.5894 43.1969 14.5495 43.7368 14.5633C45.8638 14.6195 47.8402 15.5003 49.3049 17.0434C50.7688 18.5865 51.5438 20.6078 51.4876 22.7344C51.449 24.1938 50.9526 25.7902 50.1597 27.0055C49.182 28.5039 47.8199 29.329 46.3256 29.329L46.3257 29.3281Z" fill="#EB770D"/>
<path fill-rule="evenodd" clip-rule="evenodd" d="M13.5167 19.9898C12.6619 19.9898 11.9662 20.6851 11.9662 21.5399L11.9662 23.9858C11.9662 24.8406 12.6615 25.5359 13.5167 25.5359L37.9738 25.5359C38.8285 25.5359 39.5243 24.8406 39.5243 23.9858V21.5399C39.5243 20.6851 38.8286 19.9898 37.9738 19.9898L13.5167 19.9898ZM37.9738 26.66L13.5167 26.66C12.0427 26.66 10.8421 25.4606 10.8421 23.9858L10.8421 21.5399C10.8421 20.0655 12.0422 18.8657 13.5167 18.8657L37.9738 18.8657C39.4481 18.8657 40.6484 20.0655 40.6484 21.5399L40.6488 23.9858C40.6488 25.4602 39.4483 26.66 37.9738 26.66Z" fill="#EB770D"/>
<path fill-rule="evenodd" clip-rule="evenodd" d="M37.9738 33.3297L13.5167 33.3297C12.0427 33.3297 10.8421 32.1298 10.8421 30.6554V28.2095C10.8421 26.7351 12.0422 25.5353 13.5167 25.5353C13.8271 25.5353 14.079 25.7872 14.079 26.0976C14.0794 26.408 13.8271 26.6594 13.5167 26.6594C12.6619 26.6594 11.9662 27.3547 11.9662 28.2095V30.6554C11.9662 31.5102 12.6615 32.2055 13.5167 32.2055L37.9738 32.2055C38.8285 32.2055 39.5243 31.5102 39.5243 30.6554L39.5243 28.2095C39.5243 27.3547 38.8286 26.6594 37.9738 26.6594C37.6637 26.6594 37.4115 26.4076 37.4115 26.0976C37.4115 25.7871 37.6634 25.5353 37.9738 25.5353C39.4481 25.5353 40.6484 26.7351 40.6484 28.2095L40.6488 30.6554C40.6488 32.1298 39.4483 33.3297 37.9738 33.3297Z" fill="#EB770D"/>
<path fill-rule="evenodd" clip-rule="evenodd" d="M37.9738 33.3297L13.5167 33.3297C12.0427 33.3297 10.8421 32.1298 10.8421 30.6554V28.2095C10.8421 26.7351 12.0422 25.5353 13.5167 25.5353C13.8271 25.5353 14.079 25.7872 14.079 26.0976C14.079 26.408 13.8271 26.6594 13.5167 26.6594C12.6619 26.6594 11.9662 27.3547 11.9662 28.2095V30.6554C11.9662 31.5102 12.6615 32.2055 13.5167 32.2055L37.9738 32.2055C38.8285 32.2055 39.5243 31.5102 39.5243 30.6554L39.5243 28.2095C39.5243 27.3547 38.8286 26.6594 37.9738 26.6594C37.6637 26.6594 37.4115 26.4076 37.4115 26.0976C37.4115 25.7871 37.6634 25.5353 37.9738 25.5353C39.4481 25.5353 40.6484 26.7351 40.6484 28.2095L40.6488 30.6554C40.6488 32.1298 39.4483 33.3297 37.9738 33.3297Z" fill="#EB770D"/>
<path fill-rule="evenodd" clip-rule="evenodd" d="M37.9738 39.9996L13.5167 39.9996C12.0427 39.9996 10.8421 38.7997 10.8421 37.3254L10.8421 34.8799C10.8421 33.4051 12.0422 32.2056 13.5167 32.2056C13.8271 32.2056 14.079 32.4575 14.079 32.7679C14.0794 33.0783 13.8271 33.3302 13.5167 33.3302C12.6619 33.3302 11.9662 34.0255 11.9662 34.8803L11.9662 37.3258C11.9662 38.1805 12.6615 38.8759 13.5167 38.8759L37.9738 38.8759C38.8285 38.8759 39.5243 38.1806 39.5243 37.3258V34.8803C39.5243 34.0255 38.8286 33.3302 37.9738 33.3302C37.6637 33.3302 37.4115 33.0783 37.4115 32.7679C37.4115 32.4575 37.6634 32.2056 37.9738 32.2056C39.4481 32.2056 40.6484 33.4055 40.6484 34.8799L40.6488 37.3254C40.6488 38.7997 39.4482 40 37.9738 40L37.9738 39.9996Z" fill="#EB770D"/>
<path fill-rule="evenodd" clip-rule="evenodd" d="M37.9738 39.9996L13.5167 39.9996C12.0427 39.9996 10.8421 38.7997 10.8421 37.3254L10.8421 34.8799C10.8421 33.4051 12.0422 32.2056 13.5167 32.2056C13.8271 32.2056 14.079 32.4575 14.079 32.7679C14.079 33.0783 13.8271 33.3302 13.5167 33.3302C12.6619 33.3302 11.9662 34.0255 11.9662 34.8803L11.9662 37.3258C11.9662 38.1805 12.6615 38.8759 13.5167 38.8759L37.9738 38.8759C38.8285 38.8759 39.5243 38.1806 39.5243 37.3258V34.8803C39.5243 34.0255 38.8286 33.3302 37.9738 33.3302C37.6637 33.3302 37.4115 33.0783 37.4115 32.7679C37.4115 32.4575 37.6634 32.2056 37.9738 32.2056C39.4481 32.2056 40.6484 33.4055 40.6484 34.8799L40.6488 37.3254C40.6488 38.7997 39.4482 40 37.9738 40L37.9738 39.9996Z" fill="#EB770D"/>
<path fill-rule="evenodd" clip-rule="evenodd" d="M38.2383 23.3248H24.009C23.6978 23.3248 23.4468 23.0733 23.4468 22.7629C23.4468 22.4525 23.6974 22.2007 24.009 22.2007H38.2383C38.5488 22.2007 38.8002 22.4525 38.8002 22.7629C38.8002 23.0733 38.5483 23.3248 38.2383 23.3248Z" fill="#EB770D"/>
<path fill-rule="evenodd" clip-rule="evenodd" d="M38.2383 23.3248H24.009C23.6978 23.3248 23.4468 23.0733 23.4468 22.7629C23.4468 22.4525 23.6974 22.2007 24.009 22.2007H38.2383C38.5488 22.2007 38.8002 22.4525 38.8002 22.7629C38.8002 23.0733 38.5483 23.3248 38.2383 23.3248Z" fill="#EB770D"/>
<path fill-rule="evenodd" clip-rule="evenodd" d="M14.3968 22.1812C14.0758 22.1812 13.8146 22.442 13.8146 22.763C13.8146 23.0836 14.0758 23.3443 14.3968 23.3443C14.7178 23.3443 14.979 23.0836 14.979 22.763C14.979 22.442 14.7178 22.1812 14.3972 22.1812H14.3968ZM14.3968 24.4689C13.4566 24.4689 12.6905 23.7036 12.6905 22.763C12.6905 21.8224 13.4562 21.0571 14.3968 21.0571C15.3375 21.0571 16.1031 21.8224 16.1031 22.763C16.1036 23.7036 15.3375 24.4689 14.3972 24.4689H14.3968Z" fill="#EB770D"/>
<path fill-rule="evenodd" clip-rule="evenodd" d="M14.3968 22.1812C14.0758 22.1812 13.8146 22.442 13.8146 22.763C13.8146 23.0836 14.0758 23.3443 14.3968 23.3443C14.7178 23.3443 14.979 23.0836 14.979 22.763C14.979 22.442 14.7178 22.1812 14.3972 22.1812H14.3968ZM14.3968 24.4689C13.4566 24.4689 12.6905 23.7036 12.6905 22.763C12.6905 21.8224 13.4562 21.0571 14.3968 21.0571C15.3375 21.0571 16.1031 21.8224 16.1031 22.763C16.1031 23.7036 15.3375 24.4689 14.3972 24.4689H14.3968Z" fill="#EB770D"/>
<path fill-rule="evenodd" clip-rule="evenodd" d="M19.469 22.1812C19.1484 22.1812 18.8868 22.442 18.8868 22.763C18.8868 23.0836 19.148 23.3443 19.4686 23.3443C19.7896 23.3443 20.0508 23.0836 20.0508 22.763C20.0508 22.442 19.7896 22.1812 19.469 22.1812ZM19.469 24.4689C18.5288 24.4689 17.7627 23.7036 17.7627 22.763C17.7627 21.8224 18.5284 21.0571 19.469 21.0571C20.4092 21.0571 21.1753 21.8224 21.1753 22.763C21.1753 23.7036 20.4097 24.4689 19.469 24.4689Z" fill="#EB770D"/>
<path fill-rule="evenodd" clip-rule="evenodd" d="M19.469 22.1812C19.1484 22.1812 18.8868 22.442 18.8868 22.763C18.8868 23.0836 19.148 23.3443 19.4686 23.3443C19.7896 23.3443 20.0508 23.0836 20.0508 22.763C20.0508 22.442 19.7896 22.1812 19.469 22.1812ZM19.469 24.4689C18.5288 24.4689 17.7627 23.7036 17.7627 22.763C17.7627 21.8224 18.5284 21.0571 19.469 21.0571C20.4092 21.0571 21.1753 21.8224 21.1753 22.763C21.1753 23.7036 20.4097 24.4689 19.469 24.4689Z" fill="#EB770D"/>
<path fill-rule="evenodd" clip-rule="evenodd" d="M38.2383 36.6646L24.009 36.6646C23.6978 36.6646 23.4468 36.4132 23.4468 36.1028C23.4468 35.7923 23.6974 35.5405 24.009 35.5405L38.2383 35.5405C38.5488 35.5405 38.8002 35.7924 38.8002 36.1028C38.8002 36.4132 38.5483 36.6646 38.2383 36.6646Z" fill="#EB770D"/>
<path fill-rule="evenodd" clip-rule="evenodd" d="M38.2383 36.6646L24.009 36.6646C23.6978 36.6646 23.4468 36.4132 23.4468 36.1028C23.4468 35.7923 23.6974 35.5405 24.009 35.5405L38.2383 35.5405C38.5488 35.5405 38.8002 35.7924 38.8002 36.1028C38.8002 36.4132 38.5483 36.6646 38.2383 36.6646Z" fill="#EB770D"/>
<path fill-rule="evenodd" clip-rule="evenodd" d="M14.3968 35.521C14.0758 35.521 13.8146 35.7822 13.8146 36.1028C13.8146 36.4234 14.0758 36.6842 14.3968 36.6842C14.7178 36.6842 14.979 36.4234 14.979 36.1028C14.979 35.7822 14.7178 35.521 14.3972 35.521H14.3968ZM14.3968 37.8087C13.4566 37.8087 12.6905 37.0435 12.6905 36.1028C12.6905 35.1622 13.4562 34.3969 14.3968 34.3969C15.3375 34.3969 16.1031 35.1622 16.1031 36.1028C16.1036 37.0434 15.3375 37.8087 14.3972 37.8087H14.3968Z" fill="#EB770D"/>
<path fill-rule="evenodd" clip-rule="evenodd" d="M14.3968 35.521C14.0758 35.521 13.8146 35.7822 13.8146 36.1028C13.8146 36.4234 14.0758 36.6842 14.3968 36.6842C14.7178 36.6842 14.979 36.4234 14.979 36.1028C14.979 35.7822 14.7178 35.521 14.3972 35.521H14.3968ZM14.3968 37.8087C13.4566 37.8087 12.6905 37.0435 12.6905 36.1028C12.6905 35.1622 13.4562 34.3969 14.3968 34.3969C15.3375 34.3969 16.1031 35.1622 16.1031 36.1028C16.1031 37.0435 15.3375 37.8087 14.3972 37.8087H14.3968Z" fill="#EB770D"/>
<path fill-rule="evenodd" clip-rule="evenodd" d="M19.469 35.521C19.1484 35.521 18.8868 35.7822 18.8868 36.1028C18.8868 36.4234 19.148 36.6842 19.4686 36.6842C19.7896 36.6842 20.0508 36.4234 20.0508 36.1028C20.0508 35.7822 19.7896 35.521 19.469 35.521ZM19.469 37.8087C18.5288 37.8087 17.7627 37.0435 17.7627 36.1028C17.7627 35.1622 18.5284 34.3969 19.469 34.3969C20.4092 34.3969 21.1753 35.1622 21.1753 36.1028C21.1753 37.0435 20.4097 37.8087 19.469 37.8087Z" fill="#EB770D"/>
<path fill-rule="evenodd" clip-rule="evenodd" d="M19.469 35.521C19.1484 35.521 18.8868 35.7822 18.8868 36.1028C18.8868 36.4234 19.148 36.6842 19.4686 36.6842C19.7896 36.6842 20.0508 36.4234 20.0508 36.1028C20.0508 35.7822 19.7896 35.521 19.469 35.521ZM19.469 37.8087C18.5288 37.8087 17.7627 37.0435 17.7627 36.1028C17.7627 35.1622 18.5284 34.3969 19.469 34.3969C20.4092 34.3969 21.1753 35.1622 21.1753 36.1028C21.1753 37.0435 20.4097 37.8087 19.469 37.8087Z" fill="#EB770D"/>
<path fill-rule="evenodd" clip-rule="evenodd" d="M38.2383 29.9947H24.009C23.6978 29.9947 23.4468 29.7433 23.4468 29.4328C23.4468 29.1224 23.6974 28.8706 24.009 28.8706H38.2383C38.5488 28.8706 38.8002 29.1224 38.8002 29.4328C38.8002 29.7433 38.5483 29.9951 38.2383 29.9947Z" fill="#EB770D"/>
<path fill-rule="evenodd" clip-rule="evenodd" d="M38.2383 29.9947H24.009C23.6978 29.9947 23.4468 29.7433 23.4468 29.4328C23.4468 29.1224 23.6974 28.8706 24.009 28.8706H38.2383C38.5488 28.8706 38.8002 29.1224 38.8002 29.4328C38.8002 29.7433 38.5483 29.9951 38.2383 29.9947Z" fill="#EB770D"/>
<path fill-rule="evenodd" clip-rule="evenodd" d="M14.3968 28.8511C14.0758 28.8511 13.8146 29.1123 13.8146 29.4329C13.8146 29.7535 14.0758 30.0147 14.3968 30.0147C14.7178 30.0147 14.979 29.7539 14.979 29.4329C14.979 29.1123 14.7178 28.8511 14.3972 28.8511H14.3968ZM14.3968 31.1388C13.4566 31.1388 12.6905 30.3735 12.6905 29.4329C12.6905 28.4923 13.4562 27.727 14.3968 27.727C15.3375 27.727 16.1031 28.4923 16.1031 29.4329C16.1036 30.3735 15.3375 31.1388 14.3972 31.1388H14.3968Z" fill="#EB770D"/>
<path fill-rule="evenodd" clip-rule="evenodd" d="M14.3968 28.8511C14.0758 28.8511 13.8146 29.1123 13.8146 29.4329C13.8146 29.7535 14.0758 30.0147 14.3968 30.0147C14.7178 30.0147 14.979 29.7539 14.979 29.4329C14.979 29.1123 14.7178 28.8511 14.3972 28.8511H14.3968ZM14.3968 31.1388C13.4566 31.1388 12.6905 30.3735 12.6905 29.4329C12.6905 28.4923 13.4562 27.727 14.3968 27.727C15.3375 27.727 16.1031 28.4923 16.1031 29.4329C16.1031 30.3735 15.3375 31.1388 14.3972 31.1388H14.3968Z" fill="#EB770D"/>
<path fill-rule="evenodd" clip-rule="evenodd" d="M19.469 28.8511C19.1484 28.8511 18.8868 29.1123 18.8868 29.4329C18.8868 29.7535 19.148 30.0147 19.4686 30.0147C19.7896 30.0147 20.0508 29.7539 20.0508 29.4329C20.0508 29.1123 19.7896 28.8511 19.469 28.8511ZM19.469 31.1388C18.5288 31.1388 17.7627 30.3735 17.7627 29.4329C17.7627 28.4923 18.5284 27.727 19.469 27.727C20.4092 27.727 21.1753 28.4923 21.1753 29.4329C21.1753 30.3735 20.4097 31.1388 19.469 31.1388Z" fill="#EB770D"/>
<path fill-rule="evenodd" clip-rule="evenodd" d="M19.469 28.8511C19.1484 28.8511 18.8868 29.1123 18.8868 29.4329C18.8868 29.7535 19.148 30.0147 19.4686 30.0147C19.7896 30.0147 20.0508 29.7539 20.0508 29.4329C20.0508 29.1123 19.7896 28.8511 19.469 28.8511ZM19.469 31.1388C18.5288 31.1388 17.7627 30.3735 17.7627 29.4329C17.7627 28.4923 18.5284 27.727 19.469 27.727C20.4092 27.727 21.1753 28.4923 21.1753 29.4329C21.1753 30.3735 20.4097 31.1388 19.469 31.1388Z" fill="#EB770D"/>
</svg>
