<svg width="31" height="40" viewBox="0 0 31 40" fill="none" xmlns="http://www.w3.org/2000/svg">
<path fill-rule="evenodd" clip-rule="evenodd" d="M15.7182 40C15.4544 40 15.1891 39.9351 14.9523 39.8053C5.69046 34.902 0.666504 30.4888 0.666504 21.2383L0.666504 5.0628C0.666504 4.71154 0.92263 4.41246 1.26975 4.35838L3.29619 4.0437C6.66341 3.53526 9.94218 2.56136 13.0435 1.14866L15.419 0.0643717C15.6039 -0.0196214 15.8158 -0.0218533 16.0013 0.0602355L19.0175 1.38383C22.148 2.76786 25.5038 3.70936 28.9937 4.18341L30.1439 4.33486C30.4984 4.38163 30.7637 4.68357 30.7637 5.0412L30.7637 21.2159C30.7637 30.4664 25.7295 34.9074 16.4676 39.8107C16.2386 39.9361 15.9788 40 15.7182 40ZM29.3389 5.66595L29.3386 21.2159C29.3386 23.0436 29.1311 24.664 28.7176 26.1284C27.2373 31.3715 23.1166 34.6148 16.4267 38.217C16.2199 38.3283 16.008 38.4414 15.7907 38.5565C15.7484 38.5788 15.6819 38.5801 15.6294 38.5508C6.65084 33.7973 2.09206 29.8151 2.09206 21.2382L2.09206 5.67357L3.51266 5.45277C7.00817 4.92496 10.4139 3.91316 13.6363 2.44573L15.7219 1.49347L18.4442 2.68788C21.6945 4.12535 25.1801 5.10342 28.8057 5.59563L29.3389 5.66595Z" fill="#EB770D"/>
<path d="M12.8294 25.8577C12.693 25.8577 12.5555 25.8188 12.4352 25.7387L7.87931 22.7122C7.5516 22.4946 7.46251 22.052 7.68014 21.7243C7.89777 21.3966 8.33939 21.3069 8.66839 21.5248L12.7391 24.2293L22.6518 14.35C22.9305 14.0728 23.3817 14.0732 23.6598 14.3519C23.9372 14.6306 23.9366 15.0821 23.6579 15.3598L13.333 25.6505C13.1953 25.7876 13.013 25.8577 12.8294 25.8577Z" fill="#EB770D"/>
</svg>
