<svg width="256" height="278" viewBox="0 0 256 278" fill="none" xmlns="http://www.w3.org/2000/svg">
<g opacity="0.6">
<path d="M445.326 -154.21C443.09 -170.846 440.848 -180.495 440.848 -180.495C308.265 -151.813 225.576 -244.628 224.944 -245C224.294 -244.628 141.63 -151.813 9.04644 -180.495C9.04644 -180.495 6.80441 -170.846 4.56238 -154.21C-6.25139 -73.782 -17.0714 170.085 224.944 278C466.966 170.085 456.146 -73.782 445.326 -154.21Z" fill="#FFF2E8" fill-opacity="0.7"/>
<path d="M402.768 -121.508C400.964 -134.943 399.155 -142.737 399.155 -142.737C292.155 -119.572 225.422 -194.533 224.912 -194.833C224.387 -194.533 157.674 -119.572 50.6739 -142.737C50.6739 -142.737 48.8645 -134.943 47.0551 -121.508C38.328 -56.5512 29.5958 140.405 224.912 227.561C420.233 140.405 411.501 -56.5512 402.768 -121.508Z" fill="#FFD7B7" fill-opacity="0.6"/>
<g filter="url(#filter0_b_192_4878)">
<path d="M360.883 -88.6508C359.503 -98.9146 358.12 -104.868 358.12 -104.868C276.318 -87.172 225.3 -144.437 224.91 -144.666C224.509 -144.437 173.507 -87.172 91.7047 -104.868C91.7047 -104.868 90.3214 -98.9146 88.9381 -88.6508C82.2661 -39.0284 75.5904 111.432 224.91 178.013C374.234 111.432 367.559 -39.0284 360.883 -88.6508Z" fill="#FFC394" fill-opacity="0.7"/>
</g>
</g>
<defs>
<filter id="filter0_b_192_4878" x="45.0003" y="-185.844" width="359.822" height="405.034" filterUnits="userSpaceOnUse" color-interpolation-filters="sRGB">
<feFlood flood-opacity="0" result="BackgroundImageFix"/>
<feGaussianBlur in="BackgroundImage" stdDeviation="20.5888"/>
<feComposite in2="SourceAlpha" operator="in" result="effect1_backgroundBlur_192_4878"/>
<feBlend mode="normal" in="SourceGraphic" in2="effect1_backgroundBlur_192_4878" result="shape"/>
</filter>
</defs>
</svg>
