<svg width="64" height="64" viewBox="0 0 64 64" fill="none" xmlns="http://www.w3.org/2000/svg">
<rect width="64" height="64" rx="1.97702" transform="matrix(-1 0 0 1 64 0)" fill="#FFF2E8"/>
<path d="M37.7476 21.2618C37.7476 23.4512 39.5224 25.226 41.7118 25.226C43.9011 25.226 45.676 23.4512 45.676 21.2618C45.676 19.0724 43.9011 17.2976 41.7118 17.2976C39.5224 17.2976 37.7476 19.0724 37.7476 21.2618Z" fill="#FFC394"/>
<path fill-rule="evenodd" clip-rule="evenodd" d="M32.296 28.4166L26.8257 32.5478C26.2142 33.0096 25.3441 32.8882 24.8823 32.2767C24.4205 31.6653 24.5419 30.7952 25.1534 30.3334L31.494 25.545C32.1398 25.0573 33.0502 25.1393 33.5983 25.7345L47.3578 40.6745C47.8769 41.2382 47.8408 42.1159 47.2771 42.635C46.7135 43.1541 45.8357 43.118 45.3166 42.5544L32.296 28.4166Z" fill="#FFC394"/>
<path fill-rule="evenodd" clip-rule="evenodd" d="M20.5546 28.574L18.6655 30.5492C18.1359 31.103 17.2577 31.1226 16.7039 30.593C16.1501 30.0634 16.1305 29.1851 16.6601 28.6313L19.4305 25.7344C20.0558 25.0806 21.1026 25.088 21.7186 25.7506L39.0285 44.3702C39.5502 44.9314 39.5182 45.8093 38.957 46.3311C38.3958 46.8528 37.5179 46.8208 36.9961 46.2596L20.5546 28.574Z" fill="#FFC394"/>
</svg>
