<svg width="225" height="523" viewBox="0 0 225 523" fill="none" xmlns="http://www.w3.org/2000/svg">
<g opacity="0.6">
<path d="M220.237 90.7898C218.001 74.1542 215.759 64.5048 215.759 64.5048C83.1757 93.1867 0.486893 0.371607 -0.144836 0C-0.795151 0.371607 -83.4592 93.1867 -216.042 64.5048C-216.042 64.5048 -218.284 74.1542 -220.526 90.7898C-231.34 171.218 -242.16 415.085 -0.144836 523C241.877 415.085 231.057 171.218 220.237 90.7898Z" fill="#FFF2E8" fill-opacity="0.7"/>
<path d="M177.68 123.492C175.875 110.057 174.066 102.263 174.066 102.263C67.0659 125.428 0.332748 50.4671 -0.177094 50.167C-0.70192 50.4671 -67.415 125.428 -174.415 102.263C-174.415 102.263 -176.224 110.057 -178.034 123.492C-186.761 188.449 -195.493 385.405 -0.177094 472.561C195.144 385.405 186.412 188.449 177.68 123.492Z" fill="#FFD7B7" fill-opacity="0.6"/>
<g filter="url(#filter0_b_37_5539)">
<path d="M135.794 156.349C134.414 146.085 133.031 140.132 133.031 140.132C51.2291 157.828 0.211304 100.563 -0.178467 100.334C-0.579697 100.563 -51.5822 157.828 -133.384 140.132C-133.384 140.132 -134.767 146.085 -136.151 156.349C-142.823 205.972 -149.499 356.432 -0.178467 423.013C149.145 356.432 142.47 205.972 135.794 156.349Z" fill="#FFC394" fill-opacity="0.7"/>
</g>
</g>
<defs>
<filter id="filter0_b_37_5539" x="-180.089" y="59.1563" width="359.822" height="405.034" filterUnits="userSpaceOnUse" color-interpolation-filters="sRGB">
<feFlood flood-opacity="0" result="BackgroundImageFix"/>
<feGaussianBlur in="BackgroundImage" stdDeviation="20.5888"/>
<feComposite in2="SourceAlpha" operator="in" result="effect1_backgroundBlur_37_5539"/>
<feBlend mode="normal" in="SourceGraphic" in2="effect1_backgroundBlur_37_5539" result="shape"/>
</filter>
</defs>
</svg>
