<svg width="40" height="40" viewBox="0 0 40 40" fill="none" xmlns="http://www.w3.org/2000/svg">
<path d="M29.3783 0L10.6199 0C9.44162 0 8.4832 0.958419 8.4832 2.13669L8.4832 10.6345C8.4832 10.8705 8.6746 11.0619 8.91065 11.0619C9.1467 11.0619 9.3381 10.8705 9.3381 10.6345L9.33782 2.13669C9.33782 1.42967 9.91287 0.854635 10.6199 0.854635L14.7331 0.854635L15.532 3.26868C15.59 3.44362 15.7535 3.56165 15.9377 3.56165L24.0604 3.56165C24.2446 3.56165 24.4081 3.44363 24.4661 3.26868L25.265 0.854635L29.3782 0.854635C30.0853 0.854635 30.6603 1.42969 30.6603 2.13669V8.15564C30.6603 8.39168 30.8517 8.58309 31.0877 8.58309C31.3238 8.58309 31.5152 8.39168 31.5152 8.15564L31.5149 2.13669C31.5149 0.958419 30.5565 0 29.3782 0L29.3783 0ZM23.7517 2.70697L16.2468 2.70697L15.6338 0.854563L24.3651 0.854563L23.7517 2.70697Z" fill="#EB770D"/>
<path d="M25.6255 26.5169L14.3735 26.5169C13.667 26.5169 13.092 25.9424 13.092 25.2359V22.0094C13.092 21.3032 13.6667 20.7284 14.3735 20.7284L25.6255 20.7284C26.3322 20.7284 26.907 21.3029 26.907 22.0094V25.2359C26.907 25.9421 26.3322 26.5169 25.6255 26.5169ZM14.3735 21.5831C14.1382 21.5831 13.9468 21.7742 13.9468 22.0094V25.236C13.9468 25.4709 14.1382 25.6623 14.3735 25.6623L25.6255 25.6623C25.861 25.6623 26.0524 25.4712 26.0524 25.236V22.0094C26.0524 21.7745 25.861 21.5831 25.6255 21.5831L14.3735 21.5831Z" fill="#EB770D"/>
<path d="M19.2741 23.6226C19.2741 23.9287 19.0261 24.177 18.72 24.177C18.4139 24.177 18.1659 23.9287 18.1659 23.6226C18.1659 23.3168 18.4139 23.0685 18.72 23.0685C19.0261 23.0685 19.2741 23.3168 19.2741 23.6226Z" fill="#EB770D"/>
<path d="M21.8319 23.6226C21.8319 23.9287 21.5839 24.177 21.2778 24.177C20.9717 24.177 20.7237 23.9287 20.7237 23.6226C20.7237 23.3168 20.9717 23.0685 21.2778 23.0685C21.5839 23.0685 21.8319 23.3168 21.8319 23.6226Z" fill="#EB770D"/>
<path d="M24.3905 23.6226C24.3905 23.9287 24.1424 24.177 23.8363 24.177C23.5303 24.177 23.2822 23.9287 23.2822 23.6226C23.2822 23.3168 23.5303 23.0685 23.8363 23.0685C24.1424 23.0685 24.3905 23.3168 24.3905 23.6226Z" fill="#EB770D"/>
<path d="M16.7163 23.6226C16.7163 23.9287 16.4682 24.177 16.1621 24.177C15.8561 24.177 15.608 23.9287 15.608 23.6226C15.608 23.3168 15.8561 23.0685 16.1621 23.0685C16.4682 23.0685 16.7163 23.3168 16.7163 23.6226Z" fill="#EB770D"/>
<path d="M39.5718 29.7411H31.5154V22.5312C31.5154 22.2952 31.324 22.1038 31.088 22.1038C30.8519 22.1038 30.6605 22.2952 30.6605 22.5312V29.7411H26.6714C26.4354 29.7411 26.2439 29.9326 26.2439 30.1686V36.6217L16.3455 36.6214V29.5606C16.3455 28.8536 15.7704 28.2785 15.0634 28.2785L9.33833 28.2785V24.4114C9.33833 24.1753 9.14692 23.9839 8.91087 23.9839C8.67482 23.9839 8.48342 24.1753 8.48342 24.4114V28.2785L1.28206 28.2788C0.575037 28.2788 0 28.8539 0 29.5609L0 38.7179C0 39.425 0.575051 40 1.28206 40H15.0641C15.7711 40 16.3461 39.4249 16.3461 38.7179V37.4763H26.2453V39.0999C26.2453 39.3359 26.4367 39.5273 26.6728 39.5273L39.5727 39.527C39.8087 39.527 40.0001 39.3356 40.0001 39.0996V30.1682C40.0001 29.9322 39.8087 29.7411 39.5727 29.7411L39.5718 29.7411ZM15.4906 38.7182C15.4906 38.954 15.2989 39.1456 15.0631 39.1456H1.28182C1.04605 39.1456 0.854363 38.954 0.854363 38.7182L0.854363 32.249H15.4907L15.4906 38.7182ZM15.4906 31.394L0.854278 31.394L0.854278 29.5606C0.854278 29.3248 1.04596 29.1331 1.28173 29.1331L15.0637 29.1331C15.2995 29.1331 15.4912 29.3248 15.4912 29.5606L15.4906 31.394ZM38.4461 30.5957L33.1222 35.3155L27.798 30.5957H38.4461ZM39.145 38.6721L27.0994 38.6721V31.1178L32.8388 36.2059C33.0006 36.3494 33.2439 36.3494 33.4057 36.2059L39.1453 31.1178L39.145 38.6721Z" fill="#EB770D"/>
<path d="M13.0834 34.8068H10.0988C9.86279 34.8068 9.67138 34.6154 9.67138 34.3794C9.67138 34.1433 9.86279 33.9519 10.0988 33.9519H13.0834C13.3195 33.9519 13.5109 34.1433 13.5109 34.3794C13.5109 34.6154 13.3195 34.8068 13.0834 34.8068Z" fill="#EB770D"/>
<path d="M13.0784 37.4325H10.0938C9.85776 37.4325 9.66636 37.2411 9.66636 37.0051C9.66636 36.769 9.85776 36.5776 10.0938 36.5776H13.0784C13.3145 36.5776 13.5059 36.769 13.5059 37.0051C13.5056 37.2411 13.3145 37.4325 13.0784 37.4325Z" fill="#EB770D"/>
<path d="M19.9991 5.41209C16.8136 5.41209 14.2221 8.00328 14.2221 11.188V13.7376C14.2221 15.1619 15.3811 16.321 16.8058 16.321H17.1049V17.3935C17.1049 18.2236 17.7804 18.8988 18.6104 18.8988H21.3881C22.2181 18.8988 22.8936 18.2236 22.8936 17.3935V16.321H23.1927C24.6173 16.321 25.7764 15.1622 25.7764 13.7376V11.188C25.7761 8.00328 23.1846 5.41209 19.9991 5.41209ZM24.9215 13.7377C24.9215 14.6909 24.1458 15.4662 23.1924 15.4662H22.4661C22.2301 15.4662 22.0387 15.6576 22.0387 15.8937V17.3936C22.0387 17.7525 21.7468 18.0443 21.3878 18.0443H21.2349V16.7818C21.2349 16.5457 21.0434 16.3543 20.8074 16.3543C20.5714 16.3543 20.3799 16.5457 20.3799 16.7818V18.0443H19.6174V16.7818C19.6174 16.5457 19.426 16.3543 19.1899 16.3543C18.9539 16.3543 18.7625 16.5457 18.7625 16.7818V18.0443H18.6096C18.2508 18.0443 17.9586 17.7525 17.9586 17.3936V15.8937C17.9586 15.6576 17.7672 15.4662 17.5312 15.4662H16.8049C15.8515 15.4662 15.0758 14.6909 15.0758 13.7377V11.1881C15.0758 8.47442 17.284 6.26687 19.9982 6.26687C22.7125 6.26687 24.9206 8.47442 24.9206 11.1881L24.9215 13.7377Z" fill="#EB770D"/>
<path d="M17.8427 12.7427C16.9616 12.7427 16.2451 12.026 16.2451 11.1451C16.2451 10.2643 16.9618 9.54749 17.8427 9.54749C18.7238 9.54749 19.4403 10.2643 19.4403 11.1451C19.4403 12.026 18.7235 12.7427 17.8427 12.7427ZM17.8427 10.4023C17.4328 10.4023 17.0997 10.7355 17.0997 11.145C17.0997 11.5546 17.4331 11.888 17.8427 11.888C18.2526 11.888 18.5857 11.5549 18.5857 11.145C18.5857 10.7357 18.2523 10.4023 17.8427 10.4023Z" fill="#EB770D"/>
<path d="M22.1555 12.7427C21.2744 12.7427 20.5579 12.026 20.5579 11.1451C20.5579 10.2643 21.2747 9.54749 22.1555 9.54749C23.0364 9.54749 23.7531 10.2643 23.7531 11.1451C23.7534 12.026 23.0367 12.7427 22.1555 12.7427ZM22.1555 10.4023C21.7456 10.4023 21.4125 10.7355 21.4125 11.145C21.4125 11.5546 21.746 11.888 22.1555 11.888C22.5654 11.888 22.8985 11.5549 22.8985 11.145C22.8988 10.7357 22.5654 10.4023 22.1555 10.4023Z" fill="#EB770D"/>
<path d="M20.8213 14.9627C20.6809 14.9627 20.5434 14.8938 20.4619 14.7671L20.009 14.0654L19.5328 14.7738C19.4011 14.9697 19.1357 15.0216 18.9396 14.8899C18.7437 14.7582 18.6918 14.4926 18.8235 14.2967L19.6619 13.0501C19.8212 12.7992 20.2216 12.802 20.3757 13.0568L21.1804 14.3034C21.3673 14.5763 21.1477 14.9716 20.8213 14.9627Z" fill="#EB770D"/>
<path d="M28.0547 21.6762L28.0547 12.8563C28.0547 12.6203 28.2461 12.4289 28.4822 12.4289L39.5506 12.4289C39.7867 12.4289 39.9781 12.6203 39.9781 12.8563V19.5273C39.9781 19.7634 39.7867 19.9548 39.5506 19.9548H31.0914L28.7639 21.9975C28.5393 22.2528 28.0546 22.2628 28.0546 21.6763L28.0547 21.6762ZM28.9094 13.2835L28.9094 20.7327L30.6488 19.2062C30.7266 19.1378 30.8268 19.1002 30.9306 19.1002H39.1234V13.2841L28.9094 13.2835Z" fill="#EB770D"/>
<path d="M36.9782 15.5827L31.0544 15.5827C30.8184 15.5827 30.627 15.3913 30.627 15.1553C30.627 14.9192 30.8184 14.7278 31.0544 14.7278L36.9782 14.7278C37.2143 14.7278 37.4057 14.9192 37.4057 15.1553C37.4054 15.3913 37.2143 15.5827 36.9782 15.5827Z" fill="#EB770D"/>
<path d="M36.9782 17.7141H32.7445C32.5084 17.7141 32.317 17.5227 32.317 17.2867C32.317 17.0506 32.5084 16.8592 32.7445 16.8592H36.9782C37.2143 16.8592 37.4057 17.0506 37.4057 17.2867C37.4054 17.5227 37.2143 17.7141 36.9782 17.7141Z" fill="#EB770D"/>
<path d="M11.2342 21.9977L8.90664 19.955H0.447438C0.21139 19.955 0.0199845 19.7636 0.0199845 19.5275L0.0199845 12.8565C0.0199845 12.6204 0.21139 12.429 0.447438 12.429L11.5159 12.429C11.752 12.429 11.9434 12.6204 11.9434 12.8565V21.6764C11.9431 22.2632 11.4584 22.2531 11.2338 21.9978L11.2342 21.9977ZM0.875005 13.2842L0.875005 19.1003H9.06779C9.17158 19.1003 9.27175 19.1379 9.34959 19.2063L11.089 20.7328V13.2835L0.875005 13.2842Z" fill="#EB770D"/>
<path d="M3.01999 15.5827L8.94379 15.5827C9.17984 15.5827 9.37125 15.3913 9.37125 15.1553C9.37125 14.9192 9.17984 14.7278 8.94379 14.7278L3.01999 14.7281C2.78394 14.7281 2.59254 14.9195 2.59254 15.1555C2.59282 15.3913 2.78394 15.5827 3.01999 15.5827Z" fill="#EB770D"/>
<path d="M3.01999 17.7141H7.25374C7.48979 17.7141 7.68119 17.5227 7.68119 17.2867C7.68119 17.0506 7.48979 16.8592 7.25374 16.8592L3.01999 16.8595C2.78394 16.8595 2.59254 17.0509 2.59254 17.2869C2.59282 17.5227 2.78394 17.7141 3.01999 17.7141Z" fill="#EB770D"/>
<path d="M31.704 10.4628C31.704 10.7699 31.4551 11.0188 31.1479 11.0188C30.841 11.0188 30.5921 10.7699 30.5921 10.4628C30.5921 10.1558 30.841 9.90696 31.1479 9.90696C31.4551 9.90696 31.704 10.1558 31.704 10.4628Z" fill="#EB770D"/>
<path d="M9.48204 22.2641C9.48204 22.5713 9.23288 22.8202 8.92596 22.8202C8.61876 22.8202 8.36988 22.5713 8.36988 22.2641C8.36988 21.9572 8.61876 21.708 8.92596 21.708C9.23288 21.708 9.48204 21.9572 9.48204 22.2641Z" fill="#EB770D"/>
</svg>
