<svg width="40" height="40" viewBox="0 0 40 40" fill="none" xmlns="http://www.w3.org/2000/svg">
<path d="M0.000214164 3.74993L40.0002 3.74993L40.0002 40L0.000214164 40L0.000214164 3.74993ZM1.25033 5.14448L1.25033 38.6046L38.7497 38.6046L38.7497 5.14448L1.25033 5.14448ZM40 0V2.50024L0 2.50024L0 0L40 0ZM3.1253 0.625264C2.78002 0.625264 2.50045 0.904837 2.50045 1.25011C2.50045 1.59538 2.78003 1.87496 3.1253 1.87496C3.47057 1.87496 3.75015 1.59538 3.75015 1.25011C3.75015 0.904837 3.47057 0.625264 3.1253 0.625264ZM6.87523 0.625264C6.52995 0.625264 6.25039 0.904837 6.25039 1.25011C6.25039 1.59538 6.52996 1.87496 6.87523 1.87496C7.22051 1.87496 7.50008 1.59538 7.50008 1.25011C7.50008 0.904837 7.22051 0.625264 6.87523 0.625264ZM10.6252 0.625264C10.2799 0.625264 10.0003 0.904837 10.0003 1.25011C10.0003 1.59538 10.2799 1.87496 10.6252 1.87496C10.9704 1.87496 11.25 1.59538 11.25 1.25011C11.25 0.904837 10.9704 0.625264 10.6252 0.625264Z" fill="#EB770D"/>
<path d="M17.4481 15.6254L17.4477 17.8545L17.5318 17.883C17.7109 17.947 17.8871 18.0173 18.0608 18.0943L18.3186 18.2144L18.3902 18.2508L19.95 16.6918L23.3087 20.0505L21.7488 21.6095L21.7861 21.6819C21.8694 21.8522 21.9464 22.0259 22.0167 22.2021L22.1175 22.4687L22.1452 22.552L24.375 22.5524V27.4482L22.1452 27.4478L22.1175 27.5315C22.0535 27.7106 21.9832 27.8873 21.9062 28.0605L21.7861 28.3183L21.7488 28.3903L23.3087 29.9497L19.95 33.3088L18.3902 31.749L18.3186 31.7858C18.1483 31.8691 17.9746 31.9461 17.7984 32.0168L17.5318 32.1173L17.4477 32.1449L17.4481 34.3751H12.5523V32.1449L12.469 32.1173C12.2899 32.0536 12.1132 31.9829 11.94 31.9063L11.6822 31.7858L11.6098 31.749L10.0508 33.3088L6.69168 29.9497L8.25112 28.3903L8.21471 28.3183C8.13142 28.148 8.05441 27.9747 7.98369 27.7981L7.88325 27.5315L7.85479 27.4478L5.62529 27.4482L5.62529 22.5524L7.85479 22.552L7.88325 22.4687C7.94686 22.2896 8.01759 22.1134 8.09418 21.9397L8.21472 21.6819L8.25113 21.6095L6.69169 20.0505L10.0508 16.6918L11.6098 18.2508L11.6822 18.2144C11.8525 18.1311 12.0258 18.0541 12.2024 17.9838L12.469 17.883L12.5523 17.8545V15.6254L17.4481 15.6254ZM16.198 16.8751L13.8024 16.8751L13.8028 18.7932L13.3416 18.9183C12.8817 19.0439 12.4389 19.2205 12.0208 19.4456L11.8136 19.562L11.3968 19.8068L10.0504 18.4588L8.45919 20.05L9.80681 21.3968L9.56197 21.8136C9.32132 22.2234 9.12796 22.6586 8.98567 23.1127L8.9187 23.3416L8.79356 23.8024L6.87553 23.802L6.87553 26.1976H8.79356L8.9187 26.6588C9.04385 27.1187 9.22087 27.5615 9.44562 27.9796L9.56197 28.1868L9.80681 28.6036L8.45919 29.9492L10.0504 31.5405L11.3968 30.1937L11.8136 30.4386C12.2233 30.6792 12.659 30.8726 13.1131 31.0149L13.3416 31.0818L13.8029 31.207L13.8024 33.125H16.198V31.207L16.6588 31.0818C17.1192 30.9567 17.562 30.7796 17.9801 30.5549L18.1868 30.4386L18.6036 30.1937L19.9496 31.5405L21.5408 29.9492L20.1936 28.6036L20.4385 28.1868C20.6791 27.7771 20.8729 27.3414 21.0152 26.8873L21.0821 26.6588L21.2073 26.1976H23.1253V23.802L21.2073 23.8024L21.0821 23.3416C20.9566 22.8812 20.78 22.4385 20.5548 22.0204L20.4385 21.8136L20.1936 21.3968L21.5408 20.05L19.9496 18.4588L18.6036 19.8068L18.1868 19.562C17.7771 19.3213 17.3418 19.1275 16.8877 18.9852L16.6588 18.9183L16.198 18.7931L16.198 16.8751ZM15.0001 20.6251C17.4167 20.6251 19.3753 22.5837 19.3753 25.0003C19.3753 27.4164 17.4167 29.375 15.0001 29.375C12.584 29.375 10.6254 27.4164 10.6254 25.0003C10.6254 22.5837 12.584 20.6251 15.0001 20.6251ZM15.0001 21.8752C13.2746 21.8752 11.8755 23.2743 11.8755 25.0003C11.8755 26.7258 13.2746 28.1249 15.0001 28.1249C16.7261 28.1249 18.1252 26.7258 18.1252 25.0003C18.1252 23.2743 16.7261 21.8752 15.0001 21.8752ZM29.7502 10.0007V11.1266C30.1173 11.2212 30.4638 11.3664 30.7823 11.5543L31.5787 10.7579L32.9929 12.172L32.1965 12.9685C32.3844 13.287 32.5296 13.6335 32.6242 14.0005H33.75V16.0006L32.6242 16.0002C32.5296 16.3673 32.3844 16.7142 32.1965 17.0323L32.9929 17.8287L31.5787 19.2429L30.7823 18.4469C30.4638 18.6348 30.1173 18.78 29.7502 18.8746V20.0004H27.7501L27.7497 18.8742C27.3831 18.78 27.0366 18.6348 26.7185 18.4468L25.922 19.2429L24.5079 17.8287L25.3039 17.0323C25.116 16.7142 24.9708 16.3673 24.8762 16.0002L23.7503 16.0006L23.7503 14.0005H24.8762C24.9708 13.6335 25.116 13.2869 25.3039 12.9685L24.5079 12.172L25.922 10.7579L26.7185 11.5543C27.0366 11.3664 27.3831 11.2212 27.7497 11.1266L27.7501 10.0007L29.7502 10.0007ZM28.7504 17.0005C29.8549 17.0005 30.7501 16.1053 30.7501 15.0004C30.7501 13.8959 29.8549 13.0007 28.7504 13.0007C27.6456 13.0007 26.7503 13.8959 26.7503 15.0004C26.7503 16.1052 27.6455 17.0005 28.7504 17.0005Z" fill="#EB770D"/>
</svg>
