<svg width="224" height="193" viewBox="0 0 224 193" fill="none" xmlns="http://www.w3.org/2000/svg">
<rect width="224" height="193" fill="#FFF2E8"/>
<path d="M152 76.5009C152 65.4552 143.046 56.5009 132 56.5009H92.0002C80.9545 56.5009 72.0002 65.4552 72.0002 76.5009V116.501C72.0002 127.547 80.9545 136.501 92.0002 136.501H132C143.046 136.501 152 127.547 152 116.501V76.5009Z" fill="#FFD7B7"/>
<path d="M123.427 76.4955C123.427 81.2294 127.265 85.0669 131.999 85.0669C136.733 85.0669 140.57 81.2294 140.57 76.4955C140.57 71.7616 136.733 67.9241 131.999 67.9241C127.265 67.9241 123.427 71.7616 123.427 76.4955Z" fill="#FEA864"/>
<path fill-rule="evenodd" clip-rule="evenodd" d="M111.64 91.9666L99.8118 100.899C98.4897 101.898 96.6084 101.635 95.6099 100.313C94.6114 98.9908 94.8738 97.1095 96.1959 96.111L109.906 85.7574C111.302 84.703 113.271 84.8803 114.456 86.1673L144.207 118.471C145.329 119.689 145.251 121.587 144.032 122.71C142.814 123.832 140.916 123.754 139.793 122.535L111.64 91.9666Z" fill="#FEA864"/>
<path fill-rule="evenodd" clip-rule="evenodd" d="M86.2523 92.3062L82.1679 96.5771C81.0227 97.7745 79.1237 97.8169 77.9263 96.6718C76.7289 95.5266 76.6865 93.6276 77.8316 92.4302L83.8219 86.1665C85.174 84.7527 87.4373 84.7686 88.7693 86.2014L126.197 126.461C127.325 127.675 127.256 129.573 126.042 130.701C124.829 131.829 122.931 131.76 121.803 130.546L86.2523 92.3062Z" fill="#FEA864"/>
</svg>
