<svg width="496" height="543" viewBox="0 0 496 543" fill="none" xmlns="http://www.w3.org/2000/svg">
<g filter="url(#filter0_b_288_587)">
<path d="M436.242 372.843C398.92 434.252 330.088 473.115 254.394 467.513C217.912 464.852 184.511 452.178 156.573 432.362C186.892 455.329 224.004 470.174 264.827 473.185C338.141 478.577 405.152 444.546 445.345 389.088C442.474 383.626 439.603 378.094 436.242 372.843Z" fill="#E8EFFA"/>
</g>
<g filter="url(#filter1_b_288_587)">
<path d="M459 171.387C426.79 112.638 366.64 70.8346 294.867 65.5129C250.193 62.2218 207.829 73.5655 172.468 95.4825C205.169 76.6465 243.471 67.1234 283.734 70.0644C355.647 75.3861 415.446 119.43 445.206 180.63C449.757 177.549 454.308 174.468 459 171.387Z" fill="#E8EFFA"/>
</g>
<g filter="url(#filter2_b_288_587)">
<path d="M277.431 493.071C153.561 493.071 53.1492 393.499 53.1492 270.679C53.1492 147.86 153.561 48.2878 277.431 48.2878C308.381 48.2878 337.79 54.5198 364.609 65.7234C334.569 51.2288 300.959 43.0361 265.387 43.0361C139.347 43.0361 37.114 145.199 37.114 271.309C37.114 397.42 139.277 499.583 265.387 499.583C308.871 499.583 349.484 487.399 384.075 466.322C352.285 483.407 316.014 493.071 277.431 493.071Z" fill="#E8EFFA"/>
</g>
<g filter="url(#filter3_b_288_587)">
<path d="M184.72 254.924C184.93 254.924 185.211 254.994 185.421 255.064C187.731 256.605 189.762 255.764 192.003 254.714C195.084 253.244 198.305 252.123 201.456 250.793C205.167 249.252 209.088 248.972 213.009 248.692C215.39 248.482 217.281 249.322 218.681 251.073C219.662 252.333 220.362 253.734 220.922 255.204C221.762 257.515 223.933 258.635 226.594 258.285C228.765 257.935 230.935 257.655 233.106 257.305C234.086 257.165 234.856 257.305 235.697 257.795C239.968 260.526 241.088 262.767 239.618 267.248C238.638 270.399 238.218 273.55 238.007 276.771C237.937 277.892 237.727 278.802 236.257 279.152C235.347 279.362 235.207 280.132 235.557 280.762C237.097 283.984 238.078 287.555 241.158 290.076C242.489 291.126 243.539 292.316 244.59 293.577C278.48 312.623 325.115 334.05 378.333 345.673C379.033 344.483 378.893 343.083 378.613 341.822C377.632 337.761 377.842 333.629 378.122 329.568C378.333 326.977 378.052 324.667 376.232 322.286C373.431 318.575 372.101 314.373 373.921 309.822C374.271 308.912 373.781 308.211 373.151 307.581C371.19 305.761 370.77 303.87 372.03 301.349C373.781 297.708 376.372 294.347 377.282 290.356C377.422 289.655 378.122 289.305 378.683 288.885C379.523 288.325 380.223 287.625 380.993 286.924C379.033 262.837 381.904 238.749 387.015 216.692C385.685 215.291 384.354 213.821 382.744 212.631C380.923 211.23 379.383 209.48 377.422 208.219C377.212 208.079 376.932 207.939 376.932 207.729C376.862 205.698 375.532 204.928 373.431 204.648C372.521 204.508 371.89 203.668 371.68 202.757C371.4 201.567 370.98 200.447 370.7 199.256C370.07 197.086 368.879 195.195 366.989 193.725C366.569 193.444 366.289 193.094 365.939 192.744C360.687 254.084 369.3 300.019 369.3 300.019C356.205 261.926 357.186 220.333 362.157 186.442C361.947 185.322 361.807 184.061 361.877 182.801C362.017 179.93 360.267 177.479 358.516 175.239C357.816 174.328 356.766 173.558 355.855 172.788C354.875 171.878 354.315 170.827 354.455 169.567C354.595 168.516 354.385 167.466 353.545 166.626C350.534 163.615 349.273 159.694 346.892 156.333C346.612 155.982 346.332 155.492 346.402 155.142C346.542 152.481 344.652 150.801 342.971 148.91C340.03 145.689 338.7 141.838 338.07 137.777C337.439 133.295 336.249 132.455 331.207 133.225C329.247 133.505 327.426 133.995 325.746 135.046C324.975 135.536 324.205 135.606 323.365 135.606C325.746 220.123 352.144 285.594 352.144 285.594C323.155 235.738 319.164 175.029 320.494 135.116C316.573 134.065 312.651 133.155 308.59 132.805C308.03 132.735 307.47 132.595 307.12 132.175C305.859 130.774 304.179 130.564 302.358 130.564C300.608 130.564 299.417 129.934 298.157 128.744C296.336 127.063 293.815 126.153 291.014 126.713C289.334 127.063 287.793 127.693 286.323 128.534C284.222 129.794 282.822 131.405 283.522 133.855C283.662 134.346 283.592 134.976 283.592 135.466C283.522 137.917 281.071 139.247 278.901 137.847C277.01 136.586 275.049 135.746 272.949 135.116C291.925 221.033 331.417 285.594 331.417 285.594C291.715 236.648 275.4 176.989 268.747 134.205C268.397 134.135 268.117 134.065 267.767 134.065C266.227 133.925 265.526 132.875 265.106 131.615C264.616 130.074 263.496 129.374 261.955 128.674C259.224 127.343 256.353 126.643 253.272 126.643C251.172 126.643 249.211 125.803 247.881 124.192C246.97 123.142 245.99 122.582 244.45 122.792C243.889 122.862 243.119 122.862 242.909 122.232C242.629 121.531 243.189 121.111 243.679 120.691C244.45 120.131 245.43 119.921 246.34 119.711C246.9 119.571 247.671 119.291 247.32 118.801C246.27 117.19 247.461 114.879 245.08 113.689C244.239 113.269 244.45 112.428 245.01 111.798C245.43 111.308 245.92 110.888 246.27 110.398C246.83 109.768 246.83 109.067 246.34 108.437C245.85 107.737 245.22 107.667 244.45 107.877C243.329 108.297 242.419 107.947 241.789 107.037C240.598 107.037 239.338 107.037 238.148 107.037C236.117 107.947 234.016 108.437 231.775 107.737C231.145 107.527 230.445 107.597 229.815 107.877C229.465 108.017 228.975 108.227 228.765 108.087C226.944 106.967 225.403 108.017 223.933 108.647C222.603 109.207 221.482 109.207 220.012 108.857C217.771 108.227 215.39 108.787 213.15 109.137C210.139 109.628 207.128 110.048 204.187 110.748C203.136 111.028 202.156 111.378 201.176 111.728C239.968 220.823 322.034 300.089 322.034 300.089C235.557 236.228 205.237 127.833 201.176 111.938C198.585 112.849 196.064 113.899 193.823 115.509C192.423 116.56 190.882 117.05 189.272 116.49C187.451 115.86 185.631 115.93 183.67 116.07C181.289 116.21 178.838 116.35 177.788 113.689C177.508 112.989 176.598 113.059 175.828 113.339C174.987 113.619 174.427 114.249 174.007 114.949C173.307 116.07 172.607 117.26 171.906 118.38C170.366 121.041 168.195 123.072 165.114 124.332C158.812 126.923 156.361 131.685 156.361 137.567C156.361 139.667 155.801 141.278 154.261 142.748C151.04 145.899 147.608 148.7 142.777 149.68C141.376 149.961 140.466 150.871 140.046 152.131C139.416 153.742 138.366 155.072 136.895 156.263C134.934 157.803 133.814 159.904 133.114 162.144C132.554 163.825 131.643 165.225 130.243 166.486C128.632 167.886 127.512 169.567 126.952 171.527C126.532 172.928 125.831 174.188 124.711 175.239C122.68 176.989 122.47 179.3 122.33 181.611C122.26 182.941 123.381 183.641 124.501 184.272C125.551 184.902 126.532 185.392 125.131 186.722C124.151 187.633 124.361 189.103 125.061 190.153C126.812 193.094 126.392 195.965 125.201 198.906C124.501 200.587 123.871 202.337 123.521 204.088C123.031 206.189 122.12 208.079 119.88 209.129C118.899 209.62 119.109 210.25 119.74 210.67C122.54 212.351 122.47 214.871 122.33 217.392C122.19 219.353 122.33 221.243 123.941 222.784C124.501 223.344 124.361 223.974 124.221 224.674C123.871 226.845 124.921 227.685 127.162 227.195C128.352 226.915 129.263 227.125 129.963 228.106C131.433 230.066 133.534 231.537 135.214 233.357C136.545 234.828 137.315 236.368 137.245 238.259C137.105 241.13 138.506 243.16 141.517 244.281C145.368 245.751 148.169 248.482 151.25 250.863C153.7 252.754 156.011 254.784 158.672 256.465C160.983 257.935 163.504 258.355 165.884 256.955C171.836 253.384 178.278 254.434 184.72 254.924ZM340.8 323.826C213.99 271.66 150.83 148.77 150.83 148.77C223.513 257.375 340.8 323.826 340.8 323.826ZM122.61 207.379L178.909 253.524H168.755C168.755 253.524 124.011 214.311 122.61 207.379Z" fill="#E8EFFA"/>
<path d="M353.683 383.346C354.243 381.595 354.313 379.985 354.173 378.304C323.083 390.768 291.433 396.79 263.564 399.381C263.774 400.011 263.914 400.571 264.124 401.202C264.544 402.392 265.034 403.582 266.015 404.563C269.026 407.644 270.776 411.285 272.387 414.996C272.877 416.116 273.577 417.237 274.207 418.287C305.227 408.974 332.256 397.771 352.703 388.107C353.263 387.337 353.613 386.427 353.543 385.166C353.333 384.676 353.473 383.976 353.683 383.346Z" fill="#E8EFFA"/>
<path d="M420.556 223.064C417.755 224.955 414.254 224.955 410.963 225.445C406.131 226.215 401.3 226.915 396.818 228.526C395.488 229.016 394.368 228.806 393.457 227.966C392.477 227.055 391.637 226.005 390.727 224.955C385.615 250.863 383.584 272.22 382.744 285.314C383.794 284.264 384.775 283.143 385.615 281.953C389.256 276.981 393.457 272.36 399.129 268.929C402.84 266.688 405.571 263.397 408.512 260.456C412.223 256.745 414.814 252.473 416.775 247.782C418.105 244.631 419.996 241.62 421.536 238.539C422.587 236.508 423.567 234.408 423.847 232.167C423.917 231.397 424.337 230.696 424.897 230.136C424.897 227.615 424.897 225.095 424.897 222.574C423.427 221.734 422.097 222.014 420.556 223.064Z" fill="#E8EFFA"/>
<path d="M255.233 313.392C255.793 314.652 256.213 315.843 254.883 316.963C254.112 317.593 254.532 318.504 254.813 319.274C255.723 321.515 256.703 323.825 257.123 326.206C257.754 329.427 257.613 332.368 254.673 334.819L254.602 334.889C312.161 349.314 360.616 351.204 374.481 351.414C376.021 349.664 377.212 347.703 378.332 345.672C378.332 345.672 313.701 338.32 251.171 304.429C252.152 307.51 253.832 310.381 255.233 313.392Z" fill="#E8EFFA"/>
<path d="M276.168 423.677C276.028 424.308 275.748 424.868 274.978 425.498C273.787 426.408 274.418 428.859 275.748 429.629C276.588 430.05 276.378 430.54 276.168 431.17C275.678 432.92 275.958 433.341 277.919 433.621C279.599 433.831 280.86 434.601 281.84 435.791C282.54 435.791 283.31 435.791 284.011 435.791C285.341 434.671 286.812 434.111 288.632 434.181C289.753 434.251 290.873 434.111 291.853 433.621C294.584 432.36 297.525 432.22 300.466 432.57C304.947 433.06 309.079 431.94 313 430.19C319.022 427.529 323.713 423.397 327.985 418.846C329.875 416.815 331.766 414.855 333.166 412.474C333.937 411.213 334.987 410.093 336.247 409.253C339.749 406.802 341.079 403.441 341.359 399.94C319.232 410.793 296.825 418.356 276.168 423.677Z" fill="#E8EFFA"/>
<path d="M351.445 368.221C352.075 367.521 352.705 366.891 353.406 366.261C319.305 374.103 285.624 374.733 256.354 372.353C256.915 373.403 257.405 374.383 257.965 375.364C259.365 377.954 259.926 380.755 260.276 383.556C260.696 387.057 261.256 390.488 262.026 393.919C298.648 389.018 330.438 380.825 353.126 373.823C352.635 372.633 352.075 371.442 351.375 370.252C350.885 369.482 350.815 368.851 351.445 368.221Z" fill="#E8EFFA"/>
<path d="M368.387 355.336C370.698 354.566 372.308 353.375 373.779 351.975C329.385 357.506 286.671 350.434 251.59 340.071C251.52 340.491 251.45 340.911 251.38 341.331C251.24 343.572 250.259 345.673 249.069 347.703C248.509 348.754 248.229 349.874 248.229 350.994C248.159 353.305 248.439 355.616 248.789 357.857C249.069 359.677 249.839 361.288 251.099 362.758C252.01 363.809 252.64 365.069 253.27 366.329C297.664 368.5 336.037 364.719 359.494 361.358C361.455 358.207 364.816 356.526 368.387 355.336Z" fill="#E8EFFA"/>
</g>
<g filter="url(#filter4_b_288_587)">
<path d="M331.067 278.731C330.576 278.661 330.156 278.801 329.806 279.081C328.966 279.501 328.896 279.501 329.666 280.062C330.296 280.552 330.646 281.182 330.716 281.952C330.786 282.722 330.856 283.493 331.067 284.193C331.347 285.173 330.786 286.014 329.876 286.364C329.036 286.714 328.546 287.414 328.826 288.254C328.896 288.534 329.596 288.674 330.016 288.814C330.086 288.884 330.226 288.814 330.366 288.884C330.786 288.954 330.927 289.165 330.786 289.445C330.646 289.725 330.716 290.075 330.716 290.355C330.786 290.705 330.576 290.985 330.296 291.195C329.456 291.895 328.406 292.456 328.406 293.646C328.406 293.716 328.336 293.856 328.266 293.926C327.425 294.556 327.005 295.397 326.375 296.097C325.675 296.867 324.975 297.707 323.784 297.777C322.944 297.777 322.734 298.127 322.734 298.758C322.734 299.108 322.734 299.458 322.804 299.738C323.084 300.858 323.434 301.979 323.784 303.169C323.994 303.799 324.064 304.359 323.784 305.06C323.014 306.53 323.644 308.631 325.115 309.471C326.935 310.521 327.775 312.062 328.406 313.812C329.036 315.493 329.876 317.104 330.576 318.714C330.927 319.484 331.557 319.904 332.607 319.904C333.307 319.904 333.937 320.115 334.148 320.745C334.358 321.375 334.778 321.585 335.478 321.585C335.828 321.585 336.248 321.515 336.388 321.935C336.668 322.495 337.369 322.915 337.929 322.845C339.119 322.775 339.819 323.616 340.8 323.826C341.99 324.106 343.18 324.736 344.301 325.366C344.931 325.716 345.771 325.646 346.471 325.366C347.382 324.946 347.662 324.946 348.362 325.576C348.642 325.856 348.922 326.136 349.272 326.417C350.113 327.047 350.533 327.887 350.533 328.867C350.533 329.778 350.603 330.618 350.953 331.528C351.093 332.018 351.093 332.579 350.813 333.069C350.603 333.419 350.533 333.769 350.743 334.119C351.093 334.889 352.073 335.309 352.493 336.08C352.493 336.15 352.703 336.15 352.774 336.15C353.544 336.22 354.244 336.29 355.014 336.29C355.294 336.29 355.574 336.22 355.855 336.08C357.045 335.309 357.955 335.309 358.865 336.29C359.566 337.06 360.546 336.64 361.246 336.99C361.316 336.99 361.526 336.92 361.596 336.78C362.367 336.01 363.137 336.01 364.117 336.57C365.588 337.34 366.848 336.92 367.548 335.519C367.968 334.749 368.599 334.399 369.509 334.469C370.069 334.469 370.489 334.679 370.979 334.889C371.399 335.099 371.68 335.169 372.03 334.819C372.73 334.189 373.57 333.979 374.551 334.049C375.111 334.049 375.671 333.979 376.091 333.699C377.071 332.999 378.192 332.579 379.312 332.088C380.082 331.738 380.783 331.318 381.413 330.758C381.903 330.338 381.833 330.058 381.203 329.918C380.362 329.708 379.452 329.568 379.172 328.657C379.102 328.377 378.822 328.447 378.542 328.517C377.982 328.657 377.842 328.307 378.052 327.957C378.332 327.397 378.192 326.907 378.122 326.417C378.052 325.856 377.281 325.296 377.421 325.016C377.842 324.106 377.211 323.546 376.931 322.915C376.651 322.355 376.511 321.655 376.301 321.025C376.021 319.904 375.531 318.854 376.371 317.734C376.581 317.524 376.651 317.174 376.651 316.893C376.651 316.613 376.931 316.123 376.161 316.333C375.741 316.403 375.601 316.053 375.671 315.773C375.951 314.583 375.951 313.392 377.001 312.482C377.281 312.272 377.632 311.992 377.351 311.642C377.141 311.292 376.931 311.012 376.441 311.082C376.161 311.082 375.811 311.012 375.881 310.731C376.021 309.961 375.321 309.611 374.831 309.191C373.43 308.071 373.22 306.6 373.43 305.13C373.71 303.379 374.971 301.909 375.181 300.158C375.181 300.018 375.321 299.878 375.391 299.738C375.671 299.318 375.601 298.968 375.181 298.688C373.36 297.427 371.61 296.167 369.789 294.836C369.019 294.276 367.968 293.926 367.688 292.876C367.618 292.736 367.408 292.666 367.268 292.596C366.638 292.316 366.638 291.895 366.918 291.405C367.548 290.425 367.478 290.145 366.428 289.585C360.406 286.224 354.314 282.863 348.292 279.431C347.522 279.011 346.822 278.731 345.911 278.871C344.931 279.011 343.951 279.011 342.97 279.011C339.049 278.801 335.058 278.941 331.067 278.731Z" fill="#E8EFFA"/>
</g>
<defs>
<filter id="filter0_b_288_587" x="130.484" y="346.754" width="340.949" height="153.078" filterUnits="userSpaceOnUse" color-interpolation-filters="sRGB">
<feFlood flood-opacity="0" result="BackgroundImageFix"/>
<feGaussianBlur in="BackgroundImageFix" stdDeviation="13.0442"/>
<feComposite in2="SourceAlpha" operator="in" result="effect1_backgroundBlur_288_587"/>
<feBlend mode="normal" in="SourceGraphic" in2="effect1_backgroundBlur_288_587" result="shape"/>
</filter>
<filter id="filter1_b_288_587" x="146.38" y="38.8635" width="338.709" height="167.855" filterUnits="userSpaceOnUse" color-interpolation-filters="sRGB">
<feFlood flood-opacity="0" result="BackgroundImageFix"/>
<feGaussianBlur in="BackgroundImageFix" stdDeviation="13.0442"/>
<feComposite in2="SourceAlpha" operator="in" result="effect1_backgroundBlur_288_587"/>
<feBlend mode="normal" in="SourceGraphic" in2="effect1_backgroundBlur_288_587" result="shape"/>
</filter>
<filter id="filter2_b_288_587" x="11.0256" y="16.9478" width="399.138" height="508.723" filterUnits="userSpaceOnUse" color-interpolation-filters="sRGB">
<feFlood flood-opacity="0" result="BackgroundImageFix"/>
<feGaussianBlur in="BackgroundImageFix" stdDeviation="13.0442"/>
<feComposite in2="SourceAlpha" operator="in" result="effect1_backgroundBlur_288_587"/>
<feBlend mode="normal" in="SourceGraphic" in2="effect1_backgroundBlur_288_587" result="shape"/>
</filter>
<filter id="filter3_b_288_587" x="93.117" y="80.9484" width="357.869" height="380.931" filterUnits="userSpaceOnUse" color-interpolation-filters="sRGB">
<feFlood flood-opacity="0" result="BackgroundImageFix"/>
<feGaussianBlur in="BackgroundImageFix" stdDeviation="13.0442"/>
<feComposite in2="SourceAlpha" operator="in" result="effect1_backgroundBlur_288_587"/>
<feBlend mode="normal" in="SourceGraphic" in2="effect1_backgroundBlur_288_587" result="shape"/>
</filter>
<filter id="filter4_b_288_587" x="296.646" y="252.625" width="111.177" height="110.453" filterUnits="userSpaceOnUse" color-interpolation-filters="sRGB">
<feFlood flood-opacity="0" result="BackgroundImageFix"/>
<feGaussianBlur in="BackgroundImageFix" stdDeviation="13.0442"/>
<feComposite in2="SourceAlpha" operator="in" result="effect1_backgroundBlur_288_587"/>
<feBlend mode="normal" in="SourceGraphic" in2="effect1_backgroundBlur_288_587" result="shape"/>
</filter>
</defs>
</svg>
