<svg width="374" height="194" viewBox="0 0 374 194" fill="none" xmlns="http://www.w3.org/2000/svg">
<rect width="373.333" height="193" transform="translate(0 0.809326)" fill="#FFF2E8"/>
<path d="M226.667 77.3102C226.667 66.2645 217.713 57.3102 206.667 57.3102H166.667C155.621 57.3102 146.667 66.2645 146.667 77.3102V117.31C146.667 128.356 155.621 137.31 166.667 137.31H206.667C217.713 137.31 226.667 128.356 226.667 117.31V77.3102Z" fill="#FFD7B7"/>
<path d="M198.094 77.3047C198.094 82.0386 201.932 85.8761 206.666 85.8761C211.4 85.8761 215.237 82.0386 215.237 77.3047C215.237 72.5708 211.4 68.7333 206.666 68.7333C201.932 68.7333 198.094 72.5708 198.094 77.3047Z" fill="#FEA864"/>
<path fill-rule="evenodd" clip-rule="evenodd" d="M186.307 92.7758L174.479 101.708C173.156 102.707 171.275 102.444 170.277 101.122C169.278 99.8 169.541 97.9187 170.863 96.9202L184.573 86.5666C185.969 85.5122 187.937 85.6895 189.123 86.9765L218.874 119.28C219.996 120.499 219.918 122.397 218.699 123.519C217.48 124.641 215.583 124.563 214.46 123.345L186.307 92.7758Z" fill="#FEA864"/>
<path fill-rule="evenodd" clip-rule="evenodd" d="M160.919 93.1155L156.835 97.3864C155.689 98.5838 153.79 98.6262 152.593 97.481C151.396 96.3359 151.353 94.4369 152.498 93.2395L158.489 86.9757C159.841 85.5619 162.104 85.5779 163.436 87.0107L200.864 127.27C201.992 128.484 201.923 130.382 200.709 131.51C199.496 132.638 197.597 132.569 196.469 131.356L160.919 93.1155Z" fill="#FEA864"/>
</svg>
