<svg width="123" height="73" viewBox="0 0 123 73" fill="none" xmlns="http://www.w3.org/2000/svg">
<path fill-rule="evenodd" clip-rule="evenodd" d="M61.1403 42.741C72.8442 42.741 82.3289 33.2524 82.3289 21.5484C82.3289 9.84444 72.8443 0.355835 61.1403 0.355835C49.4363 0.355835 39.9478 9.84444 39.9478 21.5484C39.9478 33.2524 49.4363 42.741 61.1403 42.741ZM49.4013 20.4349C49.4283 28.4166 55.4869 33.3851 61.3077 33.3653L61.3074 33.3651C68.495 33.3419 72.7467 27.4392 72.7311 22.0505C72.7116 16.6658 69.7837 12.7723 63.3321 11.1993C63.3166 11.133 63.305 10.989 63.305 10.8528C63.2933 6.78405 66.3614 3.19417 70.216 2.39598C69.8539 2.27143 69.2582 2.22468 68.6897 2.22468C64.2823 2.24036 59.4192 4.1287 55.8684 7.06442C52.2318 10.0781 49.3818 15.159 49.4013 20.4349Z" fill="#E41E26"/>
<path d="M6.47886 72.0001L0 56.5389H4.23244L8.2739 66.8062L12.1908 56.5389H16.2323L9.94429 72.0002L6.47886 72.0001ZM27.5079 64.1897C27.5079 63.5472 27.434 62.9359 27.2821 62.3558C27.134 61.7757 26.9083 61.2773 26.6086 60.8607C26.3087 60.4402 25.9466 60.1093 25.5183 59.8639C25.09 59.6148 24.5878 59.4902 24.0115 59.4902C23.4353 59.4902 22.9291 59.6148 22.5047 59.8639C22.0765 60.1093 21.7104 60.4402 21.4145 60.8607C21.1147 61.2773 20.8889 61.7757 20.741 62.3558C20.5891 62.936 20.515 63.5472 20.515 64.1898C20.515 64.8555 20.5891 65.4746 20.7409 66.043C20.8889 66.6115 21.1069 67.1098 21.395 67.5381C21.6831 67.9664 22.0491 68.3051 22.4891 68.5544C22.9252 68.7996 23.4353 68.9242 24.0114 68.9242C24.5878 68.9242 25.09 68.7996 25.5183 68.5544C25.9466 68.3051 26.3087 67.9664 26.6085 67.5381C26.9083 67.1098 27.1342 66.6114 27.282 66.043C27.4339 65.4746 27.5079 64.8555 27.5079 64.1897M31.4209 64.2067C31.4209 65.215 31.2651 66.204 30.9576 67.1774C30.6461 68.1508 30.1866 69.0191 29.5753 69.79C28.9679 70.5609 28.197 71.18 27.2665 71.651C26.336 72.1222 25.2496 72.3558 24.0115 72.3558C22.7695 72.3558 21.6832 72.1221 20.7565 71.651C19.8259 71.18 19.055 70.5609 18.4437 69.79C17.8363 69.0191 17.377 68.1508 17.0654 67.1774C16.7579 66.204 16.602 65.215 16.602 64.2067C16.602 63.202 16.7579 62.221 17.0654 61.2553C17.377 60.2937 17.8363 59.4332 18.4437 58.6739C19.055 57.9147 19.8259 57.3073 20.7565 56.8478C21.6832 56.3885 22.7695 56.1548 24.0115 56.1548C25.2496 56.1548 26.3321 56.3886 27.251 56.8478C28.1698 57.3073 28.9407 57.9147 29.5598 58.6739C30.1827 59.4332 30.6461 60.2937 30.9576 61.2553C31.2651 62.221 31.4209 63.202 31.4209 64.2067M43.3702 59.9419C42.6032 59.642 41.8906 59.4902 41.2287 59.4902C40.5512 59.4902 39.9633 59.6227 39.4767 59.8795C38.986 60.1363 38.5811 60.483 38.2619 60.923C37.9425 61.363 37.7051 61.8574 37.5455 62.4064C37.3848 62.9553 37.3035 63.5243 37.3041 64.0962C37.3041 64.7386 37.3741 65.3538 37.5142 65.9457C37.6506 66.5336 37.8647 67.0515 38.1529 67.4914C38.4371 67.9314 38.7992 68.2857 39.2353 68.5544C39.6714 68.8191 40.1892 68.9554 40.7849 68.9554C41.2755 68.9554 41.7738 68.8192 42.2838 68.5544C42.794 68.2857 43.1561 67.9664 43.3702 67.6044V59.9419ZM43.6894 72.0001L43.5298 70.8165C43.1677 71.2214 42.6888 71.5796 42.0892 71.8872C41.4936 72.1987 40.7888 72.3544 39.9789 72.3544C38.916 72.3544 37.9737 72.1287 37.1678 71.6809C36.3541 71.2331 35.6726 70.6335 35.1198 69.8859C34.5669 69.1384 34.1425 68.2701 33.8543 67.2851C33.5702 66.3038 33.4261 65.276 33.4261 64.2053C33.4254 63.2048 33.5751 62.2099 33.87 61.2539C34.1698 60.2922 34.6214 59.4318 35.2287 58.6726C35.84 57.9133 36.5994 57.3059 37.5182 56.8465C38.4332 56.387 39.5116 56.1535 40.7459 56.1535C41.5558 56.1535 42.4319 56.3052 43.3702 56.6012V50.6051H47.3454V72.0001H43.6894ZM58.5433 64.7503C58.115 64.7729 57.6712 64.8129 57.2195 64.8634C56.7871 64.9149 56.3571 64.985 55.9308 65.0736C55.0664 65.2448 54.4707 65.5369 54.1357 65.9535C53.8048 66.3741 53.6375 66.8256 53.6375 67.3201C53.6375 67.8302 53.8243 68.2429 54.202 68.5544C54.5796 68.8619 55.1092 69.0177 55.7983 69.0177C56.3162 69.0185 56.8284 68.9097 57.3012 68.6985C57.7841 68.4842 58.2007 68.2157 58.5433 67.8964V64.7503ZM58.8625 71.9884L58.7068 70.832C58.2747 71.3071 57.7295 71.6809 57.0638 71.9495C56.3979 72.2183 55.6699 72.3544 54.8756 72.3544C54.2098 72.3544 53.5674 72.2414 52.96 72.0157C52.3448 71.7939 51.8036 71.4706 51.3325 71.054C50.8614 70.6374 50.4797 70.1273 50.1917 69.5161C49.8996 68.9048 49.7556 68.2157 49.7556 67.4447C49.7556 66.6777 49.9035 65.9962 50.2073 65.4084C50.507 64.8204 50.9119 64.3259 51.4299 63.9172C51.9438 63.5123 52.5356 63.1812 53.2013 62.9243C53.8633 62.6674 54.5642 62.4726 55.2922 62.3441C55.8061 62.239 56.3707 62.1611 56.982 62.1066C57.5933 62.052 58.1034 62.0054 58.5121 61.9624V61.7367C58.5121 60.8801 58.2941 60.2728 57.8503 59.9068C57.4103 59.5446 56.8029 59.3616 56.032 59.3616C55.5803 59.3616 55.1482 59.4162 54.7392 59.5252C54.3305 59.6303 53.9683 59.7629 53.6452 59.9224C53.3221 60.0859 53.0378 60.2455 52.7887 60.4052C52.5434 60.5648 52.3448 60.7089 52.193 60.8373L50.8769 58.0495C51.0482 57.8978 51.3091 57.7186 51.6634 57.5044C52.0178 57.2903 52.4421 57.08 52.9483 56.8776C53.4506 56.675 54.0151 56.5038 54.646 56.3637C55.2766 56.2235 55.958 56.1535 56.6822 56.1535C57.5387 56.1535 58.3214 56.2665 59.0261 56.4922C59.7308 56.718 60.3421 57.0683 60.856 57.5512C61.3661 58.0301 61.7672 58.6375 62.0591 59.3773C62.3472 60.1132 62.4914 61.0047 62.4914 62.0521V71.9884H58.8625ZM74.7793 54.1327C74.6509 54.0705 74.4017 53.977 74.0279 53.86C73.6502 53.7434 73.1557 53.6848 72.5328 53.6848C71.9799 53.6848 71.5127 53.8524 71.1389 54.1833C70.7652 54.5142 70.5782 55.0554 70.5782 55.803V56.5389H73.915V59.7471H70.6093V72.0001H66.6302V59.7471H64.5783V56.5389H66.6302V55.7056C66.6302 54.7011 66.7587 53.8523 67.0157 53.1553C67.2726 52.4623 67.6308 51.8938 68.0902 51.4577C68.5497 51.0178 69.0909 50.6947 69.71 50.4922C70.333 50.2895 71.0065 50.1884 71.7346 50.1884C72.6962 50.1884 73.4906 50.278 74.1213 50.4611C74.7521 50.6442 75.1219 50.7648 75.2271 50.831L74.7793 54.1327ZM85.6229 64.1897C85.6229 63.5472 85.545 62.9359 85.3971 62.3558C85.249 61.7757 85.0233 61.2773 84.7235 60.8607C84.4237 60.4402 84.0616 60.1093 83.6333 59.8639C83.205 59.6148 82.7026 59.4902 82.1264 59.4902C81.5503 59.4902 81.044 59.6148 80.6196 59.8639C80.1913 60.1093 79.8253 60.4402 79.5256 60.8607C79.2296 61.2773 79.0038 61.7757 78.8521 62.3558C78.704 62.936 78.6301 63.5472 78.6301 64.1898C78.6301 64.8555 78.7039 65.4746 78.852 66.043C79.0039 66.6115 79.2218 67.1098 79.51 67.5381C79.7981 67.9664 80.1641 68.3051 80.6002 68.5544C81.0402 68.7996 81.5502 68.9242 82.1264 68.9242C82.7026 68.9242 83.2049 68.7996 83.6333 68.5544C84.0616 68.3051 84.4237 67.9664 84.7234 67.5381C85.0233 67.1098 85.249 66.6114 85.397 66.043C85.545 65.4746 85.6229 64.8555 85.6229 64.1897ZM89.5359 64.2067C89.5359 65.215 89.3801 66.204 89.0686 67.1774C88.7611 68.1508 88.3016 69.0191 87.6903 69.79C87.0829 70.5609 86.312 71.18 85.3815 71.651C84.4509 72.1222 83.3646 72.3558 82.1265 72.3558C80.8844 72.3558 79.7981 72.1221 78.8714 71.651C77.9409 71.18 77.17 70.5609 76.5587 69.79C75.9513 69.0191 75.4919 68.1508 75.1804 67.1774C74.8722 66.2173 74.7158 65.215 74.717 64.2067C74.717 63.202 74.8689 62.221 75.1804 61.2553C75.4919 60.2937 75.9513 59.4332 76.5587 58.6739C77.17 57.9147 77.9409 57.3073 78.8714 56.8478C79.7982 56.3885 80.8844 56.1548 82.1265 56.1548C83.3646 56.1548 84.447 56.3886 85.3659 56.8478C86.2847 57.3073 87.0556 57.9147 87.6747 58.6739C88.2977 59.4332 88.7611 60.2937 89.0686 61.2553C89.3801 62.221 89.5359 63.202 89.5359 64.2067M101.882 72.0001V63.1812C101.882 62.0054 101.637 61.0943 101.146 60.4519C100.652 59.8133 99.9705 59.4903 99.0906 59.4903C98.4715 59.4903 97.8992 59.6498 97.3775 59.973C96.8518 60.2922 96.3963 60.6465 96.0109 61.032V72.0001H92.0355V56.5389H95.6605L95.8512 57.7576C96.4775 57.2432 97.1891 56.8426 97.9537 56.5739C98.7323 56.2936 99.5189 56.1573 100.309 56.1573C101.123 56.1573 101.871 56.278 102.556 56.5233C103.241 56.7725 103.829 57.1619 104.32 57.6952C104.814 58.2287 105.192 58.9256 105.46 59.7783C105.725 60.6349 105.861 61.6628 105.861 62.8581V72.0001H101.882ZM118.235 62.4103C118.192 61.8769 118.079 61.4098 117.896 61.0164C117.713 60.6193 117.488 60.3 117.219 60.0548C116.95 59.8055 116.662 59.6265 116.351 59.5058C116.035 59.3891 115.72 59.3306 115.397 59.3306C114.708 59.3306 114.053 59.5875 113.43 60.1015C112.808 60.6155 112.442 61.3825 112.333 62.4104L118.235 62.4103ZM112.239 65.2643C112.325 66.5686 112.73 67.5109 113.462 68.0871C114.19 68.6633 115.136 68.9554 116.292 68.9554C116.83 68.9554 117.336 68.9048 117.807 68.8113C118.278 68.7141 118.699 68.5932 119.065 68.4414C119.43 68.2934 119.742 68.1416 119.999 67.9936C120.256 67.8419 120.447 67.7016 120.579 67.5732L121.638 70.8165C121.486 70.9215 121.245 71.0656 120.914 71.2487C120.583 71.4318 120.17 71.5991 119.68 71.7626C119.189 71.9222 118.609 72.0585 117.947 72.1792C117.285 72.2959 116.557 72.3544 115.767 72.3544C114.758 72.3544 113.804 72.1948 112.893 71.8754C111.986 71.5523 111.188 71.0539 110.506 70.3804C109.821 69.7068 109.276 68.8697 108.871 67.8652C108.462 66.8605 108.26 65.6614 108.26 64.2714C108.26 62.9671 108.447 61.8107 108.821 60.8062C109.194 59.8016 109.708 58.9568 110.358 58.2715C111.013 57.59 111.772 57.0645 112.636 56.6985C113.505 56.3364 114.427 56.1534 115.412 56.1534C116.397 56.1534 117.305 56.317 118.142 56.6362C118.975 56.9554 119.695 57.4538 120.306 58.1273C120.914 58.801 121.397 59.6732 121.747 60.7438C122.101 61.8107 122.277 63.0838 122.277 64.5594V65.2642L112.239 65.2643Z" fill="#E41E26"/>
</svg>
