<svg width="439" height="437" viewBox="0 0 439 437" fill="none" xmlns="http://www.w3.org/2000/svg">
<g filter="url(#filter0_d_751_10128)">
<path d="M373.632 99.7845C372.065 88.1109 370.495 81.3398 370.495 81.3398C277.628 101.466 219.708 36.3361 219.266 36.0754C218.811 36.3361 160.909 101.466 68.0414 81.3398C68.0414 81.3398 66.471 88.1109 64.9005 99.7845C57.3261 156.223 49.7473 327.349 219.266 403.075C388.789 327.349 381.21 156.223 373.632 99.7845Z" fill="#FFF9F5"/>
<path d="M68.7501 82.7858C68.7694 82.694 68.7877 82.6073 68.8051 82.5256C115.073 92.2835 152.661 81.0222 178.775 67.2372C191.92 60.2979 202.162 52.718 209.147 46.8542C212.641 43.9218 215.321 41.4177 217.145 39.636C218.057 38.7451 218.754 38.0353 219.231 37.544C219.242 37.5321 219.254 37.5203 219.265 37.5087C219.276 37.5202 219.287 37.5318 219.299 37.5436C219.775 38.035 220.472 38.7449 221.383 39.6359C223.206 41.4176 225.886 43.9218 229.38 46.8542C236.366 52.718 246.608 60.2979 259.754 67.2372C285.871 81.0222 323.463 92.2835 369.731 82.5257C369.749 82.6073 369.767 82.694 369.786 82.7858C369.956 83.5959 370.2 84.7997 370.493 86.368C371.078 89.5047 371.86 94.099 372.64 99.9175L373.632 99.7845L372.64 99.9176C376.42 128.066 380.195 184.794 361.907 243.901C343.659 302.877 303.448 364.236 219.266 401.98C135.086 364.236 94.8758 302.877 76.6286 243.901C58.3406 184.794 62.1139 128.066 65.8916 99.9178C66.6744 94.0993 67.4568 89.5049 68.0429 86.3682C68.3359 84.7999 68.5798 83.596 68.7501 82.7858Z" stroke="white" stroke-width="2"/>
</g>
<g opacity="0.4" filter="url(#filter1_dii_751_10128)">
<path d="M334.428 129.467C333.26 120.783 332.088 115.746 332.088 115.746C262.806 130.718 219.596 82.2694 219.266 82.0754C218.926 82.2694 175.73 130.718 106.448 115.746C106.448 115.746 105.276 120.783 104.105 129.467C98.454 171.449 92.7999 298.745 219.266 355.075C345.736 298.745 340.082 171.449 334.428 129.467Z" fill="url(#paint0_linear_751_10128)"/>
<path d="M106.699 119.534C106.91 118.405 107.087 117.531 107.213 116.931C141.688 124.112 169.702 115.733 189.176 105.483C199.002 100.311 206.657 94.6615 211.88 90.2905C214.491 88.1046 216.496 86.2374 217.86 84.9082C218.449 84.3346 218.919 83.8615 219.265 83.507C219.612 83.8616 220.081 84.3346 220.669 84.9081C222.033 86.2374 224.038 88.1045 226.649 90.2905C231.872 94.6615 239.527 100.311 249.354 105.483C268.831 115.733 296.848 124.112 331.322 116.931C331.448 117.531 331.625 118.405 331.837 119.534C332.273 121.863 332.855 125.277 333.437 129.6C336.254 150.52 339.066 192.677 325.438 236.594C311.851 280.38 281.923 325.934 219.266 353.98C156.612 325.934 126.684 280.38 113.097 236.594C99.4689 192.677 102.28 150.521 105.096 129.6C105.679 125.277 106.262 121.864 106.699 119.534Z" stroke="white" stroke-width="2"/>
</g>
<path d="M369.877 147.076C346.839 105.056 303.817 75.1562 252.481 71.3498C220.528 68.9959 190.227 77.1094 164.935 92.7857C188.324 79.3131 215.72 72.5017 244.518 74.6052C295.954 78.4116 338.725 109.914 360.011 153.688C363.266 151.484 366.522 149.28 369.877 147.076Z" fill="#FFC394"/>
<circle r="25" transform="matrix(-1 0 0 1 244.437 178.273)" fill="#FFF9F5"/>
<path d="M178.169 209.283C177.868 208.026 177.727 206.734 177.727 205.442C177.727 195.211 186.841 186.981 197.355 188.645C201.621 176.414 213.019 168.273 226.082 168.273C242.153 168.273 255.605 181.123 256.454 197.087C267.251 201.282 274.437 211.724 274.437 223.352C274.437 238.91 261.782 251.546 246.243 251.546H239.056C238.33 251.546 237.729 250.944 237.729 250.219C237.729 249.493 238.331 248.892 239.056 248.892H246.243C260.331 248.892 271.784 237.423 271.784 223.351C271.784 212.554 264.934 202.873 254.722 199.28C254.669 199.262 254.633 199.227 254.58 199.209C251.907 198.288 249.092 197.811 246.226 197.811C245.5 197.811 244.899 197.209 244.899 196.484C244.899 195.758 245.501 195.156 246.226 195.156C248.757 195.156 251.253 195.51 253.678 196.165C252.368 182.094 240.368 170.943 226.067 170.943C213.783 170.943 203.111 178.837 199.5 190.572C199.5 190.572 199.5 190.59 199.482 190.59C198.686 193.227 198.278 195.953 198.278 198.732C198.278 199.458 197.676 200.059 196.951 200.059C196.225 200.059 195.624 199.457 195.624 198.732C195.624 196.201 195.96 193.687 196.58 191.245C187.818 190.059 180.366 196.927 180.366 205.44C180.366 206.927 180.596 208.431 181.075 209.864C181.198 210.236 181.145 210.625 180.951 210.944C180.756 211.28 180.437 211.492 180.048 211.563C171.145 213.227 164.685 220.997 164.685 230.059C164.685 240.449 173.127 248.891 183.517 248.891C184.243 248.891 184.844 249.493 184.844 250.219C184.844 250.945 184.242 251.546 183.517 251.546C171.676 251.546 162.029 241.918 162.029 230.058C162.047 220.218 168.737 211.687 178.171 209.28L178.169 209.283Z" fill="#EB770D"/>
<path d="M189.214 250.398C188.435 248.965 187.816 247.425 187.339 245.849L182.542 244.646C181.958 244.504 181.534 243.974 181.534 243.354V233.92C181.534 233.318 181.941 232.787 182.542 232.628L187.339 231.424C187.816 229.831 188.453 228.309 189.214 226.876L186.666 222.628C186.347 222.114 186.436 221.442 186.86 221L193.533 214.327C193.958 213.902 194.631 213.814 195.161 214.132L199.409 216.681C200.86 215.902 202.382 215.283 203.957 214.805L205.161 210.009C205.303 209.425 205.833 209 206.453 209H215.887C216.489 209 217.019 209.408 217.179 210.009L218.383 214.805C219.976 215.283 221.498 215.92 222.949 216.681L227.197 214.132C227.728 213.814 228.382 213.902 228.825 214.327L235.498 221C235.922 221.424 236.011 222.097 235.692 222.628L233.143 226.876C233.922 228.327 234.542 229.849 235.019 231.424L239.815 232.628C240.4 232.769 240.824 233.3 240.824 233.92V243.354C240.824 243.956 240.417 244.486 239.815 244.646L235.019 245.849C234.542 247.424 233.905 248.965 233.143 250.398L235.692 254.646C236.011 255.159 235.922 255.831 235.498 256.274L228.825 262.946C228.4 263.371 227.727 263.46 227.197 263.141L222.949 260.592C221.498 261.371 219.976 261.991 218.383 262.468L217.179 267.264C217.037 267.848 216.507 268.273 215.887 268.273H206.453C205.851 268.273 205.321 267.866 205.161 267.264L203.957 262.468C202.364 261.991 200.842 261.353 199.409 260.592L195.161 263.141C194.648 263.46 193.975 263.371 193.533 262.946L186.86 256.274C186.436 255.849 186.347 255.176 186.666 254.646L189.214 250.398ZM191.869 251.106L189.462 255.124L194.666 260.328L198.684 257.921C199.091 257.673 199.622 257.673 200.029 257.903C201.693 258.876 203.498 259.62 205.392 260.115C205.853 260.239 206.224 260.61 206.33 261.071L207.463 265.619H214.826L215.959 261.071C216.083 260.61 216.436 260.239 216.897 260.115C218.79 259.602 220.596 258.858 222.26 257.903C222.684 257.655 223.198 257.673 223.605 257.921L227.623 260.328L232.827 255.124L230.42 251.106C230.172 250.699 230.172 250.168 230.402 249.761C231.376 248.097 232.119 246.292 232.614 244.397C232.738 243.937 233.109 243.565 233.57 243.459L238.118 242.327V234.964L233.57 233.831C233.109 233.707 232.738 233.354 232.614 232.893C232.119 231.018 231.358 229.212 230.402 227.53C230.154 227.105 230.172 226.592 230.42 226.185L232.827 222.167L227.623 216.963L223.605 219.37C223.198 219.618 222.667 219.618 222.26 219.388C220.596 218.414 218.791 217.671 216.897 217.176C216.436 217.052 216.065 216.68 215.959 216.22L214.826 211.671H207.463L206.33 216.22C206.207 216.68 205.853 217.052 205.392 217.176C203.499 217.689 201.711 218.432 200.029 219.388C199.605 219.636 199.091 219.618 198.684 219.37L194.666 216.963L189.462 222.167L191.869 226.185C192.117 226.592 192.117 227.123 191.887 227.53C190.931 229.194 190.17 230.999 189.675 232.893C189.551 233.354 189.18 233.725 188.719 233.831L184.171 234.964V242.327L188.719 243.459C189.18 243.583 189.551 243.937 189.675 244.397C190.188 246.291 190.931 248.097 191.887 249.761C192.135 250.168 192.135 250.681 191.869 251.106Z" fill="#EB770D"/>
<path d="M211.161 225.495C218.4 225.495 224.294 231.389 224.294 238.628C224.294 245.867 218.4 251.761 211.161 251.761C203.922 251.761 198.028 245.867 198.028 238.628C198.028 231.389 203.922 225.495 211.161 225.495ZM211.161 249.107C216.931 249.107 221.639 244.416 221.639 238.629C221.639 232.841 216.949 228.151 211.161 228.151C205.391 228.151 200.683 232.841 200.683 238.629C200.683 244.416 205.391 249.107 211.161 249.107Z" fill="#EB770D"/>
<defs>
<filter id="filter0_d_751_10128" x="0.187813" y="-22.7372" width="438.159" height="490.159" filterUnits="userSpaceOnUse" color-interpolation-filters="sRGB">
<feFlood flood-opacity="0" result="BackgroundImageFix"/>
<feColorMatrix in="SourceAlpha" type="matrix" values="0 0 0 0 0 0 0 0 0 0 0 0 0 0 0 0 0 0 127 0" result="hardAlpha"/>
<feOffset dy="2.7667"/>
<feGaussianBlur stdDeviation="30.7896"/>
<feComposite in2="hardAlpha" operator="out"/>
<feColorMatrix type="matrix" values="0 0 0 0 0.00649305 0 0 0 0 0.0221214 0 0 0 0 0.0458333 0 0 0 0.09 0"/>
<feBlend mode="normal" in2="BackgroundImageFix" result="effect1_dropShadow_751_10128"/>
<feBlend mode="normal" in="SourceGraphic" in2="effect1_dropShadow_751_10128" result="shape"/>
</filter>
<filter id="filter1_dii_751_10128" x="40.1878" y="23.2628" width="358.159" height="396.159" filterUnits="userSpaceOnUse" color-interpolation-filters="sRGB">
<feFlood flood-opacity="0" result="BackgroundImageFix"/>
<feColorMatrix in="SourceAlpha" type="matrix" values="0 0 0 0 0 0 0 0 0 0 0 0 0 0 0 0 0 0 127 0" result="hardAlpha"/>
<feOffset dy="2.7667"/>
<feGaussianBlur stdDeviation="30.7896"/>
<feComposite in2="hardAlpha" operator="out"/>
<feColorMatrix type="matrix" values="0 0 0 0 0.00649305 0 0 0 0 0.0221214 0 0 0 0 0.0458333 0 0 0 0.09 0"/>
<feBlend mode="normal" in2="BackgroundImageFix" result="effect1_dropShadow_751_10128"/>
<feBlend mode="normal" in="SourceGraphic" in2="effect1_dropShadow_751_10128" result="shape"/>
<feColorMatrix in="SourceAlpha" type="matrix" values="0 0 0 0 0 0 0 0 0 0 0 0 0 0 0 0 0 0 127 0" result="hardAlpha"/>
<feOffset dy="9.10637"/>
<feGaussianBlur stdDeviation="4.55318"/>
<feComposite in2="hardAlpha" operator="arithmetic" k2="-1" k3="1"/>
<feColorMatrix type="matrix" values="0 0 0 0 1 0 0 0 0 0.946 0 0 0 0 0.8052 0 0 0 1 0"/>
<feBlend mode="normal" in2="shape" result="effect2_innerShadow_751_10128"/>
<feColorMatrix in="SourceAlpha" type="matrix" values="0 0 0 0 0 0 0 0 0 0 0 0 0 0 0 0 0 0 127 0" result="hardAlpha"/>
<feOffset dy="-9.10637"/>
<feGaussianBlur stdDeviation="4.55318"/>
<feComposite in2="hardAlpha" operator="arithmetic" k2="-1" k3="1"/>
<feColorMatrix type="matrix" values="0 0 0 0 0.8475 0 0 0 0 0.714559 0 0 0 0 0.608206 0 0 0 1 0"/>
<feBlend mode="normal" in2="effect2_innerShadow_751_10128" result="effect3_innerShadow_751_10128"/>
</filter>
<linearGradient id="paint0_linear_751_10128" x1="219.267" y1="82.0754" x2="219.267" y2="355.075" gradientUnits="userSpaceOnUse">
<stop stop-color="#E0BDA1"/>
<stop offset="1" stop-color="#FFEBC8"/>
</linearGradient>
</defs>
</svg>
