<svg width="439" height="424" viewBox="0 0 439 424" fill="none" xmlns="http://www.w3.org/2000/svg">
<g filter="url(#filter0_d_751_10149)">
<path d="M373.632 93.2846C372.065 81.611 370.495 74.8399 370.495 74.8399C277.628 94.9665 219.708 29.8362 219.266 29.5755C218.811 29.8362 160.909 94.9665 68.0414 74.8399C68.0414 74.8399 66.471 81.611 64.9005 93.2846C57.3261 149.723 49.7473 320.849 219.266 396.575C388.789 320.849 381.21 149.723 373.632 93.2846Z" fill="#FFF9F5"/>
<path d="M68.7501 76.2859C68.7694 76.1941 68.7877 76.1074 68.8051 76.0257C115.073 85.7836 152.661 74.5223 178.775 60.7373C191.92 53.798 202.162 46.2181 209.147 40.3543C212.641 37.4219 215.321 34.9178 217.145 33.1361C218.057 32.2452 218.754 31.5354 219.231 31.0441C219.242 31.0322 219.254 31.0204 219.265 31.0088C219.276 31.0203 219.287 31.0319 219.299 31.0437C219.775 31.5351 220.472 32.245 221.383 33.136C223.206 34.9177 225.886 37.4219 229.38 40.3543C236.366 46.2181 246.608 53.798 259.754 60.7373C285.871 74.5223 323.463 85.7836 369.731 76.0258C369.749 76.1074 369.767 76.1941 369.786 76.2859C369.956 77.096 370.2 78.2998 370.493 79.8681C371.078 83.0048 371.86 87.5991 372.64 93.4176L373.632 93.2846L372.64 93.4177C376.42 121.566 380.195 178.294 361.907 237.402C343.659 296.377 303.448 357.736 219.266 395.48C135.086 357.736 94.8758 296.377 76.6286 237.402C58.3406 178.294 62.1139 121.566 65.8916 93.4179C66.6744 87.5994 67.4568 83.005 68.0429 79.8683C68.3359 78.3 68.5798 77.0961 68.7501 76.2859Z" stroke="white" stroke-width="2"/>
</g>
<g opacity="0.4" filter="url(#filter1_dii_751_10149)">
<path d="M334.428 123.967C333.26 115.283 332.088 110.246 332.088 110.246C262.806 125.218 219.596 76.7695 219.266 76.5755C218.926 76.7695 175.73 125.218 106.448 110.246C106.448 110.246 105.276 115.283 104.105 123.967C98.454 165.949 92.7999 293.245 219.266 349.575C345.736 293.245 340.082 165.949 334.428 123.967Z" fill="url(#paint0_linear_751_10149)"/>
<path d="M106.699 114.034C106.91 112.905 107.087 112.031 107.213 111.431C141.688 118.612 169.702 110.233 189.176 99.9829C199.002 94.8109 206.657 89.1616 211.88 84.7906C214.491 82.6047 216.496 80.7375 217.86 79.4084C218.449 78.8347 218.919 78.3616 219.265 78.0071C219.612 78.3617 220.081 78.8347 220.669 79.4082C222.033 80.7375 224.038 82.6047 226.649 84.7906C231.872 89.1616 239.527 94.811 249.354 99.9829C268.831 110.233 296.848 118.612 331.322 111.431C331.448 112.031 331.625 112.905 331.837 114.034C332.273 116.363 332.855 119.777 333.437 124.1C336.254 145.021 339.066 187.177 325.438 231.094C311.851 274.88 281.923 320.434 219.266 348.48C156.612 320.434 126.684 274.88 113.097 231.094C99.4689 187.177 102.28 145.021 105.096 124.1C105.679 119.777 106.262 116.364 106.699 114.034Z" stroke="white" stroke-width="2"/>
</g>
<path d="M87.7671 140.576C110.806 98.5562 153.828 68.6561 205.164 64.8498C237.117 62.4958 267.418 70.6094 292.71 86.2857C269.321 72.8131 241.925 66.0017 213.127 68.1052C161.691 71.9116 118.919 103.414 97.6336 147.188C94.3782 144.984 91.1227 142.78 87.7671 140.576Z" fill="#FFC394"/>
<circle cx="245.687" cy="175.523" r="18.75" fill="#FFF9F5"/>
<path d="M265.393 261.773H240.36C237.38 261.773 234.954 259.348 234.954 256.366V211.876C234.954 208.895 237.38 206.47 240.36 206.47H265.393C268.372 206.47 270.798 208.895 270.798 211.876V256.366C270.798 259.348 268.373 261.773 265.393 261.773ZM240.36 210.692C239.708 210.692 239.178 211.223 239.178 211.874V256.365C239.178 257.018 239.708 257.549 240.36 257.549H265.393C266.044 257.549 266.574 257.018 266.574 256.365V211.874C266.574 211.223 266.044 210.692 265.393 210.692H240.36Z" fill="#EB770D"/>
<path d="M199.875 217.077H174.844C171.862 217.077 169.437 214.652 169.437 211.671V167.18C169.437 164.198 171.862 161.773 174.844 161.773H199.875C202.857 161.773 205.282 164.198 205.282 167.18V211.671C205.282 214.652 202.857 217.077 199.875 217.077ZM174.844 165.995C174.19 165.995 173.66 166.526 173.66 167.179V211.669C173.66 212.321 174.19 212.852 174.844 212.852H199.875C200.529 212.852 201.059 212.321 201.059 211.669V167.179C201.059 166.526 200.529 165.995 199.875 165.995H174.844Z" fill="#EB770D"/>
<path d="M217.798 196.519C217.115 196.519 216.445 196.188 216.039 195.578C215.391 194.607 215.655 193.296 216.626 192.65L216.938 192.442C218.252 191.57 218.973 190.499 218.973 189.426C218.975 188.352 218.251 187.281 216.94 186.409L216.631 186.205C215.657 185.561 215.391 184.25 216.035 183.278C216.678 182.305 217.988 182.04 218.961 182.683L219.272 182.889C221.768 184.546 223.199 186.929 223.197 189.426C223.197 191.924 221.767 194.305 219.274 195.959L218.965 196.166C218.606 196.405 218.2 196.519 217.798 196.519Z" fill="#EB770D"/>
<path d="M221.889 203.198C221.205 203.198 220.534 202.867 220.128 202.254C219.483 201.282 219.747 199.971 220.72 199.327C224.801 196.616 227.049 193.101 227.049 189.427C227.049 185.752 224.801 182.236 220.72 179.526C219.747 178.88 219.483 177.57 220.128 176.598C220.774 175.625 222.083 175.36 223.054 176.007C228.354 179.527 231.272 184.292 231.272 189.427C231.272 194.562 228.354 199.327 223.054 202.845C222.696 203.084 222.289 203.198 221.889 203.198Z" fill="#EB770D"/>
<path d="M211.413 192.647C209.79 192.647 208.468 191.326 208.468 189.703C208.468 188.08 209.79 186.759 211.413 186.759C213.035 186.759 214.357 188.08 214.357 189.703C214.357 191.326 213.035 192.647 211.413 192.647ZM211.413 188.424C210.707 188.424 210.134 188.998 210.134 189.703C210.134 190.409 210.707 190.982 211.413 190.982C212.118 190.982 212.691 190.409 212.691 189.703C212.691 188.998 212.118 188.424 211.413 188.424Z" fill="#EB770D"/>
<path d="M221.942 241.216C221.542 241.216 221.138 241.103 220.779 240.865L220.468 240.659C217.972 239.002 216.541 236.619 216.541 234.122C216.543 231.625 217.972 229.243 220.465 227.589L220.775 227.383C221.742 226.735 223.056 227 223.701 227.97C224.349 228.942 224.085 230.252 223.113 230.899L222.802 231.106C221.488 231.978 220.767 233.05 220.764 234.122C220.764 235.196 221.488 236.268 222.8 237.139L223.109 237.343C224.083 237.988 224.349 239.298 223.705 240.271C223.299 240.884 222.627 241.216 221.942 241.216Z" fill="#EB770D"/>
<path d="M217.851 247.894C217.448 247.894 217.044 247.781 216.685 247.542C211.386 244.023 208.468 239.258 208.468 234.123C208.468 228.988 211.386 224.222 216.685 220.704C217.657 220.054 218.966 220.324 219.612 221.295C220.257 222.267 219.993 223.578 219.02 224.222C214.939 226.933 212.691 230.449 212.691 234.123C212.691 237.797 214.939 241.313 219.02 244.024C219.993 244.668 220.257 245.979 219.612 246.951C219.205 247.563 218.535 247.894 217.851 247.894Z" fill="#EB770D"/>
<path d="M228.33 236.789C226.707 236.789 225.385 235.469 225.385 233.846C225.385 232.222 226.707 230.901 228.33 230.901C229.953 230.901 231.272 232.222 231.272 233.846C231.272 235.469 229.953 236.789 228.33 236.789ZM228.33 232.566C227.625 232.566 227.049 233.14 227.049 233.846C227.049 234.551 227.625 235.124 228.33 235.124C229.035 235.124 229.608 234.551 229.608 233.846C229.608 233.14 229.035 232.566 228.33 232.566Z" fill="#EB770D"/>
<defs>
<filter id="filter0_d_751_10149" x="0.187813" y="-29.2371" width="438.159" height="490.159" filterUnits="userSpaceOnUse" color-interpolation-filters="sRGB">
<feFlood flood-opacity="0" result="BackgroundImageFix"/>
<feColorMatrix in="SourceAlpha" type="matrix" values="0 0 0 0 0 0 0 0 0 0 0 0 0 0 0 0 0 0 127 0" result="hardAlpha"/>
<feOffset dy="2.7667"/>
<feGaussianBlur stdDeviation="30.7896"/>
<feComposite in2="hardAlpha" operator="out"/>
<feColorMatrix type="matrix" values="0 0 0 0 0.00649305 0 0 0 0 0.0221214 0 0 0 0 0.0458333 0 0 0 0.09 0"/>
<feBlend mode="normal" in2="BackgroundImageFix" result="effect1_dropShadow_751_10149"/>
<feBlend mode="normal" in="SourceGraphic" in2="effect1_dropShadow_751_10149" result="shape"/>
</filter>
<filter id="filter1_dii_751_10149" x="40.1878" y="17.7629" width="358.159" height="396.159" filterUnits="userSpaceOnUse" color-interpolation-filters="sRGB">
<feFlood flood-opacity="0" result="BackgroundImageFix"/>
<feColorMatrix in="SourceAlpha" type="matrix" values="0 0 0 0 0 0 0 0 0 0 0 0 0 0 0 0 0 0 127 0" result="hardAlpha"/>
<feOffset dy="2.7667"/>
<feGaussianBlur stdDeviation="30.7896"/>
<feComposite in2="hardAlpha" operator="out"/>
<feColorMatrix type="matrix" values="0 0 0 0 0.00649305 0 0 0 0 0.0221214 0 0 0 0 0.0458333 0 0 0 0.09 0"/>
<feBlend mode="normal" in2="BackgroundImageFix" result="effect1_dropShadow_751_10149"/>
<feBlend mode="normal" in="SourceGraphic" in2="effect1_dropShadow_751_10149" result="shape"/>
<feColorMatrix in="SourceAlpha" type="matrix" values="0 0 0 0 0 0 0 0 0 0 0 0 0 0 0 0 0 0 127 0" result="hardAlpha"/>
<feOffset dy="9.10637"/>
<feGaussianBlur stdDeviation="4.55318"/>
<feComposite in2="hardAlpha" operator="arithmetic" k2="-1" k3="1"/>
<feColorMatrix type="matrix" values="0 0 0 0 1 0 0 0 0 0.946 0 0 0 0 0.8052 0 0 0 1 0"/>
<feBlend mode="normal" in2="shape" result="effect2_innerShadow_751_10149"/>
<feColorMatrix in="SourceAlpha" type="matrix" values="0 0 0 0 0 0 0 0 0 0 0 0 0 0 0 0 0 0 127 0" result="hardAlpha"/>
<feOffset dy="-9.10637"/>
<feGaussianBlur stdDeviation="4.55318"/>
<feComposite in2="hardAlpha" operator="arithmetic" k2="-1" k3="1"/>
<feColorMatrix type="matrix" values="0 0 0 0 0.8475 0 0 0 0 0.714559 0 0 0 0 0.608206 0 0 0 1 0"/>
<feBlend mode="normal" in2="effect2_innerShadow_751_10149" result="effect3_innerShadow_751_10149"/>
</filter>
<linearGradient id="paint0_linear_751_10149" x1="219.267" y1="76.5755" x2="219.267" y2="349.575" gradientUnits="userSpaceOnUse">
<stop stop-color="#E0BDA1"/>
<stop offset="1" stop-color="#FFEBC8"/>
</linearGradient>
</defs>
</svg>
