<svg width="439" height="491" viewBox="0 0 439 491" fill="none" xmlns="http://www.w3.org/2000/svg">
<g filter="url(#filter0_d_758_10268)">
<path d="M373.632 122.784C372.066 111.111 370.495 104.34 370.495 104.34C277.628 124.466 219.709 59.3361 219.266 59.0753C218.811 59.3361 160.909 124.466 68.0419 104.34C68.0419 104.34 66.4715 111.111 64.901 122.784C57.3266 179.223 49.7478 350.349 219.266 426.075C388.79 350.349 381.211 179.223 373.632 122.784Z" fill="#FFF9F5"/>
<path d="M68.7506 105.786C68.7699 105.694 68.7882 105.607 68.8056 105.526C115.074 115.283 152.662 104.022 178.775 90.2371C191.921 83.2978 202.162 75.7179 209.148 69.8541C212.641 66.9218 215.322 64.4176 217.146 62.6359C218.058 61.745 218.755 61.0352 219.231 60.544C219.243 60.5321 219.254 60.5203 219.265 60.5086C219.277 60.5201 219.288 60.5318 219.299 60.5435C219.775 61.035 220.472 61.7448 221.384 62.6358C223.207 64.4176 225.887 66.9218 229.38 69.8541C236.366 75.718 246.608 83.2979 259.755 90.2372C285.871 104.022 323.464 115.283 369.732 105.526C369.749 105.607 369.767 105.694 369.787 105.786C369.957 106.596 370.201 107.8 370.493 109.368C371.079 112.505 371.86 117.099 372.641 122.917L373.632 122.784L372.641 122.918C376.421 151.066 380.195 207.794 361.907 266.901C343.66 325.877 303.448 387.236 219.267 424.98C135.087 387.236 94.8763 325.877 76.6291 266.901C58.3411 207.794 62.1144 151.066 65.8921 122.918C66.6749 117.099 67.4573 112.505 68.0434 109.368C68.3364 107.8 68.5803 106.596 68.7506 105.786Z" stroke="#FFF9F5" stroke-width="2"/>
</g>
<g opacity="0.4" filter="url(#filter1_dii_758_10268)">
<path d="M334.428 153.467C333.26 144.783 332.088 139.746 332.088 139.746C262.806 154.718 219.597 106.269 219.267 106.075C218.927 106.269 175.73 154.718 106.448 139.746C106.448 139.746 105.277 144.783 104.105 153.467C98.4544 195.449 92.8004 322.745 219.267 379.075C345.736 322.745 340.082 195.449 334.428 153.467Z" fill="url(#paint0_linear_758_10268)"/>
<path d="M106.699 143.534C106.911 142.405 107.088 141.531 107.214 140.931C141.688 148.112 169.702 139.733 189.177 129.483C199.003 124.311 206.658 118.661 211.88 114.29C214.492 112.105 216.496 110.237 217.861 108.908C218.45 108.335 218.919 107.861 219.266 107.507C219.612 107.862 220.081 108.335 220.67 108.908C222.034 110.237 224.038 112.104 226.65 114.29C231.872 118.661 239.528 124.311 249.355 129.483C268.831 139.733 296.849 148.112 331.323 140.931C331.449 141.531 331.626 142.405 331.837 143.534C332.273 145.863 332.856 149.276 333.437 153.6C336.255 174.52 339.067 216.677 325.439 260.594C311.852 304.38 281.923 349.934 219.267 377.98C156.612 349.934 126.684 304.38 113.097 260.594C99.4694 216.677 102.28 174.521 105.096 153.6C105.68 149.277 106.263 145.864 106.699 143.534Z" stroke="white" stroke-width="2"/>
</g>
<path d="M369.877 171.076C346.839 129.056 303.817 99.156 252.481 95.3496C220.528 92.9957 190.227 101.109 164.935 116.785C188.324 103.313 215.72 96.5015 244.518 98.6051C295.954 102.411 338.725 133.914 360.011 177.687C363.266 175.484 366.522 173.28 369.877 171.076Z" fill="#FFC394"/>
<circle cx="243.188" cy="191.023" r="18.75" fill="#FFF9F5"/>
<path d="M220.648 251.454C217.859 251.454 215.252 250.384 213.301 248.436C211.392 246.53 210.343 244.003 210.351 241.323C210.364 235.724 215.017 231.148 220.725 231.123C223.536 231.148 226.156 232.182 228.119 234.139C230.029 236.045 231.078 238.572 231.071 241.253C231.057 246.852 226.403 251.429 220.696 251.454C220.68 251.454 220.664 251.454 220.648 251.454ZM220.773 234.348H220.739C216.798 234.365 213.584 237.498 213.576 241.33C213.571 243.146 214.283 244.859 215.579 246.152C216.921 247.49 218.72 248.227 220.648 248.227H220.681C224.621 248.21 227.835 245.077 227.845 241.244C227.849 239.429 227.137 237.716 225.84 236.423C224.5 235.083 222.7 234.348 220.773 234.348Z" fill="#EB770D"/>
<path d="M221.083 265.303C219.785 265.303 218.562 264.797 217.64 263.878C216.788 263.028 216.287 261.919 216.205 260.725C214.361 260.346 212.601 259.703 210.945 258.805C210.036 259.637 208.871 260.094 207.637 260.095H207.632C206.322 260.095 205.093 259.582 204.17 258.649C202.414 256.88 202.283 254.073 203.771 252.132C202.703 250.465 201.903 248.662 201.379 246.749C200.249 246.647 199.2 246.157 198.385 245.344C197.448 244.41 196.934 243.162 196.938 241.831C196.944 239.334 198.798 237.256 201.189 236.918C201.636 234.98 202.364 233.137 203.362 231.42C201.711 229.487 201.797 226.547 203.617 224.702C204.551 223.756 205.793 223.236 207.112 223.235H207.117C208.278 223.235 209.377 223.639 210.255 224.381C211.864 223.4 213.587 222.667 215.401 222.189C215.433 219.488 217.626 217.288 220.314 217.275C221.604 217.237 222.853 217.776 223.78 218.701C224.702 219.621 225.214 220.844 225.227 222.15C226.941 222.59 228.571 223.257 230.099 224.144L230.289 223.951C231.222 223.006 232.462 222.485 233.782 222.484H233.787C235.097 222.484 236.326 222.996 237.249 223.928C239.152 225.849 239.147 228.983 237.24 230.915L237.087 231.071C237.974 232.56 238.655 234.145 239.123 235.81L239.569 235.809H239.591C240.89 235.809 242.113 236.314 243.034 237.235C243.97 238.169 244.484 239.417 244.481 240.748C244.474 243.471 242.27 245.696 239.567 245.707L239.354 245.708C238.963 247.414 238.35 249.052 237.524 250.602L237.809 250.89C239.71 252.808 239.707 255.943 237.8 257.875C236.866 258.821 235.624 259.342 234.304 259.342H234.3C233.001 259.342 231.781 258.838 230.86 257.919C229.353 258.91 227.732 259.681 226.016 260.22V260.343C226.01 263.065 223.806 265.29 221.102 265.301C221.099 265.303 221.09 265.303 221.083 265.303ZM219.422 259.43L219.42 260.372C219.419 260.837 219.596 261.271 219.921 261.594C220.233 261.906 220.646 262.078 221.084 262.078H221.092C222.028 262.073 222.791 261.292 222.793 260.336L222.796 259.344C222.796 259.284 222.792 259.221 222.785 259.158C222.709 258.359 223.229 257.626 224.008 257.435C226.22 256.896 228.262 255.915 230.079 254.523C230.773 253.991 231.77 254.109 232.318 254.793C232.356 254.842 232.396 254.888 232.439 254.933L233.129 255.628C233.443 255.945 233.858 256.118 234.3 256.118C234.752 256.118 235.18 255.937 235.503 255.609C236.174 254.929 236.181 253.83 235.517 253.16L234.826 252.463C234.752 252.389 234.667 252.319 234.577 252.257C233.857 251.771 233.651 250.804 234.109 250.067C235.307 248.14 236.09 246.033 236.435 243.803C236.501 243.378 236.735 242.996 237.084 242.743C237.434 242.49 237.871 242.388 238.295 242.459C238.385 242.474 238.482 242.476 238.572 242.485L239.551 242.48C240.488 242.476 241.251 241.694 241.254 240.738C241.255 240.273 241.077 239.839 240.754 239.516C240.44 239.202 240.027 239.059 239.582 239.032L238.602 239.037C238.486 239.037 238.362 239.053 238.237 239.082C237.815 239.179 237.369 239.102 237.003 238.867C236.638 238.632 236.382 238.26 236.295 237.834C235.845 235.636 234.965 233.586 233.681 231.739C233.185 231.025 233.344 230.046 234.042 229.526C234.114 229.472 234.185 229.416 234.25 229.35L234.943 228.647C235.616 227.966 235.622 226.867 234.957 226.197C234.644 225.881 234.229 225.707 233.787 225.707C233.335 225.708 232.907 225.889 232.584 226.216L231.891 226.918C231.819 226.992 231.758 227.07 231.703 227.151C231.197 227.875 230.202 228.057 229.471 227.56C227.609 226.289 225.535 225.437 223.308 225.031C222.495 224.882 221.925 224.143 221.989 223.319C221.994 223.273 221.998 223.23 221.998 223.184L222 222.205C222.002 221.74 221.824 221.306 221.5 220.982C221.186 220.669 220.808 220.503 220.329 220.499C219.393 220.504 218.63 221.285 218.627 222.241L218.625 223.232L218.631 223.335C218.686 224.149 218.128 224.902 217.327 225.056C215.037 225.494 212.905 226.403 210.986 227.757C210.343 228.212 209.465 228.134 208.91 227.575L208.289 226.949C207.976 226.633 207.562 226.46 207.119 226.46C206.667 226.46 206.238 226.641 205.916 226.968C205.245 227.648 205.238 228.748 205.903 229.419L206.546 230.068C207.088 230.614 207.169 231.465 206.74 232.103C205.391 234.112 204.509 236.346 204.119 238.741C203.992 239.519 203.321 240.092 202.533 240.094L201.867 240.097C200.932 240.102 200.168 240.884 200.166 241.839C200.165 242.304 200.342 242.738 200.667 243.062C200.981 243.375 201.379 243.553 201.839 243.545L202.651 243.541H202.659C203.425 243.541 204.085 244.079 204.239 244.83C204.724 247.201 205.697 249.386 207.132 251.325C207.606 251.964 207.542 252.852 206.983 253.418L206.477 253.93C205.806 254.611 205.8 255.709 206.464 256.379C206.777 256.696 207.192 256.869 207.634 256.869C208.086 256.869 208.514 256.688 208.836 256.362L209.53 255.658C210.062 255.118 210.907 255.017 211.546 255.419C213.524 256.669 215.702 257.456 218.02 257.759C218.824 257.865 219.424 258.548 219.424 259.359C219.423 259.382 219.422 259.406 219.422 259.43Z" fill="#EB770D"/>
<path fill-rule="evenodd" clip-rule="evenodd" d="M219.567 292.273C218.907 292.273 218.244 292.111 217.652 291.786C194.497 279.528 181.938 268.495 181.938 245.369V204.93C181.938 204.052 182.578 203.304 183.446 203.169L188.512 202.382C196.93 201.111 205.127 198.676 212.88 195.145L218.819 192.434C219.281 192.224 219.811 192.218 220.274 192.424L227.815 195.733C235.641 199.193 244.031 201.546 252.756 202.731L255.631 203.11C256.517 203.227 257.18 203.982 257.18 204.876V245.313C257.18 268.439 244.595 279.541 221.44 291.8C220.868 292.113 220.218 292.273 219.567 292.273ZM253.619 206.438L253.618 245.313C253.618 249.882 253.099 253.933 252.065 257.594C248.364 270.702 238.063 278.81 221.338 287.815C220.821 288.094 220.291 288.376 219.748 288.664C219.642 288.72 219.476 288.723 219.345 288.65C196.898 276.766 185.501 266.811 185.501 245.368V206.457L189.053 205.905C197.792 204.585 206.306 202.056 214.362 198.387L219.576 196.007L226.382 198.993C234.508 202.586 243.221 205.031 252.285 206.262L253.619 206.438Z" fill="#EB770D"/>
<defs>
<filter id="filter0_d_758_10268" x="0.188301" y="0.262736" width="438.159" height="490.159" filterUnits="userSpaceOnUse" color-interpolation-filters="sRGB">
<feFlood flood-opacity="0" result="BackgroundImageFix"/>
<feColorMatrix in="SourceAlpha" type="matrix" values="0 0 0 0 0 0 0 0 0 0 0 0 0 0 0 0 0 0 127 0" result="hardAlpha"/>
<feOffset dy="2.7667"/>
<feGaussianBlur stdDeviation="30.7896"/>
<feComposite in2="hardAlpha" operator="out"/>
<feColorMatrix type="matrix" values="0 0 0 0 0.00649305 0 0 0 0 0.0221214 0 0 0 0 0.0458333 0 0 0 0.09 0"/>
<feBlend mode="normal" in2="BackgroundImageFix" result="effect1_dropShadow_758_10268"/>
<feBlend mode="normal" in="SourceGraphic" in2="effect1_dropShadow_758_10268" result="shape"/>
</filter>
<filter id="filter1_dii_758_10268" x="40.1883" y="47.2627" width="358.159" height="396.159" filterUnits="userSpaceOnUse" color-interpolation-filters="sRGB">
<feFlood flood-opacity="0" result="BackgroundImageFix"/>
<feColorMatrix in="SourceAlpha" type="matrix" values="0 0 0 0 0 0 0 0 0 0 0 0 0 0 0 0 0 0 127 0" result="hardAlpha"/>
<feOffset dy="2.7667"/>
<feGaussianBlur stdDeviation="30.7896"/>
<feComposite in2="hardAlpha" operator="out"/>
<feColorMatrix type="matrix" values="0 0 0 0 0.00649305 0 0 0 0 0.0221214 0 0 0 0 0.0458333 0 0 0 0.09 0"/>
<feBlend mode="normal" in2="BackgroundImageFix" result="effect1_dropShadow_758_10268"/>
<feBlend mode="normal" in="SourceGraphic" in2="effect1_dropShadow_758_10268" result="shape"/>
<feColorMatrix in="SourceAlpha" type="matrix" values="0 0 0 0 0 0 0 0 0 0 0 0 0 0 0 0 0 0 127 0" result="hardAlpha"/>
<feOffset dy="9.10637"/>
<feGaussianBlur stdDeviation="4.55318"/>
<feComposite in2="hardAlpha" operator="arithmetic" k2="-1" k3="1"/>
<feColorMatrix type="matrix" values="0 0 0 0 1 0 0 0 0 0.946 0 0 0 0 0.8052 0 0 0 1 0"/>
<feBlend mode="normal" in2="shape" result="effect2_innerShadow_758_10268"/>
<feColorMatrix in="SourceAlpha" type="matrix" values="0 0 0 0 0 0 0 0 0 0 0 0 0 0 0 0 0 0 127 0" result="hardAlpha"/>
<feOffset dy="-9.10637"/>
<feGaussianBlur stdDeviation="4.55318"/>
<feComposite in2="hardAlpha" operator="arithmetic" k2="-1" k3="1"/>
<feColorMatrix type="matrix" values="0 0 0 0 0.8475 0 0 0 0 0.714559 0 0 0 0 0.608206 0 0 0 1 0"/>
<feBlend mode="normal" in2="effect2_innerShadow_758_10268" result="effect3_innerShadow_758_10268"/>
</filter>
<linearGradient id="paint0_linear_758_10268" x1="219.268" y1="106.075" x2="219.268" y2="379.075" gradientUnits="userSpaceOnUse">
<stop stop-color="#E0BDA1"/>
<stop offset="1" stop-color="#FFEBC8"/>
</linearGradient>
</defs>
</svg>
