<svg width="439" height="491" viewBox="0 0 439 491" fill="none" xmlns="http://www.w3.org/2000/svg">
<g filter="url(#filter0_d_751_10119)">
<path d="M373.632 123.284C372.065 111.611 370.495 104.84 370.495 104.84C277.628 124.966 219.708 59.8361 219.266 59.5753C218.811 59.8361 160.909 124.966 68.0414 104.84C68.0414 104.84 66.471 111.611 64.9005 123.284C57.3261 179.723 49.7473 350.849 219.266 426.575C388.789 350.849 381.21 179.723 373.632 123.284Z" fill="#FFF9F5"/>
<path d="M68.7501 106.286C68.7694 106.194 68.7877 106.107 68.8051 106.026C115.073 115.783 152.661 104.522 178.775 90.7371C191.92 83.7978 202.162 76.2179 209.147 70.3541C212.641 67.4218 215.321 64.9176 217.145 63.1359C218.057 62.245 218.754 61.5352 219.231 61.044C219.242 61.0321 219.254 61.0203 219.265 61.0086C219.276 61.0201 219.287 61.0318 219.299 61.0435C219.775 61.535 220.472 62.2448 221.383 63.1358C223.206 64.9176 225.886 67.4218 229.38 70.3541C236.366 76.218 246.608 83.7979 259.754 90.7372C285.871 104.522 323.463 115.783 369.731 106.026C369.749 106.107 369.767 106.194 369.786 106.286C369.956 107.096 370.2 108.3 370.493 109.868C371.078 113.005 371.86 117.599 372.64 123.417L373.632 123.284L372.64 123.418C376.42 151.566 380.195 208.294 361.907 267.401C343.659 326.377 303.448 387.736 219.266 425.48C135.086 387.736 94.8758 326.377 76.6286 267.401C58.3406 208.294 62.1139 151.566 65.8916 123.418C66.6744 117.599 67.4568 113.005 68.0429 109.868C68.3359 108.3 68.5798 107.096 68.7501 106.286Z" stroke="white" stroke-width="2"/>
</g>
<g opacity="0.4" filter="url(#filter1_dii_751_10119)">
<path d="M334.428 153.967C333.26 145.283 332.088 140.246 332.088 140.246C262.806 155.218 219.596 106.769 219.266 106.575C218.926 106.769 175.73 155.218 106.448 140.246C106.448 140.246 105.276 145.283 104.105 153.967C98.454 195.949 92.7999 323.245 219.266 379.575C345.736 323.245 340.082 195.949 334.428 153.967Z" fill="url(#paint0_linear_751_10119)"/>
<path d="M106.699 144.034C106.91 142.905 107.087 142.031 107.213 141.431C141.688 148.612 169.702 140.233 189.176 129.983C199.002 124.811 206.657 119.161 211.88 114.79C214.491 112.605 216.496 110.737 217.86 109.408C218.449 108.835 218.919 108.361 219.265 108.007C219.612 108.362 220.081 108.835 220.669 109.408C222.033 110.737 224.038 112.604 226.649 114.79C231.872 119.161 239.527 124.811 249.354 129.983C268.831 140.233 296.848 148.612 331.322 141.431C331.448 142.031 331.625 142.905 331.837 144.034C332.273 146.363 332.855 149.776 333.437 154.1C336.254 175.02 339.066 217.177 325.438 261.094C311.851 304.88 281.923 350.434 219.266 378.48C156.612 350.434 126.684 304.88 113.097 261.094C99.4689 217.177 102.28 175.021 105.096 154.1C105.679 149.777 106.262 146.364 106.699 144.034Z" stroke="white" stroke-width="2"/>
</g>
<path d="M87.7671 170.576C110.806 128.556 153.828 98.656 205.164 94.8496C237.117 92.4957 267.418 100.609 292.71 116.285C269.321 102.813 241.925 96.0015 213.127 98.1051C161.691 101.911 118.919 133.414 97.6336 177.187C94.3782 174.984 91.1227 172.78 87.7671 170.576Z" fill="#FFC394"/>
<circle r="25" transform="matrix(-1 0 0 1 214.437 201.773)" fill="#FFF9F5"/>
<path fill-rule="evenodd" clip-rule="evenodd" d="M168.623 265.093H184.221C184.996 265.093 185.627 264.464 185.627 263.688C185.627 262.912 184.997 262.282 184.222 262.282H168.624C162.274 262.282 158.678 254.298 158.527 248.534C158.407 243.968 160.073 239.628 163.217 236.314C166.361 233 170.606 231.11 175.173 230.988C176.877 230.944 178.569 231.15 180.2 231.603C180.641 231.725 181.116 231.624 181.47 231.332C181.824 231.04 182.014 230.594 181.977 230.137C181.952 229.829 181.936 229.522 181.93 229.222C181.681 219.795 189.146 211.925 198.573 211.676C202.546 211.573 206.448 212.862 209.569 215.311C209.954 215.614 210.473 215.693 210.933 215.52C211.392 215.346 211.729 214.944 211.82 214.461C213.889 203.248 223.682 194.891 235.097 194.59C248.517 194.233 259.703 204.858 260.058 218.268C260.119 220.676 259.829 223.066 259.198 225.372C259.071 225.822 259.18 226.304 259.484 226.659C259.789 227.013 260.248 227.194 260.711 227.141C261.266 227.077 261.824 227.038 262.365 227.024C267.377 226.894 272.14 228.719 275.777 232.17C279.413 235.62 281.489 240.28 281.62 245.291C281.751 250.259 279.875 255.356 276.722 258.593C274.368 261.008 271.42 262.285 268.191 262.285H255.927C255.151 262.285 254.522 262.915 254.522 263.691C254.522 264.467 255.151 265.097 255.927 265.097H268.191C272.196 265.097 275.841 263.526 278.733 260.555C282.398 256.794 284.579 250.917 284.43 245.22C284.277 239.458 281.891 234.099 277.711 230.133C273.545 226.181 268.094 224.08 262.355 224.215C262.747 222.241 262.921 220.224 262.865 218.196C262.472 203.237 249.986 191.384 235.022 191.783C228.769 191.948 222.723 194.288 218.001 198.372C213.888 201.928 210.931 206.658 209.528 211.862C206.237 209.821 202.394 208.771 198.495 208.871C187.794 209.152 179.263 217.872 179.112 228.48C177.791 228.246 176.445 228.147 175.095 228.181C169.778 228.322 164.837 230.524 161.175 234.382C157.515 238.239 155.578 243.293 155.718 248.609C155.815 252.258 157.055 256.249 159.038 259.287C161.482 263.033 164.887 265.096 168.623 265.096L168.623 265.093Z" fill="#EB770D"/>
<path fill-rule="evenodd" clip-rule="evenodd" d="M168.623 265.093H184.221C184.996 265.093 185.627 264.464 185.627 263.688C185.627 262.912 184.997 262.282 184.222 262.282H168.624C162.274 262.282 158.678 254.298 158.527 248.534C158.407 243.968 160.073 239.628 163.217 236.314C166.361 233 170.606 231.11 175.173 230.988C176.877 230.944 178.569 231.15 180.2 231.603C180.641 231.725 181.116 231.624 181.47 231.332C181.824 231.04 182.014 230.594 181.977 230.137C181.952 229.829 181.936 229.522 181.93 229.222C181.681 219.795 189.146 211.925 198.573 211.676C202.546 211.573 206.448 212.862 209.569 215.311C209.954 215.614 210.473 215.693 210.933 215.52C211.392 215.346 211.729 214.944 211.82 214.461C213.889 203.248 223.682 194.891 235.097 194.59C248.517 194.233 259.703 204.858 260.058 218.268C260.119 220.676 259.829 223.066 259.198 225.372C259.071 225.822 259.18 226.304 259.484 226.659C259.789 227.013 260.248 227.194 260.711 227.141C261.266 227.077 261.824 227.038 262.365 227.024C267.377 226.894 272.14 228.719 275.777 232.17C279.413 235.62 281.489 240.28 281.62 245.291C281.751 250.259 279.875 255.356 276.722 258.593C274.368 261.008 271.42 262.285 268.191 262.285H255.927C255.151 262.285 254.522 262.915 254.522 263.691C254.522 264.467 255.151 265.097 255.927 265.097H268.191C272.196 265.097 275.841 263.526 278.733 260.555C282.398 256.794 284.579 250.917 284.43 245.22C284.277 239.458 281.891 234.099 277.711 230.133C273.545 226.181 268.094 224.08 262.355 224.215C262.747 222.241 262.921 220.224 262.865 218.196C262.472 203.237 249.986 191.384 235.022 191.783C228.769 191.948 222.723 194.288 218.001 198.372C213.888 201.928 210.931 206.658 209.528 211.862C206.237 209.821 202.394 208.771 198.495 208.871C187.794 209.152 179.263 217.872 179.112 228.48C177.791 228.246 176.445 228.147 175.095 228.181C169.778 228.322 164.837 230.524 161.175 234.382C157.515 238.239 155.578 243.293 155.718 248.609C155.815 252.258 157.055 256.249 159.038 259.287C161.482 263.033 164.887 265.096 168.623 265.096L168.623 265.093Z" fill="#EB770D"/>
<path fill-rule="evenodd" clip-rule="evenodd" d="M250.645 241.748C252.782 241.748 254.522 243.486 254.522 245.623V251.738C254.522 253.875 252.783 255.613 250.645 255.613H189.503C187.366 255.613 185.626 253.875 185.626 251.738V245.623C185.626 243.486 187.366 241.748 189.503 241.748H250.645ZM189.503 258.423H250.645C254.33 258.423 257.332 255.425 257.332 251.738V245.623C257.332 241.937 254.331 238.937 250.645 238.937H189.503C185.817 238.937 182.816 241.937 182.816 245.623L182.815 251.738C182.815 255.424 185.816 258.423 189.503 258.423Z" fill="#EB770D"/>
<path fill-rule="evenodd" clip-rule="evenodd" d="M189.503 275.097H250.645C254.33 275.097 257.332 272.098 257.332 268.412V262.297C257.332 258.611 254.331 255.611 250.645 255.611C249.869 255.611 249.24 256.241 249.24 257.017C249.239 257.793 249.869 258.422 250.645 258.422C252.782 258.422 254.522 260.16 254.522 262.297V268.412C254.522 270.549 252.783 272.287 250.645 272.287H189.503C187.366 272.287 185.626 270.549 185.626 268.412V262.297C185.626 260.16 187.366 258.422 189.503 258.422C190.278 258.422 190.908 257.792 190.908 257.017C190.908 256.241 190.279 255.611 189.503 255.611C185.817 255.611 182.816 258.611 182.816 262.297L182.815 268.412C182.815 272.098 185.816 275.097 189.503 275.097Z" fill="#EB770D"/>
<path fill-rule="evenodd" clip-rule="evenodd" d="M189.503 275.097H250.645C254.33 275.097 257.332 272.098 257.332 268.412V262.297C257.332 258.611 254.331 255.611 250.645 255.611C249.869 255.611 249.24 256.241 249.24 257.017C249.24 257.793 249.869 258.422 250.645 258.422C252.782 258.422 254.522 260.16 254.522 262.297V268.412C254.522 270.549 252.783 272.287 250.645 272.287H189.503C187.366 272.287 185.626 270.549 185.626 268.412V262.297C185.626 260.16 187.366 258.422 189.503 258.422C190.278 258.422 190.908 257.792 190.908 257.017C190.908 256.241 190.279 255.611 189.503 255.611C185.817 255.611 182.816 258.611 182.816 262.297L182.815 268.412C182.815 272.098 185.816 275.097 189.503 275.097Z" fill="#EB770D"/>
<path fill-rule="evenodd" clip-rule="evenodd" d="M189.503 291.772H250.645C254.33 291.772 257.332 288.772 257.332 285.086V278.973C257.332 275.286 254.331 272.287 250.645 272.287C249.869 272.287 249.24 272.917 249.24 273.693C249.239 274.469 249.869 275.098 250.645 275.098C252.782 275.098 254.522 276.837 254.522 278.974V285.087C254.522 287.224 252.783 288.963 250.645 288.963H189.503C187.366 288.963 185.626 287.224 185.626 285.087V278.974C185.626 276.837 187.366 275.098 189.503 275.098C190.278 275.098 190.908 274.469 190.908 273.693C190.908 272.917 190.279 272.287 189.503 272.287C185.817 272.287 182.816 275.287 182.816 278.973L182.815 285.086C182.815 288.772 185.816 291.773 189.503 291.773L189.503 291.772Z" fill="#EB770D"/>
<path fill-rule="evenodd" clip-rule="evenodd" d="M189.503 291.772H250.645C254.33 291.772 257.332 288.772 257.332 285.086V278.973C257.332 275.286 254.331 272.287 250.645 272.287C249.869 272.287 249.24 272.917 249.24 273.693C249.24 274.469 249.869 275.098 250.645 275.098C252.782 275.098 254.522 276.837 254.522 278.974V285.087C254.522 287.224 252.783 288.963 250.645 288.963H189.503C187.366 288.963 185.626 287.224 185.626 285.087V278.974C185.626 276.837 187.366 275.098 189.503 275.098C190.278 275.098 190.908 274.469 190.908 273.693C190.908 272.917 190.279 272.287 189.503 272.287C185.817 272.287 182.816 275.287 182.816 278.973L182.815 285.086C182.815 288.772 185.816 291.773 189.503 291.773L189.503 291.772Z" fill="#EB770D"/>
<path fill-rule="evenodd" clip-rule="evenodd" d="M188.841 250.085H224.414C225.193 250.085 225.82 249.456 225.82 248.68C225.82 247.904 225.194 247.275 224.414 247.275H188.841C188.065 247.275 187.437 247.904 187.437 248.68C187.437 249.456 188.066 250.085 188.841 250.085Z" fill="#EB770D"/>
<path fill-rule="evenodd" clip-rule="evenodd" d="M188.841 250.085H224.414C225.193 250.085 225.82 249.456 225.82 248.68C225.82 247.904 225.194 247.275 224.414 247.275H188.841C188.065 247.275 187.437 247.904 187.437 248.68C187.437 249.456 188.066 250.085 188.841 250.085Z" fill="#EB770D"/>
<path fill-rule="evenodd" clip-rule="evenodd" d="M248.445 247.226C249.247 247.226 249.9 247.878 249.9 248.681C249.9 249.482 249.247 250.134 248.445 250.134C247.642 250.134 246.989 249.482 246.989 248.681C246.989 247.878 247.642 247.226 248.444 247.226H248.445ZM248.445 252.945C250.796 252.945 252.711 251.032 252.711 248.681C252.711 246.329 250.797 244.416 248.445 244.416C246.093 244.416 244.179 246.329 244.179 248.681C244.178 251.032 246.093 252.945 248.444 252.945H248.445Z" fill="#EB770D"/>
<path fill-rule="evenodd" clip-rule="evenodd" d="M248.445 247.226C249.247 247.226 249.9 247.878 249.9 248.681C249.9 249.482 249.247 250.134 248.445 250.134C247.642 250.134 246.989 249.482 246.989 248.681C246.989 247.878 247.642 247.226 248.444 247.226H248.445ZM248.445 252.945C250.796 252.945 252.711 251.032 252.711 248.681C252.711 246.329 250.797 244.416 248.445 244.416C246.093 244.416 244.179 246.329 244.179 248.681C244.179 251.032 246.093 252.945 248.444 252.945H248.445Z" fill="#EB770D"/>
<path fill-rule="evenodd" clip-rule="evenodd" d="M235.764 247.226C236.566 247.226 237.22 247.878 237.22 248.681C237.22 249.482 236.567 250.134 235.765 250.134C234.963 250.134 234.31 249.482 234.31 248.681C234.31 247.878 234.963 247.226 235.764 247.226ZM235.764 252.945C238.115 252.945 240.03 251.032 240.03 248.681C240.03 246.329 238.116 244.416 235.764 244.416C233.414 244.416 231.499 246.329 231.499 248.681C231.499 251.032 233.413 252.945 235.764 252.945Z" fill="#EB770D"/>
<path fill-rule="evenodd" clip-rule="evenodd" d="M235.764 247.226C236.566 247.226 237.22 247.878 237.22 248.681C237.22 249.482 236.567 250.134 235.765 250.134C234.963 250.134 234.31 249.482 234.31 248.681C234.31 247.878 234.963 247.226 235.764 247.226ZM235.764 252.945C238.115 252.945 240.03 251.032 240.03 248.681C240.03 246.329 238.116 244.416 235.764 244.416C233.414 244.416 231.499 246.329 231.499 248.681C231.499 251.032 233.413 252.945 235.764 252.945Z" fill="#EB770D"/>
<path fill-rule="evenodd" clip-rule="evenodd" d="M188.841 283.435H224.414C225.193 283.435 225.82 282.806 225.82 282.03C225.82 281.254 225.194 280.624 224.414 280.624H188.841C188.065 280.624 187.437 281.254 187.437 282.03C187.437 282.806 188.066 283.435 188.841 283.435Z" fill="#EB770D"/>
<path fill-rule="evenodd" clip-rule="evenodd" d="M188.841 283.435H224.414C225.193 283.435 225.82 282.806 225.82 282.03C225.82 281.254 225.194 280.624 224.414 280.624H188.841C188.065 280.624 187.437 281.254 187.437 282.03C187.437 282.806 188.066 283.435 188.841 283.435Z" fill="#EB770D"/>
<path fill-rule="evenodd" clip-rule="evenodd" d="M248.445 280.576C249.247 280.576 249.9 281.229 249.9 282.03C249.9 282.832 249.247 283.484 248.445 283.484C247.642 283.484 246.989 282.832 246.989 282.03C246.989 281.229 247.642 280.576 248.444 280.576H248.445ZM248.445 286.295C250.796 286.295 252.711 284.382 252.711 282.03C252.711 279.679 250.797 277.765 248.445 277.765C246.093 277.765 244.179 279.679 244.179 282.03C244.178 284.382 246.093 286.295 248.444 286.295H248.445Z" fill="#EB770D"/>
<path fill-rule="evenodd" clip-rule="evenodd" d="M248.445 280.576C249.247 280.576 249.9 281.229 249.9 282.03C249.9 282.832 249.247 283.484 248.445 283.484C247.642 283.484 246.989 282.832 246.989 282.03C246.989 281.229 247.642 280.576 248.444 280.576H248.445ZM248.445 286.295C250.796 286.295 252.711 284.382 252.711 282.03C252.711 279.679 250.797 277.765 248.445 277.765C246.093 277.765 244.179 279.679 244.179 282.03C244.179 284.382 246.093 286.295 248.444 286.295H248.445Z" fill="#EB770D"/>
<path fill-rule="evenodd" clip-rule="evenodd" d="M235.764 280.576C236.566 280.576 237.22 281.229 237.22 282.03C237.22 282.832 236.567 283.484 235.765 283.484C234.963 283.484 234.31 282.832 234.31 282.03C234.31 281.229 234.963 280.576 235.764 280.576ZM235.764 286.295C238.115 286.295 240.03 284.382 240.03 282.03C240.03 279.679 238.116 277.765 235.764 277.765C233.414 277.765 231.499 279.679 231.499 282.03C231.499 284.382 233.413 286.295 235.764 286.295Z" fill="#EB770D"/>
<path fill-rule="evenodd" clip-rule="evenodd" d="M235.764 280.576C236.566 280.576 237.22 281.229 237.22 282.03C237.22 282.832 236.567 283.484 235.765 283.484C234.963 283.484 234.31 282.832 234.31 282.03C234.31 281.229 234.963 280.576 235.764 280.576ZM235.764 286.295C238.115 286.295 240.03 284.382 240.03 282.03C240.03 279.679 238.116 277.765 235.764 277.765C233.414 277.765 231.499 279.679 231.499 282.03C231.499 284.382 233.413 286.295 235.764 286.295Z" fill="#EB770D"/>
<path fill-rule="evenodd" clip-rule="evenodd" d="M188.841 266.76H224.414C225.193 266.76 225.82 266.131 225.82 265.355C225.82 264.579 225.194 263.95 224.414 263.95H188.841C188.065 263.95 187.437 264.579 187.437 265.355C187.437 266.131 188.066 266.761 188.841 266.76Z" fill="#EB770D"/>
<path fill-rule="evenodd" clip-rule="evenodd" d="M188.841 266.76H224.414C225.193 266.76 225.82 266.131 225.82 265.355C225.82 264.579 225.194 263.95 224.414 263.95H188.841C188.065 263.95 187.437 264.579 187.437 265.355C187.437 266.131 188.066 266.761 188.841 266.76Z" fill="#EB770D"/>
<path fill-rule="evenodd" clip-rule="evenodd" d="M248.445 263.901C249.247 263.901 249.9 264.554 249.9 265.355C249.9 266.157 249.247 266.81 248.445 266.81C247.642 266.81 246.989 266.158 246.989 265.355C246.989 264.554 247.642 263.901 248.444 263.901H248.445ZM248.445 269.62C250.796 269.62 252.711 267.707 252.711 265.355C252.711 263.004 250.797 261.091 248.445 261.091C246.093 261.091 244.179 263.004 244.179 265.355C244.178 267.707 246.093 269.62 248.444 269.62H248.445Z" fill="#EB770D"/>
<path fill-rule="evenodd" clip-rule="evenodd" d="M248.445 263.901C249.247 263.901 249.9 264.554 249.9 265.355C249.9 266.157 249.247 266.81 248.445 266.81C247.642 266.81 246.989 266.158 246.989 265.355C246.989 264.554 247.642 263.901 248.444 263.901H248.445ZM248.445 269.62C250.796 269.62 252.711 267.707 252.711 265.355C252.711 263.004 250.797 261.091 248.445 261.091C246.093 261.091 244.179 263.004 244.179 265.355C244.179 267.707 246.093 269.62 248.444 269.62H248.445Z" fill="#EB770D"/>
<path fill-rule="evenodd" clip-rule="evenodd" d="M235.764 263.901C236.566 263.901 237.22 264.554 237.22 265.355C237.22 266.157 236.567 266.81 235.765 266.81C234.963 266.81 234.31 266.158 234.31 265.355C234.31 264.554 234.963 263.901 235.764 263.901ZM235.764 269.62C238.115 269.62 240.03 267.707 240.03 265.355C240.03 263.004 238.116 261.091 235.764 261.091C233.414 261.091 231.499 263.004 231.499 265.355C231.499 267.707 233.413 269.62 235.764 269.62Z" fill="#EB770D"/>
<path fill-rule="evenodd" clip-rule="evenodd" d="M235.764 263.901C236.566 263.901 237.22 264.554 237.22 265.355C237.22 266.157 236.567 266.81 235.765 266.81C234.963 266.81 234.31 266.158 234.31 265.355C234.31 264.554 234.963 263.901 235.764 263.901ZM235.764 269.62C238.115 269.62 240.03 267.707 240.03 265.355C240.03 263.004 238.116 261.091 235.764 261.091C233.414 261.091 231.499 263.004 231.499 265.355C231.499 267.707 233.413 269.62 235.764 269.62Z" fill="#EB770D"/>
<defs>
<filter id="filter0_d_751_10119" x="0.187813" y="0.762736" width="438.159" height="490.159" filterUnits="userSpaceOnUse" color-interpolation-filters="sRGB">
<feFlood flood-opacity="0" result="BackgroundImageFix"/>
<feColorMatrix in="SourceAlpha" type="matrix" values="0 0 0 0 0 0 0 0 0 0 0 0 0 0 0 0 0 0 127 0" result="hardAlpha"/>
<feOffset dy="2.7667"/>
<feGaussianBlur stdDeviation="30.7896"/>
<feComposite in2="hardAlpha" operator="out"/>
<feColorMatrix type="matrix" values="0 0 0 0 0.00649305 0 0 0 0 0.0221214 0 0 0 0 0.0458333 0 0 0 0.09 0"/>
<feBlend mode="normal" in2="BackgroundImageFix" result="effect1_dropShadow_751_10119"/>
<feBlend mode="normal" in="SourceGraphic" in2="effect1_dropShadow_751_10119" result="shape"/>
</filter>
<filter id="filter1_dii_751_10119" x="40.1878" y="47.7627" width="358.159" height="396.159" filterUnits="userSpaceOnUse" color-interpolation-filters="sRGB">
<feFlood flood-opacity="0" result="BackgroundImageFix"/>
<feColorMatrix in="SourceAlpha" type="matrix" values="0 0 0 0 0 0 0 0 0 0 0 0 0 0 0 0 0 0 127 0" result="hardAlpha"/>
<feOffset dy="2.7667"/>
<feGaussianBlur stdDeviation="30.7896"/>
<feComposite in2="hardAlpha" operator="out"/>
<feColorMatrix type="matrix" values="0 0 0 0 0.00649305 0 0 0 0 0.0221214 0 0 0 0 0.0458333 0 0 0 0.09 0"/>
<feBlend mode="normal" in2="BackgroundImageFix" result="effect1_dropShadow_751_10119"/>
<feBlend mode="normal" in="SourceGraphic" in2="effect1_dropShadow_751_10119" result="shape"/>
<feColorMatrix in="SourceAlpha" type="matrix" values="0 0 0 0 0 0 0 0 0 0 0 0 0 0 0 0 0 0 127 0" result="hardAlpha"/>
<feOffset dy="9.10637"/>
<feGaussianBlur stdDeviation="4.55318"/>
<feComposite in2="hardAlpha" operator="arithmetic" k2="-1" k3="1"/>
<feColorMatrix type="matrix" values="0 0 0 0 1 0 0 0 0 0.946 0 0 0 0 0.8052 0 0 0 1 0"/>
<feBlend mode="normal" in2="shape" result="effect2_innerShadow_751_10119"/>
<feColorMatrix in="SourceAlpha" type="matrix" values="0 0 0 0 0 0 0 0 0 0 0 0 0 0 0 0 0 0 127 0" result="hardAlpha"/>
<feOffset dy="-9.10637"/>
<feGaussianBlur stdDeviation="4.55318"/>
<feComposite in2="hardAlpha" operator="arithmetic" k2="-1" k3="1"/>
<feColorMatrix type="matrix" values="0 0 0 0 0.8475 0 0 0 0 0.714559 0 0 0 0 0.608206 0 0 0 1 0"/>
<feBlend mode="normal" in2="effect2_innerShadow_751_10119" result="effect3_innerShadow_751_10119"/>
</filter>
<linearGradient id="paint0_linear_751_10119" x1="219.267" y1="106.575" x2="219.267" y2="379.575" gradientUnits="userSpaceOnUse">
<stop stop-color="#E0BDA1"/>
<stop offset="1" stop-color="#FFEBC8"/>
</linearGradient>
</defs>
</svg>
