<svg width="439" height="491" viewBox="0 0 439 491" fill="none" xmlns="http://www.w3.org/2000/svg">
<g filter="url(#filter0_d_758_10238)">
<path d="M373.632 123.238C372.066 111.565 370.495 104.793 370.495 104.793C277.628 124.92 219.709 59.7898 219.266 59.5291C218.811 59.7898 160.909 124.92 68.0419 104.793C68.0419 104.793 66.4715 111.565 64.901 123.238C57.3266 179.676 49.7478 350.803 219.266 426.529C388.79 350.803 381.211 179.676 373.632 123.238Z" fill="#FFF9F5"/>
<path d="M68.7506 106.24C68.7699 106.148 68.7882 106.061 68.8056 105.979C115.074 115.737 152.662 104.476 178.775 90.6909C191.921 83.7516 202.162 76.1717 209.148 70.3079C212.641 67.3755 215.322 64.8713 217.146 63.0897C218.058 62.1987 218.755 61.489 219.231 60.9977C219.243 60.9858 219.254 60.974 219.265 60.9624C219.277 60.9739 219.288 60.9855 219.299 60.9972C219.775 61.4887 220.472 62.1986 221.384 63.0895C223.207 64.8713 225.887 67.3755 229.38 70.3079C236.366 76.1717 246.608 83.7516 259.755 90.6909C285.871 104.476 323.464 115.737 369.732 105.979C369.749 106.061 369.767 106.148 369.787 106.239C369.957 107.05 370.201 108.253 370.493 109.822C371.079 112.958 371.86 117.553 372.641 123.371L373.632 123.238L372.641 123.371C376.421 151.52 380.195 208.248 361.907 267.355C343.66 326.33 303.448 387.69 219.267 425.433C135.087 387.69 94.8763 326.33 76.6291 267.355C58.3411 208.248 62.1144 151.52 65.8921 123.371C66.6749 117.553 67.4573 112.959 68.0434 109.822C68.3364 108.254 68.5803 107.05 68.7506 106.24Z" stroke="#FFF9F5" stroke-width="2"/>
</g>
<g opacity="0.4" filter="url(#filter1_dii_758_10238)">
<path d="M334.428 153.92C333.26 145.237 332.088 140.2 332.088 140.2C262.806 155.171 219.597 106.723 219.267 106.529C218.927 106.723 175.73 155.171 106.448 140.2C106.448 140.2 105.277 145.237 104.105 153.92C98.4544 195.903 92.8004 323.199 219.267 379.529C345.736 323.199 340.082 195.903 334.428 153.92Z" fill="url(#paint0_linear_758_10238)"/>
<path d="M106.699 143.988C106.911 142.859 107.088 141.984 107.214 141.385C141.688 148.566 169.702 140.187 189.177 129.936C199.003 124.765 206.658 119.115 211.88 114.744C214.492 112.558 216.496 110.691 217.861 109.362C218.45 108.788 218.919 108.315 219.266 107.961C219.612 108.315 220.081 108.788 220.67 109.362C222.034 110.691 224.038 112.558 226.65 114.744C231.872 119.115 239.528 124.765 249.355 129.936C268.831 140.187 296.849 148.566 331.323 141.385C331.449 141.984 331.626 142.859 331.837 143.988C332.273 146.317 332.856 149.73 333.437 154.054C336.255 174.974 339.067 217.13 325.439 261.048C311.852 304.834 281.923 350.388 219.267 378.434C156.612 350.388 126.684 304.834 113.097 261.048C99.4694 217.131 102.28 174.974 105.096 154.054C105.68 149.731 106.263 146.317 106.699 143.988Z" stroke="white" stroke-width="2"/>
</g>
<path d="M369.877 171.53C346.839 129.51 303.817 99.6097 252.481 95.8033C220.528 93.4494 190.227 101.563 164.935 117.239C188.324 103.767 215.72 96.9553 244.518 99.0588C295.954 102.865 338.725 134.368 360.011 178.141C363.266 175.937 366.522 173.734 369.877 171.53Z" fill="#FFC394"/>
<circle cx="235.688" cy="191.477" r="18.75" fill="#FFF9F5"/>
<path d="M276.638 204.727H275.318L280.198 195.667C280.537 195.047 280.518 194.307 280.158 193.687C279.798 193.067 279.138 192.727 278.438 192.727H180.438C179.337 192.727 178.438 193.626 178.438 194.727V200.726C174.038 200.726 170.438 204.306 170.438 208.726C170.438 213.146 174.018 216.726 178.438 216.726V220.727C178.438 221.828 179.337 222.727 180.438 222.727H182.438V234.727C182.438 235.828 183.337 236.727 184.438 236.727H206.437V253.427C199.498 255.567 194.437 262.047 194.437 269.667C194.437 270.027 194.477 270.367 194.497 270.727H174.378V268.127C174.378 264.047 171.057 260.727 166.977 260.727H156.437C155.337 260.727 154.438 261.626 154.438 262.727V290.727C154.438 291.827 155.337 292.727 156.437 292.727H166.977C171.057 292.727 174.378 289.407 174.378 285.327V282.726H200.438C200.478 282.726 200.498 282.706 200.538 282.706C203.499 285.186 207.299 286.687 211.438 286.687C220.818 286.687 228.438 279.046 228.438 269.667C228.438 262.787 224.318 256.866 218.438 254.187V236.727H264.437C265.537 236.727 266.437 235.828 266.437 234.728V226.728H276.637C279.837 226.728 282.437 224.128 282.437 220.928V210.527C282.437 207.327 279.837 204.728 276.637 204.728L276.638 204.727ZM182.437 196.727H275.096L263.237 218.727H182.437L182.437 196.727ZM178.438 212.706C176.238 212.706 174.438 210.906 174.438 208.707C174.438 206.507 176.218 204.707 178.438 204.707V212.706ZM170.377 285.327C170.377 287.208 168.857 288.728 166.977 288.728H158.437V264.727H166.977C168.857 264.727 170.377 266.248 170.377 268.128V285.327ZM174.377 274.728H195.218C195.658 276.147 196.298 277.488 197.078 278.727H174.377L174.377 274.728ZM224.438 269.667C224.438 276.847 218.598 282.687 211.438 282.687C204.278 282.687 198.439 276.847 198.439 269.667C198.439 262.507 204.279 256.667 211.439 256.667C212.899 256.667 214.299 256.927 215.619 257.367C215.659 257.387 215.699 257.387 215.739 257.406C220.798 259.188 224.438 264.007 224.438 269.667L224.438 269.667ZM214.439 252.948C213.459 252.768 212.478 252.668 211.439 252.668C211.099 252.668 210.758 252.708 210.439 252.728V236.728H214.439L214.439 252.948ZM262.439 232.727H186.438V222.727H262.439V232.727ZM278.439 220.928C278.439 221.907 277.639 222.728 276.639 222.728H266.439V221.228L273.179 208.728H276.659C277.659 208.728 278.459 209.528 278.459 210.528V220.928L278.439 220.928Z" fill="#EB770D"/>
<path d="M211.437 260.667C206.477 260.667 202.437 264.707 202.437 269.667C202.437 274.647 206.477 278.687 211.437 278.687C216.397 278.687 220.438 274.647 220.438 269.667C220.437 264.707 216.417 260.667 211.437 260.667ZM211.437 274.686C208.677 274.686 206.437 272.427 206.437 269.666C206.437 266.906 208.678 264.666 211.437 264.666C214.198 264.666 216.437 266.907 216.437 269.666C216.437 272.427 214.197 274.686 211.437 274.686Z" fill="#EB770D"/>
<path d="M188.439 204.727H192.438C193.539 204.727 194.438 203.828 194.438 202.727C194.438 201.627 193.539 200.727 192.438 200.727H188.439C187.338 200.727 186.439 201.627 186.439 202.727C186.439 203.827 187.339 204.727 188.439 204.727Z" fill="#EB770D"/>
<path d="M200.439 204.727H204.439C205.539 204.727 206.439 203.828 206.439 202.727C206.439 201.627 205.539 200.727 204.439 200.727H200.439C199.339 200.727 198.439 201.627 198.439 202.727C198.439 203.827 199.339 204.727 200.439 204.727Z" fill="#EB770D"/>
<path d="M212.439 204.727H216.439C217.539 204.727 218.439 203.828 218.439 202.727C218.439 201.627 217.539 200.727 216.439 200.727H212.439C211.339 200.727 210.439 201.627 210.439 202.727C210.439 203.827 211.339 204.727 212.439 204.727Z" fill="#EB770D"/>
<defs>
<filter id="filter0_d_758_10238" x="0.188301" y="0.716471" width="438.159" height="490.159" filterUnits="userSpaceOnUse" color-interpolation-filters="sRGB">
<feFlood flood-opacity="0" result="BackgroundImageFix"/>
<feColorMatrix in="SourceAlpha" type="matrix" values="0 0 0 0 0 0 0 0 0 0 0 0 0 0 0 0 0 0 127 0" result="hardAlpha"/>
<feOffset dy="2.7667"/>
<feGaussianBlur stdDeviation="30.7896"/>
<feComposite in2="hardAlpha" operator="out"/>
<feColorMatrix type="matrix" values="0 0 0 0 0.00649305 0 0 0 0 0.0221214 0 0 0 0 0.0458333 0 0 0 0.09 0"/>
<feBlend mode="normal" in2="BackgroundImageFix" result="effect1_dropShadow_758_10238"/>
<feBlend mode="normal" in="SourceGraphic" in2="effect1_dropShadow_758_10238" result="shape"/>
</filter>
<filter id="filter1_dii_758_10238" x="40.1883" y="47.7165" width="358.159" height="396.159" filterUnits="userSpaceOnUse" color-interpolation-filters="sRGB">
<feFlood flood-opacity="0" result="BackgroundImageFix"/>
<feColorMatrix in="SourceAlpha" type="matrix" values="0 0 0 0 0 0 0 0 0 0 0 0 0 0 0 0 0 0 127 0" result="hardAlpha"/>
<feOffset dy="2.7667"/>
<feGaussianBlur stdDeviation="30.7896"/>
<feComposite in2="hardAlpha" operator="out"/>
<feColorMatrix type="matrix" values="0 0 0 0 0.00649305 0 0 0 0 0.0221214 0 0 0 0 0.0458333 0 0 0 0.09 0"/>
<feBlend mode="normal" in2="BackgroundImageFix" result="effect1_dropShadow_758_10238"/>
<feBlend mode="normal" in="SourceGraphic" in2="effect1_dropShadow_758_10238" result="shape"/>
<feColorMatrix in="SourceAlpha" type="matrix" values="0 0 0 0 0 0 0 0 0 0 0 0 0 0 0 0 0 0 127 0" result="hardAlpha"/>
<feOffset dy="9.10637"/>
<feGaussianBlur stdDeviation="4.55318"/>
<feComposite in2="hardAlpha" operator="arithmetic" k2="-1" k3="1"/>
<feColorMatrix type="matrix" values="0 0 0 0 1 0 0 0 0 0.946 0 0 0 0 0.8052 0 0 0 1 0"/>
<feBlend mode="normal" in2="shape" result="effect2_innerShadow_758_10238"/>
<feColorMatrix in="SourceAlpha" type="matrix" values="0 0 0 0 0 0 0 0 0 0 0 0 0 0 0 0 0 0 127 0" result="hardAlpha"/>
<feOffset dy="-9.10637"/>
<feGaussianBlur stdDeviation="4.55318"/>
<feComposite in2="hardAlpha" operator="arithmetic" k2="-1" k3="1"/>
<feColorMatrix type="matrix" values="0 0 0 0 0.8475 0 0 0 0 0.714559 0 0 0 0 0.608206 0 0 0 1 0"/>
<feBlend mode="normal" in2="effect2_innerShadow_758_10238" result="effect3_innerShadow_758_10238"/>
</filter>
<linearGradient id="paint0_linear_758_10238" x1="219.268" y1="106.529" x2="219.268" y2="379.529" gradientUnits="userSpaceOnUse">
<stop stop-color="#E0BDA1"/>
<stop offset="1" stop-color="#FFEBC8"/>
</linearGradient>
</defs>
</svg>
