<svg width="439" height="418" viewBox="0 0 439 418" fill="none" xmlns="http://www.w3.org/2000/svg">
<g filter="url(#filter0_d_751_10158)">
<path d="M373.632 90.0578C372.065 78.3842 370.495 71.613 370.495 71.613C277.628 91.7397 219.708 26.6094 219.266 26.3486C218.811 26.6094 160.909 91.7397 68.0414 71.613C68.0414 71.613 66.471 78.3842 64.9005 90.0578C57.3261 146.496 49.7473 317.623 219.266 393.349C388.789 317.623 381.21 146.496 373.632 90.0578Z" fill="#FFF9F5"/>
<path d="M68.7501 73.0591C68.7694 72.9673 68.7877 72.8805 68.8051 72.7989C115.073 82.5568 152.661 71.2955 178.775 57.5105C191.92 50.5712 202.162 42.9913 209.147 37.1275C212.641 34.1951 215.321 31.6909 217.145 29.9093C218.057 29.0183 218.754 28.3086 219.231 27.8173C219.242 27.8054 219.254 27.7936 219.265 27.7819C219.276 27.7934 219.287 27.8051 219.299 27.8168C219.775 28.3083 220.472 29.0181 221.383 29.9091C223.206 31.6909 225.886 34.1951 229.38 37.1274C236.366 42.9913 246.608 50.5712 259.754 57.5105C285.871 71.2955 323.463 82.5568 369.731 72.7989C369.749 72.8805 369.767 72.9672 369.786 73.059C369.956 73.8692 370.2 75.073 370.493 76.6413C371.078 79.778 371.86 84.3723 372.64 90.1907L373.632 90.0578L372.64 90.1908C376.42 118.339 380.195 175.067 361.907 234.175C343.659 293.15 303.448 354.509 219.266 392.253C135.086 354.509 94.8758 293.15 76.6286 234.175C58.3406 175.067 62.1139 118.339 65.8916 90.1911C66.6744 84.3725 67.4568 79.7782 68.0429 76.6415C68.3359 75.0731 68.5798 73.8693 68.7501 73.0591Z" stroke="white" stroke-width="2"/>
</g>
<g opacity="0.4" filter="url(#filter1_dii_751_10158)">
<path d="M334.428 120.74C333.26 112.056 332.088 107.019 332.088 107.019C262.806 121.991 219.596 73.5426 219.266 73.3486C218.926 73.5426 175.73 121.991 106.448 107.019C106.448 107.019 105.276 112.056 104.105 120.74C98.454 162.722 92.7999 290.018 219.266 346.349C345.736 290.018 340.082 162.722 334.428 120.74Z" fill="url(#paint0_linear_751_10158)"/>
<path d="M106.699 110.807C106.91 109.678 107.087 108.804 107.213 108.204C141.688 115.386 169.702 107.006 189.176 96.756C199.002 91.5841 206.657 85.9347 211.88 81.5638C214.491 79.3778 216.496 77.5107 217.86 76.1815C218.449 75.6079 218.919 75.1348 219.265 74.7803C219.612 75.1349 220.081 75.6079 220.669 76.1814C222.033 77.5106 224.038 79.3778 226.649 81.5638C231.872 85.9348 239.527 91.5841 249.354 96.756C268.831 107.006 296.848 115.386 331.322 108.204C331.448 108.804 331.625 109.678 331.837 110.807C332.273 113.137 332.855 116.55 333.437 120.873C336.254 141.794 339.066 183.95 325.438 227.868C311.851 271.653 281.923 317.207 219.266 345.253C156.612 317.207 126.684 271.653 113.097 227.868C99.4689 183.95 102.28 141.794 105.096 120.874C105.679 116.55 106.262 113.137 106.699 110.807Z" stroke="white" stroke-width="2"/>
</g>
<path d="M87.7671 137.35C110.806 95.3293 153.828 65.4293 205.164 61.6229C237.117 59.269 267.418 67.3826 292.71 83.0588C269.321 69.5863 241.925 62.7749 213.127 64.8784C161.691 68.6847 118.919 100.187 97.6336 143.961C94.3782 141.757 91.1227 139.553 87.7671 137.35Z" fill="#FFC394"/>
<circle cx="219.437" cy="158.546" r="15" fill="#FFF9F5"/>
<path d="M242.883 158.546H195.987C193.041 158.546 190.645 160.942 190.645 163.888V185.133C190.645 185.723 191.124 186.201 191.714 186.201C192.304 186.201 192.782 185.723 192.782 185.133L192.782 163.888C192.782 162.121 194.219 160.683 195.987 160.683H206.27L208.267 166.718C208.412 167.155 208.821 167.451 209.281 167.451H229.588C230.049 167.451 230.457 167.155 230.602 166.718L232.599 160.683H242.883C244.65 160.683 246.088 162.121 246.088 163.888V178.935C246.088 179.526 246.566 180.004 247.156 180.004C247.746 180.004 248.225 179.526 248.225 178.935L248.224 163.888C248.224 160.942 245.828 158.546 242.883 158.546H242.883ZM228.816 165.314H210.054L208.521 160.683H230.35L228.816 165.314Z" fill="#EB770D"/>
<path d="M233.501 224.839H205.371C203.604 224.839 202.167 223.402 202.167 221.636V213.57C202.167 211.804 203.604 210.367 205.371 210.367H233.501C235.268 210.367 236.704 211.804 236.704 213.57V221.636C236.704 223.402 235.268 224.839 233.501 224.839ZM205.371 212.504C204.783 212.504 204.304 212.982 204.304 213.57V221.636C204.304 222.224 204.783 222.702 205.371 222.702H233.501C234.089 222.702 234.568 222.224 234.568 221.636V213.57C234.568 212.983 234.089 212.504 233.501 212.504H205.371Z" fill="#EB770D"/>
<path d="M217.622 217.603C217.622 218.368 217.002 218.989 216.237 218.989C215.472 218.989 214.852 218.368 214.852 217.603C214.852 216.838 215.472 216.218 216.237 216.218C217.002 216.218 217.622 216.838 217.622 217.603Z" fill="#EB770D"/>
<path d="M224.017 217.603C224.017 218.368 223.397 218.989 222.632 218.989C221.866 218.989 221.246 218.368 221.246 217.603C221.246 216.838 221.866 216.218 222.632 216.218C223.397 216.218 224.017 216.838 224.017 217.603Z" fill="#EB770D"/>
<path d="M230.413 217.603C230.413 218.368 229.793 218.989 229.028 218.989C228.263 218.989 227.643 218.368 227.643 217.603C227.643 216.838 228.263 216.218 229.028 216.218C229.793 216.218 230.413 216.838 230.413 217.603Z" fill="#EB770D"/>
<path d="M211.228 217.603C211.228 218.368 210.608 218.989 209.842 218.989C209.077 218.989 208.457 218.368 208.457 217.603C208.457 216.838 209.077 216.218 209.842 216.218C210.608 216.218 211.228 216.838 211.228 217.603Z" fill="#EB770D"/>
<path d="M268.366 232.899H248.226V214.874C248.226 214.284 247.747 213.806 247.157 213.806C246.567 213.806 246.088 214.284 246.088 214.874V232.899H236.116C235.525 232.899 235.047 233.378 235.047 233.968V250.101L210.301 250.1V232.448C210.301 230.68 208.863 229.243 207.096 229.243H192.783V219.575C192.783 218.985 192.304 218.506 191.714 218.506C191.124 218.506 190.646 218.985 190.646 219.575V229.243L172.642 229.243C170.875 229.243 169.437 230.681 169.437 232.449V255.341C169.437 257.109 170.875 258.546 172.642 258.546H207.097C208.865 258.546 210.302 257.109 210.302 255.341V252.237H235.05V256.296C235.05 256.886 235.529 257.365 236.119 257.365L268.369 257.364C268.959 257.364 269.437 256.885 269.437 256.295V233.967C269.437 233.377 268.959 232.899 268.369 232.899L268.366 232.899ZM208.163 255.342C208.163 255.931 207.684 256.411 207.095 256.411H172.642C172.052 256.411 171.573 255.931 171.573 255.342V239.169H208.164L208.163 255.342ZM208.163 237.031H171.573V232.448C171.573 231.858 172.052 231.379 172.641 231.379H207.096C207.686 231.379 208.165 231.858 208.165 232.448L208.163 237.031ZM265.552 235.036L252.242 246.835L238.932 235.036H265.552ZM267.3 255.227H237.186V236.341L251.534 249.061C251.939 249.42 252.547 249.42 252.951 249.061L267.3 236.341L267.3 255.227Z" fill="#EB770D"/>
<path d="M202.146 245.563H194.684C194.094 245.563 193.615 245.085 193.615 244.495C193.615 243.905 194.094 243.426 194.684 243.426H202.146C202.736 243.426 203.214 243.905 203.214 244.495C203.214 245.085 202.736 245.563 202.146 245.563Z" fill="#EB770D"/>
<path d="M202.133 252.128H194.672C194.081 252.128 193.603 251.649 193.603 251.059C193.603 250.469 194.081 249.99 194.672 249.99H202.133C202.723 249.99 203.202 250.469 203.202 251.059C203.201 251.649 202.723 252.128 202.133 252.128Z" fill="#EB770D"/>
<path d="M219.435 172.077C211.471 172.077 204.992 178.555 204.992 186.516V192.89C204.992 196.451 207.89 199.349 211.451 199.349H212.199V202.03C212.199 204.105 213.888 205.793 215.963 205.793H222.907C224.982 205.793 226.671 204.105 226.671 202.03V199.349H227.419C230.98 199.349 233.878 196.452 233.878 192.89V186.516C233.877 178.555 227.399 172.077 219.435 172.077ZM231.741 192.891C231.741 195.274 229.802 197.212 227.418 197.212H225.602C225.012 197.212 224.534 197.69 224.534 198.281V202.031C224.534 202.928 223.804 203.657 222.906 203.657H222.524V200.501C222.524 199.911 222.046 199.432 221.456 199.432C220.865 199.432 220.387 199.911 220.387 200.501V203.657H218.48V200.501C218.48 199.911 218.002 199.432 217.412 199.432C216.822 199.432 216.343 199.911 216.343 200.501V203.657H215.961C215.064 203.657 214.334 202.928 214.334 202.031V198.281C214.334 197.69 213.855 197.212 213.265 197.212H211.449C209.066 197.212 207.127 195.274 207.127 192.891V186.517C207.127 179.732 212.647 174.214 219.433 174.214C226.218 174.214 231.739 179.732 231.739 186.517L231.741 192.891Z" fill="#EB770D"/>
<path d="M214.044 190.403C211.841 190.403 210.05 188.611 210.05 186.409C210.05 184.207 211.842 182.415 214.044 182.415C216.247 182.415 218.038 184.207 218.038 186.409C218.038 188.611 216.246 190.403 214.044 190.403ZM214.044 184.552C213.019 184.552 212.186 185.385 212.186 186.409C212.186 187.433 213.02 188.266 214.044 188.266C215.068 188.266 215.901 187.434 215.901 186.409C215.901 185.386 215.068 184.552 214.044 184.552Z" fill="#EB770D"/>
<path d="M224.826 190.403C222.623 190.403 220.832 188.611 220.832 186.409C220.832 184.207 222.624 182.415 224.826 182.415C227.028 182.415 228.82 184.207 228.82 186.409C228.821 188.611 227.029 190.403 224.826 190.403ZM224.826 184.552C223.801 184.552 222.968 185.385 222.968 186.409C222.968 187.433 223.802 188.266 224.826 188.266C225.85 188.266 226.683 187.434 226.683 186.409C226.684 185.386 225.85 184.552 224.826 184.552Z" fill="#EB770D"/>
<path d="M221.49 195.953C221.139 195.953 220.795 195.781 220.592 195.464L219.46 193.71L218.269 195.481C217.94 195.971 217.276 196.1 216.786 195.771C216.296 195.442 216.167 194.778 216.496 194.288L218.592 191.172C218.99 190.545 219.991 190.551 220.376 191.188L222.388 194.305C222.855 194.987 222.306 195.976 221.49 195.953Z" fill="#EB770D"/>
<path d="M239.574 212.737V190.687C239.574 190.097 240.052 189.619 240.642 189.619H268.314C268.904 189.619 269.382 190.097 269.382 190.687V207.365C269.382 207.955 268.904 208.433 268.314 208.433H247.166L241.347 213.54C240.785 214.178 239.574 214.203 239.574 212.737L239.574 212.737ZM241.71 191.755V210.378L246.059 206.562C246.254 206.391 246.504 206.297 246.763 206.297H267.245V191.757L241.71 191.755Z" fill="#EB770D"/>
<path d="M261.883 197.503H247.073C246.483 197.503 246.004 197.025 246.004 196.435C246.004 195.844 246.483 195.366 247.073 195.366H261.883C262.473 195.366 262.951 195.844 262.951 196.435C262.951 197.025 262.473 197.503 261.883 197.503Z" fill="#EB770D"/>
<path d="M261.883 202.832H251.298C250.708 202.832 250.23 202.353 250.23 201.763C250.23 201.173 250.708 200.694 251.298 200.694H261.883C262.473 200.694 262.951 201.173 262.951 201.763C262.951 202.353 262.473 202.832 261.883 202.832Z" fill="#EB770D"/>
<path d="M197.522 213.541L191.704 208.434H170.556C169.965 208.434 169.487 207.955 169.487 207.365V190.688C169.487 190.098 169.965 189.619 170.556 189.619H198.227C198.817 189.619 199.295 190.098 199.295 190.688V212.737C199.295 214.204 198.083 214.179 197.522 213.541L197.522 213.541ZM171.625 191.757V206.297H192.106C192.366 206.297 192.616 206.391 192.811 206.562L197.16 210.378V191.755L171.625 191.757Z" fill="#EB770D"/>
<path d="M176.987 197.503H191.796C192.387 197.503 192.865 197.025 192.865 196.435C192.865 195.844 192.387 195.366 191.796 195.366L176.987 195.367C176.397 195.367 175.918 195.845 175.918 196.435C175.919 197.025 176.397 197.503 176.987 197.503Z" fill="#EB770D"/>
<path d="M176.987 202.832H187.571C188.161 202.832 188.64 202.353 188.64 201.763C188.64 201.173 188.161 200.694 187.571 200.694L176.987 200.695C176.397 200.695 175.918 201.174 175.918 201.764C175.919 202.353 176.397 202.832 176.987 202.832Z" fill="#EB770D"/>
<path d="M248.697 184.703C248.697 185.471 248.075 186.093 247.307 186.093C246.539 186.093 245.917 185.471 245.917 184.703C245.917 183.936 246.539 183.314 247.307 183.314C248.075 183.314 248.697 183.936 248.697 184.703Z" fill="#EB770D"/>
<path d="M193.142 214.207C193.142 214.975 192.519 215.597 191.752 215.597C190.984 215.597 190.362 214.975 190.362 214.207C190.362 213.439 190.984 212.816 191.752 212.816C192.519 212.816 193.142 213.439 193.142 214.207Z" fill="#EB770D"/>
<defs>
<filter id="filter0_d_751_10158" x="0.187813" y="-32.4639" width="438.159" height="490.159" filterUnits="userSpaceOnUse" color-interpolation-filters="sRGB">
<feFlood flood-opacity="0" result="BackgroundImageFix"/>
<feColorMatrix in="SourceAlpha" type="matrix" values="0 0 0 0 0 0 0 0 0 0 0 0 0 0 0 0 0 0 127 0" result="hardAlpha"/>
<feOffset dy="2.7667"/>
<feGaussianBlur stdDeviation="30.7896"/>
<feComposite in2="hardAlpha" operator="out"/>
<feColorMatrix type="matrix" values="0 0 0 0 0.00649305 0 0 0 0 0.0221214 0 0 0 0 0.0458333 0 0 0 0.09 0"/>
<feBlend mode="normal" in2="BackgroundImageFix" result="effect1_dropShadow_751_10158"/>
<feBlend mode="normal" in="SourceGraphic" in2="effect1_dropShadow_751_10158" result="shape"/>
</filter>
<filter id="filter1_dii_751_10158" x="40.1878" y="14.5361" width="358.159" height="396.159" filterUnits="userSpaceOnUse" color-interpolation-filters="sRGB">
<feFlood flood-opacity="0" result="BackgroundImageFix"/>
<feColorMatrix in="SourceAlpha" type="matrix" values="0 0 0 0 0 0 0 0 0 0 0 0 0 0 0 0 0 0 127 0" result="hardAlpha"/>
<feOffset dy="2.7667"/>
<feGaussianBlur stdDeviation="30.7896"/>
<feComposite in2="hardAlpha" operator="out"/>
<feColorMatrix type="matrix" values="0 0 0 0 0.00649305 0 0 0 0 0.0221214 0 0 0 0 0.0458333 0 0 0 0.09 0"/>
<feBlend mode="normal" in2="BackgroundImageFix" result="effect1_dropShadow_751_10158"/>
<feBlend mode="normal" in="SourceGraphic" in2="effect1_dropShadow_751_10158" result="shape"/>
<feColorMatrix in="SourceAlpha" type="matrix" values="0 0 0 0 0 0 0 0 0 0 0 0 0 0 0 0 0 0 127 0" result="hardAlpha"/>
<feOffset dy="9.10637"/>
<feGaussianBlur stdDeviation="4.55318"/>
<feComposite in2="hardAlpha" operator="arithmetic" k2="-1" k3="1"/>
<feColorMatrix type="matrix" values="0 0 0 0 1 0 0 0 0 0.946 0 0 0 0 0.8052 0 0 0 1 0"/>
<feBlend mode="normal" in2="shape" result="effect2_innerShadow_751_10158"/>
<feColorMatrix in="SourceAlpha" type="matrix" values="0 0 0 0 0 0 0 0 0 0 0 0 0 0 0 0 0 0 127 0" result="hardAlpha"/>
<feOffset dy="-9.10637"/>
<feGaussianBlur stdDeviation="4.55318"/>
<feComposite in2="hardAlpha" operator="arithmetic" k2="-1" k3="1"/>
<feColorMatrix type="matrix" values="0 0 0 0 0.8475 0 0 0 0 0.714559 0 0 0 0 0.608206 0 0 0 1 0"/>
<feBlend mode="normal" in2="effect2_innerShadow_751_10158" result="effect3_innerShadow_751_10158"/>
</filter>
<linearGradient id="paint0_linear_751_10158" x1="219.267" y1="73.3486" x2="219.267" y2="346.349" gradientUnits="userSpaceOnUse">
<stop stop-color="#E0BDA1"/>
<stop offset="1" stop-color="#FFEBC8"/>
</linearGradient>
</defs>
</svg>
