<svg width="439" height="418" viewBox="0 0 439 418" fill="none" xmlns="http://www.w3.org/2000/svg">
<g filter="url(#filter0_d_758_10277)">
<path d="M373.632 89.0576C372.066 77.3841 370.495 70.6129 370.495 70.6129C277.628 90.7396 219.709 25.6093 219.266 25.3485C218.811 25.6093 160.909 90.7396 68.0419 70.6129C68.0419 70.6129 66.4715 77.3841 64.901 89.0576C57.3266 145.496 49.7478 316.622 219.266 392.349C388.79 316.622 381.211 145.496 373.632 89.0576Z" fill="#FFF9F5"/>
<path d="M68.7506 72.059C68.7699 71.9672 68.7882 71.8804 68.8056 71.7988C115.074 81.5566 152.662 70.2953 178.775 56.5103C191.921 49.571 202.162 41.9911 209.148 36.1273C212.641 33.195 215.322 30.6908 217.146 28.9091C218.058 28.0182 218.755 27.3084 219.231 26.8171C219.243 26.8053 219.254 26.7935 219.265 26.7818C219.277 26.7933 219.288 26.805 219.299 26.8167C219.775 27.3082 220.472 28.018 221.384 28.909C223.207 30.6907 225.887 33.1949 229.38 36.1273C236.366 41.9912 246.608 49.5711 259.755 56.5104C285.871 70.2953 323.464 81.5566 369.732 71.7988C369.749 71.8804 369.767 71.9671 369.787 72.0589C369.957 72.869 370.201 74.0729 370.493 75.6412C371.079 78.7778 371.86 83.3721 372.641 89.1906L373.632 89.0576L372.641 89.1907C376.421 117.339 380.195 174.067 361.907 233.175C343.66 292.15 303.448 353.509 219.267 391.253C135.087 353.509 94.8763 292.15 76.6291 233.175C58.3411 174.067 62.1144 117.339 65.8921 89.191C66.6749 83.3724 67.4573 78.7781 68.0434 75.6413C68.3364 74.073 68.5803 72.8691 68.7506 72.059Z" stroke="#FFF9F5" stroke-width="2"/>
</g>
<g opacity="0.4" filter="url(#filter1_dii_758_10277)">
<path d="M334.428 119.74C333.26 111.056 332.088 106.019 332.088 106.019C262.806 120.991 219.597 72.5425 219.267 72.3485C218.927 72.5425 175.73 120.991 106.448 106.019C106.448 106.019 105.277 111.056 104.105 119.74C98.4544 161.722 92.8004 289.018 219.267 345.349C345.736 289.018 340.082 161.722 334.428 119.74Z" fill="url(#paint0_linear_758_10277)"/>
<path d="M106.699 109.807C106.911 108.678 107.088 107.804 107.214 107.204C141.688 114.385 169.702 106.006 189.177 95.7559C199.003 90.584 206.658 84.9346 211.88 80.5636C214.492 78.3777 216.496 76.5106 217.861 75.1814C218.45 74.6077 218.919 74.1347 219.266 73.7801C219.612 74.1348 220.081 74.6078 220.67 75.1812C222.034 76.5105 224.038 78.3777 226.65 80.5636C231.872 84.9346 239.528 90.584 249.355 95.7559C268.831 106.006 296.849 114.385 331.323 107.204C331.449 107.804 331.626 108.678 331.837 109.807C332.273 112.137 332.856 115.55 333.437 119.873C336.255 140.794 339.067 182.95 325.439 226.867C311.852 270.653 281.923 316.207 219.267 344.253C156.612 316.207 126.684 270.653 113.097 226.867C99.4694 182.95 102.28 140.794 105.096 119.873C105.68 115.55 106.263 112.137 106.699 109.807Z" stroke="white" stroke-width="2"/>
</g>
<path d="M369.877 137.349C346.839 95.3292 303.817 65.4292 252.481 61.6228C220.528 59.2689 190.227 67.3825 164.935 83.0587C188.324 69.5861 215.72 62.7747 244.518 64.8783C295.954 68.6846 338.725 100.187 360.011 143.961C363.266 141.757 366.522 139.553 369.877 137.349Z" fill="#FFC394"/>
<circle cx="186.938" cy="173.546" r="35" fill="#FFF9F5"/>
<path d="M188.46 219.595C189.607 219.595 190.535 218.666 190.535 217.52C190.535 216.375 189.606 215.445 188.46 215.445C183.017 215.445 178.589 211.017 178.589 205.574C178.589 200.573 182.322 196.362 187.274 195.778C187.872 195.708 188.409 195.382 188.748 194.884C189.086 194.386 189.192 193.766 189.037 193.185C185.821 181.047 194.907 169.339 207.278 169.339C214.428 169.339 220.885 173.295 224.131 179.662C224.594 180.571 225.651 181.006 226.62 180.694C232.279 178.858 238.444 182.535 239.388 188.576C239.54 189.545 240.348 190.275 241.327 190.328C247.993 190.689 253.215 196.202 253.215 202.881C253.215 209.808 247.579 215.444 240.65 215.444C239.502 215.444 238.575 216.374 238.575 217.519C238.575 218.665 239.503 219.594 240.65 219.594C249.866 219.594 257.365 212.096 257.365 202.88C257.365 194.536 251.237 187.56 243.145 186.345C241.172 179.248 234.056 174.972 227.017 176.314C222.855 169.41 215.435 165.188 207.278 165.188C192.949 165.188 182.194 178.085 184.56 192.101C178.656 193.796 174.438 199.239 174.438 205.572C174.438 213.304 180.728 219.595 188.46 219.595L188.46 219.595Z" fill="#EB770D"/>
<path d="M246.034 162.679C255.53 163.82 261.638 172.292 259.718 181.667C259.487 182.789 260.21 183.886 261.333 184.117C262.447 184.347 263.553 183.63 263.784 182.5C266.194 170.751 258.442 159.988 246.53 158.56C245.395 158.43 244.359 159.237 244.221 160.372C244.085 161.51 244.897 162.544 246.034 162.679Z" fill="#EB770D"/>
<path d="M244.605 169.639C250.212 170.312 253.8 175.29 252.663 180.821C252.432 181.944 253.155 183.041 254.279 183.272C255.375 183.502 256.495 182.798 256.729 181.656C258.356 173.747 253.121 166.48 245.101 165.52C243.932 165.381 242.931 166.197 242.793 167.332C242.655 168.47 243.468 169.504 244.605 169.639Z" fill="#EB770D"/>
<path d="M243.172 176.6C244.896 176.804 245.952 178.289 245.607 179.976C245.375 181.098 246.099 182.196 247.222 182.426C248.326 182.655 249.44 181.949 249.673 180.811C250.511 176.737 247.8 172.974 243.668 172.479C242.506 172.361 241.496 173.156 241.36 174.294C241.223 175.432 242.035 176.464 243.172 176.601L243.172 176.6Z" fill="#EB770D"/>
<path fill-rule="evenodd" clip-rule="evenodd" d="M187.64 256.47C187.64 257.616 188.569 258.546 189.716 258.546C190.863 258.546 191.791 257.616 191.791 256.47C191.791 252.838 189.313 249.803 185.97 248.885V237.204C187.932 236.548 189.471 235.008 190.127 233.046H194.921V256.351C194.921 257.496 195.849 258.426 196.996 258.426H202.597L206.747 258.427H222.005L226.156 258.425H230.32C231.468 258.425 232.395 257.495 232.395 256.35V233.039H237.186C237.84 235.005 239.38 236.546 241.344 237.203V248.884C238 249.802 235.522 252.837 235.522 256.47C235.522 257.615 236.451 258.545 237.597 258.545C238.745 258.545 239.672 257.615 239.672 256.47C239.672 254.412 241.34 252.738 243.397 252.726C243.405 252.726 243.412 252.73 243.42 252.73C243.429 252.73 243.436 252.726 243.444 252.726C245.5 252.738 247.169 254.412 247.169 256.47C247.169 257.615 248.097 258.545 249.244 258.545C250.391 258.545 251.319 257.615 251.319 256.47C251.319 252.837 248.84 249.802 245.497 248.884V237.203C248.116 236.328 250.022 233.881 250.022 230.971C250.022 227.331 247.062 224.371 243.422 224.371C240.515 224.371 238.069 226.273 237.192 228.888L232.395 228.889V226.447C232.395 225.301 231.467 224.372 230.32 224.372H220.319V218.287H224.198C226.123 218.287 227.69 216.721 227.69 214.796V201.085C227.69 199.16 226.123 197.593 224.198 197.593H203.115C201.189 197.593 199.624 199.16 199.624 201.085V214.796C199.624 216.721 201.189 218.287 203.115 218.287H206.983V224.372H196.993C195.846 224.372 194.918 225.301 194.918 226.447V228.897H190.125C189.25 226.278 186.802 224.372 183.893 224.372C180.253 224.372 177.292 227.333 177.292 230.972C177.292 233.882 179.198 236.329 181.818 237.205V248.885C178.473 249.803 175.996 252.839 175.996 256.471C175.996 257.617 176.924 258.546 178.071 258.546C179.218 258.546 180.146 257.617 180.146 256.471C180.146 254.413 181.814 252.739 183.87 252.727C183.879 252.727 183.885 252.732 183.894 252.732C183.903 252.732 183.909 252.727 183.918 252.727C185.972 252.739 187.64 254.412 187.64 256.47L187.64 256.47ZM243.419 228.522C242.073 228.522 240.978 229.616 240.973 230.963L240.973 230.965C240.973 230.967 240.973 230.968 240.972 230.97C240.972 230.97 240.972 230.971 240.972 230.971C240.972 230.972 240.971 230.973 240.971 230.974C240.972 232.324 242.07 233.422 243.419 233.422C244.771 233.422 245.87 232.323 245.87 230.972C245.87 229.621 244.771 228.522 243.419 228.522ZM203.775 201.744V214.136H223.539V201.744H203.775ZM216.168 224.372V218.287H211.134V224.372H216.168ZM228.245 228.523H199.069L199.071 254.277H204.648C204.65 254.277 204.652 254.276 204.655 254.276C204.661 254.275 204.666 254.272 204.673 254.272C204.677 254.272 204.681 254.273 204.685 254.274C204.689 254.276 204.693 254.277 204.698 254.277H224.056C224.064 254.277 224.072 254.272 224.08 254.272C224.089 254.272 224.097 254.277 224.105 254.277H228.245V228.523ZM181.444 230.971C181.444 232.322 182.543 233.421 183.895 233.421C185.245 233.421 186.342 232.322 186.342 230.971C186.342 229.62 185.245 228.521 183.895 228.521C182.543 228.521 181.444 229.62 181.444 230.971Z" fill="#EB770D"/>
<defs>
<filter id="filter0_d_758_10277" x="0.188301" y="-33.4641" width="438.159" height="490.159" filterUnits="userSpaceOnUse" color-interpolation-filters="sRGB">
<feFlood flood-opacity="0" result="BackgroundImageFix"/>
<feColorMatrix in="SourceAlpha" type="matrix" values="0 0 0 0 0 0 0 0 0 0 0 0 0 0 0 0 0 0 127 0" result="hardAlpha"/>
<feOffset dy="2.7667"/>
<feGaussianBlur stdDeviation="30.7896"/>
<feComposite in2="hardAlpha" operator="out"/>
<feColorMatrix type="matrix" values="0 0 0 0 0.00649305 0 0 0 0 0.0221214 0 0 0 0 0.0458333 0 0 0 0.09 0"/>
<feBlend mode="normal" in2="BackgroundImageFix" result="effect1_dropShadow_758_10277"/>
<feBlend mode="normal" in="SourceGraphic" in2="effect1_dropShadow_758_10277" result="shape"/>
</filter>
<filter id="filter1_dii_758_10277" x="40.1883" y="13.5359" width="358.159" height="396.159" filterUnits="userSpaceOnUse" color-interpolation-filters="sRGB">
<feFlood flood-opacity="0" result="BackgroundImageFix"/>
<feColorMatrix in="SourceAlpha" type="matrix" values="0 0 0 0 0 0 0 0 0 0 0 0 0 0 0 0 0 0 127 0" result="hardAlpha"/>
<feOffset dy="2.7667"/>
<feGaussianBlur stdDeviation="30.7896"/>
<feComposite in2="hardAlpha" operator="out"/>
<feColorMatrix type="matrix" values="0 0 0 0 0.00649305 0 0 0 0 0.0221214 0 0 0 0 0.0458333 0 0 0 0.09 0"/>
<feBlend mode="normal" in2="BackgroundImageFix" result="effect1_dropShadow_758_10277"/>
<feBlend mode="normal" in="SourceGraphic" in2="effect1_dropShadow_758_10277" result="shape"/>
<feColorMatrix in="SourceAlpha" type="matrix" values="0 0 0 0 0 0 0 0 0 0 0 0 0 0 0 0 0 0 127 0" result="hardAlpha"/>
<feOffset dy="9.10637"/>
<feGaussianBlur stdDeviation="4.55318"/>
<feComposite in2="hardAlpha" operator="arithmetic" k2="-1" k3="1"/>
<feColorMatrix type="matrix" values="0 0 0 0 1 0 0 0 0 0.946 0 0 0 0 0.8052 0 0 0 1 0"/>
<feBlend mode="normal" in2="shape" result="effect2_innerShadow_758_10277"/>
<feColorMatrix in="SourceAlpha" type="matrix" values="0 0 0 0 0 0 0 0 0 0 0 0 0 0 0 0 0 0 127 0" result="hardAlpha"/>
<feOffset dy="-9.10637"/>
<feGaussianBlur stdDeviation="4.55318"/>
<feComposite in2="hardAlpha" operator="arithmetic" k2="-1" k3="1"/>
<feColorMatrix type="matrix" values="0 0 0 0 0.8475 0 0 0 0 0.714559 0 0 0 0 0.608206 0 0 0 1 0"/>
<feBlend mode="normal" in2="effect2_innerShadow_758_10277" result="effect3_innerShadow_758_10277"/>
</filter>
<linearGradient id="paint0_linear_758_10277" x1="219.268" y1="72.3485" x2="219.268" y2="345.349" gradientUnits="userSpaceOnUse">
<stop stop-color="#E0BDA1"/>
<stop offset="1" stop-color="#FFEBC8"/>
</linearGradient>
</defs>
</svg>
