<svg width="439" height="491" viewBox="0 0 439 491" fill="none" xmlns="http://www.w3.org/2000/svg">
<g filter="url(#filter0_d_758_10298)">
<path d="M373.632 122.831C372.066 111.157 370.495 104.386 370.495 104.386C277.628 124.513 219.709 59.3824 219.266 59.1216C218.811 59.3824 160.909 124.513 68.0419 104.386C68.0419 104.386 66.4715 111.157 64.901 122.831C57.3266 179.269 49.7478 350.396 219.266 426.122C388.79 350.396 381.211 179.269 373.632 122.831Z" fill="#FFF9F5"/>
<path d="M68.7506 105.832C68.7699 105.74 68.7882 105.654 68.8056 105.572C115.074 115.33 152.662 104.068 178.775 90.2835C191.921 83.3442 202.162 75.7643 209.148 69.9004C212.641 66.9681 215.322 64.4639 217.146 62.6823C218.058 61.7913 218.755 61.0816 219.231 60.5903C219.243 60.5784 219.254 60.5666 219.265 60.5549C219.277 60.5664 219.288 60.5781 219.299 60.5898C219.775 61.0813 220.472 61.7911 221.384 62.6821C223.207 64.4639 225.887 66.9681 229.38 69.9004C236.366 75.7643 246.608 83.3442 259.755 90.2835C285.871 104.068 323.464 115.33 369.732 105.572C369.749 105.654 369.767 105.74 369.787 105.832C369.957 106.642 370.201 107.846 370.493 109.414C371.079 112.551 371.86 117.145 372.641 122.964L373.632 122.831L372.641 122.964C376.421 151.112 380.195 207.84 361.907 266.948C343.66 325.923 303.448 387.282 219.267 425.026C135.087 387.282 94.8763 325.923 76.6291 266.948C58.3411 207.84 62.1144 151.112 65.8921 122.964C66.6749 117.146 67.4573 112.551 68.0434 109.414C68.3364 107.846 68.5803 106.642 68.7506 105.832Z" stroke="#FFF9F5" stroke-width="2"/>
</g>
<g opacity="0.4" filter="url(#filter1_dii_758_10298)">
<path d="M334.428 153.513C333.26 144.829 332.088 139.792 332.088 139.792C262.806 154.764 219.597 106.316 219.267 106.122C218.927 106.316 175.73 154.764 106.448 139.792C106.448 139.792 105.277 144.829 104.105 153.513C98.4544 195.495 92.8004 322.791 219.267 379.122C345.736 322.791 340.082 195.495 334.428 153.513Z" fill="url(#paint0_linear_758_10298)"/>
<path d="M106.699 143.58C106.911 142.451 107.088 141.577 107.214 140.977C141.688 148.159 169.702 139.779 189.177 129.529C199.003 124.357 206.658 118.708 211.88 114.337C214.492 112.151 216.496 110.284 217.861 108.954C218.45 108.381 218.919 107.908 219.266 107.553C219.612 107.908 220.081 108.381 220.67 108.954C222.034 110.284 224.038 112.151 226.65 114.337C231.872 118.708 239.528 124.357 249.355 129.529C268.831 139.779 296.849 148.159 331.323 140.977C331.449 141.577 331.626 142.451 331.837 143.58C332.273 145.91 332.856 149.323 333.437 153.646C336.255 174.567 339.067 216.723 325.439 260.641C311.852 304.426 281.923 349.98 219.267 378.026C156.612 349.98 126.684 304.426 113.097 260.641C99.4694 216.723 102.28 174.567 105.096 153.647C105.68 149.323 106.263 145.91 106.699 143.58Z" stroke="white" stroke-width="2"/>
</g>
<path d="M369.877 171.123C346.839 129.102 303.817 99.2023 252.481 95.3959C220.528 93.042 190.227 101.156 164.935 116.832C188.324 103.359 215.72 96.5479 244.518 98.6514C295.954 102.458 338.725 133.96 360.011 177.734C363.266 175.53 366.522 173.326 369.877 171.123Z" fill="#FFC394"/>
<circle cx="181.938" cy="207.319" r="15" fill="#FFF9F5"/>
<path d="M267.893 283.284L255.067 270.458C253.262 268.662 250.53 268.526 248.479 269.858L237.041 258.42C243.701 251.394 247.815 241.934 247.815 231.508C247.815 209.898 230.236 192.319 208.626 192.319C187.017 192.319 169.438 209.899 169.438 231.508C169.438 253.118 187.017 270.697 208.626 270.697C219.048 270.697 228.507 266.582 235.538 259.923L246.976 271.361C245.644 273.412 245.78 276.144 247.576 277.949L260.402 290.775C261.437 291.805 262.794 292.319 264.147 292.319C265.504 292.319 266.866 291.804 267.897 290.775C269.952 288.71 269.952 285.348 267.892 283.285L267.893 283.284ZM171.568 231.513C171.568 211.078 188.194 194.452 208.628 194.452C229.063 194.452 245.689 211.078 245.689 231.513C245.689 251.948 229.063 268.573 208.628 268.573C188.193 268.573 171.568 251.947 171.568 231.513ZM266.387 289.271C265.153 290.497 263.144 290.505 261.901 289.271L249.075 276.445C247.846 275.207 247.841 273.194 249.075 271.96C249.696 271.343 250.505 271.037 251.318 271.037C252.126 271.037 252.939 271.343 253.556 271.96L266.382 284.786C267.62 286.024 267.62 288.037 266.387 289.271Z" fill="#EB770D"/>
<path d="M191.1 211.052C191.738 210.405 206.985 195.371 226.53 211.133C226.73 211.29 226.964 211.367 227.198 211.367C227.509 211.367 227.82 211.231 228.024 210.971C228.395 210.516 228.322 209.843 227.867 209.473C206.831 192.524 189.75 209.384 189.584 209.554C189.172 209.976 189.176 210.648 189.593 211.061C190.014 211.473 190.686 211.469 191.099 211.052L191.1 211.052Z" fill="#EB770D"/>
<path d="M224.947 215.38C220.552 209.865 212.913 207.052 205.032 208.039C200.142 208.656 196.032 210.546 193.147 213.504C190.151 216.575 188.257 220.754 187.814 225.278C187.41 229.419 187.793 241.449 187.81 241.959C187.827 242.533 188.304 242.985 188.874 242.985H188.908C189.495 242.968 189.954 242.478 189.938 241.887C189.934 241.764 189.542 229.483 189.934 225.483C190.321 221.5 192.049 217.674 194.67 214.989C197.887 211.69 202.224 210.537 205.296 210.154C212.466 209.261 219.343 211.772 223.284 216.712C224.815 218.627 225.973 221.129 226.714 224.138C227.233 226.244 227.497 228.444 227.497 230.674C227.497 231.261 227.974 231.738 228.561 231.738C229.148 231.738 229.624 231.261 229.624 230.674C229.624 228.274 229.344 225.904 228.786 223.631C227.965 220.316 226.671 217.541 224.947 215.38Z" fill="#EB770D"/>
<path d="M196.424 242.045C196.645 240.083 196.471 237.347 196.288 234.458C196.054 230.726 195.811 226.874 196.398 224.598C197.147 221.712 199.245 219.295 202.313 217.798C205.964 216.015 210.36 215.827 213.777 217.3C217.003 218.691 219.369 221.747 219.956 225.266C220.053 225.857 220.135 226.454 220.215 227.053C220.483 229.096 220.764 231.211 221.755 233.156C223.177 235.918 225.564 237.883 228.304 238.556C228.9 238.692 229.454 238.347 229.594 237.773C229.73 237.203 229.381 236.628 228.811 236.488C226.666 235.964 224.785 234.394 223.649 232.185C222.823 230.568 222.577 228.726 222.321 226.777C222.241 226.155 222.161 225.534 222.059 224.921C221.352 220.692 218.501 217.027 214.621 215.346C210.654 213.632 205.573 213.836 201.381 215.887C197.747 217.662 195.245 220.568 194.338 224.066C193.666 226.667 193.922 230.692 194.168 234.586C194.347 237.385 194.513 240.028 194.313 241.803C193.925 245.262 189.968 246.998 189.929 247.016C189.393 247.25 189.138 247.871 189.372 248.411C189.542 248.819 189.933 249.058 190.35 249.058C190.486 249.058 190.627 249.032 190.763 248.973C190.968 248.888 195.896 246.751 196.424 242.045Z" fill="#EB770D"/>
<path d="M201.505 247.726C201.82 247.232 201.671 246.573 201.173 246.258C200.679 245.96 200.019 246.092 199.704 246.594C196.381 251.867 192.262 253.709 192.223 253.726C191.687 253.96 191.436 254.586 191.67 255.126C191.844 255.525 192.235 255.764 192.644 255.764C192.785 255.764 192.925 255.734 193.061 255.675C193.258 255.595 197.807 253.594 201.505 247.726Z" fill="#EB770D"/>
<path d="M215.376 259.012C213.435 258.807 211.704 257.888 210.235 256.284C208.712 254.62 206.912 253.824 204.967 253.837C200.741 253.921 197.218 258.02 197.069 258.199C196.69 258.641 196.745 259.314 197.192 259.697C197.638 260.08 198.311 260.02 198.69 259.578C198.72 259.539 201.754 256.024 205.013 255.965C206.294 255.965 207.558 256.514 208.664 257.723C210.499 259.722 212.682 260.867 215.154 261.132C215.192 261.136 215.231 261.136 215.264 261.136C215.801 261.136 216.264 260.728 216.319 260.183C216.385 259.599 215.964 259.076 215.376 259.011L215.376 259.012Z" fill="#EB770D"/>
<path d="M227.117 249.032C227.062 249.028 219.764 249.47 212.5 241.219C210.845 239.342 209.93 235.908 209.773 231.019C209.756 230.436 209.283 229.951 208.674 229.989C208.087 230.006 207.623 230.499 207.644 231.086C207.819 236.563 208.882 240.338 210.904 242.627C217.93 250.602 224.973 251.168 226.828 251.168C227.091 251.168 227.249 251.155 227.287 251.15C227.87 251.103 228.3 250.593 228.262 250.006C228.211 249.427 227.751 248.904 227.117 249.032Z" fill="#EB770D"/>
<path d="M228.726 242.76C222.415 241.76 218.445 236.619 217.313 233.407C217.1 232.799 216.926 232.011 216.731 231.143C215.896 227.419 214.636 221.794 208.802 221.598C206.172 221.513 203.934 222.645 202.475 224.785C199.811 228.684 200.066 235.087 203.181 242.352C208.368 254.454 222.212 257.305 222.803 257.421C222.872 257.433 222.939 257.442 223.008 257.442C223.506 257.442 223.952 257.093 224.05 256.586C224.16 256.008 223.786 255.446 223.216 255.335C223.084 255.31 209.875 252.569 205.138 241.514C202.355 235.028 202.019 229.219 204.231 225.981C205.287 224.445 206.823 223.653 208.734 223.725C212.606 223.853 213.704 227.372 214.657 231.611C214.875 232.573 215.07 233.441 215.309 234.113C216.866 238.538 221.623 243.785 228.394 244.862C228.973 244.96 229.522 244.556 229.611 243.978C229.701 243.398 229.304 242.85 228.726 242.76Z" fill="#EB770D"/>
<defs>
<filter id="filter0_d_758_10298" x="0.188301" y="0.309046" width="438.159" height="490.159" filterUnits="userSpaceOnUse" color-interpolation-filters="sRGB">
<feFlood flood-opacity="0" result="BackgroundImageFix"/>
<feColorMatrix in="SourceAlpha" type="matrix" values="0 0 0 0 0 0 0 0 0 0 0 0 0 0 0 0 0 0 127 0" result="hardAlpha"/>
<feOffset dy="2.7667"/>
<feGaussianBlur stdDeviation="30.7896"/>
<feComposite in2="hardAlpha" operator="out"/>
<feColorMatrix type="matrix" values="0 0 0 0 0.00649305 0 0 0 0 0.0221214 0 0 0 0 0.0458333 0 0 0 0.09 0"/>
<feBlend mode="normal" in2="BackgroundImageFix" result="effect1_dropShadow_758_10298"/>
<feBlend mode="normal" in="SourceGraphic" in2="effect1_dropShadow_758_10298" result="shape"/>
</filter>
<filter id="filter1_dii_758_10298" x="40.1883" y="47.309" width="358.159" height="396.159" filterUnits="userSpaceOnUse" color-interpolation-filters="sRGB">
<feFlood flood-opacity="0" result="BackgroundImageFix"/>
<feColorMatrix in="SourceAlpha" type="matrix" values="0 0 0 0 0 0 0 0 0 0 0 0 0 0 0 0 0 0 127 0" result="hardAlpha"/>
<feOffset dy="2.7667"/>
<feGaussianBlur stdDeviation="30.7896"/>
<feComposite in2="hardAlpha" operator="out"/>
<feColorMatrix type="matrix" values="0 0 0 0 0.00649305 0 0 0 0 0.0221214 0 0 0 0 0.0458333 0 0 0 0.09 0"/>
<feBlend mode="normal" in2="BackgroundImageFix" result="effect1_dropShadow_758_10298"/>
<feBlend mode="normal" in="SourceGraphic" in2="effect1_dropShadow_758_10298" result="shape"/>
<feColorMatrix in="SourceAlpha" type="matrix" values="0 0 0 0 0 0 0 0 0 0 0 0 0 0 0 0 0 0 127 0" result="hardAlpha"/>
<feOffset dy="9.10637"/>
<feGaussianBlur stdDeviation="4.55318"/>
<feComposite in2="hardAlpha" operator="arithmetic" k2="-1" k3="1"/>
<feColorMatrix type="matrix" values="0 0 0 0 1 0 0 0 0 0.946 0 0 0 0 0.8052 0 0 0 1 0"/>
<feBlend mode="normal" in2="shape" result="effect2_innerShadow_758_10298"/>
<feColorMatrix in="SourceAlpha" type="matrix" values="0 0 0 0 0 0 0 0 0 0 0 0 0 0 0 0 0 0 127 0" result="hardAlpha"/>
<feOffset dy="-9.10637"/>
<feGaussianBlur stdDeviation="4.55318"/>
<feComposite in2="hardAlpha" operator="arithmetic" k2="-1" k3="1"/>
<feColorMatrix type="matrix" values="0 0 0 0 0.8475 0 0 0 0 0.714559 0 0 0 0 0.608206 0 0 0 1 0"/>
<feBlend mode="normal" in2="effect2_innerShadow_758_10298" result="effect3_innerShadow_758_10298"/>
</filter>
<linearGradient id="paint0_linear_758_10298" x1="219.268" y1="106.122" x2="219.268" y2="379.122" gradientUnits="userSpaceOnUse">
<stop stop-color="#E0BDA1"/>
<stop offset="1" stop-color="#FFEBC8"/>
</linearGradient>
</defs>
</svg>
