<svg width="576" height="417" viewBox="0 0 576 417" fill="none" xmlns="http://www.w3.org/2000/svg">
<g filter="url(#filter0_d_758_10246)">
<path d="M442.632 88.5114C441.066 76.8378 439.495 70.0666 439.495 70.0666C346.628 90.1933 288.709 25.063 288.266 24.8022C287.811 25.063 229.909 90.1933 137.042 70.0666C137.042 70.0666 135.471 76.8378 133.901 88.5114C126.327 144.949 118.748 316.076 288.266 391.802C457.79 316.076 450.211 144.949 442.632 88.5114Z" fill="#FFF9F5"/>
<path d="M137.751 71.5127C137.77 71.4209 137.788 71.3342 137.806 71.2525C184.074 81.0104 221.662 69.7491 247.775 55.9641C260.921 49.0248 271.162 41.4449 278.148 35.5811C281.641 32.6487 284.322 30.1445 286.146 28.3629C287.058 27.4719 287.755 26.7622 288.231 26.2709C288.243 26.259 288.254 26.2472 288.265 26.2356C288.277 26.2471 288.288 26.2587 288.299 26.2704C288.775 26.7619 289.472 27.4717 290.384 28.3627C292.207 30.1445 294.887 32.6487 298.38 35.5811C305.366 41.4449 315.608 49.0248 328.755 55.9641C354.871 69.7491 392.464 81.0104 438.732 71.2525C438.749 71.3341 438.767 71.4209 438.787 71.5126C438.957 72.3228 439.201 73.5266 439.493 75.0949C440.079 78.2316 440.86 82.8259 441.641 88.6443L442.632 88.5114L441.641 88.6445C445.421 116.793 449.195 173.521 430.907 232.628C412.66 291.604 372.448 352.963 288.267 390.707C204.087 352.963 163.876 291.604 145.629 232.628C127.341 173.521 131.114 116.793 134.892 88.6447C135.675 82.8262 136.457 78.2318 137.043 75.0951C137.336 73.5267 137.58 72.3229 137.751 71.5127Z" stroke="#FFF9F5" stroke-width="2"/>
</g>
<g opacity="0.4" filter="url(#filter1_dii_758_10246)">
<path d="M403.428 119.193C402.26 110.51 401.088 105.473 401.088 105.473C331.806 120.445 288.597 71.9962 288.267 71.8022C287.927 71.9962 244.73 120.445 175.448 105.473C175.448 105.473 174.277 110.51 173.105 119.193C167.454 161.176 161.8 288.472 288.267 344.802C414.736 288.472 409.082 161.176 403.428 119.193Z" fill="url(#paint0_linear_758_10246)"/>
<path d="M175.699 109.261C175.911 108.132 176.088 107.258 176.214 106.658C210.688 113.839 238.702 105.46 258.177 95.2096C268.003 90.0377 275.658 84.3883 280.88 80.0174C283.492 77.8314 285.496 75.9643 286.861 74.6351C287.45 74.0615 287.919 73.5884 288.266 73.2339C288.612 73.5885 289.081 74.0615 289.67 74.635C291.034 75.9642 293.038 77.8314 295.65 80.0174C300.872 84.3884 308.528 90.0377 318.355 95.2097C337.831 105.46 365.849 113.839 400.323 106.658C400.449 107.258 400.626 108.132 400.837 109.261C401.273 111.59 401.856 115.003 402.437 119.327C405.255 140.247 408.067 182.404 394.439 226.321C380.852 270.107 350.923 315.661 288.267 343.707C225.612 315.661 195.684 270.107 182.097 226.321C168.469 182.404 171.28 140.248 174.096 119.327C174.68 115.004 175.263 111.59 175.699 109.261Z" stroke="white" stroke-width="2"/>
</g>
<path d="M438.877 136.803C415.839 94.7829 372.817 64.8829 321.481 61.0765C289.528 58.7226 259.227 66.8362 233.935 82.5124C257.324 69.0399 284.72 62.2285 313.518 64.332C364.954 68.1384 407.725 99.6411 429.011 143.414C432.266 141.211 435.522 139.007 438.877 136.803Z" fill="#FFC394"/>
<circle cx="304.688" cy="156.75" r="18.75" fill="#FFF9F5"/>
<path d="M275.804 258H249.675C248.755 258 248.008 257.253 248.008 256.333C248.008 255.414 248.755 254.667 249.675 254.667H275.804C276.724 254.667 277.471 255.414 277.471 256.333C277.471 257.253 276.724 258 275.804 258Z" fill="#EB770D"/>
<path d="M257.715 258C256.795 258 256.048 257.253 256.048 256.333V245.588C256.048 244.668 256.795 243.921 257.715 243.921C258.634 243.921 259.381 244.668 259.381 245.588V256.333C259.381 257.253 258.634 258 257.715 258Z" fill="#EB770D"/>
<path d="M266.951 258C266.031 258 265.284 257.253 265.284 256.333V245.588C265.284 244.668 266.031 243.921 266.951 243.921C267.87 243.921 268.617 244.668 268.617 245.588V256.333C268.617 257.253 267.871 258 266.951 258Z" fill="#EB770D"/>
<path d="M287.602 238.209H237.604C236.685 238.209 235.938 237.462 235.938 236.543C235.938 235.623 236.685 234.876 237.604 234.876H287.602C288.523 234.876 289.269 235.623 289.269 236.543C289.269 237.463 288.522 238.209 287.602 238.209Z" fill="#EB770D"/>
<path d="M286.524 247.255H238.955C237.297 247.255 235.948 245.903 235.948 244.243V210.911C235.948 209.251 237.297 207.899 238.955 207.899H286.524C287.985 207.899 289.206 208.949 289.476 210.335C289.543 210.518 289.578 210.714 289.578 210.913L289.53 244.244C289.531 245.903 288.182 247.255 286.524 247.255L286.524 247.255ZM239.28 243.922H286.198L286.245 211.295C286.24 211.274 286.235 211.254 286.231 211.233L239.281 211.232L239.28 243.922Z" fill="#EB770D"/>
<path d="M325.497 208.103H299.366C298.446 208.103 297.699 207.356 297.699 206.436C297.699 205.517 298.446 204.77 299.366 204.77H325.495C326.415 204.77 327.162 205.517 327.162 206.436C327.161 207.356 326.416 208.103 325.496 208.103H325.497Z" fill="#EB770D"/>
<path d="M307.406 208.103C306.486 208.103 305.739 207.356 305.739 206.436V195.69C305.739 194.77 306.486 194.023 307.406 194.023C308.325 194.023 309.072 194.77 309.072 195.69V206.435C309.072 207.356 308.325 208.103 307.406 208.103Z" fill="#EB770D"/>
<path d="M316.644 208.103C315.724 208.103 314.977 207.356 314.977 206.436V195.69C314.977 194.77 315.724 194.023 316.644 194.023C317.563 194.023 318.31 194.77 318.31 195.69V206.435C318.31 207.356 317.563 208.103 316.644 208.103Z" fill="#EB770D"/>
<path d="M337.293 188.313H287.297C286.378 188.313 285.631 187.565 285.631 186.646C285.631 185.726 286.378 184.979 287.297 184.979H337.293C338.213 184.979 338.96 185.726 338.96 186.646C338.959 187.565 338.213 188.313 337.293 188.313H337.293Z" fill="#EB770D"/>
<path d="M336.215 197.356H288.644C286.986 197.356 285.638 196.004 285.638 194.344V161.012C285.638 159.352 286.986 158 288.644 158H336.215C337.675 158 338.896 159.048 339.166 160.433C339.234 160.618 339.269 160.814 339.269 161.015L339.221 194.346C339.221 196.004 337.873 197.356 336.215 197.356L336.215 197.356ZM288.972 194.023H335.889L335.936 161.398C335.931 161.378 335.927 161.356 335.921 161.334H288.973L288.972 194.023Z" fill="#EB770D"/>
<path d="M257.715 202.73C256.795 202.73 256.048 201.983 256.048 201.063V177.678C256.048 176.759 256.795 176.012 257.715 176.012H279.448C280.367 176.012 281.114 176.759 281.114 177.678C281.114 178.598 280.367 179.345 279.448 179.345H259.381V201.063C259.381 201.983 258.634 202.73 257.715 202.73Z" fill="#EB770D"/>
<path d="M295.813 240.049C294.894 240.049 294.147 239.302 294.147 238.383C294.147 237.463 294.894 236.716 295.813 236.716H316.444V216.661C316.444 215.741 317.191 214.994 318.111 214.994C319.03 214.994 319.777 215.741 319.777 216.661V238.383C319.776 239.303 319.03 240.049 318.11 240.049H295.813Z" fill="#EB770D"/>
<defs>
<filter id="filter0_d_758_10246" x="69.1883" y="-34.0103" width="438.159" height="490.159" filterUnits="userSpaceOnUse" color-interpolation-filters="sRGB">
<feFlood flood-opacity="0" result="BackgroundImageFix"/>
<feColorMatrix in="SourceAlpha" type="matrix" values="0 0 0 0 0 0 0 0 0 0 0 0 0 0 0 0 0 0 127 0" result="hardAlpha"/>
<feOffset dy="2.7667"/>
<feGaussianBlur stdDeviation="30.7896"/>
<feComposite in2="hardAlpha" operator="out"/>
<feColorMatrix type="matrix" values="0 0 0 0 0.00649305 0 0 0 0 0.0221214 0 0 0 0 0.0458333 0 0 0 0.09 0"/>
<feBlend mode="normal" in2="BackgroundImageFix" result="effect1_dropShadow_758_10246"/>
<feBlend mode="normal" in="SourceGraphic" in2="effect1_dropShadow_758_10246" result="shape"/>
</filter>
<filter id="filter1_dii_758_10246" x="109.188" y="12.9897" width="358.159" height="396.159" filterUnits="userSpaceOnUse" color-interpolation-filters="sRGB">
<feFlood flood-opacity="0" result="BackgroundImageFix"/>
<feColorMatrix in="SourceAlpha" type="matrix" values="0 0 0 0 0 0 0 0 0 0 0 0 0 0 0 0 0 0 127 0" result="hardAlpha"/>
<feOffset dy="2.7667"/>
<feGaussianBlur stdDeviation="30.7896"/>
<feComposite in2="hardAlpha" operator="out"/>
<feColorMatrix type="matrix" values="0 0 0 0 0.00649305 0 0 0 0 0.0221214 0 0 0 0 0.0458333 0 0 0 0.09 0"/>
<feBlend mode="normal" in2="BackgroundImageFix" result="effect1_dropShadow_758_10246"/>
<feBlend mode="normal" in="SourceGraphic" in2="effect1_dropShadow_758_10246" result="shape"/>
<feColorMatrix in="SourceAlpha" type="matrix" values="0 0 0 0 0 0 0 0 0 0 0 0 0 0 0 0 0 0 127 0" result="hardAlpha"/>
<feOffset dy="9.10637"/>
<feGaussianBlur stdDeviation="4.55318"/>
<feComposite in2="hardAlpha" operator="arithmetic" k2="-1" k3="1"/>
<feColorMatrix type="matrix" values="0 0 0 0 1 0 0 0 0 0.946 0 0 0 0 0.8052 0 0 0 1 0"/>
<feBlend mode="normal" in2="shape" result="effect2_innerShadow_758_10246"/>
<feColorMatrix in="SourceAlpha" type="matrix" values="0 0 0 0 0 0 0 0 0 0 0 0 0 0 0 0 0 0 127 0" result="hardAlpha"/>
<feOffset dy="-9.10637"/>
<feGaussianBlur stdDeviation="4.55318"/>
<feComposite in2="hardAlpha" operator="arithmetic" k2="-1" k3="1"/>
<feColorMatrix type="matrix" values="0 0 0 0 0.8475 0 0 0 0 0.714559 0 0 0 0 0.608206 0 0 0 1 0"/>
<feBlend mode="normal" in2="effect2_innerShadow_758_10246" result="effect3_innerShadow_758_10246"/>
</filter>
<linearGradient id="paint0_linear_758_10246" x1="288.268" y1="71.8022" x2="288.268" y2="344.802" gradientUnits="userSpaceOnUse">
<stop stop-color="#E0BDA1"/>
<stop offset="1" stop-color="#FFEBC8"/>
</linearGradient>
</defs>
</svg>
