<svg width="439" height="458" viewBox="0 0 439 458" fill="none" xmlns="http://www.w3.org/2000/svg">
<g filter="url(#filter0_d_751_10089)">
<path d="M373.632 109.238C372.065 97.5646 370.495 90.7934 370.495 90.7934C277.628 110.92 219.708 45.7898 219.266 45.5291C218.811 45.7898 160.909 110.92 68.0414 90.7934C68.0414 90.7934 66.471 97.5646 64.9005 109.238C57.3261 165.676 49.7473 336.803 219.266 412.529C388.789 336.803 381.21 165.676 373.632 109.238Z" fill="#FFF9F5"/>
<path d="M68.7501 92.2395C68.7694 92.1477 68.7877 92.061 68.8051 91.9793C115.073 101.737 152.661 90.4759 178.775 76.6909C191.92 69.7516 202.162 62.1717 209.147 56.3079C212.641 53.3755 215.321 50.8713 217.145 49.0897C218.057 48.1987 218.754 47.489 219.231 46.9977C219.242 46.9858 219.254 46.974 219.265 46.9624C219.276 46.9739 219.287 46.9855 219.299 46.9972C219.775 47.4887 220.472 48.1986 221.383 49.0895C223.206 50.8713 225.886 53.3755 229.38 56.3079C236.366 62.1717 246.608 69.7516 259.754 76.6909C285.871 90.4759 323.463 101.737 369.731 91.9793C369.749 92.061 369.767 92.1477 369.786 92.2394C369.956 93.0496 370.2 94.2534 370.493 95.8217C371.078 98.9584 371.86 103.553 372.64 109.371L373.632 109.238L372.64 109.371C376.42 137.52 380.195 194.248 361.907 253.355C343.659 312.33 303.448 373.69 219.266 411.433C135.086 373.69 94.8758 312.33 76.6286 253.355C58.3406 194.248 62.1139 137.52 65.8916 109.371C66.6744 103.553 67.4568 98.9586 68.0429 95.8219C68.3359 94.2535 68.5798 93.0497 68.7501 92.2395Z" stroke="#FFF9F5" stroke-width="2"/>
</g>
<g opacity="0.4" filter="url(#filter1_dii_751_10089)">
<path d="M334.428 139.92C333.26 131.237 332.088 126.2 332.088 126.2C262.806 141.171 219.596 92.723 219.266 92.5291C218.926 92.723 175.73 141.171 106.448 126.2C106.448 126.2 105.276 131.237 104.105 139.92C98.454 181.903 92.7999 309.199 219.266 365.529C345.736 309.199 340.082 181.903 334.428 139.92Z" fill="url(#paint0_linear_751_10089)"/>
<path d="M106.699 129.988C106.91 128.859 107.087 127.984 107.213 127.385C141.688 134.566 169.702 126.187 189.176 115.936C199.002 110.765 206.657 105.115 211.88 100.744C214.491 98.5582 216.496 96.6911 217.86 95.3619C218.449 94.7883 218.919 94.3152 219.265 93.9607C219.612 94.3153 220.081 94.7883 220.669 95.3618C222.033 96.691 224.038 98.5582 226.649 100.744C231.872 105.115 239.527 110.765 249.354 115.936C268.831 126.187 296.848 134.566 331.322 127.385C331.448 127.984 331.625 128.859 331.837 129.988C332.273 132.317 332.855 135.73 333.437 140.054C336.254 160.974 339.066 203.13 325.438 247.048C311.851 290.834 281.923 336.388 219.266 364.434C156.612 336.388 126.684 290.834 113.097 247.048C99.4689 203.131 102.28 160.974 105.096 140.054C105.679 135.731 106.262 132.317 106.699 129.988Z" stroke="white" stroke-width="2"/>
</g>
<path d="M369.877 157.53C346.839 115.51 303.817 85.6097 252.481 81.8033C220.528 79.4494 190.227 87.563 164.935 103.239C188.324 89.7667 215.72 82.9553 244.518 85.0588C295.954 88.8652 338.725 120.368 360.011 164.141C363.266 161.937 366.522 159.734 369.877 157.53Z" fill="#FFC394"/>
<ellipse cx="188.187" cy="192.477" rx="18.75" ry="18.75" fill="#FFF9F5"/>
<path d="M213.5 269.25C212.903 269.25 212.303 269.103 211.767 268.81C190.807 257.713 179.437 247.726 179.437 226.791V190.184C179.437 189.389 180.017 188.713 180.802 188.59L185.388 187.878C193.009 186.727 200.429 184.523 207.447 181.326L212.823 178.872C213.242 178.682 213.721 178.677 214.141 178.863L220.967 181.859C228.051 184.991 235.646 187.121 243.544 188.194L246.147 188.537C246.949 188.643 247.55 189.326 247.55 190.135V226.74C247.55 230.996 247.07 234.813 246.083 238.408C245.847 239.267 244.959 239.772 244.1 239.536C243.241 239.3 242.737 238.412 242.972 237.554C243.882 234.242 244.324 230.705 244.324 226.74L244.325 191.549L243.118 191.39C234.913 190.276 227.025 188.063 219.669 184.81L213.509 182.107L208.789 184.262C201.496 187.583 193.789 189.872 185.878 191.067L182.663 191.567V226.791C182.663 246.201 192.98 255.213 213.299 265.971C213.418 266.037 213.569 266.034 213.664 265.984C216.362 264.555 218.685 263.264 220.789 262.025C221.556 261.572 222.545 261.827 222.997 262.595C223.45 263.362 223.194 264.351 222.427 264.803C220.279 266.068 217.915 267.383 215.196 268.822C214.678 269.106 214.09 269.25 213.5 269.25Z" fill="#EB770D"/>
<path d="M206.963 237.245C206.654 237.245 206.343 237.157 206.071 236.975L195.76 230.126C195.019 229.634 194.817 228.632 195.309 227.89C195.802 227.149 196.801 226.946 197.546 227.439L206.758 233.559L229.192 211.202C229.822 210.575 230.843 210.575 231.473 211.206C232.101 211.837 232.099 212.859 231.468 213.487L208.102 236.776C207.791 237.086 207.378 237.245 206.963 237.245Z" fill="#EB770D"/>
<path d="M238.297 278.727C236.998 278.727 235.776 278.221 234.854 277.302C234.002 276.452 233.5 275.343 233.418 274.149C231.575 273.77 229.814 273.127 228.158 272.229C227.25 273.061 226.085 273.518 224.85 273.519H224.845C223.536 273.519 222.307 273.006 221.383 272.074C219.628 270.304 219.496 267.497 220.985 265.556C219.917 263.89 219.117 262.087 218.593 260.173C217.463 260.071 216.414 259.582 215.599 258.769C214.662 257.834 214.148 256.586 214.151 255.255C214.158 252.758 216.012 250.68 218.402 250.343C218.85 248.404 219.577 246.562 220.575 244.844C218.924 242.911 219.011 239.971 220.831 238.126C221.765 237.18 223.006 236.66 224.326 236.659H224.33C225.492 236.659 226.591 237.063 227.469 237.805C229.078 236.824 230.801 236.091 232.615 235.613C232.646 232.912 234.84 230.712 237.527 230.699C238.818 230.661 240.067 231.2 240.994 232.125C241.915 233.046 242.427 234.268 242.44 235.574C244.155 236.014 245.785 236.681 247.312 237.568L247.502 237.375C248.436 236.43 249.675 235.909 250.996 235.908H251.001C252.311 235.908 253.54 236.42 254.463 237.352C256.366 239.273 256.361 242.407 254.454 244.339L254.3 244.495C255.188 245.984 255.869 247.569 256.337 249.234L256.783 249.233H256.805C258.104 249.233 259.326 249.738 260.248 250.659C261.184 251.593 261.698 252.841 261.695 254.172C261.687 256.895 259.483 259.12 256.781 259.131L256.568 259.132C256.177 260.838 255.564 262.476 254.737 264.026L255.023 264.314C256.924 266.232 256.921 269.367 255.013 271.299C254.079 272.245 252.838 272.766 251.518 272.766H251.514C250.215 272.766 248.994 272.262 248.073 271.343C246.567 272.334 244.946 273.105 243.23 273.644V273.767C243.224 276.489 241.02 278.714 238.316 278.725C238.313 278.727 238.304 278.727 238.297 278.727ZM236.635 272.854L236.633 273.796C236.633 274.261 236.81 274.695 237.134 275.019C237.446 275.33 237.86 275.502 238.298 275.502H238.305C239.241 275.497 240.005 274.716 240.007 273.761L240.01 272.768C240.01 272.709 240.005 272.645 239.999 272.582C239.923 271.783 240.443 271.05 241.222 270.86C243.433 270.32 245.475 269.339 247.292 267.947C247.986 267.415 248.984 267.533 249.532 268.218C249.57 268.266 249.61 268.312 249.653 268.357L250.343 269.052C250.657 269.369 251.072 269.542 251.514 269.542C251.965 269.542 252.394 269.361 252.717 269.033C253.388 268.353 253.395 267.254 252.731 266.585L252.039 265.887C251.966 265.813 251.881 265.743 251.79 265.681C251.071 265.196 250.864 264.229 251.322 263.491C252.52 261.564 253.304 259.457 253.649 257.227C253.715 256.802 253.949 256.42 254.298 256.167C254.648 255.914 255.085 255.812 255.509 255.883C255.599 255.898 255.696 255.901 255.786 255.909L256.765 255.904C257.702 255.9 258.465 255.118 258.467 254.162C258.469 253.697 258.291 253.263 257.968 252.94C257.654 252.626 257.24 252.483 256.796 252.457L255.816 252.461C255.7 252.462 255.576 252.477 255.451 252.506C255.029 252.603 254.583 252.526 254.217 252.291C253.852 252.056 253.596 251.684 253.509 251.258C253.058 249.06 252.179 247.01 250.895 245.163C250.398 244.449 250.558 243.47 251.255 242.95C251.327 242.896 251.399 242.84 251.464 242.774L252.157 242.071C252.829 241.39 252.836 240.291 252.171 239.621C251.858 239.305 251.443 239.131 251 239.131C250.549 239.132 250.12 239.313 249.798 239.64L249.105 240.342C249.032 240.416 248.972 240.494 248.917 240.575C248.41 241.299 247.416 241.482 246.685 240.984C244.823 239.713 242.749 238.861 240.521 238.455C239.709 238.306 239.139 237.567 239.203 236.743C239.207 236.698 239.212 236.654 239.212 236.608L239.214 235.629C239.215 235.165 239.037 234.73 238.714 234.406C238.4 234.093 238.022 233.927 237.543 233.923C236.607 233.928 235.843 234.709 235.841 235.665L235.839 236.656L235.845 236.759C235.9 237.573 235.342 238.326 234.541 238.48C232.251 238.918 230.118 239.828 228.199 241.181C227.557 241.636 226.679 241.559 226.123 240.999L225.503 240.373C225.189 240.057 224.775 239.884 224.333 239.884C223.88 239.884 223.452 240.065 223.129 240.392C222.458 241.073 222.452 242.172 223.116 242.843L223.76 243.493C224.302 244.038 224.382 244.89 223.954 245.527C222.605 247.536 221.723 249.77 221.333 252.165C221.206 252.943 220.535 253.516 219.747 253.519L219.081 253.521C218.146 253.526 217.382 254.308 217.38 255.263C217.379 255.728 217.556 256.163 217.881 256.486C218.195 256.799 218.593 256.977 219.052 256.969L219.865 256.965H219.873C220.639 256.965 221.299 257.503 221.452 258.254C221.938 260.625 222.911 262.81 224.346 264.749C224.819 265.388 224.756 266.276 224.197 266.842L223.691 267.354C223.02 268.035 223.013 269.134 223.678 269.803C223.991 270.12 224.406 270.293 224.848 270.293C225.3 270.293 225.727 270.112 226.05 269.786L226.743 269.082C227.276 268.542 228.121 268.442 228.759 268.843C230.737 270.093 232.916 270.88 235.234 271.183C236.038 271.289 236.638 271.973 236.638 272.783C236.637 272.806 236.636 272.83 236.635 272.854Z" fill="#EB770D"/>
<path d="M237.862 264.878C235.073 264.878 232.466 263.808 230.515 261.86C228.606 259.954 227.557 257.427 227.564 254.747C227.578 249.148 232.231 244.572 237.939 244.547C240.75 244.572 243.37 245.606 245.333 247.563C247.242 249.469 248.291 251.996 248.285 254.678C248.271 260.277 243.616 264.853 237.91 264.879C237.893 264.878 237.877 264.878 237.862 264.878ZM237.987 247.772H237.952C234.011 247.79 230.798 250.922 230.789 254.755C230.784 256.57 231.496 258.283 232.792 259.576C234.135 260.915 235.933 261.651 237.862 261.651H237.895C241.835 261.634 245.049 258.501 245.058 254.668C245.063 252.853 244.351 251.14 243.054 249.847C241.713 248.508 239.914 247.772 237.987 247.772Z" fill="#EB770D"/>
<defs>
<filter id="filter0_d_751_10089" x="0.187813" y="-13.2835" width="438.159" height="490.159" filterUnits="userSpaceOnUse" color-interpolation-filters="sRGB">
<feFlood flood-opacity="0" result="BackgroundImageFix"/>
<feColorMatrix in="SourceAlpha" type="matrix" values="0 0 0 0 0 0 0 0 0 0 0 0 0 0 0 0 0 0 127 0" result="hardAlpha"/>
<feOffset dy="2.7667"/>
<feGaussianBlur stdDeviation="30.7896"/>
<feComposite in2="hardAlpha" operator="out"/>
<feColorMatrix type="matrix" values="0 0 0 0 0.00649305 0 0 0 0 0.0221214 0 0 0 0 0.0458333 0 0 0 0.09 0"/>
<feBlend mode="normal" in2="BackgroundImageFix" result="effect1_dropShadow_751_10089"/>
<feBlend mode="normal" in="SourceGraphic" in2="effect1_dropShadow_751_10089" result="shape"/>
</filter>
<filter id="filter1_dii_751_10089" x="40.1878" y="33.7165" width="358.159" height="396.159" filterUnits="userSpaceOnUse" color-interpolation-filters="sRGB">
<feFlood flood-opacity="0" result="BackgroundImageFix"/>
<feColorMatrix in="SourceAlpha" type="matrix" values="0 0 0 0 0 0 0 0 0 0 0 0 0 0 0 0 0 0 127 0" result="hardAlpha"/>
<feOffset dy="2.7667"/>
<feGaussianBlur stdDeviation="30.7896"/>
<feComposite in2="hardAlpha" operator="out"/>
<feColorMatrix type="matrix" values="0 0 0 0 0.00649305 0 0 0 0 0.0221214 0 0 0 0 0.0458333 0 0 0 0.09 0"/>
<feBlend mode="normal" in2="BackgroundImageFix" result="effect1_dropShadow_751_10089"/>
<feBlend mode="normal" in="SourceGraphic" in2="effect1_dropShadow_751_10089" result="shape"/>
<feColorMatrix in="SourceAlpha" type="matrix" values="0 0 0 0 0 0 0 0 0 0 0 0 0 0 0 0 0 0 127 0" result="hardAlpha"/>
<feOffset dy="9.10637"/>
<feGaussianBlur stdDeviation="4.55318"/>
<feComposite in2="hardAlpha" operator="arithmetic" k2="-1" k3="1"/>
<feColorMatrix type="matrix" values="0 0 0 0 1 0 0 0 0 0.946 0 0 0 0 0.8052 0 0 0 1 0"/>
<feBlend mode="normal" in2="shape" result="effect2_innerShadow_751_10089"/>
<feColorMatrix in="SourceAlpha" type="matrix" values="0 0 0 0 0 0 0 0 0 0 0 0 0 0 0 0 0 0 127 0" result="hardAlpha"/>
<feOffset dy="-9.10637"/>
<feGaussianBlur stdDeviation="4.55318"/>
<feComposite in2="hardAlpha" operator="arithmetic" k2="-1" k3="1"/>
<feColorMatrix type="matrix" values="0 0 0 0 0.8475 0 0 0 0 0.714559 0 0 0 0 0.608206 0 0 0 1 0"/>
<feBlend mode="normal" in2="effect2_innerShadow_751_10089" result="effect3_innerShadow_751_10089"/>
</filter>
<linearGradient id="paint0_linear_751_10089" x1="219.267" y1="92.5291" x2="219.267" y2="365.529" gradientUnits="userSpaceOnUse">
<stop stop-color="#E0BDA1"/>
<stop offset="1" stop-color="#FFEBC8"/>
</linearGradient>
</defs>
</svg>
