<svg width="439" height="417" viewBox="0 0 439 417" fill="none" xmlns="http://www.w3.org/2000/svg">
<g filter="url(#filter0_d_751_10098)">
<path d="M373.632 89.5114C372.065 77.8378 370.495 71.0666 370.495 71.0666C277.628 91.1933 219.708 26.063 219.266 25.8022C218.811 26.063 160.909 91.1933 68.0414 71.0666C68.0414 71.0666 66.471 77.8378 64.9005 89.5114C57.3261 145.949 49.7473 317.076 219.266 392.802C388.789 317.076 381.21 145.949 373.632 89.5114Z" fill="#FFF9F5"/>
<path d="M68.7501 72.5127C68.7694 72.4209 68.7877 72.3342 68.8051 72.2525C115.073 82.0104 152.661 70.7491 178.775 56.9641C191.92 50.0248 202.162 42.4449 209.147 36.5811C212.641 33.6487 215.321 31.1445 217.145 29.3629C218.057 28.4719 218.754 27.7622 219.231 27.2709C219.242 27.259 219.254 27.2472 219.265 27.2356C219.276 27.2471 219.287 27.2587 219.299 27.2704C219.775 27.7619 220.472 28.4717 221.383 29.3627C223.206 31.1445 225.886 33.6487 229.38 36.5811C236.366 42.4449 246.608 50.0248 259.754 56.9641C285.871 70.7491 323.463 82.0104 369.731 72.2525C369.749 72.3341 369.767 72.4209 369.786 72.5126C369.956 73.3228 370.2 74.5266 370.493 76.0949C371.078 79.2316 371.86 83.8259 372.64 89.6443L373.632 89.5114L372.64 89.6445C376.42 117.793 380.195 174.521 361.907 233.628C343.659 292.604 303.448 353.963 219.266 391.707C135.086 353.963 94.8758 292.604 76.6286 233.628C58.3406 174.521 62.1139 117.793 65.8916 89.6447C66.6744 83.8262 67.4568 79.2318 68.0429 76.0951C68.3359 74.5267 68.5798 73.3229 68.7501 72.5127Z" stroke="#FFF9F5" stroke-width="2"/>
</g>
<g opacity="0.4" filter="url(#filter1_dii_751_10098)">
<path d="M334.428 119.193C333.26 110.51 332.088 105.473 332.088 105.473C262.806 120.445 219.596 71.9962 219.266 71.8022C218.926 71.9962 175.73 120.445 106.448 105.473C106.448 105.473 105.276 110.51 104.105 119.193C98.454 161.176 92.7999 288.472 219.266 344.802C345.736 288.472 340.082 161.176 334.428 119.193Z" fill="url(#paint0_linear_751_10098)"/>
<path d="M106.699 109.261C106.91 108.132 107.087 107.258 107.213 106.658C141.688 113.839 169.702 105.46 189.176 95.2096C199.002 90.0377 206.657 84.3883 211.88 80.0174C214.491 77.8314 216.496 75.9643 217.86 74.6351C218.449 74.0615 218.919 73.5884 219.265 73.2339C219.612 73.5885 220.081 74.0615 220.669 74.635C222.033 75.9642 224.038 77.8314 226.649 80.0174C231.872 84.3884 239.527 90.0377 249.354 95.2097C268.831 105.46 296.848 113.839 331.322 106.658C331.448 107.258 331.625 108.132 331.837 109.261C332.273 111.59 332.855 115.003 333.437 119.327C336.254 140.247 339.066 182.404 325.438 226.321C311.851 270.107 281.923 315.661 219.266 343.707C156.612 315.661 126.684 270.107 113.097 226.321C99.4689 182.404 102.28 140.248 105.096 119.327C105.679 115.004 106.262 111.59 106.699 109.261Z" stroke="white" stroke-width="2"/>
</g>
<path d="M369.877 136.803C346.839 94.7829 303.817 64.8829 252.481 61.0765C220.528 58.7226 190.227 66.8362 164.935 82.5124C188.324 69.0399 215.72 62.2285 244.518 64.332C295.954 68.1384 338.725 99.6411 360.011 143.414C363.266 141.211 366.522 139.007 369.877 136.803Z" fill="#FFC394"/>
<circle r="25" transform="matrix(-1 0 0 1 246.937 163)" fill="#FFF9F5"/>
<path d="M269.436 167.375H169.436V258H269.436V167.375ZM266.311 170.861V254.511H172.563V170.861H266.311ZM169.437 158V164.25H269.437V158H169.437ZM261.624 159.563C262.487 159.563 263.186 160.262 263.186 161.125C263.186 161.988 262.487 162.687 261.624 162.687C260.761 162.687 260.062 161.988 260.062 161.125C260.062 160.262 260.761 159.563 261.624 159.563ZM252.249 159.563C253.112 159.563 253.811 160.262 253.811 161.125C253.811 161.988 253.112 162.687 252.249 162.687C251.386 162.687 250.687 161.988 250.687 161.125C250.687 160.262 251.386 159.563 252.249 159.563ZM242.874 159.563C243.737 159.563 244.436 160.262 244.436 161.125C244.436 161.988 243.737 162.687 242.874 162.687C242.011 162.687 241.312 161.988 241.312 161.125C241.312 160.262 242.011 159.563 242.874 159.563Z" fill="#EB770D"/>
<path d="M225.817 197.063L225.818 202.636L225.608 202.707C225.16 202.867 224.719 203.043 224.285 203.236L223.64 203.536L223.462 203.627L219.562 199.729L211.165 208.126L215.065 212.023L214.972 212.204C214.764 212.63 214.571 213.065 214.395 213.505L214.143 214.172L214.074 214.38L208.5 214.381V226.62L214.074 226.619L214.143 226.829C214.303 227.276 214.479 227.718 214.672 228.151L214.972 228.796L215.065 228.976L211.165 232.874L219.562 241.272L223.462 237.372L223.641 237.464C224.066 237.672 224.501 237.865 224.941 238.042L225.608 238.293L225.818 238.362L225.817 243.938H238.056V238.362L238.265 238.293C238.712 238.134 239.154 237.957 239.587 237.766L240.232 237.464L240.413 237.372L244.31 241.272L252.708 232.874L248.809 228.976L248.9 228.796C249.108 228.37 249.301 227.937 249.478 227.495L249.729 226.828L249.8 226.619L255.374 226.62V214.381L249.8 214.38L249.729 214.171C249.57 213.724 249.393 213.283 249.202 212.849L248.9 212.204L248.809 212.023L252.708 208.126L244.31 199.729L240.413 203.627L240.232 203.536C239.806 203.328 239.373 203.135 238.931 202.959L238.264 202.707L238.056 202.636V197.063L225.817 197.063ZM228.942 200.188H234.931L234.93 204.983L236.083 205.295C237.233 205.609 238.34 206.051 239.385 206.614L239.903 206.905L240.945 207.517L244.311 204.147L248.289 208.125L244.92 211.492L245.532 212.534C246.134 213.558 246.617 214.646 246.973 215.782L247.14 216.354L247.453 217.506L252.248 217.505V223.494H247.453L247.14 224.647C246.827 225.797 246.385 226.904 245.823 227.949L245.532 228.467L244.92 229.509L248.289 232.873L244.311 236.851L240.945 233.484L239.903 234.096C238.879 234.698 237.789 235.181 236.654 235.537L236.083 235.704L234.93 236.017L234.931 240.812H228.942V236.017L227.79 235.704C226.639 235.391 225.532 234.949 224.487 234.387L223.97 234.096L222.928 233.484L219.563 236.851L215.585 232.873L218.953 229.509L218.341 228.467C217.739 227.442 217.255 226.353 216.899 225.218L216.732 224.647L216.419 223.494H211.624V217.505L216.419 217.506L216.732 216.354C217.046 215.203 217.487 214.096 218.05 213.051L218.341 212.534L218.953 211.492L215.585 208.125L219.563 204.147L222.928 207.517L223.97 206.905C224.994 206.303 226.082 205.819 227.218 205.463L227.79 205.295L228.942 204.983L228.942 200.188ZM231.937 209.562C225.895 209.562 220.999 214.459 220.999 220.5C220.999 226.541 225.895 231.437 231.937 231.437C237.977 231.437 242.874 226.541 242.874 220.5C242.874 214.459 237.977 209.562 231.937 209.562ZM231.937 212.688C236.25 212.688 239.748 216.186 239.748 220.5C239.748 224.814 236.25 228.312 231.937 228.312C227.622 228.312 224.124 224.814 224.124 220.5C224.124 216.186 227.622 212.688 231.937 212.688ZM195.061 183.002V185.816C194.144 186.053 193.277 186.416 192.481 186.886L190.49 184.894L186.955 188.43L188.946 190.421C188.476 191.217 188.113 192.083 187.877 193.001H185.062V198.001L187.877 198C188.113 198.918 188.476 199.785 188.946 200.58L186.955 202.572L190.49 206.107L192.481 204.117C193.278 204.587 194.144 204.95 195.061 205.186V208.001H200.062L200.063 205.185C200.979 204.95 201.846 204.587 202.641 204.117L204.632 206.107L208.167 202.572L206.177 200.58C206.647 199.785 207.01 198.918 207.247 198L210.061 198.001V193.001H207.247C207.01 192.083 206.647 191.217 206.177 190.421L208.167 188.43L204.632 184.894L202.641 186.886C201.846 186.416 200.979 186.053 200.063 185.816L200.062 183.002L195.061 183.002ZM197.561 200.501C194.8 200.501 192.562 198.263 192.562 195.501C192.562 192.739 194.8 190.501 197.561 190.501C200.323 190.501 202.561 192.74 202.561 195.501C202.561 198.263 200.323 200.501 197.561 200.501Z" fill="#EB770D"/>
<defs>
<filter id="filter0_d_751_10098" x="0.187813" y="-33.0103" width="438.159" height="490.159" filterUnits="userSpaceOnUse" color-interpolation-filters="sRGB">
<feFlood flood-opacity="0" result="BackgroundImageFix"/>
<feColorMatrix in="SourceAlpha" type="matrix" values="0 0 0 0 0 0 0 0 0 0 0 0 0 0 0 0 0 0 127 0" result="hardAlpha"/>
<feOffset dy="2.7667"/>
<feGaussianBlur stdDeviation="30.7896"/>
<feComposite in2="hardAlpha" operator="out"/>
<feColorMatrix type="matrix" values="0 0 0 0 0.00649305 0 0 0 0 0.0221214 0 0 0 0 0.0458333 0 0 0 0.09 0"/>
<feBlend mode="normal" in2="BackgroundImageFix" result="effect1_dropShadow_751_10098"/>
<feBlend mode="normal" in="SourceGraphic" in2="effect1_dropShadow_751_10098" result="shape"/>
</filter>
<filter id="filter1_dii_751_10098" x="40.1878" y="12.9897" width="358.159" height="396.159" filterUnits="userSpaceOnUse" color-interpolation-filters="sRGB">
<feFlood flood-opacity="0" result="BackgroundImageFix"/>
<feColorMatrix in="SourceAlpha" type="matrix" values="0 0 0 0 0 0 0 0 0 0 0 0 0 0 0 0 0 0 127 0" result="hardAlpha"/>
<feOffset dy="2.7667"/>
<feGaussianBlur stdDeviation="30.7896"/>
<feComposite in2="hardAlpha" operator="out"/>
<feColorMatrix type="matrix" values="0 0 0 0 0.00649305 0 0 0 0 0.0221214 0 0 0 0 0.0458333 0 0 0 0.09 0"/>
<feBlend mode="normal" in2="BackgroundImageFix" result="effect1_dropShadow_751_10098"/>
<feBlend mode="normal" in="SourceGraphic" in2="effect1_dropShadow_751_10098" result="shape"/>
<feColorMatrix in="SourceAlpha" type="matrix" values="0 0 0 0 0 0 0 0 0 0 0 0 0 0 0 0 0 0 127 0" result="hardAlpha"/>
<feOffset dy="9.10637"/>
<feGaussianBlur stdDeviation="4.55318"/>
<feComposite in2="hardAlpha" operator="arithmetic" k2="-1" k3="1"/>
<feColorMatrix type="matrix" values="0 0 0 0 1 0 0 0 0 0.946 0 0 0 0 0.8052 0 0 0 1 0"/>
<feBlend mode="normal" in2="shape" result="effect2_innerShadow_751_10098"/>
<feColorMatrix in="SourceAlpha" type="matrix" values="0 0 0 0 0 0 0 0 0 0 0 0 0 0 0 0 0 0 127 0" result="hardAlpha"/>
<feOffset dy="-9.10637"/>
<feGaussianBlur stdDeviation="4.55318"/>
<feComposite in2="hardAlpha" operator="arithmetic" k2="-1" k3="1"/>
<feColorMatrix type="matrix" values="0 0 0 0 0.8475 0 0 0 0 0.714559 0 0 0 0 0.608206 0 0 0 1 0"/>
<feBlend mode="normal" in2="effect2_innerShadow_751_10098" result="effect3_innerShadow_751_10098"/>
</filter>
<linearGradient id="paint0_linear_751_10098" x1="219.267" y1="71.8022" x2="219.267" y2="344.802" gradientUnits="userSpaceOnUse">
<stop stop-color="#E0BDA1"/>
<stop offset="1" stop-color="#FFEBC8"/>
</linearGradient>
</defs>
</svg>
